<svg xmlns="http://www.w3.org/2000/svg" viewBox="0 0 39.6 34.62">
  <title>contao</title>
  <g id="Layer_2" data-name="Layer 2">
    <g id="Layer_1-2" data-name="Layer 1">
      <path d="M32.8,34.62c0-.1.1-.1.1-.2a14.63,14.63,0,0,0,3.9-7.6,18.6,18.6,0,0,0,.3-4.7v-.2l-1.1.2-9.3,2a.22.22,0,0,0-.2.2,6.81,6.81,0,0,1-.7,2.8,3.79,3.79,0,0,1-2.2,2.1,7,7,0,0,1-3.5.6,4.81,4.81,0,0,1-3-1.5,7,7,0,0,1-1.3-2.4,42.38,42.38,0,0,1-1.7-6.1c-.4-1.7-.7-3.5-1-5.2a28.45,28.45,0,0,1-.4-4.1,4.66,4.66,0,0,1,1.1-3.4,5.8,5.8,0,0,1,3-1.8,7.72,7.72,0,0,1,1.5-.2,5,5,0,0,1,4.2,2c.3.4.6.9.9,1.4.1.1.1.1.3.1l10.2-2.2h.2a17.76,17.76,0,0,0-4-6.4H37a2.56,2.56,0,0,1,2.6,2.5v29.4a2.59,2.59,0,0,1-2.2,2.6h-.1Z"/>
      <path d="M2.7,0H7.1L6.8.2A16.64,16.64,0,0,0,3,5.5a11.21,11.21,0,0,0-.9,3.6c0,.6-.1,1.2-.1,1.8a14.52,14.52,0,0,0,.2,3.6c.6,3.7,1.4,7.4,2.3,11.1A28.52,28.52,0,0,0,6.3,31a16.28,16.28,0,0,0,2.3,3.5l.1.1h-6A2.59,2.59,0,0,1,.1,32.7c0-.1-.1-.3-.1-.4V2.22a2.45,2.45,0,0,1,1.9-2c.1,0,.3-.1.4-.1Z"/>
    </g>
  </g>
</svg>
