<svg xmlns="http://www.w3.org/2000/svg" viewBox="0 0 39.6 39.6">
  <title>wordpress</title>
  <g id="Layer_2" data-name="Layer 2">
    <g id="Layer_1-2" data-name="Layer 1">
      <path d="M36.63,19.8a16.87,16.87,0,0,0-.8-5l-7.5,19.5A16.87,16.87,0,0,0,36.63,19.8Z"/>
      <path d="M14.53,35.7a17,17,0,0,0,10.9-.1l-5.1-13.3-5.8,13.4Z"/>
      <path d="M3.73,15a16.85,16.85,0,0,0,7.9,19.4Z"/>
      <path d="M12.33,13.9h-.7a1.36,1.36,0,0,0-1.4,1.6l5.6,14,3.8-9-2.1-5.3a3.7,3.7,0,0,0-2.9-1.4v-.72h11.8v.8l-1.2.1a1.06,1.06,0,0,0-1.19.91s0,.06,0,.09v.4L29.13,29l1.5-3.8c2.6-5.9,1-10.2,1-10.2-2.6-5.3.7-6.1.7-6.1a1.27,1.27,0,0,0,.6-.1A16.8,16.8,0,0,0,9.25,6.86l0,0a17.64,17.64,0,0,0-4.6,6.2l7.9-.1-.2.9Z"/>
      <path d="M38.73,19.7A18.9,18.9,0,1,1,19.8.8,18.9,18.9,0,0,1,38.73,19.7ZM19.8,0A19.8,19.8,0,1,0,39.6,19.8h0A19.85,19.85,0,0,0,19.8,0Z"/>
    </g>
  </g>
</svg>
