<svg xmlns="http://www.w3.org/2000/svg" viewBox="0 0 36.34 50.17">
  <title>opt</title>
  <g id="Layer_2" data-name="Layer 2">
    <g id="Layer_1-2" data-name="Layer 1">
      <g>
        <path d="M24.83,8.77a4.55,4.55,0,0,0-1.9.8,3.65,3.65,0,0,0-1.6,4,7.36,7.36,0,0,0,.4,1.4A4.49,4.49,0,0,0,26,17.15a4.24,4.24,0,0,0-1.2-8.4Z"/>
        <path d="M36,5.87a15.47,15.47,0,0,0-.6-3.1A3.63,3.63,0,0,0,32.3.07a5.37,5.37,0,0,0-2.2.1l-3.9.9A16.6,16.6,0,0,0,21.4,3a9.25,9.25,0,0,0-3.3,2.9c-.6.9-1.2,1.7-1.7,2.6-1.5,2.5-2.9,5.1-4.3,7.6a.22.22,0,0,1-.2.2,15.44,15.44,0,0,0-3,.4A4.68,4.68,0,0,0,6,18.47c-.5.7-1.1,1.4-1.6,2.1-1,1.3-2,2.7-3,4.1a.1.1,0,0,0-.1.1.63.63,0,0,0,.2.8.76.76,0,0,0,.5.2,4.1,4.1,0,0,0,1.1.1l5.3.2c.3,0,.3-.1.3.3s-.1.9-.1,1.3a1,1,0,0,0,.6,1.1v.1l-5.5,4.6,3.2-.4c-2.3,2.8-4.6,5.4-6.9,8.2L5.9,39a1.69,1.69,0,0,0-.2.5L1.9,49.77c0,.1-.1.3-.1.4.1-.1.1-.2.2-.4,2.3-2.8,4.7-5.6,7-8.4.8-1,1.7-2,2.6-3A.78.78,0,0,1,12,38a10.26,10.26,0,0,1,.4,1.4c.1.4.2.9.3,1.3.1.1.1.2.2.3s.1-.1.2-.2l.3-.6,2.4-6.5.1-.3c.1,0,.1.1.2.1a1,1,0,0,0,1.3.1,11.73,11.73,0,0,1,1.1-.5c.2-.1.3,0,.4.2.6,1.6,1.2,3.1,1.9,4.7a9.15,9.15,0,0,0,.7,1.4c0,.1,0,.2.1.2a.63.63,0,0,0,.89-.08v0c.1-.1.2-.3.3-.4.5-.7,1-1.4,1.5-2.2.9-1.4,1.8-2.9,2.7-4.3a3.61,3.61,0,0,0,.6-2c-.1-.5-.1-1.1-.2-1.6a19.44,19.44,0,0,0-.5-2,.47.47,0,0,1,.1-.6c.8-.8,1.5-1.7,2.3-2.6,1.5-1.8,3-3.6,4.5-5.5a12,12,0,0,0,2-3.9,14.87,14.87,0,0,0,.5-3.6A20.2,20.2,0,0,0,36,5.87Zm-9.6,12.5a5.63,5.63,0,0,1-1.9-11.1,5.74,5.74,0,0,1,6.5,4.6,5.59,5.59,0,0,1-4.51,6.49H26.4Z"/>
      </g>
    </g>
  </g>
</svg>
