<?xml version="1.0" encoding="utf-8"?>
<!-- Generator: Adobe Illustrator 20.0.0, SVG Export Plug-In . SVG Version: 6.00 Build 0)  -->
<svg version="1.1" id="Layer_1" xmlns="http://www.w3.org/2000/svg" xmlns:xlink="http://www.w3.org/1999/xlink" x="0px" y="0px"
	 viewBox="0 0 376.3 386.5" style="enable-background:new 0 0 376.3 386.5;" xml:space="preserve">
<style type="text/css">
	.st0{opacity:7.000000e-02;}
	.st1{fill:#42D5FF;}
	.st2{fill:#58BCFF;}
	.st3{fill:#033863;}
	.st4{fill:#AF22AF;}
	.st5{fill:#FAC2BC;}
	.st6{fill:#F68E98;}
	.st7{fill:#A61DFF;}
	.st8{fill:#F58F96;}
	.st9{fill:#FFDEDC;}
	.st10{fill:#684321;}
	.st11{fill:#FFFFFF;}
</style>
<g>
	<g>
		<polygon class="st0" points="364.8,158.2 182.8,356 154.3,220 215.3,154.5 		"/>
		<path class="st1" d="M109,386.5h-3.5c-57.9,0-105.3-47.4-105.3-105.3v-176C0.3,47.4,47.6,0,105.5,0h3.5
			c57.9,0,105.3,47.4,105.3,105.3v176C214.3,339.1,166.9,386.5,109,386.5z"/>
		<g>
			<path class="st2" d="M109,54h-3.5C47.6,54,0.3,101.4,0.3,159.3v122c0,44.9,28.5,83.4,68.3,98.5c-1-4.7-1.8-9.4-1.8-9.4l49-29.6
				l6.3,44.9c51.8-6.5,92.2-51,92.2-104.4v-122C214.3,101.4,166.9,54,109,54z"/>
			<path class="st3" d="M66.8,370.3c0,0,0.8,4.8,1.8,9.4c11.5,4.4,24,6.8,37,6.8h3.5c4.4,0,8.8-0.3,13.1-0.8l-6.3-44.9L66.8,370.3z"
				/>
		</g>
		<path class="st4" d="M50.6,198.3c0,0-15.8,6.4-19.4,7.5c6.2,5.1,24,74.8,24,74.8l5,73.5l7-2.3l51.3-27.8l-4-108.5l-20-19
			C94.5,196.5,58.5,194.1,50.6,198.3z"/>
		<path class="st5" d="M46.3,179.4c0,0,0.3,12.2,0.3,22.1s40.1,20,40.1,4c0-5.6,0.4-3.1-3.5-9.1C78.5,189.4,55.2,178.3,46.3,179.4z"
			/>
		<path class="st6" d="M0,235.8V286c0,70.2,63.1,91.5,70.8,94.5c0-24.7-2.2-84.2-2.7-102.4c-0.5-18.2,2.8-48.4-36.8-72.3
			c-10.3,3.7-13.6,5.7-19.6,8.2C3.6,217.4-0.4,222.3,0,235.8z"/>
		<path class="st7" d="M327.8,38c0,0-11,0-74,0s-60.5,58-61,63s1.4,33.3-12.5,43.5c-37,27,3.5,29.5,3.5,29.5s86.2-0.8,143.7-0.8
			s48.3-56.5,48.3-92C375.8,55.8,355.8,38,327.8,38z M311.3,127.3h-77.8c-4,0-7.3-3.3-7.3-7.3s3.3-7.3,7.3-7.3h77.8
			c4,0,7.3,3.3,7.3,7.3S315.3,127.3,311.3,127.3z M331.5,101h-98c-4,0-7.3-3.3-7.3-7.3s3.3-7.3,7.3-7.3h98c4,0,7.3,3.3,7.3,7.3
			S335.5,101,331.5,101z"/>
		<path class="st8" d="M109.3,188.7c0,0,16-9.2,21.5,7.3s13.8,45.5,16.6,51.2c2.8,5.7,7.6,22.3,18.3,10.7
			c10.8-11.6,32.5-30.2,33.3-30.2c0.6,4.3,7.3,22.3,10.9,26.6c-10.3,10.2-37.3,37.9-42.1,41.9s-16.9,19.6-31.4-6.6
			c-0.1,14.8,0,61.9,0,61.9c-0.6,14-1.1,31.3-21.1,34.8L111,242.8c-0.8-21.3-8-37.3-18-43.3C107,192.8,109.3,188.7,109.3,188.7z"/>
		<path class="st9" d="M113.6,124.8c0,0,11.2,10.8,10.8,31.5s-10.8,44.2-35,43.5c-24.2-0.7-35.5-11-45.3-25.3s-15.3-35.2-0.7-42.7
			C58.1,124.3,112.3,116.7,113.6,124.8z"/>
		<path class="st10" d="M46.4,181.2c0,0-3.7,4.1-9.9-12.2s-16.9-56.2,19.3-70.7s67.5-25.8,74-7s-7.3,48.8-43.2,40.5
			c-18.7-6.7-30-2.2-26.5,34.3c-3.2-0.2-5.3,0-5.3,0s-1.6-24.4-11.4-17.7s-6.5,16.1,5.9,25.6C51,176.6,48.1,180.6,46.4,181.2z"/>
		<path class="st11" d="M80.8,176l32.8,0.1c0,0-3,16.5-15.3,16.3S83.8,187.4,80.8,176z"/>
	</g>
	<path class="st9" d="M196.1,230.9c0,0,6.8-4.7,6.8-6.6s2.1-17.3,0.9-21.8c0-3.5,8.2-0.6,8.3,7.4c-0.2,4-0.4,5.4,1.6,3
		c2-2.4,11.8-12.9,17.2-5c5.4,8,8.8,15.9-0.3,24.5c-9.1,8.6-20.4,22.4-23.4,22.4C204.2,254.8,196.1,230.9,196.1,230.9z"/>
</g>
</svg>
