<?xml version="1.0" encoding="utf-8"?>
<!-- Generator: Adobe Illustrator 21.1.0, SVG Export Plug-In . SVG Version: 6.00 Build 0)  -->
<svg version="1.1" id="Calque_1" xmlns="http://www.w3.org/2000/svg" xmlns:xlink="http://www.w3.org/1999/xlink" x="0px" y="0px"
	 viewBox="0 0 180 50" style="enable-background:new 0 0 180 50;" xml:space="preserve">
<style type="text/css">
	.st0{fill:#66656F;}
	.st1{fill:#F18913;}
	.st2{fill:#239089;}
	.st3{fill:#374293;}
</style>
<g>
	<g>
		<path class="st0" d="M68.7,20.6h1.3l4.4,11.5h-1.8l-0.9-2.5h-4.8L66,32.1h-1.8L68.7,20.6z M71.1,28.1L69.3,23l-1.8,5.1H71.1z"/>
		<path class="st0" d="M81.3,23.9h1.6v1c0.5-0.7,1.4-1.1,2.4-1.1c2.2,0,3.4,1.9,3.4,4.2c0,2.3-1.2,4.2-3.4,4.2c-1,0-1.8-0.4-2.4-1.1
			v4.5h-1.6V23.9z M87.1,28c0-1.5-0.7-2.8-2.2-2.8c-1.5,0-2.2,1.3-2.2,2.8c0,1.5,0.7,2.8,2.2,2.8C86.4,30.8,87.1,29.5,87.1,28z"/>
		<path class="st0" d="M96.3,29.9v-4.6H95v-1.3h1.3V22l1.5-1.3v3.2h2.1v1.3h-2.1v4.5c0,0.8,0.4,1.2,1,1.2c0.3,0,0.7-0.1,1-0.3V32
			c-0.2,0.1-0.7,0.2-1.3,0.2C97,32.2,96.3,31.3,96.3,29.9z"/>
		<path class="st0" d="M107.2,20.6h1.7v1.7h-1.7V20.6z M107.2,23.9h1.6v8.1h-1.6V23.9z"/>
		<path class="st1" d="M116,29l1.6-0.4c0.2,1.5,1.3,2.2,2.6,2.2c1.3,0,2.1-0.7,2.1-1.8c0-2.7-5.6-1.9-5.6-5.5c0-1.9,1.5-3,3.3-3
			c1.4,0,2.6,0.6,3.3,1.9l-1.3,0.8c-0.4-0.8-1.2-1.3-2.1-1.3c-0.9,0-1.7,0.6-1.7,1.5c0,2.4,5.5,1.7,5.5,5.5c0,2.1-1.7,3.4-3.8,3.4
			C118.3,32.2,116.4,31.1,116,29z"/>
		<path class="st0" d="M131.3,20.6h1.6v7.3l3.4-3.9h2l-2.8,3.1l3.3,5.1h-1.9l-2.4-4.1l-1.5,1.7v2.4h-1.6V20.6z"/>
		<path class="st0" d="M145.4,20.6h1.7v1.7h-1.7V20.6z M145.5,23.9h1.6v8.1h-1.6V23.9z"/>
		<path class="st0" d="M155,30.4v-9.9h1.6v9.8c0,0.1,0.1,0.5,0.5,0.5c0.2,0,0.5,0,0.7-0.1v1.3c-0.3,0.1-0.8,0.2-1.3,0.2
			C155.4,32.2,155,31.6,155,30.4z"/>
		<path class="st0" d="M164.8,30.4v-9.9h1.6v9.8c0,0.1,0.1,0.5,0.5,0.5c0.2,0,0.5,0,0.7-0.1v1.3c-0.3,0.1-0.8,0.2-1.3,0.2
			C165.2,32.2,164.8,31.6,164.8,30.4z"/>
		<path class="st0" d="M173.8,30.1l1.3-0.6c0.3,0.7,0.8,1.4,1.9,1.4c0.9,0,1.5-0.5,1.5-1.2c0-1.8-4.2-0.8-4.2-3.6
			c0-1.6,1.3-2.4,2.8-2.4c1.3,0,2.3,0.7,2.9,1.7l-1.2,0.7c-0.3-0.6-0.8-1.1-1.7-1.1c-0.8,0-1.2,0.4-1.2,0.9c0,1.6,4.3,0.7,4.3,3.7
			c0,1.8-1.5,2.6-3,2.6C175.4,32.2,174.2,31.2,173.8,30.1z"/>
	</g>
	<g>
		<path class="st0" d="M23.1,35.5c-1.1-0.2-2.3-0.4-3.6-0.4c-0.9,0-1.8,0.1-2.7,0.3l0.2,0.5l2.5,6.9c0.1,0.2,0.3,0.4,0.5,0.4h5.3
			c0.4,0,0.7-0.4,0.5-0.8L23.1,35.5z"/>
		<path class="st0" d="M6.1,30.3L6.1,30.3L6.1,30.3l1.7-4.1l2.8-7.6l4.3,11.8l0.4,0.9c1.9-0.4,4-0.5,6.2,0.1L13,10
			c-0.1-0.2-0.3-0.3-0.5-0.3h-1.7c-0.2,0-0.4,0.1-0.5,0.3L0,35.1c0.9-0.4,1.9-0.8,2.9-1.2C4.4,33.1,5.6,31.8,6.1,30.3z"/>
		<path class="st1" d="M11.9,32.7C11.9,32.7,11.9,32.7,11.9,32.7C10,33.1,0.2,36.4,0.2,36.4c0.1,0,0.5,0,0.7,0c0,0,0,0,0,0
			c7.2,0,13.2-2.6,18.7-2.6c4.1,0,7.4,1.2,8.7,1.7c0.1,0.1,0.2-0.1,0.1-0.2C23.1,30.6,15.9,31.6,11.9,32.7z"/>
		<path class="st0" d="M36.5,18.1c0-0.4,0.1-0.7,0.2-1c0,0,0,0,0,0s0,0,0-0.1c0,0,0,0,0,0c0-0.1,0.1-0.1,0.1-0.2
			c0.1-0.3,0.3-0.5,0.5-0.7c0.1-0.1,0.1-0.2,0.2-0.3c0,0,0,0,0.1-0.1c0.1-0.1,0.2-0.2,0.3-0.3c0,0,0,0,0,0c0,0,0,0,0,0
			c1.2-1,2.8-1.5,4.4-1.6c0.1,0,0.2,0,0.3,0c0,0,0.1,0,0.1,0c2.1-0.1,5,0.4,8.8,1.8c-0.1-0.2-0.2-0.4-0.2-0.6l0,0
			c0-0.1-0.1-0.1-0.1-0.2c-0.5-0.9-1-1.5-1-1.5l0,0c-2.3-2.9-5.6-4.2-9.1-4.2c0,0,0,0,0,0c0,0,0,0,0,0c-5.6,0-10.4,3.3-10.4,9.2
			c0,0.5,0,0.9,0.1,1.4h0c1.3,9.3,16.1,7.5,16.1,14.2c0,4.5-4.4,5.4-7.1,5.5c-3.3,0.2-6.7-1.1-9.1-2.2c-0.2-0.1-0.5,0.1-0.3,0.4
			c2.2,4,6.4,5.9,11,5.9c6.4,0,11.6-3.8,11.6-10.1C52.7,22.3,36.5,24.4,36.5,18.1z"/>
		<path class="st1" d="M50.8,16.3c-3.7-1.4-6.7-1.7-8.8-1.6c0,0,2.6,0.9,4.8,2c1.6,0.8,2.2,1.3,3.7,1.4c0,0,0,0,0,0
			c0.5,0,1-0.4,0.9-1c0,0,0,0,0,0C51.4,16.8,51.2,16.5,50.8,16.3z"/>
	</g>
</g>
</svg>
