<?xml version="1.0" encoding="UTF-8"?>
<svg xmlns="http://www.w3.org/2000/svg" xmlns:xlink="http://www.w3.org/1999/xlink" width="639px" height="401px" viewBox="0 0 639 401">
  <!-- Generator: Sketch 61.2 (89653) - https://sketch.com -->
  <title>Wordpress</title>
  <desc>Created with Sketch.</desc>
  <defs>
    <linearGradient x1="87.5424706%" y1="29.054637%" x2="8.1763451%" y2="75.8958124%" id="linearGradient-1">
      <stop stop-color="#C9F2EE" offset="0%"></stop>
      <stop stop-color="#AEE9E6" offset="100%"></stop>
    </linearGradient>
    <linearGradient x1="72.0405506%" y1="2.05078125%" x2="47.1800595%" y2="100%" id="linearGradient-2">
      <stop stop-color="#FDDB82" offset="0%"></stop>
      <stop stop-color="#F5C344" offset="100%"></stop>
    </linearGradient>
    <linearGradient x1="34.5778138%" y1="18.5478074%" x2="106.460989%" y2="52.9972449%" id="linearGradient-3">
      <stop stop-color="#FDDB82" offset="0%"></stop>
      <stop stop-color="#E4B337" offset="100%"></stop>
    </linearGradient>
    <linearGradient x1="72.0405506%" y1="8.06326171%" x2="47.1800595%" y2="93.7303666%" id="linearGradient-4">
      <stop stop-color="#8DE483" offset="0%"></stop>
      <stop stop-color="#7BCB71" offset="100%"></stop>
    </linearGradient>
    <linearGradient x1="37.5208943%" y1="-4.99888938%" x2="64.4146089%" y2="52.7683674%" id="linearGradient-5">
      <stop stop-color="#495F76" offset="0%"></stop>
      <stop stop-color="#233141" offset="100%"></stop>
    </linearGradient>
    <linearGradient x1="46.6541398%" y1="-4.99888938%" x2="53.8648015%" y2="52.7683674%" id="linearGradient-6">
      <stop stop-color="#495F76" offset="0%"></stop>
      <stop stop-color="#233141" offset="100%"></stop>
    </linearGradient>
    <linearGradient x1="76.7037528%" y1="8.69315011%" x2="22.9910714%" y2="95.0823103%" id="linearGradient-7">
      <stop stop-color="#77E0BC" offset="0%"></stop>
      <stop stop-color="#5AC4CC" offset="100%"></stop>
    </linearGradient>
    <linearGradient x1="45.736521%" y1="2.84217094e-12%" x2="45.736521%" y2="100%" id="linearGradient-8">
      <stop stop-color="#C0C8D1" offset="0%"></stop>
      <stop stop-color="#8F969D" offset="100%"></stop>
    </linearGradient>
    <linearGradient x1="55.5855106%" y1="8.69315011%" x2="44.3506571%" y2="95.0823103%" id="linearGradient-9">
      <stop stop-color="#77E0BC" offset="0%"></stop>
      <stop stop-color="#5AC4CC" offset="100%"></stop>
    </linearGradient>
    <linearGradient x1="35.8816138%" y1="36.8395032%" x2="66.5693225%" y2="70.7201467%" id="linearGradient-10">
      <stop stop-color="#77E0BC" offset="0%"></stop>
      <stop stop-color="#5AC4CC" offset="100%"></stop>
    </linearGradient>
    <linearGradient x1="50%" y1="42.13604%" x2="79.4995893%" y2="79.256997%" id="linearGradient-11">
      <stop stop-color="#77E0BC" offset="0%"></stop>
      <stop stop-color="#5AC4CC" offset="100%"></stop>
      <stop stop-color="#5AC4CC" offset="100%"></stop>
    </linearGradient>
    <linearGradient x1="84.3278372%" y1="42.4319215%" x2="49.4326645%" y2="89.8003858%" id="linearGradient-12">
      <stop stop-color="#77E0BC" offset="0%"></stop>
      <stop stop-color="#5AC4CC" offset="100%"></stop>
      <stop stop-color="#5AC4CC" offset="100%"></stop>
    </linearGradient>
    <linearGradient x1="1.08155988%" y1="59.943552%" x2="86.5289741%" y2="48.2720111%" id="linearGradient-13">
      <stop stop-color="#495F76" offset="0%"></stop>
      <stop stop-color="#233141" offset="100%"></stop>
    </linearGradient>
    <linearGradient x1="50%" y1="50.684828%" x2="54.2448531%" y2="59.3445378%" id="linearGradient-14">
      <stop stop-color="#495C70" offset="0%"></stop>
      <stop stop-color="#334358" offset="100%"></stop>
    </linearGradient>
    <linearGradient x1="50%" y1="0%" x2="50%" y2="100%" id="linearGradient-15">
      <stop stop-color="#495C70" offset="0%"></stop>
      <stop stop-color="#334358" offset="100%"></stop>
    </linearGradient>
  </defs>
  <g id="Page-1" stroke="none" stroke-width="1" fill="none" fill-rule="evenodd">
    <g id="Fixed-web-wordpress" transform="translate(-797.000000, -209.000000)">
      <g id="Wordpress" transform="translate(797.000000, 209.000000)">
        <g id="Group-12" transform="translate(31.500001, 5.250001)" fill="url(#linearGradient-1)">
          <path d="M0,256.300572 C0,213.41406 3.26459879,195.624175 36.385523,151.102413 C69.5064472,106.580651 33.9104857,49.0285967 94.5652437,18.1012265 C155.220002,-12.8261437 242.76424,22.7881122 294.800001,37.7436796 C346.835762,52.6992469 398.468973,6.83190952 469.972656,3.56057373 C519.52429,1.29355716 544.790824,19.840665 551.062499,30.2402626 C598.083984,108.210572 500.224273,160.243349 520.436428,202.810575 C552.74196,270.846708 526.556378,325.802763 513.436428,340.257841 C500.316478,354.712919 468.501953,381.998075 400.748796,373.62627 C337.907512,365.861391 336.919503,337.619846 284.81483,337.619846 C223.827011,337.619846 194.185859,350.501073 156.851955,356.303439 C122.800001,361.595731 104.090446,369.669722 60.6511114,348.598023 C17.2117768,327.526323 0,279.024058 0,256.300572 Z" id="Path-77" transform="translate(281.997327, 189.280287) scale(1, -1) translate(-281.997327, -189.280287) "></path>
        </g>
        <g id="Group-16" transform="translate(294.000000, 0.000000)">
          <path d="M88.9920921,26.0895828 C87.5854465,22.8333607 83.7081542,20.3618792 80.3628625,20.5963993 C77.0175707,20.8309195 73.1492954,19.5230186 71.4360732,17.8903976 C69.722851,16.2577766 68.3342393,12.3972141 68.4604768,9.03275202 C68.5867142,5.6682899 65.998847,1.89792752 62.6896231,0.581006687 C59.3803992,-0.735914144 54.9079876,0.265306488 52.7078496,2.78188808 C50.5077117,5.29846967 46.8197755,7.14757083 44.4753662,7.21973088 C42.1309569,7.29189092 38.3979359,5.53298981 36.1256623,3.07954826 C33.8533886,0.626106716 29.3358923,-0.248833837 26.0807701,1.15828705 C22.825648,2.56540794 20.3369673,6.44401039 20.5714082,9.7904325 C20.8058492,13.1368546 19.4983901,17.0064371 17.8663206,18.7202381 C16.234251,20.4340392 12.3749926,21.8050801 9.02970089,21.69684 C5.68440915,21.5886 1.89728643,24.1683216 0.580810431,27.4786637 C-0.735665563,30.7890058 0.265216871,35.2629286 2.78094839,37.46381 C5.29667992,39.6646914 7.14515649,43.3538737 7.21729216,45.6900552 C7.28942783,48.0262366 5.54013781,51.769539 3.07850804,54.0425804 C0.616878267,56.3156219 -0.266783702,60.8256247 1.1578958,64.0998868 C2.5825753,67.3741489 6.44183369,69.8456304 9.78712543,69.6111103 C13.1324172,69.3765901 17.0006925,70.684491 18.7139147,72.317112 C20.4271369,73.949733 21.8157486,77.7922554 21.6895111,81.1567176 C21.5632737,84.5211797 24.1511409,88.2915421 27.4693818,89.6084629 C30.7876226,90.9253837 35.2510173,89.9241631 37.4511552,87.4075815 C39.6512932,84.8909999 43.3302124,83.0418988 45.6746217,83.0058187 C48.019031,82.9697387 51.752052,84.7105998 54.0423595,87.1640414 C56.3326671,89.6174829 60.8411465,90.4563434 64.0962687,89.0492225 C67.3513908,87.6421017 69.8400715,83.7815392 69.6056305,80.4351171 C69.3711896,77.088695 70.6786487,73.2191126 72.3107182,71.5053115 C73.9427878,69.7915104 77.7930292,68.4204695 81.1563549,68.5557696 C84.5196805,68.6910697 88.2887693,66.0933081 89.6052453,62.773946 C90.9217213,59.4545839 89.9388728,54.989681 87.4051074,52.7707596 C84.8713419,50.5518382 83.0228653,46.9077559 82.9597466,44.5354944 C82.8966279,42.1632329 84.6459179,38.4560106 87.1165647,36.1829692 C89.629067,33.4587467 90.3581677,29.5349999 88.9920921,26.0895828 Z M52.0225608,61.213485 C45.5062206,64.0317898 37.934293,62.6445408 32.8394114,57.6989499 C27.7445299,52.753359 26.1306981,45.2240107 28.7508388,38.6236732 C31.3709795,32.0233357 37.7087644,27.6526799 44.8073414,27.5508067 C51.9059184,27.4489335 58.3664329,31.6359182 61.174774,38.1583504 C65.007835,47.0457222 60.9255833,57.3597153 52.0496116,61.213485 L52.0225608,61.213485 Z" id="Shape" fill="url(#linearGradient-2)"></path>
          <path d="M86.2898283,25.7848358 C85.0430073,22.8948534 83.7821951,21.69684 79.9034259,21.69684 C76.0246567,21.69684 73.1492954,19.5230186 71.4360732,17.8903976 C70.160107,16.6744612 69.0641993,14.2227063 68.6400617,11.6604895 C68.4947155,10.7824531 67.7132049,5.17972003 63.0614801,3.7299122 C58.4097553,2.28010436 54.8331109,4.64681242 52.6329729,7.16339401 C50.432835,9.6799756 49.4031029,12.6629395 45.439239,12.6629395 C41.4753752,12.6629395 38.5699938,9.05773941 36.2977201,6.60429786 C34.0254465,4.15085631 31.2432254,2.32279131 27.9881033,3.7299122 C24.7329811,5.13703308 24.337061,7.42816621 24.5715019,10.7745883 C24.8059428,14.1210104 23.5652834,18.7144709 20.5714082,20.5963993 C17.5775331,22.4783277 12.3749926,21.8050801 9.02970089,21.69684 C5.68440915,21.5886 1.89728643,24.1683216 0.580810431,27.4786637 C-0.735665563,30.7890058 0.265216871,35.2629286 2.78094839,37.46381 C5.29667992,39.6646914 11.1762041,41.7123353 12.3473351,45.1021529 C13.5184661,48.4919704 11.8237965,52.4139119 9.36216677,54.6869533 C8.08017432,55.8707308 4.12507185,58.3835211 2.78094839,61.1722114 C1.54414065,63.7382509 2.84190505,66.6232331 3.27406045,67.025982 C5.08850487,68.7169606 7.55248572,69.7677687 9.78712543,69.6111103 C13.1324172,69.3765901 18.8581861,67.9784892 20.5714082,69.6111103 C22.2846304,71.2437313 21.8157486,77.7922554 21.6895111,81.1567176 C21.5632737,84.5211797 24.1511409,88.2915421 27.4693818,89.6084629 C30.7876226,90.9253837 35.3267421,87.5843602 37.5268801,85.0677786 C39.7270181,82.551197 40.8566128,79.0210638 45.0631127,77.5474022 C49.2696125,76.0737405 52.728535,78.703276 55.0188426,81.1567176 C57.3091501,83.6101591 60.8411465,90.4563434 64.0962687,89.0492225 C67.3513908,87.6421017 69.8400715,83.7815392 69.6056305,80.4351171 C69.3711896,77.088695 68.3746898,72.5784375 70.3784109,69.6111103 C72.382132,66.643783 74.7305868,65.670492 79.2632719,66.5028528 C83.795957,67.3352136 88.2887693,66.0933081 89.6052453,62.773946 C90.9217213,59.4545839 89.9388728,54.989681 87.4051074,52.7707596 C84.8713419,50.5518382 81.4624531,46.2814625 80.3628625,44.0325516 C79.2632719,41.7836407 78.6857081,37.684959 81.1563549,35.4119176 C83.6688572,32.6876951 87.6559038,29.2302529 86.2898283,25.7848358 Z M30.2365555,62.6553171 C25.1416739,57.7097262 22.5791296,42.6865843 25.1992703,36.0862468 C27.819411,29.4859093 36.9952147,25.886709 44.0937917,25.7848358 C51.1923687,25.6829626 61.2879275,28.0573539 64.0962687,34.5797862 C65.2518718,37.2591786 70.163603,46.6190552 67.7774268,52.7707596 C66.3308985,56.4999956 60.5064041,60.4881769 57.3748663,62.773946 C48.5376984,69.2243632 32.8642624,65.2060268 30.2365555,62.6553171 Z" id="Shape-Copy-2" fill="url(#linearGradient-3)"></path>
        </g>
        <g id="Group-4" transform="translate(57.300001, 50.900002)">
          <path d="M6,0 L422,0 C425.313708,-6.08718376e-16 428,2.6862915 428,6 L428,286 C428,289.313708 425.313708,292 422,292 L6,292 C2.6862915,292 4.05812251e-16,289.313708 0,286 L0,6 C-4.05812251e-16,2.6862915 2.6862915,6.08718376e-16 6,0 Z" id="Rectangle" fill="#FCFCFC"></path>
          <rect id="Rectangle-Copy-10" fill="#9CA3A8" x="225" y="250" width="70" height="4.86000006" rx="1.62000002"></rect>
          <rect id="Rectangle" fill="#C5E4C1" x="225" y="223" width="20" height="20" rx="4"></rect>
          <path d="M226.319999,260.099998 L287.079999,260.099998 C287.9747,260.099998 288.699999,260.825297 288.699999,261.719998 L288.699999,263.339998 C288.699999,264.234699 287.9747,264.959998 287.079999,264.959998 L226.319999,264.959998 C225.425297,264.959998 224.699999,264.234699 224.699999,263.339998 L224.699999,261.719998 C224.699999,260.825297 225.425297,260.099998 226.319999,260.099998 Z" id="Rectangle-Copy-13" fill="#9CA3A8"></path>
          <rect id="Rectangle-Copy-12" fill="#9CA3A8" x="316" y="250" width="70" height="4.86000006" rx="1.62000002"></rect>
          <rect id="Rectangle-Copy-7" fill="#ADB1F9" x="316" y="223" width="20" height="20" rx="4"></rect>
          <path d="M317.62,260 L374.38,260 C375.274701,260 376,260.725299 376,261.62 L376,263.24 C376,264.134701 375.274701,264.86 374.38,264.86 L317.62,264.86 C316.725299,264.86 316,264.134701 316,263.24 L316,261.62 C316,260.725299 316.725299,260 317.62,260 Z" id="Rectangle-Copy-15" fill="#9CA3A8"></path>
          <path d="M6,0 L422,0 C425.313708,-6.08718376e-16 428,2.6862915 428,6 L428,20 L428,20 L0,20 L0,6 C-4.05812251e-16,2.6862915 2.6862915,6.08718376e-16 6,0 Z" id="Rectangle-Copy" fill="#5AC3CC"></path>
          <g id="Group" transform="translate(9.450000, 8.290000)" fill="#FFFFFF">
            <circle id="Oval" cx="3.57807764" cy="3.57807764" r="3.57807764"></circle>
            <circle id="Oval-Copy-75" cx="14.1080778" cy="3.57807764" r="3.57807764"></circle>
            <circle id="Oval-Copy-76" cx="25.4480779" cy="3.57807764" r="3.57807764"></circle>
          </g>
          <path d="M74.2500013,5.86000006 L320.490005,5.86000006 C321.832057,5.86000006 322.920005,6.94794814 322.920005,8.2900001 L322.920005,14.7700002 C322.920005,16.1120521 321.832057,17.2000002 320.490005,17.2000002 L74.2500013,17.2000002 C72.9079494,17.2000002 71.8200013,16.1120521 71.8200013,14.7700002 L71.8200013,8.2900001 C71.8200013,6.94794814 72.9079494,5.86000006 74.2500013,5.86000006 Z" id="Rectangle" fill="#FFFFFF" opacity="0.300000012"></path>
          <path d="M45.4800001,38 L379.52,38 C383.098805,38 386,40.9011949 386,44.4800001 L386,141.52 C386,145.098805 383.098805,148 379.52,148 L45.4800001,148 C41.9011949,148 39,145.098805 39,141.52 L39,44.4800001 C39,40.9011949 41.9011949,38 45.4800001,38 Z" id="Rectangle-Copy-11" fill="#F1F2F2"></path>
          <path d="M339.123098,84.4156294 C328.312524,74.1852923 339.34759,54.5459219 320.205012,46.9640371 C301.596994,39.5938777 293.136613,55.1709904 279.206037,57.5171427 C265.27546,59.8632951 255.381891,54.0037719 246.579806,64.8071428 C238.00045,75.337143 244.483405,80.7572233 241.20881,89.708315 C238.608741,96.8155905 228.103263,96.8155905 227.03962,111.821215 C226.303386,122.207826 235.858983,130.417144 253.114386,130.417144 C270.369789,130.417144 276.20052,142.227483 290.396577,142.227483 C312.001967,142.227483 320.531334,130.417144 334.324192,130.417144 C348.913865,130.417144 357.382233,121.341772 357.382233,112.399456 C357.382233,95.7975534 346.135608,91.0517557 339.123098,84.4156294 Z" id="Path-165" fill="#EAEBEB"></path>
          <g id="Group-6" transform="translate(249.000000, 50.000000)">
            <path d="M43.3965771,84.5750437 C48.8311067,84.5750437 61.3186743,80.3443791 62.2166891,80.0464329 C76.6701554,69.2140303 83.8968885,57.7192503 83.8968885,45.5620929 C83.8968885,38.9104603 83.6670359,33.7683227 81.157238,27.8845831 C78.3818741,21.3782751 74.9644138,16.1069593 69.8808932,11.4854629 C61.7171947,4.06373589 52.6826614,1.14216508 43.3965771,0.875087432 C35.4475872,0.646466042 27.6828153,2.13675996 19.2652397,8.19682897 C17.8493248,9.21618928 15.7790605,10.338807 14.5883468,11.4854629 C12.6519771,13.3501848 9.96628229,16.4381683 6.53126246,20.7494135 C2.70066494,27.5723598 1.02331262,34.9443967 1.02331262,43.3732847 C1.02331262,53.7792114 7.10395499,65.3287245 19.2652397,78.021824 C21.1577662,79.0727442 23.5975269,80.2922599 26.5845218,81.6803712 C33.7851455,83.6101529 39.3891639,84.5750437 43.3965771,84.5750437 Z" id="Oval" fill="#FFFFFF"></path>
            <path d="M6.0400658,42.8423346 C6.0400658,57.3909647 14.4252955,69.9625254 26.5845218,75.9210088 L9.19606519,27.8845831 C7.11158277,32.5909439 6.03613259,37.6880208 6.0400658,42.8423346 Z M67.1011726,40.9876517 C67.1011726,36.4453572 65.4829482,33.2996696 64.0950068,30.8512365 C62.2471928,27.8237395 60.5159077,25.2599132 60.5159077,22.2324162 C60.5159077,18.8538442 63.0566519,15.708856 66.6364446,15.708856 C66.798059,15.708856 66.9513499,15.7291372 67.1094961,15.7382288 C60.6234194,9.74757524 51.9829469,6.08996163 42.4927852,6.08996163 C29.757851,6.08996163 18.5537447,12.6778622 12.0357613,22.6562238 C12.8909995,22.6820998 13.6976841,22.6995837 14.3815972,22.6995837 C18.1944476,22.6995837 24.096493,22.2331155 24.096493,22.2331155 C26.0615295,22.1163237 26.2931998,25.0263294 24.3309379,25.2606125 C24.3309379,25.2606125 22.3554971,25.4948956 20.1580967,25.6109881 L33.4326703,65.4216296 L41.4107319,41.2988636 L35.7306461,25.6102888 C33.7676906,25.4941963 31.908085,25.2599132 31.908085,25.2599132 C29.9437422,25.1438207 30.1740253,22.1156243 32.1383681,22.2324162 C32.1383681,22.2324162 38.1583296,22.6988843 41.7402033,22.6988843 C45.55236,22.6988843 51.4550991,22.2324162 51.4550991,22.2324162 C53.4215228,22.1156243 53.6524995,25.0256301 51.6888504,25.2599132 C51.6888504,25.2599132 49.7099415,25.4941963 47.5167028,25.6102888 L60.6900073,65.1195093 L64.3252899,52.8689514 C65.901897,47.7853581 67.1011726,44.1340386 67.1011726,40.9876517 L67.1011726,40.9876517 Z" id="Shape" fill="#00749A" fill-rule="nonzero"></path>
            <path d="M43.1323064,46.057258 L32.1952453,78.1001912 C35.5389851,79.093752 39.006863,79.5982042 42.4927852,79.5982042 C46.7377632,79.5982042 50.8086417,78.8575899 54.5979089,77.5148331 C54.4962634,77.354409 54.4094278,77.1849218 54.3384935,77.0085019 L43.1323064,46.057258 Z M74.478556,25.2088605 C74.635315,26.3795765 74.7240989,27.6370124 74.7240989,28.9881614 C74.7240989,32.7178083 74.0332495,36.9104266 71.9523779,42.152773 L60.817634,74.6118209 C71.6548133,68.2400202 78.9441523,56.4020803 78.9441523,42.8423346 C78.953828,36.6789248 77.4177026,30.6131043 74.478556,25.2088605 L74.478556,25.2088605 Z" id="Shape" fill="#00749A" fill-rule="nonzero"></path>
            <path d="M42.4927852,0 C19.0628647,0 0,19.2189062 0,42.8423346 C0,66.4685603 19.062171,85.6874665 42.4927852,85.6874665 C65.9220121,85.6874665 84.9876512,66.4692596 84.9876512,42.8423346 C84.9876512,19.2189062 65.9220121,0 42.4927852,0 Z M42.4927852,83.7229853 C20.137288,83.7229853 1.94838943,65.3838645 1.94838943,42.8423346 C1.94838943,20.3029026 20.1365944,1.96518054 42.4927852,1.96518054 C64.8475887,1.96518054 83.0351,20.3029026 83.0351,42.8423346 C83.0351,65.3838645 64.8468951,83.7229853 42.4927852,83.7229853 Z" id="Shape" fill="#00749A" fill-rule="nonzero"></path>
          </g>
          <rect id="Rectangle" fill="#1F2C3A" opacity="0.400000006" x="69.4200009" y="66.5600008" width="121.250001" height="8.10000011" rx="1.62000002"></rect>
          <path d="M71.0400009,81.140001 L178.700002,81.140001 C179.594703,81.140001 180.320002,81.8652997 180.320002,82.760001 L180.320002,87.6200011 C180.320002,88.5147024 179.594703,89.2400011 178.700002,89.2400011 L71.0400009,89.2400011 C70.1452996,89.2400011 69.4200009,88.5147024 69.4200009,87.6200011 L69.4200009,82.760001 C69.4200009,81.8652997 70.1452996,81.140001 71.0400009,81.140001 Z" id="Rectangle-Copy-2" fill="#1F2C3A" opacity="0.400000006"></path>
          <g id="Group-11" transform="translate(220.000000, 158.000000)">
            <path d="M6.48000009,0 L159.260003,0 C162.838808,-6.57415855e-16 165.740003,2.90119486 165.740003,6.48000009 L165.740003,41.3100005 C165.740003,44.8888058 162.838808,47.7900006 159.260003,47.7900006 L6.48000009,47.7900006 C2.90119486,47.7900006 4.38277237e-16,44.8888058 0,41.3100005 L0,6.48000009 C-4.38277237e-16,2.90119486 2.90119486,6.57415855e-16 6.48000009,0 Z" id="Rectangle" fill="#636D78"></path>
            <path d="M63.3199986,13.7700002 L143.48,13.7700002 C144.374701,13.7700002 145.1,14.4952989 145.1,15.3900002 L145.1,17.0100002 C145.1,17.9047015 144.374701,18.6300002 143.48,18.6300002 L63.3199986,18.6300002 C62.4252973,18.6300002 61.6999986,17.9047015 61.6999986,17.0100002 L61.6999986,15.3900002 C61.6999986,14.4952989 62.4252973,13.7700002 63.3199986,13.7700002 Z" id="Rectangle-Copy-4" fill="#828A93"></path>
            <path d="M63.3199986,21.8700003 L143.48,21.8700003 C144.374701,21.8700003 145.1,22.595299 145.1,23.4900003 L145.1,25.1100003 C145.1,26.0047016 144.374701,26.7300004 143.48,26.7300004 L63.3199986,26.7300004 C62.4252973,26.7300004 61.6999986,26.0047016 61.6999986,25.1100003 L61.6999986,23.4900003 C61.6999986,22.595299 62.4252973,21.8700003 63.3199986,21.8700003 Z" id="Rectangle-Copy-9" fill="#828A93"></path>
            <path d="M63.3199986,29.9700004 L104.879999,29.9700004 C105.774701,29.9700004 106.499999,30.6952991 106.499999,31.5900004 L106.499999,33.2100004 C106.499999,34.1047017 105.774701,34.8300005 104.879999,34.8300005 L63.3199986,34.8300005 C62.4252973,34.8300005 61.6999986,34.1047017 61.6999986,33.2100004 L61.6999986,31.5900004 C61.6999986,30.6952991 62.4252973,29.9700004 63.3199986,29.9700004 Z" id="Rectangle-Copy-10" fill="#828A93"></path>
            <circle id="Oval-Copy-6" fill="#828A93" cx="28.3500004" cy="24.3000003" r="17.8200002"></circle>
          </g>
          <g id="Group-3" opacity="0.800000012" transform="translate(39.000000, 158.000000)">
            <path d="M8,0 L72,0 C76.418278,-8.11624501e-16 80,3.581722 80,8 L80,104 C80,108.418278 76.418278,112 72,112 L8,112 C3.581722,112 5.41083001e-16,108.418278 0,104 L0,8 C-5.41083001e-16,3.581722 3.581722,8.11624501e-16 8,0 Z" id="Rectangle-Copy-6" fill="#F1F2F2"></path>
            <rect id="Rectangle-Copy-10" fill="#9CA3A8" x="8" y="72" width="64" height="4.86000006" rx="1.62000002"></rect>
            <rect id="Rectangle-Copy-13" fill="#9CA3A8" x="8" y="82" width="40" height="4.86000006" rx="1.62000002"></rect>
            <path d="M25.62,98 L39.38,98 C40.2747013,98 41,98.7252987 41,99.62 L41,100.38 C41,101.274701 40.2747013,102 39.38,102 L25.62,102 C24.7252987,102 24,101.274701 24,100.38 L24,99.62 C24,98.7252987 24.7252987,98 25.62,98 Z" id="Rectangle-Copy-14" fill="#9CA3A8" opacity="0.400000006"></path>
            <circle id="Oval" fill="#CFD3D5" cx="13" cy="100" r="5"></circle>
            <path d="M7.83160872,0 L72.1683913,0 C76.4936693,-7.58959953e-15 80,3.50633066 80,7.83160872 L80,63.7000008 L80,63.7000008 L0,63.7000008 L0,7.83160872 C3.58484627e-16,3.50633066 3.50633066,-3.64635141e-15 7.83160872,0 Z" id="Rectangle" fill="#F0CC72"></path>
            <path d="M22.0027894,47.4320233 L30.3844061,32.5858058 C30.7710269,31.9009908 31.6395973,31.6592567 32.3244123,32.0458775 C32.4523125,32.1180852 32.568271,32.2096464 32.6681732,32.3173123 L38.3715646,38.4639304 C38.9801253,39.1197842 40.0051359,39.1581227 40.6609897,38.5495619 C40.7879865,38.4317227 40.895259,38.2942753 40.9787192,38.1424574 L46.8595787,27.4449066 C47.427853,26.4111897 48.7265235,26.033874 49.7602404,26.6021483 C50.1582885,26.8209708 50.4762104,27.1609936 50.6678283,27.5728287 L60.0234452,47.6804045 C60.8528202,49.46294 60.0801309,51.5803118 58.2975954,52.4096867 C57.8272151,52.6285444 57.314682,52.7419428 56.7958792,52.7419428 L25.1027076,52.7419428 C23.1366721,52.7419428 21.5428854,51.1481562 21.5428854,49.1821207 C21.5428854,48.5688797 21.7013048,47.9660379 22.0027894,47.4320233 Z" id="Path-89" fill="#FFFFFF"></path>
            <ellipse id="Oval" fill="#FFFFFF" cx="34.9799167" cy="19.2392886" rx="6.48396176" ry="6.40767986"></ellipse>
          </g>
          <g id="Group-3-Copy-4" opacity="0.800000012" transform="translate(129.000000, 158.000000)">
            <path d="M8,0 L72,0 C76.418278,-8.11624501e-16 80,3.581722 80,8 L80,104 C80,108.418278 76.418278,112 72,112 L8,112 C3.581722,112 5.41083001e-16,108.418278 0,104 L0,8 C-5.41083001e-16,3.581722 3.581722,8.11624501e-16 8,0 Z" id="Rectangle-Copy-6" fill="#F1F2F2"></path>
            <rect id="Rectangle-Copy-10" fill="#9CA3A8" x="8" y="72" width="64" height="4.86000006" rx="1.62000002"></rect>
            <rect id="Rectangle-Copy-13" fill="#9CA3A8" x="8" y="82" width="40" height="4.86000006" rx="1.62000002"></rect>
            <path d="M25.62,98 L39.38,98 C40.2747013,98 41,98.7252987 41,99.62 L41,100.38 C41,101.274701 40.2747013,102 39.38,102 L25.62,102 C24.7252987,102 24,101.274701 24,100.38 L24,99.62 C24,98.7252987 24.7252987,98 25.62,98 Z" id="Rectangle-Copy-14" fill="#9CA3A8" opacity="0.400000006"></path>
            <circle id="Oval" fill="#CFD3D5" cx="13" cy="100" r="5"></circle>
            <path d="M7.83160872,0 L72.1683913,0 C76.4936693,-7.58959953e-15 80,3.50633066 80,7.83160872 L80,63.7000008 L80,63.7000008 L0,63.7000008 L0,7.83160872 C3.58484627e-16,3.50633066 3.50633066,-3.64635141e-15 7.83160872,0 Z" id="Rectangle" fill="#BCDAF7"></path>
            <path d="M22.0027894,47.4320233 L30.3844061,32.5858058 C30.7710269,31.9009908 31.6395973,31.6592567 32.3244123,32.0458775 C32.4523125,32.1180852 32.568271,32.2096464 32.6681732,32.3173123 L38.3715646,38.4639304 C38.9801253,39.1197842 40.0051359,39.1581227 40.6609897,38.5495619 C40.7879865,38.4317227 40.895259,38.2942753 40.9787192,38.1424574 L46.8595787,27.4449066 C47.427853,26.4111897 48.7265235,26.033874 49.7602404,26.6021483 C50.1582885,26.8209708 50.4762104,27.1609936 50.6678283,27.5728287 L60.0234452,47.6804045 C60.8528202,49.46294 60.0801309,51.5803118 58.2975954,52.4096867 C57.8272151,52.6285444 57.314682,52.7419428 56.7958792,52.7419428 L25.1027076,52.7419428 C23.1366721,52.7419428 21.5428854,51.1481562 21.5428854,49.1821207 C21.5428854,48.5688797 21.7013048,47.9660379 22.0027894,47.4320233 Z" id="Path-89" fill="#FFFFFF"></path>
            <ellipse id="Oval" fill="#FFFFFF" cx="34.9799167" cy="19.2392886" rx="6.48396176" ry="6.40767986"></ellipse>
          </g>
          <rect id="Rectangle-Copy-3" fill="#67C8D1" opacity="0.599999964" x="69.4200009" y="102.200001" width="48.6000006" height="16.2000002" rx="1.62000002"></rect>
        </g>
        <g id="Group-18" transform="translate(253.500000, 357.000000) rotate(3.000000) translate(-253.500000, -357.000000) translate(203.000000, 313.000000)">
          <path d="M7.56472783,64.5344112 C3.42214954,55.7414289 -1.39033857,35.1015471 7.56472783,20.1512432 C9.70416812,16.5794906 24.2445676,0.74825434 46.4085792,0.0573347258 C72.4648674,-0.754918984 85.6340356,8.37803298 91.8646806,20.1512432 C98.7773755,33.2132311 96.7574855,53.0831412 91.8646806,64.5344112 C89.3556544,70.4066127 77.1139632,88.3271829 48.7175736,87.7400059 C20.0256708,87.1467182 9.58299549,68.8183596 7.56472783,64.5344112 Z" id="Path-109" fill="url(#linearGradient-4)"></path>
          <g id="Group-17" transform="translate(49.069352, 42.364139) rotate(-18.000000) translate(-49.069352, -42.364139) translate(15.069352, 26.864139)">
            <path d="M47.2458333,3.0577335 L66.7207496,10.2506098 C67.3639832,10.4881821 67.7911345,11.1013009 67.7911345,11.787005 L67.7911345,18.9690555 C67.7911345,19.6315446 67.3920339,20.2287914 66.7799543,20.4822683 L47.305038,28.5472988 C46.4693136,28.8933924 45.5112609,28.4964682 45.1651674,27.6607438 C45.0828897,27.4620648 45.0405423,27.2491278 45.0405423,27.034086 L45.0405423,23.0315139 C45.0405423,21.9942842 45.6919568,21.0688019 46.6683603,20.7188283 L61.1406169,15.5315188 L61.1406169,15.5315188 L46.6768136,10.4067822 C45.696035,10.059278 45.0405423,9.13160599 45.0405423,8.09108412 L45.0405423,4.59412865 C45.0405423,3.68957576 45.7738273,2.95629075 46.6783802,2.95629075 C46.8720411,2.95629075 47.0641672,2.99063686 47.2458333,3.0577335 Z" id="Path-110" fill="#233141"></path>
            <path d="M47.2458333,3.0577335 L66.7207496,10.2506098 C67.3639832,10.4881821 67.7911345,11.1013009 67.7911345,11.787005 L67.7911345,18.9690555 C67.7911345,19.6315446 67.3920339,20.2287914 66.7799543,20.4822683 L56.1413776,24.8879584 C55.3634358,25.2100564 54.4716504,24.8405869 54.1494957,24.0626686 C53.8465344,23.331097 54.154058,22.4893722 54.8572733,22.1254067 C54.8572733,22.1254067 54.8572733,22.1254067 54.8572733,22.1254067 C57.297296,20.8625157 56.9446569,18.9521496 58.9825575,17.5684706 C61.1497557,16.097002 62.6243077,19.2677874 64.7421808,18.0446072 C66.2905992,17.1503163 66.5847485,13.7131937 63.9184635,12.5344982 C62.6733922,11.9840845 59.418208,13.1698802 57.8169575,12.2947805 C55.1742774,10.8505289 54.8125996,9.00567605 53.2897113,8.46609448 C51.9333481,7.98551521 49.0457662,8.18823639 47.937948,7.94397903 C47.208377,7.78311956 46.2425752,7.29471872 45.0405423,6.47877652 L45.0405423,4.59412865 C45.0405423,3.68957576 45.7738273,2.95629075 46.6783802,2.95629075 C46.8720411,2.95629075 47.0641672,2.99063686 47.2458333,3.0577335 Z" id="Path-110-Copy-2" fill="url(#linearGradient-5)"></path>
            <path d="M2.20529093,3.0577335 L21.6802072,10.2506098 C22.3234409,10.4881821 22.7505921,11.1013009 22.7505921,11.787005 L22.7505921,18.9690555 C22.7505921,19.6315446 22.3514915,20.2287914 21.739412,20.4822683 L2.26449567,28.5472988 C1.42877131,28.8933924 0.470718613,28.4964682 0.124625084,27.6607438 C0.0423473339,27.4620648 1.46250525e-12,27.2491278 1.46194168e-12,27.034086 L1.46194168e-12,23.0315139 C1.46181465e-12,21.9942842 0.651414446,21.0688019 1.62781799,20.7188283 L16.1000745,15.5315188 L16.1000745,15.5315188 L1.63627123,10.4067822 C0.655492648,10.059278 1.46164301e-12,9.13160599 1.46194168e-12,8.09108412 L1.46194168e-12,4.59412865 C1.46227499e-12,3.68957576 0.733285006,2.95629075 1.6378379,2.95629075 C1.83149874,2.95629075 2.02362486,2.99063686 2.20529093,3.0577335 Z" id="Path-110-Copy" fill="#233141" transform="translate(11.375296, 15.864156) scale(-1, -1) translate(-11.375296, -15.864156) "></path>
            <path d="M2.20529093,3.0577335 L21.6802072,10.2506098 C22.3234409,10.4881821 22.7505921,11.1013009 22.7505921,11.787005 L22.7505921,18.9690555 C22.7505921,19.6315446 22.3514915,20.2287914 21.739412,20.4822683 L11.1008353,24.8879584 C10.3228935,25.2100564 9.43110808,24.8405869 9.10895342,24.0626686 C8.80599205,23.331097 9.11351572,22.4893722 9.81673095,22.1254067 C9.81673095,22.1254067 9.81673095,22.1254067 9.81673095,22.1254067 C12.2567536,20.8625157 11.9041146,18.9521496 13.9420152,17.5684706 C16.1092133,16.097002 17.5837653,19.2677874 19.7016385,18.0446072 C21.2500569,17.1503163 21.5442061,13.7131937 18.8779212,12.5344982 C17.6328499,11.9840845 14.3776657,13.1698802 12.7764152,12.2947805 C10.1337351,10.8505289 9.77205728,9.00567605 8.24916893,8.46609448 C6.89280574,7.98551521 4.00522388,8.18823639 2.89740563,7.94397903 C2.16783471,7.78311956 1.20203283,7.29471872 1.46194168e-12,6.47877652 L1.46194168e-12,4.59412865 C1.4618309e-12,3.68957576 0.733285006,2.95629075 1.6378379,2.95629075 C1.83149874,2.95629075 2.02362486,2.99063686 2.20529093,3.0577335 Z" id="Path-110-Copy-3" fill="url(#linearGradient-5)" transform="translate(11.375296, 15.864156) scale(-1, -1) translate(-11.375296, -15.864156) "></path>
            <path d="M33.5783226,1.27511903 L27.4410671,28.2994444 C27.240743,29.1815364 27.793425,30.0590079 28.6755169,30.2593321 C28.7945304,30.2863601 28.9161919,30.3000012 29.0382358,30.3000012 L32.1347283,30.3000012 C32.904245,30.3000012 33.5699881,29.7642967 33.7346366,29.0126009 L39.8716895,0.994137731 C39.9684602,0.552335258 39.6887567,0.11573547 39.2469542,0.01896481 C39.1894002,0.00635841624 39.1306538,2.30582499e-13 39.0717354,2.30926389e-13 L35.1754914,2.30926389e-13 C34.4106868,2.31733015e-13 33.7476978,0.529305299 33.5783226,1.27511903 Z" id="Path-113" fill="#233141"></path>
            <path d="M33.5783226,1.27511903 L27.4410671,28.2994444 C27.240743,29.1815364 27.793425,30.0590079 28.6755169,30.2593321 C28.7945304,30.2863601 28.9161919,30.3000012 29.0382358,30.3000012 L30.7632422,30.3000012 L30.7632422,30.3000012 C31.6423473,27.7818436 32.2140134,25.9065538 32.4782403,24.674132 C33.0566551,21.9762579 32.6553173,19.1032146 33.0566551,16.9747743 C33.5380899,14.4215506 35.4761451,13.4642791 35.8095104,10.8837648 C36.0350599,9.13783036 35.0956282,7.58440197 35.4761451,5.57008838 C35.7207067,4.27547165 36.4672079,3.03072351 37.7156488,1.83584398 C38.1408871,1.42881472 38.1556773,0.75412914 37.7486662,0.328873432 C37.5476091,0.118803835 37.2694529,2.30872974e-13 36.9786726,2.30926389e-13 L35.1754914,2.30926389e-13 C34.4106868,2.31733015e-13 33.7476978,0.529305299 33.5783226,1.27511903 Z" id="Path-113-Copy" fill="url(#linearGradient-6)"></path>
          </g>
        </g>
        <g id="Group-10" transform="translate(9.000000, 95.000000)">
          <circle id="Oval" fill="url(#linearGradient-7)" cx="32.0759996" cy="32.0759996" r="32.0759996"></circle>
          <polyline id="Path-209" stroke="#FFFFFF" stroke-width="8.01899989" stroke-linecap="round" stroke-linejoin="round" points="18.9539997 33.8920923 29.0311432 42.1040209 45.010766 22.5989997"></polyline>
        </g>
        <g id="Group-13" transform="translate(482.000000, 188.000000)">
          <path d="M79.7623413,190.046426 C94.2171515,190.046426 125.117375,189.403571 133.773213,188.343753 C143.086954,187.203381 156.421148,186.167546 156.421148,184.129929 C156.421148,181.577586 141.78856,181.05484 136.468235,181.05484 C129.972344,181.05484 138.430714,178.943196 136.468235,177.993411 C135.328277,177.441703 123.550066,177.209862 120.177766,177.009221 C112.265962,176.538495 85.0303166,177.009221 75.2786586,177.009221 C66.0749677,177.009221 47.9785232,177.383641 39.9279711,177.993411 C21.7300038,179.371773 8.3652499,181.952704 8.3652499,184.129929 C8.3652499,184.620809 7.8835459,185.418515 9.67583958,185.816552 C17.9017907,187.643391 54.4446921,190.046426 79.7623413,190.046426 Z" id="Oval" fill-opacity="0.12" fill="#233141"></path>
          <path d="M100.63686,125.333257 C94.406536,121.842681 90.3520649,120.014714 88.4734467,119.849358 C85.6555196,119.601323 78.8329693,119.339324 77.3632808,120.295598 C75.8935923,121.251872 72.5150566,125.059192 71.3913179,126.750608 C70.5417548,128.029343 70.0718574,128.998711 70.1475552,129.957366 C70.2516807,131.276034 71.4073027,131.721901 72.7319477,130.99616 C75.019593,129.742815 75.8990064,126.874424 77.5518938,125.871856 C79.2047812,124.869288 83.9893343,125.883757 85.3660244,127.309124 C86.7427144,128.73449 90.6567623,132.694634 93.1360934,133.277032 C95.6154245,133.859429 99.0825958,134.416912 100.90405,130.729876" id="Path-283" fill="#F9CA9F" transform="translate(85.521836, 126.658880) scale(-1, 1) rotate(-8.000000) translate(-85.521836, -126.658880) "></path>
          <path d="M150.890548,144.972063 L122.552841,103.01314 C122.169309,102.445254 122.292454,101.677166 122.834296,101.257643 L123.453572,100.778165 C124.021271,100.338622 124.837803,100.442512 125.277347,101.010212 C125.295296,101.033394 125.312456,101.057177 125.328796,101.081519 L154.791817,144.972063 L154.791817,144.972063 L150.890548,144.972063 Z" id="Path-284" fill="#B0B8C0" transform="translate(138.331392, 122.449308) scale(-1, 1) rotate(2.000000) translate(-138.331392, -122.449308) "></path>
          <path d="M63.0268861,141.203472 L124.126889,141.203472 C125.56283,141.203472 126.72689,142.367532 126.72689,143.803472 C126.72689,145.239413 125.56283,146.403473 124.126889,146.403473 L63.0268861,146.403473 C61.5909457,146.403473 60.426886,145.239413 60.426886,143.803472 C60.426886,142.367532 61.5909457,141.203472 63.0268861,141.203472 Z" id="Rectangle" fill="url(#linearGradient-8)" transform="translate(93.576888, 143.803472) scale(-1, 1) rotate(-4.000000) translate(-93.576888, -143.803472) "></path>
          <path d="M31.5595859,34.3450009 C33.0838284,37.0973977 34.741604,39.2454579 36.5329127,40.7891816 C39.2198757,43.104767 36.48594,52.1587867 39.5207546,50.8887595 C42.5555693,49.6187322 43.9530059,52.1146308 45.1666778,53.8316192 C46.3803497,55.5486075 49.7734896,59.5772005 54.3272984,55.8200226 C58.8811073,52.0628447 60.1455605,49.850144 63.8475138,50.8887595 C66.2678408,52.5101142 68.6012222,54.9503408 70.8476579,58.2094392 C72.952406,55.7979712 81.8289451,49.8835355 87.7343287,42.9309472 C81.9012555,40.7925275 77.5125915,37.1002014 74.5683368,31.853969 L51.8936069,12.0685348 L31.5595859,34.3450009 Z" id="Path-289" fill="#FDCCA4" transform="translate(59.646957, 35.138987) scale(-1, 1) translate(-59.646957, -35.138987) "></path>
          <path d="M31.5595859,32.2708514 C31.6285638,33.1242937 32.9665087,33.8156768 35.5734208,34.3450009 C36.3618497,34.5050886 43.5183593,32.8445736 45.8007651,35.138987 C48.0831708,37.4334005 47.0639599,38.4699057 50.1853031,40.8319358 C51.6164739,41.9149532 56.4974128,41.3488836 57.6128812,43.808352 C59.6873158,48.382221 52.8402844,53.0422329 53.4172248,52.5579068 C54.1010776,51.9838307 54.7149702,51.5229835 55.3289856,51.196253 C56.4619879,50.5933585 57.5954079,50.4471163 59.1695633,50.8887595 C61.5898904,52.5101142 63.9232718,54.9503408 66.1697074,58.2094392 C68.2744556,55.7979712 77.1509947,49.8835355 83.0563783,42.9309472 C77.223305,40.7925275 72.8346411,37.1002014 69.8903863,31.853969 L47.2156564,12.0685348 L31.5595859,32.2708514 Z" id="Path-289-Copy" fill="#F2B07B" transform="translate(57.307982, 35.138987) scale(-1, 1) translate(-57.307982, -35.138987) "></path>
          <path d="M52.4811558,48.0160875 C51.1570081,50.8190467 48.0867956,52.8887553 48.48091,52.5579068 C49.1647628,51.9838307 49.7786554,51.5229835 50.3926708,51.196253 C51.5256731,50.5933585 52.6590931,50.4471163 54.2332485,50.8887595 C56.6535756,52.5101142 58.986957,54.9503408 61.2333926,58.2094392 C60.0719478,53.001716 57.3938186,48.7145616 53.199005,45.3479761 C53.1299456,46.2598721 52.8906625,47.1492425 52.4811558,48.0160875 Z" id="Path-289-Copy-2" fill="#233141" transform="translate(54.839825, 51.778708) scale(-1, 1) translate(-54.839825, -51.778708) "></path>
          <path d="M27.9195355,42.277263 C17.5144568,50.9447765 11.4867221,56.666131 9.83633134,59.4413265 C7.36074527,63.6041197 0.849953894,73.4563175 3.04497355,88.3587109 C5.2399932,103.261104 5.27490531,111.44043 5.27490531,118.378048 C5.27490531,123.003128 4.53159472,130.824975 3.04497355,141.84359 C18.2297907,152.966922 28.7764221,159.71642 34.6848679,162.092085 C39.982434,164.222128 46.2448204,163.343524 53.4720271,159.456273 C58.4815977,159.456273 54.2324764,138.288743 56.1247128,118.378048 C58.0169492,98.467354 58.9583067,77.4851751 56.1247128,68.8904481 C53.2911189,60.2957211 43.9460988,49.3529959 38.74229,47.1770192 C35.273084,45.726368 31.6654992,44.093116 27.9195355,42.277263 Z" id="Path-285" fill="url(#linearGradient-9)" transform="translate(30.257072, 102.750179) scale(-1, 1) rotate(2.000000) translate(-30.257072, -102.750179) "></path>
          <path d="M28.7323898,42.2630746 C18.3273111,50.9305881 12.2995764,56.6519426 10.6491857,59.4271381 C8.17359961,63.5899313 1.66280823,73.4421291 3.85782789,88.3445225 C6.05284754,103.246916 6.08775965,111.426242 6.08775965,118.36386 C6.08775965,125.301479 7.43446191,99.0510228 9.32669834,79.1403284 C9.35366081,78.856621 15.7719889,67.8711185 15.7985571,67.587015 C16.5911349,59.1116814 26.9064268,51.1129901 37.8090922,55.1646107 C41.3931787,56.4965197 44.6438236,54.7879663 47.7626211,57.5851795 C54.8495766,63.9413878 58.0407948,72.2225191 56.9375671,68.8762597 C54.1039732,60.2815326 44.7589532,49.3388074 39.5551443,47.1628307 C36.0859384,45.7121796 32.4783536,44.0789276 28.7323898,42.2630746 Z" id="Path-285-Copy" fill="url(#linearGradient-10)" transform="translate(30.281918, 80.882287) scale(-1, 1) rotate(2.000000) translate(-30.281918, -80.882287) "></path>
          <path d="M46.1190665,70.9039427 C44.4259579,73.1953737 44.2666756,76.1614354 44.3514616,78.3810698 C45.0621854,96.9872819 46.5903346,109.025379 48.9359093,114.495362 L10.1212587,122.92505 L10.1212587,134.025832 C37.2849972,130.857082 51.9849003,129.272707 54.2209682,129.272707 C57.5750699,129.272707 71.0067113,127.706105 71.0067113,121.100734 C71.0067113,114.495362 70.4520173,81.3563504 66.190034,70.6125636 C64.1116175,65.3732038 58.1118239,64.6772877 53.6940045,65.7369948 C50.382714,66.5312776 47.8121752,68.6125116 46.1190665,70.9039427 Z" id="Path-282" fill="url(#linearGradient-11)" transform="translate(40.563985, 99.670384) scale(-1, 1) rotate(2.000000) translate(-40.563985, -99.670384) "></path>
          <path d="M55.1274774,67.5583364 C53.7957917,68.483643 52.6643564,69.5593445 51.8027836,70.804733 C49.7976716,73.7030875 49.9127887,77.2079304 49.9975748,79.4275648 C50.7082986,98.0337768 52.2740517,108.92617 54.6196263,114.396153 C44.412083,116.613006 36.5639465,117.747148 31.4603022,118.855575" id="Path" stroke="#FFFFFF" stroke-width="1.13724009" stroke-linecap="round" stroke-linejoin="round" transform="translate(43.293890, 93.206956) scale(-1, 1) rotate(2.000000) translate(-43.293890, -93.206956) "></path>
          <path d="M51.6316084,73.3355733 C52.376317,76.4488091 59.3330788,80.2331798 59.4178648,82.4528142 C59.6901065,89.5798963 55.1748596,92.0023573 53.6586632,96.8229137 C51.4211037,103.936954 63.8822789,115.48083 63.3919867,119.278962 C62.9016945,123.077094 56.5189236,123.51678 51.6876243,123.590382 C46.8887727,123.663491 39.4822593,121.418517 32.1105145,120.723538 C28.0143339,120.337366 20.6845819,121.071203 10.1212587,122.92505 L10.1212587,134.025832 C37.2849972,130.857082 51.9849003,129.272707 54.2209682,129.272707 C57.5750699,129.272707 71.0067113,127.706105 71.0067113,121.100734 C71.0067113,114.495362 70.4520173,81.3563504 66.190034,70.6125636 C64.1116175,65.3732038 58.1118239,64.6772877 53.6940045,65.7369948 C50.382714,66.5312776 50.8868999,70.2223375 51.6316084,73.3355733 Z" id="Path-282-Copy" fill="url(#linearGradient-12)" transform="translate(40.563985, 99.670384) scale(-1, 1) rotate(2.000000) translate(-40.563985, -99.670384) "></path>
          <path d="M50.7816972,42.6281548 C49.4918534,40.185894 48.2492996,39.371807 47.0540359,40.185894 C45.2611403,41.4070244 30.9854764,53.0485709 29.6753201,56.3620476 C28.3651638,59.6755244 29.1773464,61.3808223 29.6753201,62.1460323 L50.7816972,42.6281548 Z" id="Path-287" fill="#58BBC1" transform="translate(39.873805, 51.013322) scale(-1, 1) rotate(2.000000) translate(-39.873805, -51.013322) "></path>
          <path d="M42.223453,21.4211721 C47.6667801,20.9616017 52.2404783,17.8853158 55.9445475,12.1923141 C61.5006513,3.65281172 69.1425951,-1.22472761 76.006951,0.266336929 C82.8713068,1.75740146 88.867938,3.20212811 92.4181823,15.7685839 C95.9684267,28.3350396 98.98137,24.0021293 101.018622,25.0126762 C103.055875,26.0232231 102.616325,32.706036 99.1892263,31.8116512 C95.7621278,30.9172663 90.1666712,34.8908994 88.3480649,28.3471002 C86.5294586,21.803301 81.6392267,20.9666799 79.8669609,22.989678 C78.0946952,25.0126762 78.1340507,29.2783014 79.8669609,31.8116512 C81.0222344,33.500551 81.0222344,34.3450009 79.8669609,34.3450009 C78.4742851,32.0661922 76.7868664,30.9267878 74.8047048,30.9267878 C71.8314625,30.9267878 72.0218922,27.3733697 69.6675463,27.3733697 C67.3132005,27.3733697 61.6282392,34.3450009 55.9445475,34.3450009 C50.2608558,34.3450009 47.2749181,31.6815242 45.4544102,28.3471002 C44.2407383,26.1241509 43.1637525,23.8155081 42.223453,21.4211721 Z" id="Path-288" fill="#233141" transform="translate(72.232707, 17.172500) scale(-1, 1) translate(-72.232707, -17.172500) "></path>
          <path d="M50.2915601,21.4211721 C55.7348872,20.9616017 60.3085854,17.8853158 64.0126546,12.1923141 C69.5687584,3.65281172 77.2107022,-1.22472761 84.075058,0.266336929 C90.9394139,1.75740146 96.9360451,3.20212811 100.486289,15.7685839 C101.087638,17.8971209 101.673572,19.5408081 102.24196,20.8077379 C94.5056323,13.9646965 88.8301528,10.4024047 85.2155216,10.1208624 C78.6103089,9.60638481 76.8974007,13.5332808 74.1944029,17.1725005 C71.5849147,20.6858221 66.551355,18.1059833 63.2732597,20.018922 C60.2476492,21.7845227 59.7157131,24.7601328 56.8983082,25.6453261 C54.0829638,26.5298721 51.8329489,25.016433 51.5803184,24.4622263 C51.27708,23.7969988 50.8474939,22.7833141 50.2915601,21.4211721 Z" id="Path-288-Copy" fill="url(#linearGradient-13)" transform="translate(76.266760, 12.958358) scale(-1, 1) translate(-76.266760, -12.958358) "></path>
          <polygon id="Path-292" fill="url(#linearGradient-14)" points="88.5566227 184.508604 65.0798148 183.61946 92.2433417 172.765577"></polygon>
          <path d="M7.81348493,159.921146 C7.69764929,172.134486 13.1616954,179.956625 24.2056234,183.38756 C40.7715152,188.533964 64.3566281,184.333803 68.2615452,183.38756 C72.1664622,182.441317 98.9621761,172.910578 106.456602,172.910578 C113.951029,172.910578 127.411688,171.907121 127.411688,161.411548 C127.411688,150.915974 120.269081,148.020741 117.278289,148.020741 C114.287497,148.020741 62.674027,143.953426 60.0300437,143.953426 C59.2092515,143.953426 51.9452265,141.068179 47.6451309,143.953426 C37.7193002,150.613387 34.2179329,156.161239 24.2056234,159.921146 C21.0222785,161.116582 15.5582324,161.116582 7.81348493,159.921146 Z" id="Path-290" fill="#334358"></path>
          <path d="M24.2056234,183.38756 C33.4017657,186.244458 43.8317985,161.775444 52.7866256,161.027353 C59.9629862,160.427836 63.1416034,166.081674 69.3094399,166.081674 C75.4772763,166.081674 78.1915288,161.454574 86.4380923,160.510336 C91.5838202,159.921146 102.876936,164.151475 112.403816,164.151475 C121.930697,164.151475 127.03334,156.982959 126.414338,155.315194 C124.343822,149.736641 119.58074,148.020741 117.278289,148.020741 C114.287497,148.020741 62.674027,143.953426 60.0300437,143.953426 C59.2092515,143.953426 51.9452265,141.068179 47.6451309,143.953426 C37.7193002,150.613387 34.2179329,156.161239 24.2056234,159.921146 C19.4306061,161.714301 7.63973147,178.241157 24.2056234,183.38756 Z" id="Path-290-Copy" fill="url(#linearGradient-15)"></path>
          <path d="M89.8501977,176.560618 C87.9292368,178.172197 86.9687564,179.710897 86.9687564,181.176719 C86.9687564,183.375452 88.3912481,185.900009 91.4771698,185.900009 C94.5630914,185.900009 103.899937,182.661306 106.841682,183.684515 C109.783428,184.707724 116.323146,185.347438 119.607439,183.684515 C122.891732,182.021592 125.691366,178.135557 122.891732,175.407651 C121.025309,173.589048 117.85931,172.725264 113.393733,172.8163 C108.248789,172.657979 104.18084,172.870281 101.189888,173.453208 C98.198935,174.036134 94.4190383,175.071938 89.8501977,176.560618 Z" id="Path-291" fill="#383838"></path>
          <path d="M79.8063781,38.1385957 C82.3126694,37.496566 84.4793361,37.6714833 86.3063781,38.6633476" id="Path-183" stroke="#233141" stroke-width="1.53527408" stroke-linecap="round" stroke-linejoin="round" transform="translate(83.056378, 38.211760) rotate(26.000000) translate(-83.056378, -38.211760) "></path>
        </g>
        <g id="Group-62" transform="translate(41.500000, 273.500000) rotate(-7.000000) translate(-41.500000, -273.500000) translate(3.000000, 249.000000)">
          <path d="M-6.82120945e-15,3.83999954 L-6.82120945e-15,45.0014009 C-1.03287396e-14,47.1221741 1.71922636,48.8414004 3.83999954,48.8414004 L63.4874838,48.8414004 C65.2536353,48.8414004 66.7920348,47.6367055 67.2154819,45.9220674 L75.5338279,12.2391027 C76.0422979,10.1801862 74.7854128,8.09890815 72.7264963,7.59043808 C72.4252597,7.51604466 72.1161166,7.47843661 71.8058298,7.47843661 L30.7579651,7.47843661 L30.7579651,7.47843661 L30.7579651,3.83999954 C30.7579651,1.71922636 29.0387387,5.45094957e-17 26.9179655,0 L3.83999954,0 C1.71922636,8.33668924e-16 -5.30457242e-15,1.71922636 -6.82120945e-15,3.83999954 Z" id="Path-293" fill="#72B2EF"></path>
          <path d="M0,3.83999954 L0,45.0014009 L0,45.0014009 L7.52044941,10.5006011 C7.90500767,8.73640237 9.46672274,7.47843661 11.2723479,7.47843661 L30.7579651,7.47843661 L30.7579651,7.47843661 L30.7579651,3.83999954 C30.7579651,1.71922636 29.0387387,-1.06213939e-14 26.9179655,-1.02318142e-14 L3.83999954,-1.02318142e-14 C1.71922636,-9.84223446e-15 -2.59719809e-16,1.71922636 0,3.83999954 Z" id="Path-293-Copy" fill="#5E9AD3"></path>
        </g>
      </g>
    </g>
  </g>
</svg>
