<?xml version="1.0" encoding="utf-8"?>
<!-- Generator: Adobe Illustrator 20.0.0, SVG Export Plug-In . SVG Version: 6.00 Build 0)  -->
<svg version="1.1" id="Layer_1" xmlns="http://www.w3.org/2000/svg" xmlns:xlink="http://www.w3.org/1999/xlink" x="0px" y="0px"
	 viewBox="0 0 720 439" style="enable-background:new 0 0 720 439;" xml:space="preserve">
<style type="text/css">
	.st0{fill:#D3D3D3;stroke:#444444;stroke-width:2;}
	.st1{fill:none;stroke:#444444;stroke-miterlimit:10;}
	.st2{fill:#444444;}
</style>
<title>MacBook</title>
<desc>Created with Sketch.</desc>
<g id="Components">
	<g id="Contents" transform="translate(-567.000000, -4944.000000)">
		<g id="Contents-_x23_10" transform="translate(0.000000, 4814.000000)">
			<g id="Image">
				<g id="MacBook" transform="translate(568.000000, 130.000000)">
					<path class="st0" d="M633.7,1H84.3C73.7,1,65,10.1,65,21.3v380.5c0,7.3,5.6,13.2,12.6,13.2h562.9c6.9,0,12.6-5.9,12.6-13.2
						V21.3C653,10.1,644.3,1,633.7,1z M634,389H81V30h553V389z"/>
					<path id="Fill_2_" class="st0" d="M718,415H0v13c2.1,1.1,7,3.8,9.3,4.9c3.7,1.8,7.3,3.2,10.6,4.1c2.6,0.7,4.9,1,7,1h664.3
						c2.1,0,4.4-0.4,7-1c3.3-0.9,6.8-2.3,10.5-4.1c2.4-1.2,7.2-3.9,9.3-4.9V415z"/>
					<path id="Line" class="st1" d="M717,427H-0.9"/>
					<path id="Fill_3_" class="st2" d="M316,424c-4.4,0-8-4.4-8-9.9V414h99v0.1c0,5.5-3.6,9.9-8,9.9H316z"/>
					<path id="Fill_4_" class="st2" d="M362,18.5c0,1.9-1.6,3.5-3.5,3.5s-3.5-1.6-3.5-3.5s1.6-3.5,3.5-3.5S362,16.6,362,18.5"/>
				</g>
			</g>
		</g>
	</g>
</g>
</svg>
