<svg xmlns="http://www.w3.org/2000/svg" viewBox="0 0 47.3 43.74">
  <title>support</title>
  <g id="Layer_2" data-name="Layer 2">
    <g id="Layer_1-2" data-name="Layer 1">
      <path d="M46.9,17.84c-1.7-8.4-6.7-14-14.8-16.8-.2-.1-.5-.2-.7-.3L27.8,0c-1.4,0-2.7-.1-4,0A21.53,21.53,0,0,0,4.6,15.34c-.1.2-.2.3-.3.5l-.7,3.4c.1,1.8,0,3.6.2,5.4a24.6,24.6,0,0,0,1.1,4.5,2.44,2.44,0,0,1-.2,2.2c-1.3,2-2.6,3.9-3.9,5.9-.3.5-.5,1-.8,1.5l.2.2c.8-.1,1.6-.3,2.4-.4,2.1-.3,4.1-.7,6.1-1.1a2.66,2.66,0,0,1,2.4.8,19.34,19.34,0,0,0,7.3,4.3l.6.3,4.8.9a37.49,37.49,0,0,0,4.8-.3c8.9-1.6,14.8-6.6,17.7-15.2.1-.2.2-.3.3-.5l.7-3.4A47.25,47.25,0,0,0,46.9,17.84Zm-21,16.1a2.4,2.4,0,1,1,2.4-2.4A2.43,2.43,0,0,1,25.9,33.94Zm5.8-16.3a9.51,9.51,0,0,1-2.7,3.6,5.8,5.8,0,0,0-2.5,4.2H24.1A7.13,7.13,0,0,1,26.8,20a11,11,0,0,0,2.3-2.5,3.52,3.52,0,0,0-1-4.8,3,3,0,0,0-1.3-.5c-2.8-.6-4.9.7-5.5,3.7H19.1a6.06,6.06,0,0,1,5.2-6.1,6.36,6.36,0,0,1,7.6,4.5,5.34,5.34,0,0,1-.2,3.3Z"/>
    </g>
  </g>
</svg>
