<?xml version="1.0" encoding="utf-8"?>
<!-- Generator: Adobe Illustrator 20.0.0, SVG Export Plug-In . SVG Version: 6.00 Build 0)  -->
<svg version="1.1" id="Layer_1" xmlns="http://www.w3.org/2000/svg" xmlns:xlink="http://www.w3.org/1999/xlink" x="0px" y="0px"
	 viewBox="0 0 464.5 371.6" style="enable-background:new 0 0 464.5 371.6;" xml:space="preserve">
<style type="text/css">
	.st0{fill:#B7E1E3;}
	.st1{fill:#D8F0E8;}
	.st2{fill:#B3DEE0;}
	.st3{fill:#F9FAF9;}
	.st4{fill:#6DDFA9;}
	.st5{fill:#043637;}
	.st6{fill:#00364B;}
	.st7{fill:#3DC399;}
	.st8{fill:#FEAA9A;}
	.st9{fill:#59D7A1;}
	.st10{fill:#FAFAF9;}
	.st11{fill:#CEDAD4;}
	.st12{fill:#01364B;}
	.st13{fill:#F7FAF9;}
	.st14{fill:#3DC39A;}
	.st15{fill:#6DDFAA;}
	.st16{fill:#C5D0D5;}
	.st17{fill:#B4DFE1;}
	.st18{fill:#3DC49A;}
	.st19{fill:#B8E2E4;}
	.st20{fill:#F8FAF9;}
	.st21{fill:#E1F3ED;}
	.st22{fill:#FEAC9D;}
	.st23{fill:#E9EEE7;}
	.st24{fill:#BDE5E7;}
	.st25{fill:#FE91CE;}
	.st26{fill:#EFF7F5;}
	.st27{fill:#BEE5E7;}
	.st28{fill:#BAE2E4;}
	.st29{fill:#BBE3E5;}
	.st30{fill:#B8E1E3;}
	.st31{fill:#B9E2E3;}
	.st32{fill:#B9E2E4;}
	.st33{fill:#BAE3E4;}
	.st34{fill:#32C093;}
	.st35{fill:#BFE6E8;}
	.st36{fill:#E9F0EE;}
	.st37{fill:#BDE4E6;}
	.st38{fill:#BFE6E7;}
	.st39{fill:#E8FAF4;}
	.st40{fill:#97EAC4;}
	.st41{fill:#7EE6B5;}
	.st42{fill:#577778;}
	.st43{fill:#C1E7E9;}
	.st44{fill:#A2E9C9;}
	.st45{fill:#FE5CB8;}
	.st46{fill:#45939E;}
	.st47{fill:#91C6C4;}
	.st48{fill:#FEFEFE;}
	.st49{fill:#AACDD2;}
	.st50{fill:#FC90CE;}
	.st51{fill:#02384C;}
	.st52{fill:#D1ECE5;}
	.st53{fill:#05394E;}
	.st54{fill:#71E0AC;}
	.st55{fill:#002B41;}
	.st56{fill:#62B1B3;}
	.st57{fill:#C4E8E8;}
	.st58{fill:#C34B92;}
	.st59{fill:#ABCDD2;}
	.st60{fill:#227B88;}
	.st61{fill:#D963A8;}
	.st62{fill:#F7F8F7;}
	.st63{fill:#E1E9E7;}
	.st64{fill:#E4ECEA;}
	.st65{fill:#B2E0DE;}
	.st66{fill:#ECF6F1;}
	.st67{fill:#F1F7F4;}
	.st68{fill:#FD91CE;}
	.st69{fill:#F5F8F8;}
	.st70{fill:#F3F8F6;}
	.st71{fill:#F2F9F6;}
	.st72{fill:#E6F4EF;}
	.st73{fill:#EBF6F2;}
	.st74{fill:#DDF1EA;}
	.st75{fill:#E2F3EE;}
	.st76{fill:#F6F9F8;}
	.st77{fill:#DFF3EC;}
	.st78{fill:#FD8FCE;}
	.st79{fill:#F9F4F0;}
	.st80{fill:#E9F5F0;}
	.st81{fill:#F0F7F4;}
	.st82{fill:#EEEFE9;}
	.st83{fill:#E2E8E6;}
	.st84{fill:#6C5456;}
	.st85{fill:#E8F5F1;}
	.st86{fill:#063738;}
	.st87{fill:#FC8FCD;}
	.st88{fill:#FB8FCC;}
	.st89{fill:#2D5566;}
	.st90{fill:#82625D;}
	.st91{fill:#EF74C1;}
	.st92{fill:#FE75B0;}
	.st93{fill:#EE73C1;}
	.st94{fill:#DDDFE3;}
	.st95{fill:#44939E;}
	.st96{fill:#1F7785;}
	.st97{fill:#D7EFE7;}
	.st98{fill:#D3EDE5;}
	.st99{fill:#D5EEE6;}
	.st100{fill:#83E3B8;}
	.st101{fill:#227B87;}
	.st102{fill:#187483;}
	.st103{fill:#F8FCFA;}
	.st104{fill:#45949F;}
	.st105{fill:#96CAC7;}
	.st106{fill:#E3F9F0;}
	.st107{fill:#FDFCFB;}
	.st108{fill:#FDFEFD;}
	.st109{fill:#FEA797;}
	.st110{fill:#90C6C4;}
	.st111{fill:#91C7C4;}
	.st112{fill:#A1C6CC;}
	.st113{fill:#D7EFE8;}
	.st114{fill:#ABCED3;}
	.st115{fill:#D4EDE6;}
	.st116{fill:#DAF2EA;}
	.st117{fill:#96C5C3;}
</style>
<g>
	<path class="st0" d="M446.5,15.7C445,8.5,439.3,3,432.4,2c-7.5-1-14.2,2.6-17.8,9.4c-0.4,0.8-0.4,1.9-2,1.3
		c-7.6-2.8-13,0.8-13.6,8.8c0.4,0.8,0,1.4-0.8,1.4c-4.7,0.1-9.4,0.4-14.1-0.2c-0.3,0-0.3-0.4-0.4-0.8c2.1-0.3,4.2-0.1,6.3-0.2
		c2.5-0.1,5,0.4,7.5-0.3c0-8.4,5.9-13.1,13.9-11.2c0.8,0.2,1.4,0.4,1.9-0.4c3-5.4,7.8-8.2,13.5-9.8c2,0,3.9,0,5.9,0
		c3.5,1.3,7.1,2.4,10,5.2c3.9,3.8,5.8,8.3,5.7,13.8c0,0.8,0,1.6,0,2.4c0.3,0.6,1.1,0.1,1.5,0.7c-0.4,1-1.2,0.8-2,0.6
		c-0.8-0.2-0.7-1-0.7-1.6C447.2,19.3,447.5,17.4,446.5,15.7z"/>
	<path class="st1" d="M218.6,127.7c0.8,0.7,1.7,0.4,2.6,0.4c20.3,0,40.6,0,60.9,0c1.1,0,2.3,0.2,3-1c0.6,0.3,1.4,0.2,2,0.5
		c0.8,0.8,1.8,0.5,2.8,0.5c14.9,0,29.8,0,44.7,0c0.7-0.6,1.5-0.9,2.4-0.5c1.6,1.1,3.3,0.2,5,0.5c-0.4,1.4-1.8,1.2-2.8,1.6
		c-6.1,2.2-9.9,7.4-9.8,13.8c0,7.7,0,15.3,0,23c0,0.3,0,0.6,0,0.9c0,5.5,0.3,11-0.2,16.5c-0.5,4.9-0.3,9.8-0.3,14.6
		c-0.1,37.4,0,74.8-0.1,112.1c0,1.4,0.3,2.9-0.5,4.3c-0.8,0.7-1.8,0.6-2.8,0.6c-12,0-23.9,0-35.9,0c-0.9,0-1.8,0.1-2.6-0.5
		c-0.7-0.9-0.7-2-0.7-3c0-17,0-34,0-51.1c0-0.7,0-1.5,0.3-2.2c0.1-0.3,0.3-0.6,0.5-0.8c2.6-1.1,5.3-0.5,8-0.6
		c6.5-0.1,5.9,0.7,5.9-5.9c0-18.8,0-37.7,0-56.5c0-0.7,0-1.5,0-2.2c-0.1-2.5-0.3-2.7-2.9-2.8c-0.4,0-0.8,0-1.2,0
		c-32.3,0-64.5,0-96.8,0c-0.3,0-0.7,0-1,0c-2.9,0.1-3.1,0.2-3.1,3.1c0,7.3,0,14.5,0,21.8c0,1.3,0.2,2.6-0.6,3.8
		c-0.2,0.2-0.5,0.4-0.8,0.5c-5.6,0.3-11.1,0.6-16.7-0.2c-1.2-0.9-1-2.1-0.9-3.3c0.2-1.6,0.3-3.2,0.6-4.8c0.3-1.7,0.1-2.9-2-2.9
		c-0.6,0-1.3-0.2-1.7-0.8c-0.9-2.4-0.4-4.8-0.5-7.3c-0.1-2.8-0.3-3-3.1-3.1c-8,0-16,0-24,0c-2.9,0-3.1,0.3-3.1,3.3
		c0,13.9,0,27.9,0,41.8c0,1.4,0.2,2.8-0.6,4c-2.8,1.2-5.6,1-8.4,0.2c-1-1-0.7-2.4-0.8-3.7c-0.1-2.2,0.2-4.4-0.1-6.5
		c-0.1-1.4,0.4-2.8-0.1-4.3c0.4-6.6,0.1-13.3,0.2-19.9c0-0.9-0.2-1.8,0.3-2.6c0.7-0.7,0.4-1.5,0.4-2.3c0-4.1,0.3-8.2-0.1-12.2
		c-0.4-4.8,4.9-10.9,10.9-10.9c8.9,0,17.8-0.1,26.6,0.1c2.2,0,2.7-0.7,2.7-2.8c-0.1-12.7-0.1-25.4,0-38.1c0-7.1,6.1-13.9,12.7-14.4
		c0.6,3.5,0,7,0.6,10.6c0.5,3.3,0.7,6.6,1.5,9.8c0.2,2.8,1,5.6,1,8.5c-0.2,1.6-1.2,2.8-2.5,3.7c-0.8,0.6-1.9,1.1-2,2.4
		c0.8,0.6,1.5,0.1,2.3,0c1-0.2,1.8-0.7,2.7-1c4.1-1.6,4.1-1.6,2.3-5.6c-0.4-2.7,0.5-5.3,0.4-8c1.2-4.9,0.7-10,1.4-15
		c0.2-1.3,0-3.4,1.6-3.4c1.9,0,1.3,2.1,1.3,3.3c-0.1,5.4,0.4,10.7,0.9,16c-0.1,3,0.6,6,0.4,9c-0.4,1.3-0.4,2.7-1,4
		c-0.3,0.7-1,1.5-0.2,2.2c0.8,0.8,1.8,0.5,2.8,0.3c1-0.3,1.5-0.9,1.5-1.9c0.1-1.3-0.5-2.5-0.4-3.9c0.5-3.1,0.4-6.2,1-9.3
		c1.3-3.6,1-7.4,1.3-11.1c0.3-3.5,1.6-6,4.9-7.4c2.9-1.1,5.7-2.5,8.4-3.9C217.5,127.7,218,127.4,218.6,127.7z"/>
	<path class="st2" d="M448.4,338.4c4.6,1.5,9.4,2.6,13.5,5.4c3.3,2.3,3.3,4.7,0.1,7.1c-3.7,2.7-8.1,3.8-12.4,5
		c-10.9,3.1-22.2,4.8-33.4,6.3c-9.5,1.3-19.1,2.5-28.7,3.1c-1.9,0.1-3.7,0.4-5.6,0.4c-1.5,0.3-3-0.5-4.4,0.5
		c-10.6,0.8-21.2,1.6-31.8,2.4c-3.1,0.2-6.2,0.4-9.2,0.4c-10.2,0.3-20.5,1-30.7,1.2c-11.8,0.2-23.6,0.6-35.3,0.9
		c-23.9,0.8-47.9,0.4-71.8,0.3c-12.3-0.1-24.5-0.7-36.8-0.9c-8.1-0.1-16.2-0.5-24.3-0.9c-11.4-0.6-22.8-1.2-34.3-2
		c-5.4-0.3-10.8-0.9-16.2-1.4c-1.5-1.2-3.3,0.2-4.9-0.5c-5.4-0.1-10.7-1-16.1-1.5c-1-0.9-2.3-0.2-3.5-0.4c-7.9-0.6-15.8-1.7-23.6-3
		c-10.2-1.6-20.3-3.3-30.1-6.7c-2.4-0.8-4.7-1.9-6.7-3.4c-2.9-2-2.9-4.6-0.1-6.7c1.9-1.4,4.1-2.4,6.3-3.2c6.4-2.2,12.8-4,19.5-4.9
		c0.8,0.3,1.4-0.1,2-0.5c7.1-1.6,14.3-2.4,21.5-3.4c8.6-1.1,17.2-2.1,25.8-2.9c5.1-0.4,10.1-1.2,15.3-1.1c1.3-0.1,2.6-0.3,3.6,0.8
		c-0.3,1.3-1.5,1.4-2.4,1.7c-2.5,1-5,1.6-7.4,2.9c-0.9,2.8,0.8,4.9,2.2,7c0.6,1,1.7,1.8,1.3,3.2c-0.2,0.8-0.5,1.5-0.7,2.3
		c-0.7,3.5,1.2,6.4,4.7,7.1c1.2,0.2,2.4,0.2,3.7,0.2c101.6,0,203.1,0,304.7,0c0.7,0,1.3,0,2,0c3.5-0.2,5.6-1.6,6.4-4.3
		c0.9-2.9-0.5-4.8-2.6-6.5c-0.8-0.7-0.5-1.5,0-2.1c1.8-2.2,2.3-4.8,2.5-7.5c0.2-0.6,0.5-1,1-1.2c1.7-0.6,3.4-0.1,5.1,0.2
		c4.2,0.8,8.6,0.8,12.7,2.1c0.9,0.6,1.7,1.3,1.9,2.4c-1,1.5-2.4,2.4-3.9,3.2c-0.6,0.3-1.2,0.6-1.7,1c-0.6,0.5-1.2,1-0.9,1.8
		c0.3,0.8,1.1,0.4,1.7,0.3c2.5-0.4,5-0.9,7.4-1.3c2.7-0.5,3-1.1,2-3.6c-0.2-0.5-0.5-0.8-0.6-1.3c-0.1-1,0-2,0.6-2.8
		c1.6,1.4,3.3,2.6,5.6,2.2c0.2,0,0.4,0.2,0.6,0.4c0.5,1.1-0.1,2.2,0,3.4c0,2.3,0.7,2.7,3.5,2.8c2,0,2.7-0.7,2.1-2.7
		C447.3,338.8,447.1,337.9,448.4,338.4z"/>
	<path class="st3" d="M133.9,246c2.8,0,5.6,0,8.4,0c1.9-1.3,4-0.6,6-0.7c1-0.1,2.1-0.1,3.1,0c1.7,0,3.3-0.1,5,0c1.5,0,3-0.1,4.5,0
		c2.5,0,5.1-0.1,7.6,0c1.6,0,3.2,0,4.8,0c4.1,0.1,8.1,0,12.2,0.1c2.1,0.1,3-0.8,3-2.9c0-2.1,0.4-4.2,0.8-6.3
		c0.9-4.4,3.9-5.7,7.8-3.5c5.9,3.4,11.5,7.3,17.4,10.8c2.1,1.3,4.2,2,6.7,1.8c2.1-0.1,4.2-0.1,6.3,0c1.5,0.1,2.6,0.5,2.4,2.3
		c-0.3,1.3-0.6,2.6-1,3.8c-2.3,9.1-4.9,18.2-7.2,27.3c-3.1,11.6-6.2,23.1-9.3,34.7c-1.6,4.9-2.3,10-4.3,14.8
		c-0.5,1.1-1.5,1.4-2.6,1.5c-0.9,0.1-1.8,0.1-2.7,0.1c-33.2,0-66.5,0-99.7,0c-1.6,0-3.3,0.3-4.8-0.7c-0.6-0.8-1.7-0.9-2.4-1.6
		c0.3-0.4,0.8-0.5,1.3-0.4c1.8,0.2,2.6,0.1,2.5-2.4c-0.1-1.1-1-3.9,1.6-4.8c0.3-0.1,0.6-1.1,0.4-1.6c-0.7-2.4,0.2-4.4,1.7-6.2
		c0.8-1-0.3-2,0-3c0.6-1.5,0.7-3.3,1.5-4.7c1-1.6,0.1-2.3-0.7-3.3c2.1-3.3,2.3-7.3,3.5-10.8c0.8-2.3,1.1-4.7,1.9-7
		c0.6-1.8-0.1-2.6-1.9-2.7c-3.5-0.3-7-0.3-10.4-0.5c-4.7-0.2-9.4-0.9-14.1-0.6c-1.1,0.1-2-0.4-3.1-0.2c-0.5-0.4-1-0.8-2-1.6
		c3.4,0.9,6.1,0.5,8.9,0.4c-2.9-0.7-6,0.3-8.7-1.3c0.6-0.7,1.4-0.8,2.2-0.7c6.5,0.7,13.1,0.6,19.7,1.3c3.1,0.3,6.2-0.1,9.3,0.4
		c0.9,0.1,1.7-0.3,1.9-1.2c2-8.3,5.1-16.3,6.1-24.8c0.1-0.7,0.3-1.3,0.6-1.9c0.2-0.3,0.6-0.6,0.7-1c0.5-3.5,2.9-3.9,5.8-3.6
		c2.1,0.2,3.3-0.7,4-2.7c0.9-2.7,2.2-5.2,3.2-7.9c0.3-1,0.7-2,1.8-2.4c1.2,1.2,0,2.4,0.1,3.5c0.2,2.5-1.3,4.6-2.1,6.8
		c-0.8,2.4-0.9,2.3,1.6,2.9C133.4,245.6,133.7,245.7,133.9,246z"/>
	<path class="st4" d="M117.8,251.4c1.2,2.2-0.2,4.3-0.7,6.3c-1.5,6.3-3.4,12.5-5,18.8c-0.5,1.8-1.2,2.3-3.1,2.1
		c-3.6-0.4-7.3-0.5-10.9-0.7c-6.6-0.4-13.3-0.7-19.9-1c-9.4-11.8-16.3-24.9-21.1-39.2c-0.4-1.2,0.5-1.4,1.3-1.6
		c0.8-0.2,1.6-0.1,2.4-0.1c15,0,30,0.1,45-0.1c2.8,0,4.5,0.9,5.9,3.3c1.7,3.1,3.4,6.1,5.2,9.1C117.4,249.3,117.9,250.3,117.8,251.4z
		"/>
	<path class="st5" d="M435.8,333.5c-0.3,0.9,0.3,2.1-0.6,2.9c-1.4,1.6-2.8,1.6-4.3,0c-1-0.3-1-1.3-1.5-1.9c-0.9-0.5-1-1.4-1.3-2.2
		c-3-10.2-5.4-20.5-7.8-30.8c-0.8-3.4-0.3-6.7,0.2-10c1.7-11.9,4.9-23.3,10.4-33.9c0.6-1.2,1.1-2.4,2.5-2.8c2.1-0.3,4.2-0.4,6.2,0.1
		c0.1,0,0.2,0.1,0.2,0.1c0.2,3.5,3.1,2.8,5.2,3.3c1.1,0.4,2.3,0.2,3.4,0.5c1.9,0.5,4,0.4,5.8,1.2c0.6,0.8,0,1.9,0.5,2.7
		c1.3,14.1-1.4,27.9-3.1,41.8c-1.3,10.3-2.8,20.6-4.2,31c-0.4,0.3-0.9,0.1-1.3,0c-1.6-0.8-3.1,0.1-4.5,0.6c-0.2,0-0.3-0.1-0.5-0.1
		c-1-1-0.7-2.3-0.8-3.5c0-6.8,0-13.7,0-20.5c0-9.4-0.9-18.8-1.3-28.8c-2.1,3.5-3.1,7-4.9,10.1c-2.3,4.1-2.5,8-1.3,12.6
		c2.1,8.3,2.9,16.8,3.5,25.3C436.4,332,436.4,332.9,435.8,333.5z"/>
	<path class="st4" d="M56.3,235.1c-1.1-5.6-2.6-11.2-3.5-16.9c-1.1-7.3-1.3-14.7-1.4-22.1c0.5-3.2,0.5-3.2,3.9-3.2
		c7.5,0,15,0.1,22.5,0c1.6,0,2.7,0.4,3.7,1.7c9.2,12.1,18,24.5,25.9,37.6c1.7,2.9,1.3,3.7-2.1,3.7c-15.6,0-31.3,0-46.9,0
		C57.5,235.9,56.6,236.2,56.3,235.1z"/>
	<path class="st4" d="M328.7,167.2c0-0.1,0-0.3,0-0.4c0.2-0.2,0.5-0.4,0.7-0.6c1.2-0.4,2.4-0.3,3.6-0.3c7.7,0,15.3,0,23,0
		c2.8,0,3.1-0.2,3.1-3.1c-0.1-6.2-0.7-12.4-0.5-18.6c0-1.2-0.2-2.5,0.9-3.4c1,3,0.3,6.1,0.5,9.2c0.1,2,0,4,0,6.6
		c1.9-1.8,3.5-3.3,5.2-4.8c7.4-6.7,15.7-11.7,25-15.3c1.6-0.6,2.2-0.3,3,1.1c4.8,9.3,8.1,19.1,9.4,29.5c0.2,1.6,0.4,3.2,0.6,4.8
		c-1,0.3-1-0.5-1.2-1.1c-0.3-0.9-0.4-1.7-0.5-2.6c-0.3-2.2-0.6-2.4-2.7-1.6c-3.7,1.5-7.3,3.2-10.7,5.2c-8.9,5.2-16.8,11.7-23.2,19.9
		c-1.2,1.5-1.8,3-1.8,4.9c0,4.1,0.1,8.1,0,12.2c-0.2,0.6-0.2,1.4-1.2,1.2c-0.7-0.9-0.6-2-0.6-3c0-3.8,0-7.6,0-11.4
		c-0.1-6.8-4.3-11-11.1-11.2c-0.9,0-1.8,0-2.6-0.3c-1.5-1.2-2.7-2.6-3.1-4.5c1-3.5,3-6.5,4.7-9.6c1-1.9,0.9-2.2-1.3-2.2
		c-5.3,0-10.6,0-15.9,0C330.8,167.9,329.6,168.1,328.7,167.2z"/>
	<path class="st4" d="M133.5,232.3c-1.6,4-3.3,7.9-4.9,11.9c-0.6,1.4-1.3,2.1-2.8,1.9c-0.7-0.1-1.5,0.1-2.2,0
		c-2.4-0.4-3.9,0.3-4.1,3c0,0.5-0.1,1.5-1.1,0.8c-2.1-1.9-3.1-4.6-4.4-6.9c-4-7.1-8.3-14-12.8-20.7c-1.3-1.9-1.6-3.7-1.2-6
		c1.9-9.9,3.8-19.8,5.7-29.7c0.2-1-0.3-2.9,1.9-2.8c9.9,7.2,18.6,15.7,26,25.5c0.4,0.9,0.4,1.9,0.4,2.9c0,5.4,0,10.9,0,16.3
		C134,229.8,133.9,231,133.5,232.3z"/>
	<path class="st6" d="M359.5,140.9c0.1,7.8,0.1,15.6,0.4,23.4c0.1,2.2-0.7,2.7-2.7,2.7c-9.3-0.2-18.7-0.2-28-0.3
		c-0.5-3.9-0.1-7.9-0.2-11.8c-0.1-4,0.3-8.1-0.2-12.1c0.2-6.7,5-12.4,11.7-14.1c0.5-0.1,1.1-0.3,1.6-0.5
		C351.4,127.9,357.8,132.6,359.5,140.9z"/>
	<path class="st4" d="M60.7,164.8c8.8,1.1,17.1,3.8,25.2,7.1c6.9,2.8,13.4,6.6,19.7,10.6c0.7,2.4-0.3,4.6-0.8,6.9
		c-1.6,8.5-3.1,17.1-4.9,25.6c-0.2,0.8,0.1,2-0.9,2.3c-1.2,0.3-1.7-0.8-2.2-1.6c-4.2-6.3-8.7-12.4-13.2-18.4
		c-6.5-8.7-13.3-17-20.3-25.3c-1.7-2-3.7-3.9-4.8-6.4C58.7,164,59.9,165,60.7,164.8z"/>
	<path class="st7" d="M385.9,220.2c11.8,0,23.6,0,35.4-0.1c2.2,0,2,1,1.4,2.4c-2.1,5.6-4.6,10.9-7.5,16.1c-0.6,0.9-1.2,0.6-1.7,0
		c-0.7-0.8-1.4-1.7-2-2.7c-1-1.6-2.3-3.1-3.4-4.8c-0.3-0.4-0.7-0.8-1-1.2c-0.4-0.6-0.7-1.2-1.2-1.7c-0.6-0.4-1.2-0.1-1.7,0
		c-0.3,0.1-0.7,0.1-1,0.2c-1.4,0.1-2.9-0.1-4.3,0.2c-1.2,0.4-2.6,0-3.8,0.4c-0.1,0.8,0.4,1.2,0.8,1.7s0.7,1.1,1.1,1.6
		c1,1.3,1.9,2.6,2.9,3.9c0.3,0.4,0.7,0.8,1,1.3c0.5,0.8,1.1,1.6,1.5,2.6c0.2,2.9,1.7,4.8,4.3,6c0.7,0.8,2.3,1.1,1.6,2.7
		c-0.7,0.9-1.8,1-2.8,1.1c-4.4,0.2-8.9,0.7-13.3,0.5c-0.7,0-1.5,0-2.2,0.3c-0.7,0.2-1.4,0.2-2.1,0.2c-2.5,0.1-5-0.2-7.5,0.2
		c-3,0.5-6,0.1-9,0.3c-1.8,0.1-1.5-1.1-1.1-2.1c0.9-2.4,2-4.8,3.1-7.1c3.3-7,6.8-13.8,10.8-20.4
		C384.6,221.2,384.9,220.4,385.9,220.2z"/>
	<path class="st7" d="M427.4,189.3c0.8,5.8,0,11.5-0.8,17.2c-0.6,4.2-1.7,8.4-2.7,12.6c-0.6,0.7-1.4,0.3-2.1,0.3c-11,0-22,0-33,0
		c-2.7,0-3-0.4-1.5-2.7c4.7-7.4,9.5-14.8,14.8-21.8c1.5-1.9,2.5-4.2,4.7-5.5c0.3-0.2,0.7-0.3,1-0.5c5.5,0.5,11,0.1,16.5,0.2
		C425.4,189.1,426.4,188.8,427.4,189.3z"/>
	<path class="st8" d="M440.1,255.3c-2.3,0-4.6-0.1-6.9-0.1c-0.8-0.8-0.5-1.8-0.6-2.8c-0.3-2.7-1-5.3-2.3-7.9c-1.3,0.8-1.5,2-2,3
		c-1.2,2.3-2.7,4.4-4.6,6.2c-1.1,1-2.4,1.4-3.8,0.9c-3.6-1.2-6.7-3.2-9.4-5.9c-0.2-0.2-0.3-0.6-0.3-0.9c0.4-0.5,1-0.8,1.6-0.9
		c1.4-0.3,2.8,0.1,4.2-0.4c1.4-0.4,2.7,0.1,4,0.4c1.5-2,2.2-4.3,2.9-6.6c0.5-1.5,0.8-3,1.2-4.5c1.4-5.7,4.5-9.7,10.5-10.8
		c0.5-0.1,0.9,0,1.4,0.2c4.2,3.4,5.2,3.4,11-0.5c2.3,0,4.2,1.1,6.3,1.8c5.4,3.6,6.3,9.4,7.5,15.1c-0.4,1.3-1.5,1-2.4,1
		c-0.8,0-1.6-0.4-2.4-0.3c-1.1,0-2.1-0.2-3.1-0.4c-0.4,0-0.7-0.1-1.1-0.1c-1.8-0.1-3.6-1.2-5.3,0.2c-1.7,3.8-3.2,7.6-4.8,11.4
		C441.3,254.2,441.4,255.3,440.1,255.3z"/>
	<path class="st5" d="M197.6,150.3c-1.1-6.5-0.9-13-1.1-20c-1.5,1.1-1.4,2.5-1.5,3.7c-0.3,4.2-0.5,8.4-0.8,12.7
		c-0.1,0.8-0.4,1.6-0.6,2.3c-1.9,1.7-3.3,1.7-5.3,0.1c-1.5-6-2-12.1-2.1-18.2c0-0.8,0.1-1.6,0.6-2.3c0.6-0.3,0.8-0.9,1-1.4
		c0.7-1.4,2-1.2,3.1-1.2c4-0.1,8,0.1,12-0.1c2.3-0.6,3.5-2.5,5.1-4c0.7-0.7,1.4-1.4,2.2-2c0.5-0.4,0.9-1,1.5-1.4
		c1.8-0.9,3.5-1.9,5.3-2.9c0.7-0.4,1.5-1,2.5-0.6c2.8,4.4,2.9,8.7-0.9,12.7c-3.1,2.2-6.6,3.4-10,4.8c-2.8,1.2-3.9,3.3-4.2,6.2
		c-0.4,3.8,0.3,7.8-1.5,11.5C201,151.7,199.5,151.7,197.6,150.3z"/>
	<path class="st7" d="M409.3,184.8c-1.1,1.2-2.2,2.4-2.9,3.8c-0.3,1.7-1.7,2.8-2.6,4.1c-2.9,3.9-5.8,7.9-8.5,11.9
		c-0.4,0.7-0.9,1.5-1.9,1.3c-0.8-0.2-0.7-1.2-0.9-1.9c-0.6-2-0.8-4-1.2-6c-0.7-4.6-1.7-9.1-2.5-13.7c-0.1-0.6-0.1-1.2-1-0.9
		c-1-0.4-1-1.2-1.1-2.1c1.6-2.4,4.3-3.3,6.5-4.9c2.3-1.6,5-2.6,7.5-3.9c0.9-0.5,1.9,0,2.8-0.4c6.2-2.6,12.7-4.2,19.3-5.2
		c0.5-0.1,1-0.1,1.3,0.3c0,1-0.7,1.6-1.3,2.2c-4,4.1-7.6,8.7-11.2,13.2C410.9,183.5,410.3,184.5,409.3,184.8z"/>
	<path class="st8" d="M219.5,115c-2.6,1.3-5.1,2.7-7.7,4c-0.4,0.1-0.9,0.3-1.4,0.1c-0.4-1.2,0.7-2.7-0.8-3.7c0.3-2.2,2.2-3,3.7-4.2
		c-0.1,0.3-0.1-0.3,0.2-0.1c0.3,0.2,0.5-0.3,0.2-0.2c-0.7,0.2-1.3,0.5-2.1,0.7c-2.4,0.2-4.8,1-7.3,0.4c-1.8-1.1-1-3.3-2.4-4.9
		c-1.9,2.5-2.8,5.6-5.1,7.6c-1.9,0.7-3.8,1-5.6-0.2c0.1-1,0.9-1.7,1.4-2.5c2.2-3.6,4.2-7.3,5-11.5c0.6-3.2,2.3-5.7,5-7.5
		c0.8-1.2,1.8-1.9,3.3-1.5c0.2,1.2,0.2,2.5,1.8,2.8c1.6,0.2,2.9-0.4,3.9-1.5c0.4-0.4,0.3-1.1,0.9-1.4c4.7,0,7.8,1.9,9.5,6.1
		c1.1,2.6,2.3,5.2,2.8,8c-0.6,0.5-0.5,1.1-0.3,1.7c0.9,3-0.4,4.9-2.8,6.5C220.9,113.9,220.2,114.5,219.5,115z"/>
	<path class="st1" d="M231.8,49.4c-3.6,1.6-6.8,3.7-10.2,5.7c-1.3,0.8-2,0.6-2.9-0.4c-7.2-7.7-14.4-15.4-21.6-23.1
		c-1.8-1.9-3.8-3.7-5.8-5.6c0.8-0.8,1.4-0.6,1.9-0.1c0.8,0.8,2,0.5,3,1c9.9,3.6,19.8,7.5,29.7,11.3c4,1.5,8.1,2.9,12.1,4.6
		c0.9,0.4,1.9,0.6,2.4,1.6c-0.2,1.3-1.3,1.5-2.2,2C235.9,47.2,234.1,48.7,231.8,49.4z"/>
	<path class="st9" d="M403.4,172.2c-6,2.3-11.4,5.6-16.6,9.3c-0.4,1.4-1.7,1.9-2.7,2.7c-7.4,5.7-13.5,12.7-18.4,20.6
		c-0.5,0.8-1,1.5-0.8,2.5c-0.3,0.5-0.8,0.6-1.2,1c-0.4,0.2-0.7,0.8-1.3,0.6c0-3.3,0.3-6.6-0.1-9.8c-0.5-4.4,1.6-7.3,4.2-10.3
		c6.8-7.9,15.1-14,24.2-19c2.8-1.5,5.8-2.6,8.7-3.9c2-0.9,2.6,0,2.7,1.9c0,1.5,0.1,3,1.1,4.3C403.2,172.1,403.3,172.1,403.4,172.2z"
		/>
	<path class="st4" d="M80.1,279.3c0.2-0.5,0.7-0.6,1.2-0.6c9.3,0.2,18.6,0.9,27.9,1.4c1.7,0.1,1.8,0.7,1.4,2.1
		c-1.6,5.8-3.1,11.6-4.7,17.4c-0.2,0.8-0.2,2.1-1.8,1.7c-5.3-4.2-10.7-8.2-15.5-13C85.8,285.2,83,282.2,80.1,279.3z"/>
	<path class="st4" d="M51.8,188.8c0.9-7.1,1.9-14.1,3.9-21c0.2-0.7,0.2-1.6,1.1-2c3.2,1.7,5,4.8,7.3,7.4c4.3,4.9,8.3,10,12.4,15.1
		c0.2,0.3,0.4,0.5,0.6,0.8c0.5,0.7,1.3,1.5,0.8,2.4s-1.5,0.4-2.2,0.5c-7.1,0-14.2,0-21.2,0C51.4,191.9,51.4,191.9,51.8,188.8z"/>
	<path class="st10" d="M51.8,188.8c-0.4,2.3,0.6,3,2.9,2.9c6.8-0.2,13.6-0.1,20.5-0.1c0.8,0,1.6,0.2,2.6-0.4
		c-6.6-8.8-13.8-17.2-21-25.4c0.3-0.3,0.6-0.6,0.9-1c0.6-0.2,0.8,0.1,0.9,0.6c14.3,16.5,27.8,33.5,40.2,52.1
		c2.3-12.1,4.6-23.6,6.8-35.1c0.9,0,1.4,0.7,1.9,1.3c-1,0.2-0.9,1-1,1.7c-2.1,10.8-4.1,21.5-6.3,32.3c-0.3,1.5,0.4,2.5,1.1,3.6
		c5.6,8.5,10.9,17.2,15.9,26c0.4,0.8,0.7,1.6,1.1,2.4c-0.1,0.6,0.1,1.2-0.6,1.6c-2.4-4.2-4.9-8.4-7.3-12.7c-0.8-1.4-1.7-2-3.5-2
		c-15.9,0.1-31.7,0-47.6,0.1c-0.8,0-2.1-0.7-2.4,0.9c-0.6-0.7-0.8-1.6-0.9-2.6c1.1,0.9,2.4,0.2,3.5,0.2c15.3,0.1,30.6,0,45.9,0
		c2.6,0,2.6,0,1.3-2.2c-8.2-13.4-17.2-26.3-26.7-38.8c-0.7-0.9-1.4-1.2-2.5-1.2c-8.1,0-16.1,0.1-24.2-0.1c-2.8-0.1-1.5,2.2-2.3,3.1
		c-0.1-3.5-0.1-3.5,3.3-3.5c7.2,0,14.5,0,21.7,0c0.8,0,1.6,0.2,2.7-0.5c-6.6,0-12.7,0-18.9,0c-2.1,0-4.2,0-6.3,0
		C51.1,192.2,50.8,191.7,51.8,188.8z"/>
	<path class="st4" d="M240.1,44.4c-3.9-2.2-8.2-3.3-12.4-4.9c-10.7-4.1-21.3-8.1-32-12.2c-0.1-0.8,0.6-0.8,1.1-0.9
		c17.2,3.3,34,8.1,51.1,12c1.6,0.4,3.4,0.7,2.5,3.1c-1,5.5-2,11-3,16.6c0,0.1-0.1,0.2-0.1,0.2c-0.1,0-0.3,0-0.4-0.1
		c-1.6-1.4-2.1-3.5-3-5.2C242.6,50.2,240.9,47.5,240.1,44.4z"/>
	<path class="st1" d="M250.4,41.6c0.3-1.7-0.8-2.1-2.1-2.4c-11.7-2.8-23.5-5.6-35.2-8.4c-5.5-1.3-11-2.6-16.5-3.9
		c-0.5-0.7-1.9,0.5-2-0.9c5.1,0.5,10.3,1.1,15.4,1.6c5.6,0.6,11.2,1.2,16.9,1.8c0.7,0.7,1.6,0.4,2.5,0.5c5.7,0.2,11.2,1.2,16.9,1.8
		c5.1,0.5,10.1,1.1,15.2,1.6c0.6,0.1,1.5-0.4,1.7,0.3c0.3,1-0.8,1.3-1.5,1.6c-2.8,1.3-5.6,2.7-8.5,3.7
		C251.6,39.4,250.9,40.3,250.4,41.6z"/>
	<path class="st11" d="M191.2,114.4c1.9-0.2,3.9,0.4,5.8-0.4c2.3-0.5,3.7,0.4,4.3,2.6c0.3,1,0.7,2,1,3.1c0.4,2.3,1.6,4.3,1.8,6.6
		c-3.6,0.9-7.2,0.1-10.8,0.4c-1.8,0.1-3.7-0.5-5.5,0.5c-2.3-0.4-3.1-2-3.6-4.1c-0.6-2.3-1.5-4.6-2.3-6.9c-0.5-1.3-0.3-1.9,1.3-1.8
		C185.9,114.5,188.6,114.4,191.2,114.4z"/>
	<path class="st12" d="M205.8,91.6c-1.1,0.4-2.2,0.8-3.3,1.2c1.3-2.9,1.2-5.7-0.5-8.5c-0.7-1.1-0.5-2.4,0.4-3.4
		c1.6-1.8,3.6-3.1,6-3.5c2.2-0.3,4,0.7,5.1,2.6c0.6,0.9,1.1,1.9,1.3,2.9c1,3.9,3.4,6.3,7.3,7.4c0.6,0.2,1.2,0.5,1.8,0.8
		c2.7,1.5,3.9,4.5,2.8,7.4c-0.2,0.7-0.4,1.4-0.2,2.1c0.5,2-0.2,3.5-1.9,4.6c-0.6-0.1-0.8-0.4-0.9-1c-0.5-1.6-1.2-3.2-1.6-4.8
		c-1.3-5.3-5-7.4-10-7.9c-2.2,0.1-2.3-1.7-2.6-3.1c-0.4-2.1-1-3.9-2.9-5c-0.5-0.3-0.8-0.8-1.5-0.5c-0.6,0.3-0.7,0.9-0.7,1.5
		c-0.2,2.2,1.2,3.6,2.5,5.1c0.2,0.5,0.2,1,0,1.5C206.8,91.4,206.4,91.7,205.8,91.6z"/>
	<path class="st13" d="M363.4,207.8c0.4-0.5,0.8-0.5,1.4-0.3c2.1,2.2,2.6,5.2,3.7,7.8c2.4,5.8,4.7,11.6,7.1,17.4
		c0.1,0.3,0.2,0.6,0.6,0.7c0.5,0,0.6-0.5,0.8-0.8c3.8-7.7,8.3-14.9,13-22.1c1.4-2.2,2-4.4,1.3-6.9c-0.4-1.4-0.7-2.9-0.5-4.3
		c0.2-0.6,0.1-1.4,1.1-1.3c0.5,2.5,1.1,5,1.7,8c4.4-6,8.2-12,12.9-17.4c0.2,0.2,0.4,0.4,0.6,0.6c-5.1,7.3-10.6,14.4-15.3,21.9
		c-1.6,2.5-3.2,5-4.7,7.5c0.7,0.6,1.3,0.5,1.8,0.5c11.3,0,22.6,0,33.9,0c0.5,0,1-0.1,1.4-0.2c-0.7,1.1-1.8,0.6-2.7,0.6
		c-10.9,0-21.8,0-32.7,0c-0.9,0-2-0.5-2.7,0.6c-5.9,9.8-11.2,19.9-15.5,30.6c3.2,0,6.4,0,9.5,0c2.6-0.6,5.3,0.3,7.9-0.5
		c0.6,0,1.3,0,1.9-0.1c1.3,0.4,2.9-0.6,4,0.8c-0.7,1.1-1.8,0.9-2.8,1c-2.1,0.1-4.2,0-6.3,0c-2.4-0.1-4.8-0.3-7.2,0.2
		c-1.7,0.4-3.3,0.8-5,0.7s-2.5,0.8-3,2.3c-1.5,4.5-3,9.1-4.5,13.6c-0.3,1.1-0.5,2.2-1.4,3.1c-0.4,0.2-0.7,0.2-1.1,0.1
		c-0.6-1.9,0.2-3.7,0.7-5.4c2.7-9.3,5.9-18.4,10.4-27.1c0.8-1.6,1-3.1,0.3-4.8c-3.4-8.4-6.7-16.8-10.3-25.1
		C363.2,209,362.9,208.5,363.4,207.8z"/>
	<path class="st14" d="M424.5,168.7c1.5,5.3,2.4,10.7,2.9,16.2c0.2,1.8-0.1,2.6-2.2,2.5c-5.3-0.2-10.7-0.1-16-0.1
		c-0.4-1,0.6-1.3,0.7-2c0.9-2.5,2.9-4.2,4.5-6.3c2.5-3.2,5.1-6.3,7.9-9.2C422.9,169.4,423.3,168.4,424.5,168.7z"/>
	<path class="st15" d="M379.5,92.9c-2.2,0.9-4.4,1.9-6.8,2.9c0.4-3,0.7-5.9,1-8.7c0-1.6,1-2.2,2.4-2.5c9-1.8,17.9-4.2,26.9-6.1
		c1.5-0.3,3.1-0.4,4.6-0.5c0.4,0,0.8,0.1,0.7,0.7v0.1c-5.3,3.4-11.1,5.9-16.7,8.6c-3.1,1.5-6.3,3.1-9.4,4.6
		C381.3,92.4,380.5,93,379.5,92.9z"/>
	<path class="st12" d="M453.3,226.5c-2.3,0.6-4.2-1.2-6.3-1.4c-1.8,0.3-2.7-0.8-3.3-2.2c-0.5-1-0.9-2.3-0.6-3.3
		c1.2-3.3-1.4-5.1-2.7-7.4c-0.7-1.1-1.1-0.3-1.6,0.3c-2.5,3.3-2.4,4.5,0.2,8.5c0.2,0.6,0.3,1.2,0.2,1.8c-0.7,1.5-1.7,2.5-3.4,2.6
		c-0.4-0.1-0.8,0-1.1-0.4c0.2-3.2,0.3-6.4-0.2-9.6c-0.8-4.7,3.3-8.7,8.1-8.4c2.8,0.2,4.2,2.2,4.7,4.5c0.9,3.7,2.2,6.8,5.2,9.3
		C454.7,222.6,454.6,224.5,453.3,226.5z"/>
	<path class="st1" d="M379.5,92.9c5-3,10.4-5.3,15.7-7.8c4.4-2.1,8.6-4.6,13.2-6.3c-3.6,4.3-8.2,7.5-12.3,11.4
		c-3.3,3.2-7,6-10.4,9.1c-1.1,1-1.7,1-2.4-0.3C382.2,96.8,380.2,95.3,379.5,92.9z"/>
	<path class="st1" d="M407.8,78.2c-10.6,2.4-21.2,4.8-31.8,7.2c-1.1,0.2-1.9,0.7-2.3,1.8c0.2-2.5-1.9-3.9-2.9-5.7
		c-0.3-0.6-1.3-1.1-0.8-1.9c0.4-0.6,1.2-0.2,1.8-0.3c5.1-0.6,10.2-0.2,15.3-0.6c6.9-0.5,13.8-0.7,20.6-0.9
		C407.8,77.9,407.9,78,407.8,78.2C407.9,78.2,407.9,78.2,407.8,78.2z"/>
	<path class="st16" d="M278.3,117.8c-1.8,0-3.6,0.1-5.4,0c-2.6-0.2-3.6-1.3-3.5-4c0-2.1,1.4-3.7,3.6-3.8c3.5-0.1,7-0.1,10.5,0
		c2.4,0.1,4.1,2,3.9,4.1c-0.1,2.4-1.6,3.6-4.3,3.7C281.6,117.9,280,117.8,278.3,117.8L278.3,117.8z"/>
	<path class="st17" d="M378,30.3c-6.9,0-13.8,0-20.8,0c-0.8,0-2.1,0.5-2.1-0.9s1.3-1,2-1c13.9,0,27.8,0,41.7,0c0.5,0,1,0,1.5,0.1
		c0.6,0.1,1.1,0.5,1,1.2c-0.1,0.6-0.6,0.6-1.1,0.6c-1.4,0-2.8,0-4.2,0C390,30.3,384,30.3,378,30.3z"/>
	<path class="st18" d="M240.1,44.4c2.8,4.4,4.9,9.1,6.9,13.8c-5.1-3-10.1-5.9-15.2-8.9C234.3,47.3,237.2,46,240.1,44.4z"/>
	<path class="st0" d="M80.2,54.3c-4.2,1-7.5,3.2-9.4,7.1c-0.5,1.1-1.1,1.3-2.3,0.9c-5.5-1.7-9,0.7-9.4,6.5c-0.1,1-0.2,1.7-1.5,1.7
		c-3.3,0-6.5,0-9.8,0c-0.5,0-1.3,0.1-1.3-0.7c0-1,0.8-0.8,1.4-0.8c2.4,0,4.9,0,7.3,0c1.1,0,1.7-0.2,1.9-1.5c0.8-5.3,4.6-8,10.1-7.3
		c1.2,0.2,2.1-0.1,2.8-1.3c2.3-3.3,5.4-5.6,9.5-6.1c0.6-0.2,0.9,0.1,1.1,0.6C80.9,53.8,80.5,54,80.2,54.3z"/>
	<path class="st19" d="M85.1,52.8c6,0.6,11.8,6.9,11.6,13.1c0,2.5,0.6,3.3,3.1,3.1c2.3-0.2,4.7-0.1,7.1,0c0.7,0,1.9-0.5,1.9,0.8
		c0,1-1.1,0.7-1.8,0.7c-3.4,0-6.8,0-10.3,0c-1.2,0-1.6-0.2-1.6-1.6c0-2.6-0.2-5.2-1.5-7.6c-2.1-4-5.3-6.3-9.7-7.1
		C83.6,53.2,84,52.8,85.1,52.8z"/>
	<path class="st0" d="M99.6,75.8c-5.3,0-10.6,0-15.8,0c-0.7,0-1.9,0.5-1.9-0.8c0-1,1.1-0.7,1.8-0.7c10.7,0,21.5,0,32.2,0
		c0.7,0,1.8-0.3,1.8,0.7c0,1.2-1.2,0.8-1.9,0.8C110.3,75.8,105,75.8,99.6,75.8z"/>
	<path class="st20" d="M441.6,336c1.3-2,3-1.9,4.9-1.1c0.4,0.6,0.7,1.2,0.5,1.9c-0.1,1.1,1.1,0.9,1.5,1.5c-1.3,0.2-0.4,0.9-0.3,1.4
		c0.7,2.4,0.3,3-2.1,3c-0.1,0-0.2,0-0.2,0c-4.7,0.1-5.6-1-4.3-5.6C441.6,336.9,441.6,336.4,441.6,336z"/>
	<path class="st21" d="M420,247c-1.3,0.6-2.6-0.3-3.9,0c-0.1,0-0.1,0.1-0.2,0.1c-0.9,0.2-1.1-0.3-1-1.1c-0.2,0.4-0.1,1.1-0.9,1.2
		c-0.9,0.1-1.3-0.4-1.4-1.2c-0.1-1-0.3-2-1.1-2.8c-0.8-2.5-1-5,0.2-7.4c0.7,0.9,1.4,1.7,2,2.6c0.4,0.6,0.8,0.7,1.4,0.3
		c-0.1,0.8-0.3,1.4,0.4,2.2C417.2,242.8,418.6,244.9,420,247z"/>
	<path class="st22" d="M461.6,246c0.1,2.4,0,4.8,0.5,7.2c0.6,3.6-1.5,5.3-5.7,4.8c0.5-1.6,1.4-3.1,0.7-4.9c0.9-2.1,1.7-4.3,2.7-6.4
		C460,246.2,460.3,244.5,461.6,246z"/>
	<path class="st23" d="M461.6,246c-1.5-0.7-1.3,0.8-1.6,1.4c-1,2-1.4,4.2-2.8,6c-0.1-0.1-0.2-0.1-0.4-0.2c-1-1.1-0.7-2.4-0.8-3.7
		c-0.2-2.7,0.4-5.3-0.3-8c1.7-0.3,3.3,1.2,5,0C463.1,242.7,461.1,244.6,461.6,246z"/>
	<path class="st24" d="M446.5,15.7c1.5,1.5,0.9,3.3,0.9,5c0,1.5,0.5,2.1,2.1,1.7c-0.4-0.4-0.7-0.6-1-0.9c4.6,0,9.3,0,13.9,0.1
		c0.8,0,2-0.5,2.1,0.9c0.1,1.5-1.2,1-2,1c-4.5,0-8.9,0-13.4,0c-1.5,0-2.3-0.4-2.1-2C447.1,19.5,446.9,17.6,446.5,15.7z"/>
	<path class="st25" d="M457.2,253.5c2,2,0.3,3.2-0.9,4.6c-0.2,0.1-0.4,0.1-0.6,0.2c-1.3,0.9-2.4,0.4-3.5-0.5c-0.8-0.6-1.7-1.2-2.3-2
		c-0.6-2.3-0.3-2.8,2.3-3.5c1.7,0.3,3.4,0.4,5.1,1L457.2,253.5z"/>
	<path class="st26" d="M424.5,168.7c-4.4,3.9-7.7,8.6-11.5,13c-1,1.2-2.1,2.5-3.1,3.7c-0.2-0.2-0.4-0.4-0.6-0.6
		c4.5-6.2,9.4-12.1,14.8-17.6C424.6,167.6,424.5,168.2,424.5,168.7z"/>
	<path class="st27" d="M397.6,21.5c-0.8,0.9-1.8,0.5-2.7,0.5c-3.5,0.1-6.9,0-10.4,0.5c4.5,0,9,0,13.5,0c0.7,0,1-0.4,1.1-1
		c0.8,1.2,0.6,2-1,2c-4.5,0-8.9,0-13.4,0c-0.8,0-1.6-0.1-1.6-1.1c0-1.2,1-0.9,1.6-0.9C389,21.5,393.3,21.5,397.6,21.5z"/>
	<path class="st28" d="M356.8,102.6c-0.9,0.1-1.2-0.1-1.5-0.4c-0.4-0.5-0.1-1,0.3-1.3c1.8-1.3,3.8-2.2,5.8-3c0.4-0.2,0.8,0.1,1,0.5
		c0.4,0.5,0.2,1-0.3,1.3C360.4,100.7,358.4,101.7,356.8,102.6z"/>
	<path class="st29" d="M289,99.6c0-1-0.1-1.9,0.8-2c1-0.2,1.3,0.7,1.4,1.4c0.3,1.7,0.5,3.5,0.7,5.3c0.1,0.6-0.2,1.2-0.9,1.2
		c-0.8,0-1.4-0.4-1.4-1.3C289.6,102.5,289.4,100.9,289,99.6z"/>
	<path class="st30" d="M280.3,75.6c0.6,0,1,0.3,1.4,0.8c0.9,1.5,1.8,2.9,2.6,4.3c0.3,0.6,0.5,1.3-0.2,1.7c-0.6,0.4-1.1,0-1.5-0.5
		c-1.1-1.7-2.3-3.3-3.3-5C279,76.2,279.7,75.8,280.3,75.6z"/>
	<path class="st28" d="M273.2,66c0.2,0.1,0.6,0.2,0.8,0.4c1.2,1.4,2.4,2.9,3.5,4.3c0.4,0.6,0.5,1.3-0.2,1.7
		c-0.7,0.5-1.2-0.1-1.6-0.6c-1.1-1.3-2.2-2.6-3.2-3.9C271.8,67.2,271.8,66.4,273.2,66z"/>
	<path class="st31" d="M286.6,86.1c1.4,1.1,1.6,2.9,2.3,4.5c0.4,0.9,1.1,1.9,0.1,2.9c-0.4,0.4-1,0.3-1.2-0.2c-0.9-2-1.7-4-2.4-6
		C285.2,86.8,285.7,86.2,286.6,86.1z"/>
	<path class="st32" d="M261,54.8c-0.2,0.8-0.8,1.1-1.5,0.8c-1.9-1.1-3.8-2.3-5.2-4c-0.7-0.8,0.1-1.3,0.9-1.4
		c0.7-0.1,5.4,3.5,5.6,4.2C260.9,54.5,260.9,54.6,261,54.8z"/>
	<path class="st32" d="M343.7,113.6c0,0.6-3.2,5.4-3.8,5.6c-0.4,0.1-0.9,0.1-1.2-0.1c-0.5-0.3-0.4-0.9-0.1-1.3
		c1-1.6,2.1-3.1,3.1-4.6c0.3-0.4,0.7-0.7,1.3-0.5C343.5,112.9,343.7,113.2,343.7,113.6z"/>
	<path class="st30" d="M346.8,109.9c-0.9-0.1-1.2-0.7-0.7-1.5c1.1-1.9,2.9-3,4.6-4.1c0.7-0.4,1.4,0,1.4,1
		C352,105.9,347.5,109.9,346.8,109.9z"/>
	<path class="st33" d="M291.5,112.4c0.1,1.3,0,2.6-0.5,3.8c-0.2,0.6-0.5,1.1-1.2,1c-0.8-0.1-0.8-0.7-0.8-1.3
		c0.2-1.8,0.3-3.6,0.6-5.3c0.1-0.7,0.6-1.2,1.4-1c0.7,0.1,0.8,0.7,0.6,1.3C291.5,111.4,291.5,111.9,291.5,112.4z"/>
	<path class="st19" d="M269.4,62.8c-0.1,0.9-0.8,1-1.5,0.4c-1.4-1.2-2.8-2.5-4.1-3.8c-0.3-0.3-0.3-0.7-0.2-1.1
		c0.2-0.5,0.6-0.5,1-0.5C265.7,57.7,269.5,61.6,269.4,62.8z"/>
	<path class="st30" d="M287.1,127.6c-0.8,0.3-1.7,1-2-0.5c0.6-1.5,1.2-3,1.8-4.5c0.3-0.7,0.7-1.6,1.7-1.3c1.2,0.4,0.5,1.4,0.3,2
		C288.3,124.9,287.7,126.2,287.1,127.6z"/>
	<path class="st28" d="M336.9,127.6c-0.7,0.5-1.6,0.5-2.4,0.5c0-1.5,0.9-2.7,1.4-4.1c0.2-0.7,0.9-1,1.6-0.6c0.7,0.3,0.5,0.9,0.4,1.5
		C337.5,125.8,337.2,126.7,336.9,127.6z"/>
	<path class="st34" d="M427.4,189.3c-5.7,0-11.4,0-17,0c-0.9,0-1.8,0.3-2.5-0.5c6.1,0,12.3-0.1,18.4-0.1
		C426.7,188.7,427.3,188.6,427.4,189.3z"/>
	<path class="st35" d="M85.1,52.8c-0.6,0.3-1,0.7-1,1.5c-1.3,0-2.6,0-3.9,0c0.4-0.7,0.2-1.2-0.5-1.5C81.5,52,83.3,52,85.1,52.8z"/>
	<path class="st36" d="M452.3,257.3c1,0.8,2.2,1.1,3.4,1c-1.3,1.3-0.9,2.9-1,4.5c-0.5-0.7-0.4-1.6-0.5-2.4c-0.3-0.7-1-0.4-1.5-0.4
		c-0.8,0-1.3-0.3-1.4-1.1C451.3,258.2,451.3,257.4,452.3,257.3z"/>
	<path class="st37" d="M95.8,327.6c0.8,0.2,1.8-0.4,2.4,0.5c-0.6,0.9-1.2,1.7-2.4,1c-1-0.8-2.4-0.5-3.5-1
		C93.4,327.3,94.7,327.9,95.8,327.6z"/>
	<path class="st27" d="M82.1,365.8c1-0.2,2-0.4,3.1-0.5c0.8-0.1,1.7-0.3,1.9,0.9C85.4,366.1,83.7,366.7,82.1,365.8z"/>
	<path class="st38" d="M377.5,366.3c1.3-1.5,2.9-0.9,4.4-0.5C380.6,366.7,379,366.1,377.5,366.3z"/>
	<path class="st27" d="M62.6,363.9c1.2-0.4,2.5-1.3,3.5,0.4C64.8,364.2,63.6,364.7,62.6,363.9z"/>
	<path class="st39" d="M229.3,29.8c-1,0.7-1.9,1-2.5-0.5C227.7,29.4,228.7,29,229.3,29.8z"/>
	<path class="st40" d="M194.6,25.9c0.7,0.3,1.3,0.6,2,0.9c-0.3,0.1-0.6,0.3-0.9,0.4c-0.9-0.4-2.1-0.3-2.5-1.5
		C193.6,25.9,194.1,25.9,194.6,25.9z"/>
	<path class="st41" d="M58.6,165.4c-0.3-0.2-0.6-0.4-0.9-0.6c1-0.9,2-0.5,3,0C60,165,59.3,165.2,58.6,165.4z"/>
	<path class="st42" d="M447,336.9c-0.2-0.6-0.3-1.3-0.5-1.9c0.3,0.2,0.6,0.3,0.9,0.5C447.5,336,447.7,336.6,447,336.9z"/>
	<path class="st43" d="M29.8,335.5c-0.5,0.8-1,1.4-2,0.5C28.5,335.6,29.1,335.4,29.8,335.5z"/>
	<path class="st44" d="M407.8,78.2c0-0.1,0-0.3,0.1-0.4c0.5,0.1,1.3-0.4,1.5,0.2c0.1,0.4-0.6,0.6-1,0.7
		C408.1,78.5,408,78.4,407.8,78.2z"/>
	<path class="st45" d="M229.3,247.9c0.2-1.3-0.2-2.1-1.6-1.8c-8.4,1.6-15-2.3-21.5-6.9c-3.1-2.2-6.4-4.1-9.7-6.1
		c-3.1-1.9-5.8-0.8-6.4,2.9c-0.4,2.4-0.7,4.8-0.9,7.2c-0.2,2-0.7,3.1-3,2.9c-4.1-0.3-8.3-0.1-12.4-0.1c-0.7-1.2-0.4-2.4-0.3-3.6
		c1-7.1,1.6-14.2,2.8-21.3c0.1-0.9-0.1-2,1.1-2.4c5.9,0,11.8-0.1,17.7-0.1c1-0.8,2.1-0.7,3.3-0.7c20.7,0,41.4,0,62.1,0
		c1,0,2,0,2.9,0.4c1.1,0.8,0.8,2,0.7,3.1c-1.3,11.4-2.8,22.8-4.3,34.2c-2,16.2-3.9,32.3-6.1,48.5c-0.3,2.4-0.4,4.9-0.8,7.3
		c-0.2,1.1-0.2,2.3-1.5,2.9c-8.9,0-17.9,0-26.8,0c-0.8,0-1.6,0-2.4-0.2c-0.3-0.1-0.5-0.3-0.7-0.5c-0.5-4.2,0.5-8.3,1-12.4
		c0.9-8.1,1.8-16.2,2.9-24.2c0-0.3,0.1-0.5,0.2-0.7c3.2-2.9,7.4-4.2,11-6.5c1.2-0.8,2.6-1.3,3.9-2c2.9-1.8,3-4.4,0.2-6.3
		c-4-2.6-8.1-5-12-7.8c-0.3-0.5-0.6-1.1-0.3-1.7C229.3,250.6,228.9,249.1,229.3,247.9z"/>
	<path class="st3" d="M263.5,218.6c-22.8,0-45.6,0-68.4-0.1c0-8.9,0-17.8,0-26.6c0-1.9,0.4-2.7,2.5-2.7c33.9,0.1,67.8,0.1,101.7,0
		c1.9,0,2.5,0.5,2.5,2.5c-0.1,21.4-0.1,42.7,0,64.1c0,1.9-0.4,2.6-2.4,2.5c-4.1-0.2-8.1-0.1-12.2-0.1c-1.1-1.1-0.8-2.6-0.8-3.9
		c-0.1-14.3,0-28.7,0.1-43c-0.2-1,0.4-2.2-0.7-2.9c-1.3-0.9-2.9,0.2-3.2,2.1c-0.6,3.8-0.9,4-4.6,4c-1.8,0-3.6,0-5.4,0
		c-3-0.1-3.5-0.7-3.4-3.7c0-0.9,0.3-1.9-0.7-2.4c-0.6-0.3-1.3-0.3-1.9,0c-0.8,0.4-1,1.3-1.1,2.1c-0.3,1.9-0.6,3.9-0.9,5.8
		C264.3,217,264.3,218,263.5,218.6z"/>
	<path class="st46" d="M151.6,246c-3.1,0-6.2,0-9.3,0c0-16,0-31.9-0.1-47.9c0-1.6,0.5-2.1,2.1-2.1c9.3,0.1,18.6,0.1,27.9,0
		c1.5,0,1.9,0.5,1.9,2c-0.1,3.1,0,6.2,0.1,9.3c-0.1,1.4-0.3,2.7-0.4,4.1c-0.1,1.9-1.1,3-3.1,3c-2.4,0-4.9,0.1-7.3,0
		c-2.4-0.1-3.1-1-3-3.5c0-1.1,0.7-2.6-1.3-2.8c-2-0.1-2.1,1.2-2.3,2.7c-1.3,10.4-2.8,20.8-3.9,31.2
		C152.6,243.4,152.5,244.8,151.6,246z"/>
	<path class="st6" d="M151.6,246c0.7-5.9,1.3-11.7,2.1-17.6c0.7-6.1,1.6-12.2,2.3-18.3c0.3-2.3,2.9-3.8,4.9-2.6
		c1,0.6,0.5,1.6,0.4,2.4c-0.5,3.8-0.6,3.8,3.3,3.8c2,0,3.9-0.1,5.9,0c2.1,0.2,2.7-0.8,2.8-2.7c0.1-1.3-0.5-2.8,1-3.7
		c4.4,0.2,4.4,0.2,4,4.6c-0.2,2.3-0.5,4.5-0.7,6.8c-0.8,5.5-1.5,11-2.3,16.5c-0.5,3.6-0.9,7.2-1.4,10.8c-1.7,0-3.3,0-5,0
		c-1.4-2-0.2-4.1-0.1-6.1c0.2-3.4,0.3-3.4-3-3.5c-1.4,0-2.7,0-4.1,0c-3,0.1-2.9,0.2-3.5,3.1c-0.4,2.2,0.2,4.6-1.6,6.4
		C154.8,246,153.2,246,151.6,246z"/>
	<path class="st47" d="M287,258.7c0,18.7,0,37.5,0,56.2c0.3,0.4,0.5,0.8,0.6,1.3c0.1,0.4,0.1,0.8,0.1,1.2c0,2.9-0.7,3.6-3.3,3.7
		c-2.7,0-3.4-0.6-3.6-3.4c0-0.4,0-0.8,0-1.2c0-1.3-0.9-1.2-1.8-1.3c-1.8-0.2-3.7,0.5-5.4-0.6c-0.5-2.3-0.6-4.5,0.9-6.5
		c0.5,0,0.9,0.4,1.3,0.5c3.6,1.3,5.1,0.3,5.1-3.5c0-1.6,0.5-3.4-0.3-4.8c-0.9-1.5-2.9-0.5-4.3-1.1c-0.3-0.1-0.6-0.2-0.8-0.5
		c-0.3-2.2-0.5-4.4,0.9-6.3c0.7,0,1.1,0.6,1.8,0.7c1.8,0.4,2.6-0.1,2.7-1.9c0.1-1.1,0-2.3,0-3.4c0-3.8,0-3.8-3.4-4.7
		c-0.4-2.2-0.4-4.3,0.8-6.3c2.7,0.2,2.7,0.2,2.7-2.5c0-1.4-0.1-2.8,0-4.1c0.1-1.3-0.4-2.1-1.6-2.7c-0.6-2.1,0-4.1,0.5-6
		c0.3-0.6,1.1,0,1.4-0.6c0.2-1.1,0-2.6,1.5-2.9C284.4,257.5,286,257.1,287,258.7z"/>
	<path class="st3" d="M270.1,167.2c-11.1,0-22.2,0-33.3,0c-0.8,0-1.7,0.1-2.4-0.2c-1-0.4-2.2-0.6-2.2-2.2c0-1.6,0.9-2.4,2.3-2.8
		c0.7-0.2,1.4-0.2,2.2-0.2c22.3,0,44.7,0,67,0c0.7,0,1.5,0,2.2,0.2c1.2,0.4,2.3,1,2.2,2.5c0,1.5-1.1,2.1-2.3,2.5
		c-0.8,0.2-1.6,0.2-2.4,0.2C292.3,167.2,281.2,167.2,270.1,167.2z"/>
	<path class="st3" d="M262.1,153.6c-8.8,0-17.6,0-26.4,0c-1.3,0-2.8,0-3.3-1.5c-0.6-1.7,0.1-3.1,1.9-3.6c0.8-0.2,1.8-0.2,2.6-0.2
		c16.9,0,33.9,0,50.8,0c0.6,0,1.1,0,1.7,0c1.8,0.2,3,1.2,2.9,3c-0.1,1.7-1.4,2.4-3.1,2.4C280.2,153.5,271.1,153.6,262.1,153.6z"/>
	<path class="st3" d="M262.1,180.9c-8.6,0-17.3,0-25.9,0c-2,0-3.7-0.3-3.9-2.6c-0.2-1.8,1.3-2.7,4-2.7c17.2,0,34.4,0,51.6,0
		c0.3,0,0.7,0,1,0c1.7,0.1,3.5,0.5,3.5,2.6s-1.6,2.8-3.6,2.8C279.9,180.9,271,180.9,262.1,180.9z"/>
	<path class="st48" d="M328.7,167.2c6.8,0,13.7,0,20.5,0c0.6,0,1.4-0.3,1.8,0.3c0.5,0.8-0.3,1.3-0.7,1.9c-2.1,3.4-3.9,6.9-5.6,10.5
		c-0.4,0.9,0,1.9-0.6,2.8c-0.2,0.5-0.6,0.9-1,1.2c-2.1,1-4.3,0.5-6.4,0.6c-2.7-0.2-5.5,0.8-8.1-0.7
		C328.6,178.3,328.7,172.8,328.7,167.2z"/>
	<path class="st3" d="M295.9,139.9c-5.7,0-11.4,0-17.1,0c-0.6,0-1.3,0-1.9-0.1c-1.4-0.3-2.3-1.2-2.4-2.7s1.1-2.1,2.3-2.5
		c0.5-0.2,1.1-0.1,1.7-0.1c12,0,23.9,0,35.9,0c0.4,0,0.8-0.1,1.2,0c1.4,0.3,2.4,1.1,2.4,2.7c0,1.9-1.4,2.5-2.9,2.6
		c-2.5,0.2-5,0-7.6,0.1C303.5,139.9,299.7,139.9,295.9,139.9z"/>
	<path class="st47" d="M328.6,183.8c2.8,0,5.5,0,8.3,0.1c1.1,1.2,0.8,2.8,0.8,4.2c0.1,6.8,0,6.7,6.9,6.8c2.2,0,4.4-0.1,6.6,0.1
		c0.9,0.1,2.2-0.3,2.4,1.3c-0.7,0.7-1.6,0.7-2.5,0.7c-4.6,0-9.2,0.1-13.8,0c-2.4,0.2-4.8-0.3-7.2,0.4c-1.2,1.1-0.6,2.6-0.7,3.9
		c-0.1,1.4-0.1,2.8,0.1,4.1c0,34.8,0,69.5,0,104.3c0,5.6,0,5,4.8,5.1c0.7,0,1.3,0,1.9,0.2c0.3,0.1,0.6,0.3,0.8,0.5
		c0.1,0.9-0.7,1.1-1.2,1.1c-2.5,0.2-5,0.6-7.4-0.3c-0.4-0.4-0.5-0.8-0.2-1.2c0-26.7,0-53.4,0-80.2c0-16,0-32.1,0-48.1
		C328.2,185.7,327.9,184.7,328.6,183.8z"/>
	<path class="st3" d="M249.9,135c4.7,0,9.4,0,14.2,0c1.5,0,2.9,0.3,2.9,2.1c0,1.9-1.2,2.8-3,2.8c-9.5,0-19.1,0-28.6,0
		c-1.7,0-3.1-0.3-3.1-2.5c0.1-2.2,1.5-2.4,3.2-2.4C240.3,135,245.1,135,249.9,135z"/>
	<path class="st49" d="M287,258.7c-0.6-0.2-1.2-0.4-1.8-0.5c-2-0.3-3.5,0-3.1,2.6c0.1,0.5,0,1-0.5,1.3c-0.8-1-0.7-2.1-0.7-3.3
		c-0.2-1.9,1-3.8,0.1-5.8c-0.4-4.2,0.8-8.2,1.2-12.4c1.1-9.2,2.3-18.4,3.4-27.6c0.1-0.9-0.1-2,1.2-2.4c0,11.8,0,23.5,0,35.3
		c0,4.1,0,8.1,0.1,12.2C287.1,258.4,287.1,258.5,287,258.7z"/>
	<path class="st50" d="M197.6,150.3c1.8,0.9,3.6,0.6,5.3,0c-0.3,3.3-0.3,6.6-1.1,9.8c-1.3-0.2-2.6-0.3-3.8-0.8
		C198,156.3,197.4,153.3,197.6,150.3z"/>
	<path class="st51" d="M193.2,157.3c1.3,0.6,1.2,2,1.7,3c0.4,0.9-0.3,1.3-1.1,1.5c-2.7,0.9-5.4,1.8-8,2.8c-1.6,0.6-1.6-0.3-1.4-1.4
		c0.2-0.9,0.9-1.5,1.7-2c1.4-0.8,2.4-1.9,3.3-3.2C190.6,157.8,191.9,157.5,193.2,157.3z"/>
	<path class="st52" d="M328.1,314.9c0,0.3,0.1,0.6,0.1,0.9c-0.9,0.9-2.1,0.8-3.2,0.8c-11.6,0-23.1,0-34.7,0c-1.1,0-2.3,0-3.2-0.8
		c0-0.3,0-0.7,0-1C300.7,314.9,314.4,314.9,328.1,314.9z"/>
	<path class="st50" d="M193.2,157.3c-1.1,1.3-2.4,1.2-3.8,0.7c-0.3-3-0.7-6-1-9c1.8,0.8,3.6,0.7,5.3-0.1
		C194,151.8,193,154.5,193.2,157.3z"/>
	<path class="st53" d="M198.1,159.2c1.4-0.5,2.7-0.3,3.8,0.8c0.2,1,0.4,2.1,0.5,3.1c0.2,1.8-0.6,2.9-2.5,3c-1.2,0-2.6,0.4-3.4-0.6
		c-0.8-1.1,0.2-2.1,0.8-3C197.8,161.5,197.3,160.2,198.1,159.2z"/>
	<path class="st54" d="M133.9,246c-1.4,0.1-2.7,0.2-4.3-0.2c1.3-3.4,2.7-6.7,4-10C134.4,239.2,133.7,242.6,133.9,246z"/>
	<path class="st55" d="M328.6,142.8c0.8,0.7,0.5,1.7,0.5,2.5c0,7.1,0,14.2,0,21.4c-0.1,0.1-0.3,0.1-0.4,0.1
		C328.3,158.8,328.5,150.8,328.6,142.8z"/>
	<path class="st1" d="M287.1,315.9c13.7,0,27.4,0,41.2,0c2.9-0.1,5.9,0.5,8.8-0.4c0.9-1,2.1-0.8,3.2-0.9c3.2,0,6.4,0,9.5,0
		c2.8,0,3-0.3,3.1-3.1c0-0.9,0-1.8,0-2.7c0-36.1,0-72.2,0-108.2c0-1.5-0.3-3.1,0.8-4.5c-0.9-0.9-2-0.4-3-0.4c-3.7-0.1-7.3-0.2-11,0
		c-2.2,0.1-2.8-0.7-2.7-2.8c0.2-3,0-6,0-9c2.1-0.3,4.3,0.5,6.4-0.5c0.6,0,1.2-0.2,1.8-0.1c0.8,0,1.5,0.2,2.2,0.6
		c2.4,0.1,4.8-0.2,7.2,0.7c4.4,1.6,7.4,5.7,7.4,10.4c0,5.1,0,10.2,0.1,15.3c0.9,0.9,0.7,2.1,0.7,3.2c0,17.5,0,35.1,0,52.6
		c0,1.8-0.2,3.6-0.5,5.3c0.3,1.3,0.4,2.7,0.4,4.1c0,11.9,0,23.8,0,35.6c0,3.6,0.2,3.8,3.5,4.9c6.2,2.1,12.2,4.5,18.4,6.5
		c7.4,2.9,14.9,5.8,22.5,7.9c0.3,0.1,0.6,0.3,0.8,0.5c0.5,0.7,1.4,0.7,2.1,1.2c0.8,0.7,0.3,1-0.4,1.3c-1.5,0.4-3.1,0.3-4.6,0.3
		c-39.9,0-79.9,0-119.8,0c-2.2,0-4.2,0.1-5.8,1.8c-1.1-1.4-2.5-1.8-4.3-1.8c-18.2,0-36.3,0-54.5,0c-1.4,0-2.7,0.2-4,0.8
		c-1.8-0.8-3.8-0.8-5.7-0.8c-40.2,0-80.4,0-120.6,0c-1.6,0-3.3,0.4-4.7-0.8c3.4-1.3,6.9-2.6,10.3-3.9c0.8-0.3,1.6-0.7,2.4-1
		c0.4,1.6,1.7,1,2.6,1c17.8,0,35.6,0,53.5,0c16.8,0,33.7,0,50.5,0c1.3,0,2.4-0.1,2.9-1.5c1.1,0,1.8-0.6,2.6-1.1
		c2.2-1.4,4.3-3,6.5-4.4c1.9-1.2,3.8-2.5,3.8-5.2c0-0.9,0.4-1.8,1.6-1.8c8.4,0.1,16.9,0,25.3,0.1c1.3,0,2.8-0.3,3.7,1.3
		c0.7,2.6-0.1,5.2,0,7.8c1.2,1.4,2.3,1.3,3.4-0.1c1.3-6.3,2.9-7.2,9.8-5.6c0.7,0.4,1.1,1.1,2,1.2c1.3,0.2,1.7,1.1,1.7,2.3
		c0.1,0.8-0.1,1.6,0.2,2.4c1.2,1,2.4,1,3.5-0.3c0.5-2,0.7-4.1,0.9-6.2c0.1-1,0.1-2.1,1.4-2.6c2.6-0.2,5.2-0.8,7.6,0.5
		c0,0.4,0,0.8,0,1.2c0,3,1.6,4.1,4.5,3.2c0.7-0.2,0.8-0.7,0.8-1.3C287,318,287,317,287.1,315.9z"/>
	<path class="st3" d="M85.5,333c42.6,0,85.3,0,127.9,0c1.3,0,2.7-0.2,3.1,1.5c2.9,4.2,7.1,4.2,11.6,4.2c12.8-0.2,25.7,0,38.6-0.1
		c4.4,0,9,0.7,12.4-3.2c0.3-2.4,2-2.5,4-2.5c42.4,0,84.7,0,127.1,0c0.2-0.2,0.3-0.2,0.5,0c0.2,3.5-1.1,6.3-3.4,8.8
		c-1.4,2.9-4.8,4.4-7.4,3.2c-101,0-201.9,0-302.6,0c0.7,0.2,1.7,0,2.6,0c99.2,0,198.4,0,297.6,0c1,0,2-0.2,2.9,0.2
		c0.1,1.2-1,1.1-1.7,1.2c-1,0.2-2.1,0.1-3.2,0.1c-98.5,0-197,0-295.5,0c-2.1,0-4.3,0.1-6.3-0.7c-1.7-0.6-3.4-1.2-4.3-3
		c-1.8-2-3.3-4.1-4.1-6.7C85.1,335.1,84.8,334,85.5,333z"/>
	<path class="st56" d="M89.5,342.9c3.4,2.4,7.2,2.9,11.3,2.9c98.7-0.1,197.5,0,296.2-0.1c1.2,0,2.4,0.3,3.6-0.4l0,0
		c2.8-0.1,4.8-1.7,6.8-3.5c2.3,0.4,3.9,2.3,4.3,4.9c0.3,2.3-1.4,5.4-3.6,6.5c-1.4,0.7-2.9,0.8-4.5,0.8c-30.4,0-60.8,0-91.2,0
		c-72.2,0-144.4,0-216.5,0c-4.1,0-6.6-1.4-7.6-4.5C87.5,347.1,88.2,344.9,89.5,342.9z"/>
	<path class="st20" d="M430.9,336.4c1.4,0.7,2.8,0.8,4.3,0c1.9,0.8,1.7,2.7,1.7,4.1c0,1.2-1.7,1.1-2.8,1.3c-2.9,0.5-5.9,0.9-8.8,1.6
		c-2.2,0.5-1.9-0.7-1.5-1.9c0.2-0.5,0.5-1.2,1-1.3C426.9,339.2,428.8,337.6,430.9,336.4z"/>
	<path class="st57" d="M407.9,331.6c1.1,0.2,2.4-0.4,3.4,0.5c-0.4,0.2-0.5,0.6-0.5,1c-0.2,0-0.3,0-0.5,0
		C409.7,332.1,408.2,332.8,407.9,331.6z"/>
	<path class="st6" d="M200.4,304.3c-1,4-2,8-3,12c-0.1,0.5-0.5,0.8-1,1c-0.6,0.5-1.4,0.3-2.1,0.3c-25.7,0-51.4,0-77.2,0
		c-0.7,0-1.5,0.3-2.1-0.3c0.1-4,1.7-7.5,2.6-11.3c1.2-5.1,2.7-10,4.1-15.1c1.5-2.5,4-4,6.3-5.7c5.1-3.9,10.1-8,15.2-11.9
		c2-1.5,2.4-1.6,3.9,0.5c5.1,7.1,10.5,14.1,15.6,21.3c3.3,4.6,3.2,4.6,7.6,1.1c4.4-3.4,8.7-6.9,13.1-10.2c2.3-1.7,3-1.6,4.6,0.6
		c3.8,5.2,7.7,10.3,11.5,15.5C199.9,302.8,200.3,303.5,200.4,304.3z"/>
	<path class="st8" d="M200.4,304.3c-4.4-5.9-8.8-11.7-13-17.7c-1.2-1.7-2-1.7-3.5-0.4c-5.4,4.4-11,8.6-16.5,13.1
		c-1.4,1.1-1.8,0.8-2.7-0.4c-6-8.2-12.1-16.4-18-24.6c-1-1.4-1.6-1.7-3.1-0.5c-7.2,5.8-14.5,11.5-21.8,17.2
		c2.8-10.6,5.6-21.2,8.5-31.9c0-0.1,0.2-0.2,0.3-0.4c0.6,0.6,1.4,0.2,2.1,0.2c25.2,0,50.5,0,75.7,0c0.4,0,0.8-0.1,1.1,0.1
		c0.3,0-0.1-0.5,0-0.2c0,0,0,0.1-0.2,0.1c-0.8,0.1-1.6,0.1-2.4,0.1c-24.6,0-49.2,0-73.8,0c-0.9,0-1.8,0.2-2.6-0.2
		c0.7-0.8,1.7-0.4,2.5-0.4c25.7,0,51.3,0,77-0.1c2.1,0,2.9,0.2,2.2,2.6c-3.9,14.2-7.6,28.4-11.4,42.6
		C200.7,303.7,200.6,304,200.4,304.3z"/>
	<path class="st58" d="M225.9,276.2c0,5-1.1,9.8-1.6,14.7c-0.6,6.8-1.6,13.7-2.3,20.5c-0.1,0.7-0.2,1.4-0.5,2.1
		c-3.3,1.1-6.5,1.1-9.8,0c1.9-7.2,3.8-14.4,5.7-21.6c1.2-4.5,2.4-8.9,3.6-13.3C222.3,277.1,223.7,275.9,225.9,276.2z"/>
	<path class="st47" d="M211.7,313.6c3.3,0,6.5,0,9.8,0c0,0.1,0.1,0.2,0.1,0.2c0.1,0.2,0.2,0.3,0.3,0.5c0.1,0.4,0,0.8-0.3,1.1
		c0.2,4-2.2,6.2-5.5,7.9c-2.4,1.3-4.6,3.1-6.8,4.6c-0.7,0.5-1.3,0.9-1.5-0.4C209.1,322.9,210.4,318.3,211.7,313.6z"/>
	<path class="st46" d="M161.3,235.7c2,0,4,0.1,6-0.1c2.3-0.2,2.5,0.9,2.3,2.7c-0.4,2.5-0.6,5.1-0.9,7.7c-2.6,0-5.2,0-7.9,0
		C160.6,242.5,160,239.1,161.3,235.7z"/>
	<path class="st59" d="M225.9,276.2c-1.6,0.8-3.3,1.6-4.9,2.5c2.1-7.9,4.2-15.9,6.3-23.8c0.3-1.2,0.6-2.3,0.9-3.5
		c0.3,0.1,0.4,0.2,0.1,0.5c-0.2,0.6,0.3,1.1,0.5,1.5c0.8,3.1-0.2,6.1-0.4,9.1c-0.3,3.6-0.9,7.2-1.4,10.9c-0.1,0.9-0.4,1.7-1.1,2.4
		C226,275.9,225.9,276.1,225.9,276.2z"/>
	<path class="st60" d="M161.3,235.7c-0.2,3.4,0.6,6.9-0.5,10.3c-1.5,0-2.9,0-4.4,0c0.3-2.2,0.8-4.4,1-6.6
		C157.7,235.6,157.7,235.6,161.3,235.7z"/>
	<path class="st48" d="M115.1,317.3c0.7,0,1.5-0.1,2.2-0.1c25.7,0,51.3,0,77,0c0.7,0,1.5,0.1,2.2,0.1c0.2,0.1,0.8,0.2,0.4,0.5
		c-0.4,0.3-1.1,0.1-1.7,0.1c-26.1,0-52.3,0-78.4,0c-0.6,0-1.2-0.1-1.9-0.2c0,0,0-0.1,0-0.2C114.9,317.4,115,317.4,115.1,317.3z"/>
	<path class="st61" d="M228.4,251.8c0-0.2-0.1-0.3-0.1-0.5c0.3-1.2,0.4-2.4,1.1-3.5C229.1,249.2,230.1,250.9,228.4,251.8z"/>
	<path class="st62" d="M440.1,255.3c2-4.6,3.9-9.2,5.9-13.7c1.6,0.4,1.2,1.8,1.2,2.8c0.1,3.6,0.1,7.3,0,10.9c0,3.3-0.1,3.5-2.4,3.5
		c-0.9-0.1-1.9-0.3-2.8-0.3C439.4,258.6,439,257.4,440.1,255.3z"/>
	<path class="st63" d="M452.3,257.3c-1.8,2.5,1.3,2.1,1.9,3.1c-2-0.4-3.9-0.7-5.9-1.1c0-0.1,0-0.2,0-0.4c0-1.1,0.2-2.2,1.3-2.7
		c0.8,0.6,0.3,1.4,0.5,2c0.1-0.8-0.4-1.7,0.2-2.5C451.1,256.2,451.7,256.7,452.3,257.3z"/>
	<path class="st64" d="M444.8,258.8c2.7-0.2,1.3-2.2,1.6-3.5c0.7-0.5,1.4-0.6,2.1-0.1c0.8,1.3,0,2.6,0,3.9c-0.1,0.1-0.1,0.2-0.1,0.2
		C447.2,259.2,446,259.3,444.8,258.8z"/>
	<path class="st14" d="M362,271.8c0-12.7-0.1-25.4-0.1-38.1c0-7.8,0-15.6,0-23.5c0.5-0.4,0.4-0.9,0.5-1.5c0.3-0.3,0.7-0.7,1-1
		c3.8,9.2,7.5,18.4,11.4,27.6c0.4,1.1,0.5,1.9-0.1,2.9c-4.7,9.2-8.1,18.9-11.2,28.8c-0.5,1.5-0.4,3.2-1.2,4.6
		C362.2,272,362.1,272,362,271.8z"/>
	<path class="st65" d="M347.2,183.8c-0.8,0-1.7,0-2.5,0c-0.5-0.4-0.7-0.9-0.9-1.4c0.2-0.9,0.3-1.7,1-2.4
		C345.6,181.3,346.4,182.5,347.2,183.8z"/>
	<path class="st66" d="M410.3,247.9c-0.7-0.1-1.3,0.1-2,0.5c-0.6-0.6-1.2-1.2-1.8-1.9c0.1-0.5,0.1-1,0.3-1.5
		c0.7-1.3,0.1-2.7,0.3-4.1c0.1-2.6,0-5.2,0.1-7.8c0-0.9-0.3-2,1.1-2.3c1.1,1.6,2.3,3.3,3.4,4.9c0.3,2.4-0.6,5,0.5,7.3
		c0.6,1.6,1.1,3.1-0.5,4.4C411.3,247.6,410.8,247.8,410.3,247.9z"/>
	<path class="st67" d="M407.4,241.6c0.5,1.4,1.1,2.8-0.5,3.9c-1.3-0.5-1.6-1.6-1.6-2.7c0-1.9-0.5-3.7-1-5.4c-0.1-2.6-0.1-5.1,0-7.7
		c0.1-1.1,0.2-2.4,2-1.8c0.4,0.6,0.8,1.2,1.2,1.8C407.7,233.6,407.8,237.6,407.4,241.6z"/>
	<path class="st68" d="M404.9,237.7c0.7,1.1,1.1,2.3,1,3.7c-0.2,1.5,0.2,2.9,1.1,4.1c0.1,0.5,0.5,1-0.4,1.1
		c-3.4-1.1-4.5-2.6-4.6-6.6c-0.2-0.3-0.2-0.6-0.1-0.9c0.4-0.8,1.2-1.2,2-1.6c0.2-0.1,0.4-0.1,0.6-0.1
		C404.6,237.4,404.8,237.5,404.9,237.7z"/>
	<path class="st69" d="M399.5,236.7c-1-1.3-1.9-2.6-2.9-4c0-0.8-0.2-1.6-0.2-2.5c-0.4,0.4-0.5,0.9-0.8,1.1c-0.8-0.7-1.4-1.5-1.9-2.8
		c1.7-0.1,3.2-0.2,4.7-0.2c0.6-0.2,1.1-0.3,1.7,0c0.3,2.5-0.1,5,0.2,7.5C400.4,236.3,400.2,236.8,399.5,236.7z"/>
	<path class="st70" d="M402,239.2c0,0.3-0.1,0.5-0.1,0.8c-0.6-0.6-1.2-1.3-1.4-2.1c-0.4-3.2-0.8-6.4,0-9.5c1.2-0.5,2-0.1,2.1,1.1
		C402.6,232.7,403.3,236,402,239.2z"/>
	<path class="st71" d="M404.4,237.6c-0.2,0-0.3,0-0.5,0c-0.7,0.4-1.2,0.1-1.3-0.5c-0.3-2.9-0.4-5.8,0.1-8.6c0-0.3,0.4-0.5,0.7-0.6
		c0.3,0,0.6,0,1-0.1C404.8,231.1,404.8,234.4,404.4,237.6z"/>
	<path class="st72" d="M403.5,227.9c-1,3-0.3,6.1-0.4,9.1c0,0.4,0.5,0.6,0.9,0.7c-0.6,0.5-1.3,1-1.9,1.5c0-3,0-6,0-8.9
		c0-1,0-2-1.5-1.9c-0.2,0.2-0.4,0.2-0.5,0c-0.5,0-1-0.1-1.6-0.1C400.1,227.7,401.8,227.9,403.5,227.9z"/>
	<path class="st73" d="M400,228.4c0.2,0,0.4,0,0.5,0c0,3.2-0.1,6.3-0.1,9.5c-0.3-0.4-0.6-0.8-1-1.1c0.5-1.8-0.1-3.7,0-5.5
		C399.6,230.3,399.5,229.3,400,228.4z"/>
	<path class="st74" d="M407.4,241.6c0-4,0.1-7.9,0.1-11.9c0.3,0.4,0.6,0.8,0.9,1.2c-1.1,2.5-0.2,5-0.5,7.5
		C407.7,239.4,408.3,240.6,407.4,241.6z"/>
	<path class="st75" d="M404.4,237.6c0-3.3,0-6.5,0-9.8c0.6-0.4,1.3-0.6,1.8,0.1c-1.3-0.1-1.3,0.8-1.3,1.8c0,2.7,0,5.4,0,8.1
		C404.7,237.7,404.6,237.7,404.4,237.6z"/>
	<path class="st76" d="M395.6,231.4c0-0.4,0-0.8,0-1.2c0-0.5,0-1.1,0.7-1.1c0.8,0,0.8,0.7,0.8,1.2c0,0.9,0.3,1.8-0.4,2.5
		C396.3,232.3,395.9,231.8,395.6,231.4z"/>
	<path class="st77" d="M387.8,250.4c-2.6,1.1-5.3,0.3-7.9,0.5C382.5,250.2,385.2,250.4,387.8,250.4z"/>
	<path class="st78" d="M438.6,221.1c-2.7-2.3-3.1-4.7-1.2-7.5c0.2-0.3,0.4-0.7,0.6-1c0.5-0.8,0.8-2.1,1.8-2.1c1.1,0,1.2,1.3,1.4,2.3
		c0.2,0.8,0.5,1.5,1.5,1.6c1.7,0.2,1.5,1.3,1,2.5c-1.3,3.3,0,6.7,3.1,8.3c-3.7,4.3-7.9,4.4-11.2,0.4c1-0.8,2-1.6,2.9-2.5
		c0.6-0.7,1.4-1.1,2.3-2C440,221.4,439.3,221.7,438.6,221.1z"/>
	<path class="st79" d="M448.4,255.3c-0.7,0-1.3,0-2,0c0-3.8,0-7.6,0-11.4c0-0.8,0.3-1.6-0.5-2.3c0.4-1.8,1.8-0.9,2.8-0.9
		s2.1,0.3,3.1,0.5c0.7,0.8,0.8,1.8,0.6,2.7c-1,3.5-1.7,7-2.8,10.4C449.5,254.9,449.1,255.2,448.4,255.3z"/>
	<path class="st80" d="M457.2,253.3c-1.7,0.4-3.3-0.2-4.9-0.5c-1.2-1.7-0.9-3.6-0.7-5.4c0.3-2.1-0.2-4.3,1.1-6.2c1,0.1,2,0.3,3,0.4
		c0.5,0.5,1.1,0.7,1.1,1.8C456.8,246.7,456.2,250,457.2,253.3z"/>
	<path class="st81" d="M452.8,241.2c-1,3.8-0.2,7.8-0.5,11.6c-1.9,0.1-2.9,0.8-1.9,2.9c0,1,0,1.9,0,3.2c-0.8-0.7-0.3-1.5-0.7-2.1
		c-1.2,0.3-0.4,1.8-1.2,2.3c0-1.3-0.1-2.5-0.1-3.8c1.7-1.7,1.2-4.1,1.8-6.1c0.8-2.6,1.9-5.2,1.6-8.1
		C452.2,241.2,452.5,241.2,452.8,241.2z"/>
	<path class="st82" d="M411.8,247.5c0.8-1.4,0.4-2.9,0.5-4.4c1,0.4,1,1.4,1,2.3c0,0.6-0.2,1.4,0.7,1.5c0.9,0.1,0.5-1,1-1.4
		c0.4,0.5,0.2,1.6,1.2,1.5C414.8,247.8,413.2,247.3,411.8,247.5z"/>
	<path class="st83" d="M204.1,126.3c-1.2-2-2.2-4.1-2-6.5c0.9-0.7,1.9-0.6,3-0.3c1.6,2.1,3.2,0.1,4.7-0.1c0.5,0.1,1,0.2,0.9,0.9
		C208.5,122.2,206.3,124.2,204.1,126.3z"/>
	<path class="st84" d="M210.7,120.2c-0.2-0.5-0.7-0.4-1.1-0.5c-0.1-0.6,0-1,0.7-1c0.5,0.1,1,0.2,1.5,0.2
		C211.4,119.4,211.1,119.8,210.7,120.2z"/>
	<path class="st7" d="M391.2,199.6c0,0.4-0.1,0.9,0.1,1.2c2,4.9,0.3,8.8-2.6,12.8c-4.3,6.2-7.9,12.8-11.4,19.6
		c-0.3,0.6-0.7,1.2-1.3,2.3c-3.8-9.6-7.5-18.8-11.2-28.1c-0.3-0.6-0.8-1.1-0.3-1.9c4.3-6.6,8.9-13,15-18.2c2.4-2,4.8-4.1,7.3-5.9
		c0.8,0.4,0.2,1.5,0.9,2c1.1,0.5,1.1,1.6,1.2,2.5C389.8,190.5,391.1,195,391.2,199.6z"/>
	<path class="st85" d="M391.2,199.6c-1-4.6-1.9-9.3-2.9-13.9c-0.2-0.8-0.4-1.6-0.6-2.3c0.1-0.6-0.2-1.3,0.7-2.3
		c1.6,5.8,2.5,11.4,3.3,17C391.1,198.4,391.3,199.1,391.2,199.6z"/>
	<path class="st86" d="M205.4,119.7c-1.1,0-2.2,0-3.3,0c-0.9-0.8-1-1.9-1.2-2.9c0.7-2,1.2-4,3.1-5.2c2.7-0.2,5.5-0.5,8.2-0.7
		c0.6,0,1.4-0.6,1.5,0.6c-1.5,1.2-3.1,2.2-4,3.9C208.3,116.9,207.2,118.6,205.4,119.7z"/>
	<path class="st87" d="M205.8,91.6c0.3-0.2,0.5-0.4,0.8-0.7c0.7-0.5,1.2-1.2,1.8-1.8c-0.5,0.5-1.1,0.9-1.8,0.5
		c-2-1.3-2.8-3.3-2.7-5.6c0-0.9,0.4-1.8,1.3-2.2c1-0.4,1.5,0.4,1.9,1.1c0.1,0.1,0.1,0.4,0.2,0.4c3.1,0.9,2.3,3.8,2.9,5.9
		c0.3,1.1,0.8,1.9,1.9,2.3c1,2-0.9,2.1-1.8,2.7c-1.5,0.9-3.2,1.1-4.7-0.4C204.9,93,205.2,92.3,205.8,91.6z"/>
	<path class="st88" d="M205.4,119.7c1.2-1.6,2.4-3.4,4.3-4.3c2.4,0.7,2.1,1.9,0.6,3.3c-0.5,0.1-0.6,0.6-0.7,1
		c-0.6,0.5-1.2,1.1-1.9,1.3C206.4,121.6,205.3,121.6,205.4,119.7z"/>
	<path class="st89" d="M218.5,106.9c-0.3,0-0.6,0-0.9,0c-0.2-0.6-0.4-1.2,0.2-1.8C218.4,105.6,218.7,106.2,218.5,106.9z"/>
	<path class="st90" d="M213.7,111.5c-0.3-0.7-1.1-0.3-1.5-0.6c0.8-0.4,1.6-0.5,2.6-0.3C214.6,111.2,214.2,111.4,213.7,111.5z"/>
	<path class="st91" d="M206.7,89.6c0.9-0.5,1.8-0.7,2.5-2.3c0,2.4-1,3.2-2.5,3.6C206.7,90.5,206.7,90,206.7,89.6z"/>
	<path class="st92" d="M362,271.8c0.1,0,0.2,0,0.4-0.1c0.4,0,0.7,0,1.1,0c0.5-0.4,1.2-0.6,1.8-0.6c4.4-0.1,8.9-0.1,13.3,0
		c0.6,0,1.3,0.1,1.8,0.6c2.5,0,5,0.1,7.6,0.1c1.3,0,1.9,0.4,1.9,1.8c0,16,0,31.9,0,47.9c0,1.3-0.4,1.8-1.7,1.7
		c-1.1-0.1-2.1,0-3.2,0.1c-5-1-9.5-3.2-14.3-4.8c-2.4-0.8-4.7-1.7-7.1-2.6c-1-0.4-1.6-0.9-1.6-2.1
		C361.9,299.9,361.9,285.8,362,271.8z"/>
	<path class="st7" d="M380.3,271.8c-5.6,0-11.3,0-16.9,0c1.7-5.9,3.5-11.7,5.6-17.4c0.5-1.5,1.3-2.2,3-2.1c1.7,0.1,3.4-0.2,5.1-0.4
		c2.5-0.7,5,0.1,7.5-0.4c3.1-0.1,6.2,0.1,9.3-0.5c4,0,8.1,0,12.2,0c-1.7,2.5-4.2,4.8-6.6,7C393.6,263.4,387,267.7,380.3,271.8z"/>
	<path class="st77" d="M384.5,251.4c-2.5,0.6-5,0.4-7.5,0.4C379.5,250.9,382,251.5,384.5,251.4z"/>
	<path class="st93" d="M438.6,221.1c1.2,0.1,2.1-0.6,3.4-1.4c-0.4,2.1-1.6,3-3.3,3.3C438.7,222.4,438.6,221.7,438.6,221.1z"/>
	<path class="st6" d="M273.8,315.9c-0.5,3.1-0.9,6.2-1.4,9.3c-1.6,0.5-3.2,0.5-4.9,0c0-0.9,0-1.8,0.1-2.7c1.1-3-1.6-2.7-3-3.5
		c-2.3,0-4.7,0-7-0.1c-1,0-1.4,0.3-1.6,1.3c-0.2,1.7-0.5,3.4-0.7,5c-1.6,0.5-3.2,0.5-4.9,0c0-2.7,0.8-5.3,0.5-8
		c0.5-0.9-0.4-1.8,0-2.7c0.1-0.2,0.3-0.4,0.5-0.5c1.3-4.1,1.3-8.5,1.9-12.7c1.8-13.5,3.5-26.9,5.2-40.4c1.6-12.8,3.2-25.7,4.7-38.5
		c0.1-1.2,0.7-2.4,0.3-3.6c0.5-3.3,0.9-6.6,1.4-9.9c0.5-2.9,2.7-1,4.1-1.3c1.5-0.3,1,1.1,0.9,1.9c-0.2,4.4-0.2,4.4,4.2,4.4
		c0.8,0,1.6,0,2.4,0c4.6,0,4.7,0,5.3-4.4c0.4-3,2.6-1.6,4.1-1.8c2-0.3,1.1,1.3,1.1,2.1c0,0.4,0,0.8,0,1.2
		c-1.2,5.4-1.5,10.9-2.2,16.4c-1.1,8.2-2.1,16.5-3.2,24.7c-0.1,0.5,0,1,0,1.4c0,0.1,0,0.2,0,0.3c0,0.8,0.1,1.6-0.1,2.4
		c-0.2,0.6-0.1,1.2-0.2,1.8c-0.4,1,0.3,2.3-0.7,3.2c-0.3,2.2-0.6,4.3-0.9,6.5c0.5,3.2,0.5,6.3-1.1,9.2c-0.3,2.2-0.6,4.3-0.9,6.5
		c0.5,3.2,0.4,6.3-1.1,9.2c-0.6,2.1-0.6,4.3-0.8,6.5c0.5,3.2,0.5,6.3-1.1,9.2c-0.6,2.1-0.6,4.3-0.8,6.5
		C274.3,315,274.3,315.5,273.8,315.9z"/>
	<path class="st3" d="M226,275.8c0.8-6.6,1.6-13.2,2.4-19.8c0.1-0.9,0.3-1.7,0.5-2.6c4.2,2.6,8.5,5.1,12.7,7.8c2.5,1.6,2.6,5,0,6.4
		C236.4,270.5,231.2,273.1,226,275.8z"/>
	<path class="st94" d="M221.7,314v-0.2c6.3-0.5,12.6-0.2,19-0.2c3.6,0,7.3-0.4,10.9,0.3l-0.1,0.1c-1,0.8-2.1,0.7-3.3,0.7
		c-7.7,0-15.5,0-23.2,0C223.8,314.7,222.6,314.9,221.7,314z"/>
	<path class="st95" d="M171.7,220.6c-0.3,2.9-0.7,5.7-1,8.6c-0.1,0.6-0.3,1.1-1,1.1c-2.2-0.4-4.4-0.2-6.5-0.2
		c-1.9,0.1-2.5-0.8-2.5-2.4c-0.1-2.1-0.1-4.2,0-6.3c0.1-1.6,0.8-2.4,2.5-2.3c2.3,0.1,4.5,0,6.8,0
		C170.8,219.1,172.1,218.9,171.7,220.6z"/>
	<path class="st96" d="M171.7,220.6c-0.1-0.5-0.3-1-0.9-1c-2.8,0-5.5,0-8.3,0c-1,0-1.2,0.7-1.2,1.5c0,2.4,0,4.9,0,7.3
		c0,1.4,0.8,1.4,1.9,1.5c2.1,0.2,4.4-0.5,6.4,0.4c-3.2,0-6.5,0-9.7,0c-1.2,0-1.5-0.3-1.3-1.6c0.5-2.8,0.9-5.6,1.2-8.4
		c0.1-1.2,0.6-1.7,1.8-1.7c2.9,0,5.8,0,8.7,0C171.7,218.7,172.6,219.1,171.7,220.6z"/>
	<path class="st1" d="M274.7,308c0.4-3.1,0.7-6.1,1.1-9.2c1.5,0,3,0,4.5-0.1c0.9,0,1.3,0.5,1.3,1.3c0,2.7,0,5.3,0,8
		c0,0.3,0,0.8-0.2,0.9c-1.7,1.1-3.6,0.3-5.4,0.5C274.9,309.7,274.9,308.8,274.7,308z"/>
	<path class="st97" d="M276.7,292.3c0.4-3.1,0.7-6.1,1.1-9.2c3.4-1.2,3.9-0.8,3.9,2.6c0,2,0,4.1,0,6.1c0,1,0.1,2.2-1.4,2
		C279.1,293.6,277,295,276.7,292.3z"/>
	<path class="st97" d="M278.7,276.7c0.4-3.1,0.7-6.1,1.1-9.2c1.2-0.8,2-0.6,2,1c0,2.5,0,5.1,0,7.6c0,0.7,0.1,1.5-1,1.6
		C279.8,277.8,278.9,278,278.7,276.7z"/>
	<path class="st98" d="M273.8,315.9c0-0.5,0.1-0.9,0.1-1.4c2.1,0,4.1,0,6.2-0.1c1.1,0,1.7,0.3,1.5,1.5
		C279,315.9,276.4,315.9,273.8,315.9z"/>
	<path class="st99" d="M280.6,261.1c0.1-1.2,0-2.3,0.5-3.4c0.5,0.2,0.2,0.8,0.5,1.1c0,1.2,0,2.3,0,3.5
		C280.9,262.2,280.8,261.6,280.6,261.1z"/>
	<path class="st32" d="M342.3,177.4c-0.2-0.1-0.6-0.3-0.8-0.6c-0.8-1.7-1.6-3.5-2.4-5.3c-0.2-0.5,0-1,0.5-1.2s1-0.2,1.3,0.3
		c1.1,1.8,2,3.7,2.3,5.8C343.4,176.9,343.2,177.4,342.3,177.4z"/>
	<path class="st100" d="M343.8,182.4c0.6,0.3,1,0.7,0.9,1.4c-0.6,0-1.1,0.1-1.5-0.5C343.4,183,343.6,182.7,343.8,182.4z"/>
	<path class="st46" d="M353.5,196.1c0,0.9,0.1,1.8,0.1,2.7c0,37.9,0,75.7,0.1,113.6c0,2.5-0.6,3.2-3.1,3.1c-4.5-0.2-9.1,0-13.7,0
		c-0.2-0.1-0.4-0.1-0.6-0.2c-0.4-0.8-0.3-1.6-0.3-2.4c0-37.5,0-75.1,0-112.6c0-1.4-0.3-3,0.8-4.2C342.5,196.2,348,196.1,353.5,196.1
		z"/>
	<path class="st101" d="M336.9,196.2c0,39,0,77.9,0,116.9c0,0.8,0,1.6-0.5,2.3c-2,0-4.1,0-6.1,0.1c-1.2,0-1.9-0.3-1.7-1.7
		c0-0.2,0-0.5,0-0.7c0-35.6,0-71.1,0-106.7c0-0.5,0-1,0.1-1.5c0.6-2.9-0.2-5.9,0.4-8.7C331.7,196.1,334.3,196.2,336.9,196.2z"/>
	<path class="st102" d="M329.1,196.1c-0.2,2.9,0.5,5.9-0.4,8.7C328.8,201.9,328.1,199,329.1,196.1z"/>
	<path class="st103" d="M281.7,258.7c-0.2-0.4-0.4-0.7-0.5-1.1c0-0.6,0.1-1.2,0.1-1.8c0.4-0.8-0.1-1.7,0.4-2.5l0,0
		C282.9,255.1,281.4,256.9,281.7,258.7z"/>
	<path class="st104" d="M279.2,335.5c-1.6,3-4.1,4.1-7.4,4.1c-15.9-0.1-31.9,0-47.8,0c-4.1,0-5.8-1.2-7.4-5
		c-0.2-1.9,1.2-1.5,2.3-1.5c9.8,0,19.7,0,29.5,0c9.5,0,19,0.1,28.5-0.1C278.9,332.9,279.7,333.4,279.2,335.5z"/>
	<path class="st52" d="M221.7,314c9.9,0,19.8,0,29.7,0c0.1,1.1,0.2,2.1-0.4,3.1c-0.2-1.6-1.5-1.2-2.5-1.2c-7.9,0-15.9,0-23.8,0
		c-1,0-2.1,0.1-3.1-0.5C221.6,315,221.6,314.5,221.7,314z"/>
	<path class="st105" d="M264.5,318.9c0.2,0,0.3-0.1,0.5-0.1c3.5-0.1,3.6,0.1,2.6,3.6c0-1.3-0.2-2.3-1.9-2.1
		C264.6,320.4,264.6,319.6,264.5,318.9z"/>
	<path class="st106" d="M267.5,325.1c1.6,0,3.2,0,4.9,0C270.7,326,269.1,326,267.5,325.1z"/>
	<path class="st106" d="M250.4,325.1c1.6,0,3.2,0,4.9,0C253.6,326,252,326,250.4,325.1z"/>
	<path class="st107" d="M400.6,345.3c-1.1,0-2.3,0-3.4,0c-99.3,0-198.5,0-297.8,0c-1,0-1.9,0-3,0c0.6-0.8,1.2-0.5,1.7-0.5
		c100,0,200,0,300,0C398.9,344.8,399.9,344.5,400.6,345.3L400.6,345.3z"/>
	<path class="st108" d="M273.7,340.3c-17.2,0-34.3,0-51.5,0c0-0.1,0-0.2,0-0.2c17.2,0,34.4,0,51.6,0
		C273.8,340.1,273.7,340.2,273.7,340.3z"/>
	<path class="st3" d="M175.9,270.6c0.1,3.3-3.7,7-7.2,7c-2.3,0-4.2-1.8-4.4-4c-0.2-3.3,3.5-7,7.1-7.1
		C174,266.5,175.9,268.1,175.9,270.6z"/>
	<path class="st109" d="M130.6,258.7c27,0,54,0,81.1,0c0,0.2,0,0.3,0,0.5c-0.8,0-1.6,0-2.5,0c-25,0-50,0-75,0c-1,0-2-0.2-3.1,0.3
		C130.3,260,130.7,259,130.6,258.7L130.6,258.7z"/>
	<path class="st110" d="M271.4,292.9c-0.2,4-0.2,4-4,4c-2.3,0-4.5,0-6.8,0c-1.2,0-1.7-0.2-1.5-1.6c0.5-2.7,0.8-5.4,1.1-8.2
		c0.1-1.3,0.6-1.7,1.8-1.6c2.7,0.1,5.3,0.1,8,0.1c1.1,1.4,0.5,3,0.7,4.5C270.7,291,270.2,292.2,271.4,292.9z"/>
	<path class="st110" d="M273.3,277.3c0.3,2.2-0.5,3.3-2.9,3c-2.6-0.2-5.2-0.1-7.8,0c-1.2,0-1.6-0.4-1.4-1.6c0.4-2.9,0.7-5.8,1.1-8.7
		c0.1-0.6,0.3-1.2,1-1.2c3.7,0.3,7.4-0.8,11,0.2c-0.1,0.1-0.1,0.1-0.2,0.2c-0.9,0.8-2.7-0.1-3.2,1.3c-0.6,1.7-0.3,3.5-0.2,5.3
		C270.8,277.2,271.9,277.6,273.3,277.3z"/>
	<path class="st20" d="M280.3,221.6c-0.3,2.7-0.7,5.5-1,8.2c-2.7,0.6-5.5,0.1-8.2,0.2c-1.2,0.1-1.6-0.7-1.7-1.7
		c-0.3-2.5-0.2-5,0-7.5c0.1-1.3,0.9-1.8,2.2-1.8c2.3,0,4.6,0,6.8,0C280.1,219,280.9,219.8,280.3,221.6z"/>
	<path class="st111" d="M269.9,304.7c-0.3,2.5-0.7,5.1-0.9,7.6c-0.1,1.1-0.6,1.4-1.5,1.3c-1-0.1-1.9-0.1-2.9-0.1
		c-0.2-0.2-0.3-0.4-0.4-0.6c-0.1-2.2-1.4-2.8-3.3-2.6c-1.1,0.1-2.2,0.2-3.2-0.6c-0.3-1.1,0.4-1.2,1.2-1.2c1.4,0,2.7,0,3.8,0
		c0.7,0,0.4-0.5,0.4-0.2c0,0.1,0,0.1-0.2,0.1c-0.5,0-1,0-1.4,0c-3.5-0.1-3.6-0.3-3.2-3.8c0-0.6,0.1-1.2,0.1-1.7c2,0.3,4,0.8,5.8-0.5
		c1.8,0,3.6,0,5.4,0C270.2,302.9,269.3,303.9,269.9,304.7z"/>
	<path class="st3" d="M269.9,235.7c2.4,0,4.8,0,7.2-0.1c1.3-0.1,1.4,0.5,1.2,1.6c-0.5,2.9-0.8,5.9-1.2,8.9c-2.2,1.5-4.7,0.5-7,0.6
		c-0.5,0-0.8-0.6-0.8-1.1C269.2,242.2,268.5,238.9,269.9,235.7z"/>
	<path class="st49" d="M269.9,235.7c0,3,0.1,6,0,9c0,1.4,0.5,2,1.8,1.8c1.8-0.2,3.7,0.5,5.5-0.5c0.1,1-0.5,1-1.2,1
		c-3.2,0-6.3,0-9.5,0c-1.1,0-1.4-0.3-1.2-1.4c0.4-2.3,0.8-4.7,0.9-7C266.2,235.9,267.4,235,269.9,235.7z"/>
	<path class="st110" d="M275.3,261.6c0.2,1.4-0.3,2.1-1.8,2c-2.9-0.1-5.8-0.1-8.7,0c-1.1,0-1.7-0.2-1.5-1.5c0.3-1.7,0.6-3.3,0.8-5
		c2,0.8,4.3-0.2,6.1,1.4C270.2,262.2,273.1,261.3,275.3,261.6z"/>
	<path class="st112" d="M280.3,221.6c0.1-1.6-0.5-2.1-2.1-2c-2.1,0.1-4.2,0.1-6.3,0c-1.4,0-1.9,0.4-1.9,1.8c0.1,2.3,0.1,4.6,0,6.8
		c0,1.3,0.5,1.7,1.7,1.7c2.5-0.1,5-0.1,7.6-0.1c-1.2,1.3-2.7,0.4-4.1,0.5c-1.5,0.2-3.1,0.1-4.6,0c-3.3-0.1-3.3-0.1-2.9-3.2
		c0.3-2.3,0.7-4.5,0.9-6.8c0.1-1.2,0.7-1.7,1.9-1.6c2.7,0.1,5.4,0,8.1,0C281,218.8,281,218.8,280.3,221.6z"/>
	<path class="st3" d="M269.9,252.3c1,0,1.9-0.1,2.9-0.1c3.8,0,3.8,0,3.2,3.9c-0.1,0.6-0.2,1.1-0.3,1.7c-1.1,1.6-3.7,1.7-6,0.3
		C269,256.1,268.8,254.2,269.9,252.3z"/>
	<path class="st113" d="M273.3,277.3c-2.2,1.2-3.4,0.7-3.4-1.6c0-0.8,0-1.6,0-2.4c0-4.2,0-4.2,4.3-4.2
		C274.3,271.8,273.6,274.5,273.3,277.3z"/>
	<path class="st114" d="M269.9,252.3c0,2,0,3.9,0.1,5.9c0.1,0.2,0.1,0.4-0.1,0.5c-1.2-0.8-2.5-0.4-3.8-0.5c-0.9,0-1.9,0.2-2.1-1.1
		C264.5,250.9,263.9,252.3,269.9,252.3z"/>
	<path class="st97" d="M257.7,309.6c1.2,0,2.4,0,3.6,0c3.3,0,3.3,0,3.2,3.4c-2,0.5-4,0.1-5.9,0.2c-1.2,0.1-1.3-0.9-1.5-1.8
		c0.1-0.5,0.2-0.9,0.2-1.4C257.4,309.9,257.5,309.7,257.7,309.6z"/>
	<path class="st1" d="M269.9,258.7c0-0.2,0.1-0.4,0.1-0.5c1.9-0.3,3.9,0.8,5.8-0.5c-0.2,1.3-0.3,2.6-0.5,3.9
		c-1.3,0.9-2.9,0.7-4.2,0.4C269,261.7,270.3,259.8,269.9,258.7z"/>
	<path class="st115" d="M271.4,292.9c-0.7,0.8-1.4,1.4-1.5-0.4c0-2.3,0-4.6,0-7c1.8-0.4,2.7,0,2.1,2.1
		C271.6,289.4,271.6,291.2,271.4,292.9z"/>
	<path class="st110" d="M257.7,309.6c-0.1,0.2-0.3,0.3-0.4,0.5c0.2-1.9,0.3-3.8,0.9-5.6c-0.4,2.5,0.7,3.5,3.2,3.1
		c0.9-0.1,2-0.1,2.4,1.4c-1.8,0-3.4,0.1-5.1,0C258.1,308.9,257.8,309,257.7,309.6z"/>
	<path class="st110" d="M264.1,302.3c-1.7,1.8-3.9,2-5.8,0.5C260.1,301.5,262.1,302.4,264.1,302.3z"/>
	<path class="st116" d="M257.1,311.4c0.8,1.6,2.3,1.6,3.9,1.6c1.2-0.1,2.4,0,3.6,0c0,0.2,0,0.3,0,0.5c-2.1,0-4.1,0-6.2,0.1
		C256.4,313.7,256.4,312.8,257.1,311.4z"/>
	<path class="st117" d="M269.9,304.7c-0.8-0.7-0.3-1.6-0.4-2.4C271.2,302.8,269.6,303.9,269.9,304.7z"/>
	<path class="st49" d="M281.6,253.3c0.1,0.9,0.4,1.8-0.4,2.5C281.1,254.9,281.2,254.1,281.6,253.3z"/>
</g>
</svg>
