<?xml version="1.0" encoding="utf-8"?>
<!-- Generator: Adobe Illustrator 20.0.0, SVG Export Plug-In . SVG Version: 6.00 Build 0)  -->
<svg version="1.1" id="adf35c87-b782-4e77-99e1-73b1e980183a"
	 xmlns="http://www.w3.org/2000/svg" xmlns:xlink="http://www.w3.org/1999/xlink" x="0px" y="0px" viewBox="0 0 904.8 944.2"
	 style="enable-background:new 0 0 904.8 944.2;" xml:space="preserve">
<style type="text/css">
	.st0{opacity:0.3;fill:#05A9C5;}
	.st1{opacity:0.2;}
	.st2{clip-path:url(#SVGID_2_);}
	.st3{fill:#13D0E0;}
	.st4{opacity:0.34;enable-background:new    ;}
	.st5{fill:#3B8AE0;}
	.st6{opacity:0.9;}
	.st7{fill:#3A3768;}
	.st8{fill:#E6E8EC;}
	.st9{opacity:0.5;fill:#3B8AE0;enable-background:new    ;}
	.st10{opacity:0.1;enable-background:new    ;}
	.st11{fill:url(#SVGID_3_);}
	.st12{fill:#EE8E9E;}
	.st13{fill:#65617D;}
	.st14{fill:#3F3D56;}
	.st15{opacity:5.000000e-02;enable-background:new    ;}
	.st16{fill:#E8EAF2;}
	.st17{fill:#303D5C;}
	.st18{opacity:0.1;fill:#3F3D56;enable-background:new    ;}
	.st19{fill:url(#SVGID_4_);}
	.st20{opacity:0.1;}
</style>
<path class="st0" d="M291.1,197.2h489.5c26.7,0,48.4,21.7,48.4,48.4v489.5c0,26.7-21.7,48.4-48.4,48.4H291.1
	c-26.7,0-48.4-21.7-48.4-48.4V245.6C242.8,218.9,264.4,197.2,291.1,197.2z"/>
<g class="st1">
	<defs>
		<path id="SVGID_1_" class="st1" d="M291.1,197.2h489.5c26.7,0,48.4,21.7,48.4,48.4v489.5c0,26.7-21.7,48.4-48.4,48.4H291.1
			c-26.7,0-48.4-21.7-48.4-48.4V245.6C242.8,218.9,264.4,197.2,291.1,197.2z"/>
	</defs>
	<clipPath id="SVGID_2_">
		<use xlink:href="#SVGID_1_"  style="overflow:visible;"/>
	</clipPath>
	<g class="st2">
		<g>
			<path class="st3" d="M85.9,166.5c-9.2,1.6-19.1,4.3-29.6,3.1c7.4,4.8,15.1,0.8,21.2-0.2c2.5-0.4,5.1,0.7,7.4,0.4
				c2.6-0.3,4.7-2.2,7-2.6c4.3-0.6,9.6,1.5,14.7,0.3c0.7,0.6,0.4,2,2.1,1.7c-2,10.4,5.4,14.4,6.3,22c8.1,10.9,13.5-4.9,22.4-5.5
				c3.8-0.2,7.6,1,10.7,3.4c0.2,4.4-4.6,6.4-8.2,8.2c-5.8,2.8-15.6,11.1-17.6,15.1c-2,4-1.5,9.1,4.3,8.8c-2.8,4.1-6,9-4.6,16.1
				c-5.6,1.9-7.8-4.1-12.9-3.1c-5.1,1.1-2.2,11.5,1,14.4c0.7,5.1-4.9,6.4-8.4,4.5c-0.3-5.3-4.2-9.8-9.4-10.7
				c-1.4,2.9,1.4,4.9,1.8,7.5c3.8,0.5,6.9,3.5,7.5,7.3c-11.7,0.5-20,6.7-32.7,3.7c-3.9,1.9-5.4,6.4-8.2,9.4c-4.8,0.2-8.2-1.5-11.6-1
				c-3.9,0.5-6.4,4.5-10.6,4c-1,2.6,0,6-1.3,8.9c-1.6,0.4-3.2,0.3-4.8-0.2c-1.3,6.8-3,15.4-11.5,13.4c-2-0.8-1.6-3.5-2.3-5.4
				c-2.6,0.2-3.7,2.1-6.6,2.1c-4.3-6.2-13.4-8.3-15.2-16.7c-0.5-1.7,1.5-1,1.8-2c-8.4-1.5-12.5-13.5-6-18.7
				c-0.7-1.7-4.4-0.9-5.9-1.9c-2.8-6.3,2.9-12.7,10.4-9.7c0.7,2.6,0.1,5.3-1.7,7.3c0,1.8,2.3,1.6,3.3,2.6c4.6-4.8-1.8-15.3-7.5-14.7
				c-3.9,0.4-2.9,5.9-7.7,6.2c-1.6-6.5,0.3-12.9-2.6-17.3s-18-9.8-25.5-10.2c-3.8-0.3-7.8,1.4-11.3-0.1c-1-1.7-1.5-3.7-1.4-5.7
				c-1,3.7-2.6,8.8-6.9,8.2c-4.3-0.5-3.4-6.2-7.8-8.1c-4.4-1.9-6.3,1.2-8.5-2.9c4.5-3.7,12.5-0.2,16.6-4.1c2-1.9,0.9-4.6,4.2-5.5
				c6.2,1.5,9.2-1.9,8.1-6.5c1.7-5.2,8.7-3.3,13.6-4.2c1.3-1.3-0.4-3.3,0.2-3.7c4.2-4.5,16.5-7.8,27-4.5c4.3,1.3,5.7,3.3,9.4,2.9
				c1.8-0.3,3.5-1,4.9-2.2c2.5-3.3-0.7-12.2,4.9-11.6c3.6,0.4,1.2,6.2,4,6.8c4.3-1.4,4.8-6.7,7.8-9.4c7.1,0,12.6-5.5,20.7-5.9
				c2.6-0.2,5.8,0.4,8.6,0.4c6,0,11.7-1.4,16.9-0.8c3.8,0.8,7.5,1.9,11.1,3.4C80.4,164.1,84.4,163.4,85.9,166.5z"/>
			<path class="st3" d="M-94.3,824.8h-1.3c-3-1.1-5.6-2.6-8.5-3.7c1.3-2.9,5-3.4,6-6.7c-0.2-1-0.3-2.1-1.6-2.1
				c-3.2,1.5-1.9,6.6-5.2,7.1c-2.6,0.4-3.1-2.1-5.4-4.4s-6.7-4.5-4.3-9.2c-0.6-2.4-3.2-3-4.5-4.7c0-2.6,2.1-2.6,2.8-4.4
				c0-2.4-3.6-1.9-4.1-3.9c0-3.9,2.2-5.4,3.4-8c-0.2-2.6-2.1-4-2.3-6.6c1.4-4.6,8.1-7.5,8.9-13.5c0.4-2.6-1.6-6.2-1.3-9.5
				s3.4-6.8,3.1-9.6c-0.2-1.7-2.5-3.4-2.3-5c0.1-1.7,2-2.8,3.2-3.9c-0.3-10.4,11.3-17.2,6.2-28.7c0.4-1.9,2.6-1.9,3.2-3.5
				c-3-4.2,2.2-4.7,4.3-7.1c-2.2-11.7,2.6-24.7,3.2-35.5c0.7-11.1-5.8-15.1-13.7-21.5c-6.7-1.5-12-4.7-12.4-11.7
				c-0.3-4.3-2.9-10-4.5-14.9c-0.7-2.2-1.8-4.8-2.6-7.1s-1.4-5.4-2.2-7.5c-1.4-3.3-7.1-5-8.3-8.6c-1.5-4.4,2.6-7.6,3.2-12.1
				c0.5-3.9-1.1-7.6-0.8-9.8c1-7.7,8.3-10.2,14.1-14c0-2.6,2.1-5.8,2.6-9.3c0.4-3.8-0.6-7.6-2.6-10.7c-2.2-4.6-0.9-8.6-7-8.1
				c-0.9,4.6-7,9-9.2,2.8c-6.2-0.8-7.2-6.1-11.7-9.2c-2.8-1.9-5.2-1.8-6.3-3.6s-0.2-4.3-0.6-6.5c-0.7-3.8-3.6-6.9-7.4-7.8
				c-1.1-0.3-2.4,0.4-3.4,0.3c-2.4-0.3-4-3.1-7.3-2.4c-5.6-1.5-8.2-12.6-14.6-12.2c-3.2,0.2-3.3,2.9-5.9,4.6
				c-3.5-0.3-3.6-3.4-5.8-4.8c-3.9-0.2-6.4,1.1-10.4,0.7c-4.4-2.6-2.6-8.1-5.1-11.7c-2.5-3.6-7.6-3.4-12.7-5.5
				c-3.4-2.8-2.8-7-2.9-11.2c0-5.9-5-9.3-9.4-12.3c-4.1-9.1-10.6-15.6-16.2-22.8c-3-3.9-3.8-8-6.7-12.6c-7.1,4.2,0,8.3,2.9,11.6
				c3.5,4.1,4.4,11.4,8.5,13c0.6,2.9-0.1,5.2,1.8,7.8s11,8.9,3.4,9.6c-3.4,0.3-3.1-3.3-5.4-5.2c-1.7-1.4-3.4-0.5-4.6-2.3
				c0-6-4.3-8-6.8-11.8c-2.3-0.5-4.4,0.9-6.1-0.3c0.3-3.3,2.6-4.5,3.8-6.8c-0.6-2.4-2.5-4.2-5-4.7c-4.3-7.6-5.2-18-11.9-23.5
				c-4.5-0.9-10.4-1.9-12.8-5.2c-2.3-3.4-1-8.6-2.4-12c-2.4-5.8-6.6-9.5-7-15.5c-0.5-7.4,3.1-13.5,2.4-22c-0.5-3.9-1.5-7.7-2.9-11.3
				c-2.1-3.9-8-5.3-11.8-6.7c-3.4-2.5-1-6.2-1.3-9.4c-0.3-4-3.3-4.4-6.1-7.3s-2.3-8.5-6.5-9.7c-0.9,5.5,5.6,8.6,2.3,14.4
				c-3.9-2.3-6.7-2.3-8.8-5.3c-2.2-3.1,0.5-7.1-0.3-11.1s-5.8-3.9-10.1-5c-1.6-2-0.8-4.4-1.4-6.2c-3.8-10.7-26.3-7.8-34.3-15.2
				c-1.8-0.4-2.1,0.7-3.5,0.7c-2.6-1-3.7-3.1-6.8-3.6c-1.3,5-6,12.1-11.6,6.4c-2.8,0.3-3.5,2.9-7.5,2.1c-0.3-3.3,1.7-4.2,1.7-7.3
				c-4.4-0.4-5.4,2.6-5.5,6.7c-1.7,1.7-3.5,3.2-5.4,4.6c2.1,0.5,4.3,0.6,6.5,0.3c0.2,8.4-10.9,11.1-14.1,4.3
				c-4.7,3-7.8,9.4-14.3,9.1c-1.6,0-3.1-1.7-4.7-1.9c-6.1-0.5-10.4,6.1-17.5,4c0-1.1,0-2.2,0.2-3.3c9.5-4.3,22.4-7.2,28.4-14.1
				c-0.2-0.6-0.6-1.1-0.8-1.7c-1.9-0.3-3.7,0.2-5.2,1.4c-2.4-0.9-3-3.2-5-4.4c-1.5,0.6-1.8,2.4-3.2,3.1c-5.5-0.4-1.1-7.4-4.3-9.2
				c-2.6,1.8-4.2,4.5-8,4.9c-1.4-4.2-8.3-6.6-7.8-11.4c0.5-3.3,8.4-7.6,14.2-7.5c4.2,0,7.6,0.1,8-4.1c-2.8-3.3-5.8,1.1-9.2,1.6
				c-9.7,1.6-18.6-3.3-19.9-9.2c4.5-1.8,11.1-1.6,14.9-4.2c3.2,3.9,8,5.9,13,5.6c1-2.6-1.9-4.7-3.6-6.3c-5.2-1.1-7.8-4.4-14.5-4.4
				c-5.5-8.5,5.1-7.3,12.1-8.8c2.9-0.6,5.9-2.6,8.8-2.8c7.6-0.9,13,0.3,14.1-5.5c2.3,0.5,4.1,3.1,6.8,3.6c7,1.4,16.3-0.4,23.3,0.7
				c4,0.7,7.2,3.6,11.1,4.2c7.1,1.2,13.2-1.9,19.1-1.9c2.9,1.9,4.2,5.7,8.3,6.5c2.6,0.6,6.9-1.1,8.2,0.4c1.9,2.1,4,3.9,6.2,5.6
				c3.2-0.7,5.8-2.9,7.2-5.8c5.2-0.7,8.9,2.3,13.8,1.9c4.9-0.3,10.8-6.1,15.6-0.5c2.1-0.2,2.2-2.6,4.9-2.2c0.5,1.7,2.6,3,1.5,5
				c2.2,0.4,4.3-2.6,6.7-3.4c8.7,1.5,21-0.8,23.1,5.2c3.7,0.7,7.3,1.9,10.6,3.8c1.2-0.4,2.2-1,3.1-1.9c-4.3-4.7-8.2-9.7-11.6-15
				c-3.7,5.3-10.5,7.6-16.7,5.7c-1.7-0.5-2.8-3.1-5-3.9c-2.6-1.1-4.6,0.5-6-1.5c0.8-2.3,3-1.5,4.5-3.1c1.9-2,1.3-5.5,3.4-7.6
				c7-0.9,13.9,1.5,20.3,1c3.3-0.3,6-3.1,9.6-1.6c2.1,3.2,5.2,3.7,9.7,5.8c2,1.3,4.1,2.5,6.3,3.6c6.8,1.6,14.4-3.8,19.4,1.4
				c0.1,2.2,0,6.3,3.1,7.1c1.2-3.2-3.5-9.1,0.1-11.9c-7.8-3.3-16.4-0.7-25-2c-1.5-1.8-1.5-4.7-3.6-5.9c-2.2,0.7-4.3,1.7-6.2,3
				c-2.7-1-4.4-3.7-4-6.6c-6.5-1-15,3.5-22.5,0c0-2.8,2.5-3.1,5.3-3c1-0.3-1.1-2.2,0-2.8c6.8-0.7,19.7-7,22.9,1.5
				c4.5,1.4,8.4,0.3,12.5,1.8c2.8,1.1,4.4,4.5,7.1,4.4c4.8,0,4.9-6.7,11-4.8c1.3,0.4,2.2,3.4,4.1,3.9c2,0.4,3.7-1.6,7-1.7
				c2.3,4-1.3,11.4-5.8,12.4c2.1,3,9.2,0,11.6,2.2c-0.9,1.9-2.2,3.7-3.7,5.2c1.3,3.5,4.2,6.2,7.8,7.3c4.1,1.3,8.1-0.2,8.5,3.3
				c0.2,2.1-2.8,4.4-4.6,5.2c-4.7,1.8-12.5-1.1-14.8,2.9c1.4,4.4,11,2.6,17.6,3.3c5.7,0.5,10.9,1.8,13.5-0.6
				c1.2-4.7-2.4-5.2-4.4-7.2c1.8-3.5,7.3-0.5,11.3-1.5c-1.4,4.1-0.7,8.6,2,11.9c3.5-0.3,4-3.8,7.1-4.5c1.3-6.8-3.6-10.1-2.3-15.6
				c9.8-1,13,9.8,17.5,15.2c5-4.5,12.4-1.9,10.1,6.2c3.8,0.8,4-5.8,9.3-4.9c1.1-1.5,1.7-3.4,1.5-5.2c-10.4-2.3-22.2-1.5-20.9-13.7
				c4.8-4.3,11.2-6.3,17.6-5.7c3.1,2.8,0.3,6.8-0.5,10.2c2.5,1,5.2,0.3,7-1.7c0.4-2.1-1.1-2.6-0.6-4.9c5.2-1.6,10.9-0.7,17.4-0.8
				c4,0,8.3-1,11.3-0.7c4.3,1,8.3,3.2,11.4,6.3c7,6.4,20.1,7.4,30.7,10.4c1.8,4.7-1.5,9.9,3.8,11.2c1.7,0.4,3.4-0.9,5.2-0.5
				c6.2,1,10.2,10.2,17.7,9.4c-2.6,3.6-6,7.8-10.4,8.1c-5.2,0.1-8.1-7.5-14.9-6.1c0,5,5,5.9,8.2,8.2c-0.3,2.5,4.1,6,2.1,9.9
				c-3.4-0.4-3.7-3.4-7.6-3.2c-2-0.2-1.3,2.3-2.7,2.6c-6.8,0.8-9-2.6-11.9-5.1c-1.7-0.2-1.4,1.7-3.1,1.5c-8.7-7.2-20.4-9.7-31.3-6.9
				c-1.2-2.6-1-5.7,0.4-8.2c3.9-2.4,7.8,1.4,11.2,0.5c2.1-0.5,2.2-2.7,3.7-4.3c2.3-2.4,4.9-2.6,8-3.7c-0.8-2.6-4.3-2.8-6.3-4.4
				c-2.1,1.8-2.9,4.9-5.5,6.3c-2.6-0.7-6.5-0.2-8.2-1.6c6.2-2.2,8.3-12-2.1-9.9c-0.7-1.2,0.2-3.8-1.5-4.2c-1.6,0.4-0.8,3.2-2.3,3.6
				c-5.5-1-11.1-1.1-13.5,2.2c2.3,2.3,7,2.2,6.6,6.1c-0.3,2.8-8.7,5.5-11.5,5.6c-4.7,0.2-9.5-3.3-12.1-0.6c0.8,3.8,8.7,2.8,11.1,3
				c2.5,0.2,2.4,2.2,5,3.9c2.6,1.7,6.4,2.2,7.6,3.7c1.7,2.1-0.7,6.8-4.6,5.9c-2.9-0.7-2-3.8-4-5.9c-7-1-9.4,5-16.2,2.9
				c0-2.2,2.1-2.1,2.8-3.6c-0.9-2.6-3.7-3.3-5-5.6c0,3.4-2,4.8-2.1,8.1c-12.4-7.2-19.3,6.4-27.4,10.4c0.5,3,2.2,4.9,1.3,9.1
				c2.1,2.1,3.5,4.9,3.9,7.8c8.3-1.5,13.5,3.2,18.8,5c3.6,1.4,7.3,2.3,11.1,2.6c3.5,0.2,8.4-2.1,10.4,0.5c-0.3,4.1,3.5,7.1,3.3,12.4
				c1.9-0.2,2.6-3.8,4.1-3.1c1,2.6,0.5,5.6-1.3,7.7c1.7,4.5,9,3.7,9.9,0.5c1.6-5.1-4.2-12.2-4.4-16.2c3.7-2.1,3.8,1.3,5.5,2.6
				c4-1.4,7.8-3.7,7.8-7.4c0-4.7-6.5-7.4-8.6-10.6c1.3-0.9,3.5-0.9,4.9-1.8c-1.1-4.1-0.6-8.5,1.5-12.2c5.7-0.2,10.7-1.8,16-0.4
				c3.1,0.8,4.8,3.8,8,5.2c4.1,1.9,8.6,1.2,11,4.2c-0.5,2.3-3.5,2.1-4.1,4.3c1.4,3.9,7.6,5.9,11,5.5c4.9-0.8,5.6-7,9.5-8.5
				c7.8,4.2,8.3,10.9,13,16.6c0.2,2.2,0.9,4.3,1.9,6.2c2.6,0.2,5.2,0.2,7.8,0c5.2,4.4,8,10.6,15.4,13c-2.3,4.4-4.8,8.6-7.5,12.7
				c3.4,0.5,2.8,2.1,4.6,3.5c1.9-0.2,3.8-0.3,5.6-0.1c1.7,3.7,7.8,7.3,5,12.1c-1.7-0.5-7.3-2.9-9.5,0c-2.7-4.8-11.2-0.6-15.9-3.2
				c2-2.8,2.6-7,4.8-10c1.6-2.2,7.4-4.1,3.4-7.6c-4.1-0.6-3.7,3.5-6.7,4.2c-5.4-2.3-9.5,0.3-12.7,2.6c-1.4,1.2,1.4,0.8,0.8,2.6
				c-1.9,1.4-4.2,2.1-6.6,2.1c-1.3-1.5-0.5-4.8-0.5-7.4c-2-0.2-1.6,1.1-3.1,1.1c-1.4-0.1-3-1.9-5.2-1.9c-1.3,0-2.2,1.3-4,1.9
				c-3.3,1-8.1,0-10.4,1.5c-2.3,1.5-2.2,5.5-3.4,8c6.7,0.7,16.7-8.5,22.7-3.8c4.6,3.6-5.2,8.4,1.2,10.7c2.6,0,2.8-2.5,5.2-2.6
				c0.8,1,0,3.4,0.7,4.5c3,3.3,5.5-0.6,7.5-2.1c2.4,1.9,4,4.6,4.4,7.6c-4.5,3.7-12.1,2.6-18,4.4c-3.4,1.1-5.5,4.6-8.9,3.7
				s-1.2-5.7-2.2-8.3c-2.9-0.3-3.2,2.1-4.9,3c-5.7,0-10.6,0.6-11.5,4.8c-0.8,3.7,2.9,6.2,3,9.5c-4.8,3.3-13-2.9-16.9,0.8
				c2.6,2.7,0,5.5-3.7,5.2c-0.7,3.2,0.2,6.9-3.4,8.4c-2.3,0.2-2.4-2.9-4.2-1.8c-0.6,3.9,4.4,8.3,3.3,11.6c-1.7,2.6-5.2,2.2-7.5,3.7
				c-3.4,2.1-7,8.1-11.4,11.3c-3.5,2.6-6.4,3.5-7.3,7.8c1.3,3.2,4,7,4.7,11.3c0.7,4.9,2,12.6-5,12.9c-0.9-1.2-0.8-3.3-1.5-4.6
				c-5.2-3.4-6.1-10.4-6.9-17.5c-2.3-0.3-2,2.2-4,2.2c-2.6-0.8-2.8-3.5-4.5-5.2c-5.1,1.3-10.4,1.8-15.6,1.7c-1.3,1-0.8,3.7-2.4,4.4
				c-5.2-1.8-10.7-5.4-18.4-3.8c-3,5.4-11,5.7-14.4,10.7c0.4,1.6,2.5,1.8,2.9,3.4c-2.5,7.4-3.5,15.3-2.9,23.2c0.5,2.6,5.2,5.2,7,8.5
				c0.2,0.3-0.3,1.3,0,1.6c4,5.2,8.6,5,13.4,1c1.2,0.3,2.3,0.8,3.4,1.4c3.9-1,2.8-5,3.1-9.3c2.4-3.7,10.1-1.9,15.3-2.6
				c5.6,5.2-0.9,10.6-3.7,14.5c2.1,3.7-0.2,9.2-2.3,11.3c5.2,2,10.4,2.6,14.3-0.5c3.1,2,8.3,3.5,8.3,8.2c0,1.9-2,3.7-2.5,6
				c-0.6,4.1-0.8,8.2-0.6,12.3c0,1.8,4.1,7.2,6.5,7.6c4.1,0.8,6.8-2.6,9.7-4c5.1,0,6.7,2.9,8.4,5.7c8.9-0.7,8.4-11.2,17-12.3
				c2.8-1.5,4.5-4.2,9.3-3.6c-1.6,5.4-5.4,10.4-2.1,16.2c2.3-5.6,3.2-12.7,10.6-13c2.9,1.5,1.4,4.8,3.1,6.7
				c3.5-2.6,8.4-1.8,10.9,1.6c0.4,0.6,0.7,1.2,1,1.8c2,0,1.5-2.6,2.4-4c5.5-3.9,9.6,0,12.4,3.9c2.8-0.7,3.3-5.9,5.9-5.4
				c-2,4-1.8,7.8-4.4,10.8c2.9,1.4,4.6,3.1,9,2.5c0.9,4,5.9,7,8.1,11c5.8-3.4,13.3-1.8,17.2,3.7c1.6,2.1-1-0.4-0.5,1.2
				c1.1,1.5,2.3,3,3.7,4.3c2.6,2.3,4.3,5.4,4.7,8.8c3.4,0.4,3.6,3.5,5,5.6c-1.9,5.5-10.1,4.3-13.4,8.3c6.3,7,11.2-7.8,17-1.6
				c-0.5,5.2-4,7.5-7.4,9.9c0.8,1,2.8,1,4.7,1c1.3-3,3.1-5.8,5.2-8.3c13.3-0.2,16.9,13.3,29.4,10c5.7,1.4,6.5,4.6,9.5,8.2
				c9.6,1.5,13.8,6.7,15.3,14.2c-0.5,5.6-5.2,8.6-5,13.6c-4.3,8.2-19.9,13.2-14.2,25.1c-0.2,5.4-5.6,9.1-2.8,13.8
				c-0.7,5.2-4.1,5.7-6.1,9.5c-1.4,2.6-1.7,6.8-3.4,8.4c-1.7,1.7-4.9,1.3-7.8,1.7c-8.5,1.5-16.5,5.2-23.1,10.7
				c0.9,6.4,3.3,13.8-4.6,14.1c-1,1.5-1.6,3.1-2,4.8c-4.2,2.3-9.2,5.8-8.4,11.9c-5.4,5.2-11.7,15.9-22.6,9.9
				c-2-3.5-2.9-7.5-2.6-11.6c-2.2,1.7-1.9,6-3.9,8c0.7,5.2,8.6,4.8,9.1,9.4c0.2,2.1-2.9,4.3-4.2,6.3s-2.1,5.6-5.2,6.7
				c-4.5,1.6-10.1,0-15.1-0.3c-3.3,2-1.8,6.7-1.3,8.9c-3.3,1.9-7-1.9-10.7-2.2c-1.3,2.2,0.5,5.1,1.4,6.6c1.5,0.1,2.9,0.1,4.4-0.2
				c-2.8,4.8-6.2,9.2-10.2,13c-2.1,2.1-7.6,3.9-6,7.1c0.6,2.2,5.4,0.9,7.3,2c-1.4,10.1-11.1,11.6-16.1,18c-0.4,3.1,0.3,6.2,2.2,8.7
				c3.2,5.8,9.4,9.3,16,8.9C-80.6,823.3-88.2,823.3-94.3,824.8z M-303.8,325.8c1.7,1.8,3.9,3.1,6.3,3.6c2.4,1.7,1.5,6.2,4.4,7.6
				c3.4-8.4-7.1-11.5-11.8-15.6C-305.2,323.2-301.9,324.7-303.8,325.8z M-144.3,332.3c-3.9,0-4.9,2.1-8.9,4.1c-4,2-9.3,1.5-7.2,6.2
				c4.7,1.5,8.1-1.8,12.3-2.3c1.7,2.9,7.1,2.8,11.5,3.4c1.3-1.1,2.1-2.7,2.4-4.4C-138,337.6-141.4,335.2-144.3,332.3L-144.3,332.3z
				 M-120.5,349.4c-2.6-0.9-6.7,0-9.9-0.5c-5.8-0.9-12-3.3-15.6,0.9c-0.8,4.3-2.6,12-1.7,18.3c0.2,1.5,1.8,3.1,0.7,4.1
				c7.8,0.4,3.1-8.5,5-14c1.5-4.3,6.9-8,11.6-6.4c4.6,1.6,0.7,9.5,3.3,13.2c3.5,0.7,4.4-1.4,5.8-3c-1.1-2.6-1-7.8,1.3-9.3
				c0.5,2.4,1.5,4.5,4.5,4.7C-116,354.7-116.8,350.5-120.5,349.4L-120.5,349.4z M-110.6,359.4c-3.6,1.6-5.2,5.9-8.6,8.1
				c-2.8,1.9-7,2.4-7.6,5.8c6.2,2.8,8.9-5.2,15-5.4c0.5-1,1.3-1.9,2.3-2.3c3.4-1.3,8-1.4,9.8-4.4
				C-101.2,357.8-106.8,359.9-110.6,359.4L-110.6,359.4z"/>
			<path class="st3" d="M893.9,328.6c-4.7,0.8-9.4,5.3-15.9,5.8c-1.5-1.5-0.3-5.2-0.9-7.4c-6.6-2-8.6,3.1-12.8,5.9
				c-2,1.4-5.2,2.8-7.6,4.5c-4.9,3.3-7.5,6.4-14.9,2.9c-1.8-0.8-3.3-3.2-5.5-3.5c-2.8-0.4-5.9,1.8-9.6,2c-7,0.4-14.4-1.5-22-1.5
				c-6.5,2.8-10.2,9.6-16.6,12.7c-4.3,2-9.8,2.1-12,6.8c1.8,3.6,4.4,0,6.9-0.5c0.3,1.6,0.2,3.5,1.1,4.6c5.2,0.9,12.9-4.6,14.6,2.8
				c2.6-1.1,5.5-1.5,8.3-1.2c0.3,1.2,0.9,2.3,1.6,3.4c-0.9,1.7-2.2,3.2-3.7,4.4c3.3,2.4,5.1,6.4,4.7,10.4c0,1,0,1.9-0.1,2.9
				c-0.7,1.6-3.1,2.2-3.7,3.9c-1.3,3.7,1.1,7.8,0,11.4c-12.4-2.4-1.2-23.1-6.7-31c-1.2,1-0.3,3.6-0.2,4.9c-1.3,4.2-4.9,8-4.5,12.5
				c-3.1,7.3-14.3,14.2-20.9,19.8c-4,3.4-8.1,10-14.9,3.4c-3.8,4.4-11.1,5-11.9,12.5c-2,1-4.1,1.9-6.2,2.6c0.4,4.5,2.5,8.7,5.9,11.7
				c0,7.3-5.2,16-11.1,15.4c-2.1-0.4-3.8-1.9-4.6-3.9c-0.3-2.8,3.8-4.9,3.9-8.4c0-2.6-1.1-3.1-2.7-5.9c-2.6,0-3.2,2.5-5.8,2.6
				c-0.8-5,2.8-9.8-0.6-13.9c-4.1,1.4-6.4,4.7-11.5,5.2c-1.8-3.2,1.1-6.9,1.8-10.1c-4.1,0-6.4,5-10.3,6.9c-2.6,1.2-5.8,0.8-6.7,3.8
				c2,6.8,9.9,7.8,17,6.6c4.1,6.7-5.9,8.7-10.4,10.4c3.8,5.4,4.4,9.9,8.3,15.2c2.3,3-1.7,10.2,1.1,13.9c-2.6,7.2-11.9,12.4-17.3,18
				c-2.6,2.6-4.3,6.1-7.3,8.2c-5.2,3.2-11.1,5-17.2,5.2c-1.7-0.3-3.5-0.5-5.2-0.7c-5.9,0.9-5.2,8.4-2.3,11.4
				c-2.8,2.4-2.9,8.5-7.4,8.2c-2-0.1-3.7-1.8-3.7-3.9c-0.8-5.2,9.1-15.6,1.7-16.7c-2.8-0.4-5.4,4.2-5.8,4.6
				c-1.9,1.4-3.8,2.9-5.4,4.6c1.2,0.4,0,2.5,0,2c0.6,5.2,6.4,7.6,8.9,12.3c1.3,2.3,0.9,4.1,2.3,5.8c1.4,1.7,4.7,4.1,4.8,8
				c-2.3,4.3-0.8,9.2-3.7,12.5c-2.8,3.3-7.1,1.6-10.6,4c-1.8,5.4-4.9,10.3-8.9,14.3c-2.9-12.3-5.5-25-16.7-30.2
				c-1.1,5-2.6,9.8-4.6,14.5c-8-5.2-4.3-22.1-6.2-31.3c-10.1,0-8.4,12.2-14.7,16c-2.1-7.8,1.9-15.5,1.1-22
				c-0.8-6.5-6.2-10.2-8.8-15.6c-1.1-2.3-0.4-4.5-2.7-6.3c-2.6,0.7-3.9,2.8-5.8,4.2c-4.7,0.5-10.1-1-13.5,1
				c-2.1,1.2-2.6,3.7-4.2,5.5c-1.6,1.8-4.3,2.9-6.3,5c-2.6,2.8-4.4,6.2-6.9,7.8c-3.9,2.6-7.8,2.1-9.9,6.9
				c-0.2,5.5,1.5,11.3,0.5,16.8c-0.7,3.8-5,7.8-7,11.1c-2.6,4.2-4,8.8-7.8,9.8c-3.1-3.4-1.3-7.4-2.6-11.2
				c-4.1-13-15.5-26.4-15.2-43.7c0-4.2,1.4-8.4,1.1-13.4c-2.8,0-4.3,5.2-8,4.9c-6-0.6-2.6-7.8-4.6-12.5c-1.3-2.9-4.4-2.4-7.2-3.6
				c-2.3-2.6-3.2-6.4-6.5-8.1c-2.6,0.4-3.8,3.9-8,4.1c-5.8,0.3-17.9-0.7-21.5-2.3c-5-2.3-4.5-8.1-8.6-9.8c-3.4,0-4.8,3.4-7.8,3.3
				c-1.8,0-4.9-2.7-7.1-4.4c-2.3-1.5-4.5-3.1-6.7-4.8c-3.5-3.6-3-9.4-5.9-11.3c-8.1,0.8-5.4,6.7-2.7,11.3c0.4,0.7,0,1.6,0.3,2.1
				c1.1,1.6,3.6,2.9,4.5,4.7c1.4,2.6,2.1,6.8,5.2,7.6c-1.7,0.6,0.3,1.5,0.8,2.6c0.3,1.5,0.2,3.5,1.5,4.1c7.2-0.8,10.4-5.7,15.2-9.1
				c1.7,1.1,2.3,3.2,1.5,5c4.3,3.5,14.1,4.4,14.2,10.4c0,2-2.6,4-3.8,6c-2.8,5.1-6,9.8-9.8,14.2c-4.4,4.3-9.9,6.2-16,8.6
				c-2.1,0.8-3.7,2.6-5.8,3.4c-3.2,1.1-6.4,0.9-9.2,2c-7.3,2.8-14.7,8.6-25.1,7.8c-4.7-6.7-3.3-14.8-5-21.5
				c-2.8-11.3-15.5-16.5-14.9-31.3c-5.9-4.4-5.9-14-9.8-20.1c-2.9-0.2-5.6,0-7,1.3c-0.3,4.5,4.5,7.8,5,12.9
				c-0.5,2.5,0.6,5.1,2.6,6.7c2.2,5.3,0.6,14.5,0.7,20.9c2.6,5.1,9.8,6.4,12.4,11.6c-1.2,5.7,6.4,9.6,9.7,14c-0.8,2.1,2.6,5.7,4.4,8
				c0.4,2.9-1,5.9-0.8,7.3c1.7,4.2,8,2.6,10.7,1.7c6.8-2,14.1-7.3,22.8-6.6c0.9,3.9-0.9,7.8-1.9,11.4c-1.4,5.5-4.7,9.4-7.6,13.9
				c-2.9,4.6-6.5,6.3-6.5,11.2c-2.6,5-7.3,6.2-12.1,8.8c-11,5.9-14.7,19.6-25.1,26.1c0,3.7-2.6,7.1-2.6,10.4c0,2.6,3,6.2,2.9,10.4
				c0.6,3,2.3,5.5,4.9,7.2c0.3,2.5-0.4,5-2.1,6.9c5.1,16.8-7.8,21.3-16.1,28.7c-3.8,3.3-8.8,9.6-8.8,12.2c0,2.1,2.4,5,2.6,7.8
				s-1.4,4.7,0.5,7c-3,3.3-9.9,2.6-13.7,5c-2.6,3.8,2.3,6.2,2.6,9.1c0.3,4.5-8.2,10.4-11.1,13.8c-2.9,3.3-6.9,9.6-11.9,12.5
				c-5,2.9-11.7,1.1-17,1.2c-6.2,0-11.3,3.8-15.4,6.2c-12.4-1.3-7.3-16-11.8-25.5c-2-4.3-7.3-9.2-7.6-13c-0.4-4.9,4.2-9.1,3.7-13.3
				c-0.3-2.8-3.3-6.3-5.2-8.8c-6.4-8.6-16.7-29.7-6.6-43.3c1.6-2.2,4.9-2.9,5.5-5.9c0.6-3-2.6-6.6-3-9.9s0.9-7.3,0.5-10.6
				c-1-4.1-2.2-8.1-3.8-12c-2.6-8.4-4.8-11.5-11.4-15.3c1.9-4.5,1.3-11.1,3.4-15.8c0.9-2.1,3.6-3.8,3.7-5.5c0.3-3.9-4.4-4.7-7-7.7
				c-3.2,1.3-6.1,4.7-9.7,4s-3.1-3.7-5.2-8c-3.1-5.5-9.6-8.1-15.6-6.1c-2.6,0.9-6.6,6.7-9.9,7.8c-5.2,1.6-16.8-4-23.5,0
				c-1.8,1.1-1.2,3.1-3.7,4.7c-4.4-3.3-8.7-5.9-12-10.8s-3.8-13-7.4-17.9c-3.9-5.2-14.5-4.5-16.8-10.2c-1.9-4.7,3-11.3-2.3-14
				c3.2-3.4,5.8-7.3,7.8-11.5c2.6-6.7-3-14.3-2-20.9c0.5-3.5,4-8,5.8-12.4c1.5-3.8,2.9-8.9,4.9-11.2c4.3-5.2,13-4.9,17.8-8.9
				c1.5-7.3,1.9-14.7,7-18.9c1.4-1.1,3.9-2.1,6.3-3.8c1.8-1.5,3.7-2.8,5.8-3.8c3.3-0.9,6.7,1.1,10.4,0.9c4.1-0.3,9-3.4,13.2-5.1
				c4.4-2.2,9.2-3.6,14.1-4.2c4.4-0.2,11.7,1.3,18.3,0.9c5.2-0.3,8.7-2.4,13-0.2c4.3,2.2,4.8,7.2,3.8,12c-1.9,0.7-5.5-0.3-6.5,1.3
				c-1,2.7,2.8,4.6,5.3,5.6c0,3.4,7.8,5.9,13.5,6.8c3.4,3.6,7.8,6.1,12.6,7.2c5.9,10,12.4-4.1,16.5-8.6c2.9-0.3,4.4,2.2,7.2,3.2
				c6.2,2.2,14.2,0.3,20.6,2.6c-1.4,5.5-8.1,5.6-10,10.4c4.1,1.4,5.2-3.4,7.6-5.4c3.6-2.6,8.3-2.6,13.6-3.8c1.5,0.7,2.7,1.9,3.3,3.4
				c1.8-0.5,3.8-0.7,5.7-0.5c5.2-5.8,10.4-13.9,9.4-24.9c-5.2,0.5-13.7,3.6-19.9-0.1c-8.3,3.4-12.7-5.2-18.7-7.5
				c-1-4.6,1.7-12.4-1.9-14.8c-4.2,1-6.3,4-10.2,5.2c2,3.2,5.9,5.8,4.7,9.2c-0.7,2.1-4.7,3.5-7.2,5.3s-5,4.6-7.6,4.5
				c-1.9-5.6-0.3-11.3-1.8-16c-1-1.8-2-3.4-3.2-5.1c-1.4-2.6-1.5-5.2-3.1-7.1c-3.5-3.8-7.4-7.3-11.6-10.4c-4.2-3.5-7.3-9.3-12.5-9.6
				c-2.5,1.3,0.7,4.3-0.3,5.2c4.3,2.8,5.9,6.5,9.1,9.4c1.6,1.4,4,2,5.9,3.5c0.2,0.1-1.1,0.5-0.9,0.8c1.7,2.2,6.7,4,9.2,5.8
				c-0.8,1.5-3.4,1-5.7,1c-0.3,4.3,0.6,7.8,0.2,12.3c-6.1-1.8-4.6-10.4-8.8-13.9c-3.2-2.6-8.6-3.2-11-4.6c-2.6-1.5-4.9-3.6-6.6-6.1
				c-1.7-2.6-2-7.1-6.6-7.3c-3.9,0-6.5,4.4-10.2,4.8c-4.4,0.5-5.7-2.2-10.7-2.6c-2.6,1.9-2.4,6.9-4.8,9.2c-6.8,0-9.8,3.8-13,7.5
				c0.1,1.5,0.3,3,0.7,4.5c-4.3,4.5-11.1,10.4-19.9,7.6c-1.6,1.7-3,3.5-4.1,5.5c-2.8-3.4-4-9.2-11.8-7.1c-1.4-2.9-5.3-5.2-5.2-8.8
				c0-2.5,3.3-4.1,3.8-6.8c1-5.2-3.3-11.5,1.2-15.5c8.8-2.3,20.7,2.7,29,1c2.2-3.5,4.5-8.6,3.2-12.5c-1.8-5.5-10.2-5.5-14.3-8.9
				c1.2-2.6,4.3-1.6,6.6-2.1c5.8-1.5,12.1-4.1,19.3-4c2-1.2,2-4.5,2.9-6.8c2.9-2.3,4.6-0.8,7.4-1.7c7.6-2.4,9-13.2,21.6-7.5
				c-1.7-3-5.2-9.1-1.5-13.6c2-2.5,6-2.8,10-2c1.3,4.2-2.6,7.5,0,11c11.7,3.7,27.3-1.5,38.8,2.6c1.2-6.2,1.4-13.5,6.8-14.4
				c3.8-0.6,7.5,4.2,10.8,0.5c-0.4-2.9-3.9-3.2-5.4-5.2c5.6-3.7,18.3,0,25.7-2c0-3.1-1.9-4.4-3.7-5.9c-9-0.4-17.5-0.2-23.5,2.6
				c-2.4-3.8-7-9.4-4.5-14.1s16.1-6.1,17.5-12.2c-3.4-2.2-9.9-1.3-14.7-1.1c0.7,5.7-2.9,11.1-8.4,12.7c-5.2,1.7-12,0.7-11.6,7.2
				c1.2,1.8,4.6,1.8,6.3,3.2c2.2,6.7-6.3,8.3-8.4,13c-0.6,1.9,1.1,1.6,0.7,3.3c-4.1,4.9-14.2,5.8-21.9,5.5
				c0.4-6.2-1.9-10.7-3.1-16.5c-3.9,0.4-5,3.6-6.8,6.2c-3.6,1-7.4,0.7-10.8-0.9c-3.3-2-3.2-5.2-3.9-10c-0.3-2.5-2-5.2-1.8-7
				c0.5-4,9.3-12.2,14.1-14c6.6-2.5,11.9-2.6,17.6-6.1c2.5-1.4,4.7-3,6.8-5c1.9-2,2.9-4.9,5.2-6.7c3.3-2.6,11.6-5.8,17.3-8.2
				c6.3-2.6,13-5.8,18.9-6c6.2-0.2,11.4,3.5,17.1,4.9c7.8,1.9,14.5,5.7,20.4,8c3.8,7.1,15,3.1,23.6,4.4c6.6,1,9.1,6.1,13,9.2
				c-9.7,5.6-21.4,6.4-31.7,2.1c-0.7,1.5,2.6,2.9,3.7,4.3c1.1,1.4-0.4,5.1,1,6.2c3.6,0.3,5-1.6,7-2.9c3.4,1.1,6.6,5.5,10.7,2.6
				c-0.1-1.9,0.1-3.8,0.7-5.7c4.3-1.1,8-2.8,12.3-3.9c2.2,0.9,1.5,4.2,3.6,5.2c3.5-3.3-1.7-9.3,0.3-13.9c2.3-1.1,9.5-2,10.8,0.9
				c0.6,2.5-3.3,5.9-2.2,8.9c3.7-0.4,3.8-4.7,6.8-5.8c11.8,3.1,17.7-5.6,27.3,0c2-3.6,10.7-0.2,14-2.6c1.9,0.7,4,2.8,5.9,2.6
				c3.2,0,5.2-4.8,8.1-5.7c6.6-2.1,10.7,2.1,14.6,3.2c2.2,0.7,4.3,0.8,6.4,1.5c4,1.5,5.5,3.2,10.7,2.2c0.7-4.6-16-10.4-4.1-14.1
				c5.2-1.6,7.5-9.9,12.6-10c4.3,0,6.2,5.2,10.4,6.7c-2.3,6.3-2.5,13.2-0.5,19.6c-2.6,4.9-8.9,5.9-10.9,11.3
				c3.2,0.2,6.5-0.6,9.2-2.4c4.3-2.8,6.9-10.6,11.8-10.4c3.8,0,6.4,8.1,12.4,3.1c-0.5-2.6-1.7-4.5-2.3-7c-6.8-1.9-11.5,2-15.6,4.1
				c1-8-2.9-16.9,5.2-20.2c1.1,2.6-1.6,7.8,2.1,9.9c1.2,0,2.4-0.3,3.5-0.7c2.1-2.6,1-6.2,3.4-8c4.5-3.3,8.9,1.7,10.6,5
				c3.3,1,6.6,2.3,9.8,3.8c0.2,3,0.1,7.3,3.6,6.7c3-0.6,2.1-5.2,0.8-7.4c-2.6-4.4-13-5.3-13-10c5.3-2.6,10.3,0.4,15.6,0
				c10.2-0.8,15.6-10.2,29.4-8.4c1.4,0.4,2.8,0.8,4.3,1c6.3,0,10.6-5.6,14.7-8.7c3.8,11.2,22.2,7.1,28.1,1c-0.2,1.1,0.8,1.1,1.6,1.3
				c5.6-1,11.3,0.8,15.3,4.9c4.7-2.6,30.6-1.4,31.9,3.6c1.1,4.5-5,5.2-6.1,8.7c7.8,3.3,18.7,1.1,26.7,4.1c3.8,1.5,5.2,4.3,10.7,2.6
				c1.6-0.5,2.8-2.1,4.5-2.6c6.9-2.5,14.8-0.7,23.5,0c2.9,5.4-0.6,14.4,7.5,14.7c3.5,0,5-3.5,8-4.9c1.8-0.6,2.2,2.6,4.2,3.1
				c0.3,0,8.3-0.1,10.4-0.3c2.1-0.2,4.3-1.7,6.2-1.7c1.9-0.1,3.3,0.9,4.3,0.6c4.6-1.1,6.3-7.2,5.8-11.6c-2.3-3.5-11.5-1.1-13.6-4.7
				c-0.4-2.2,0.8-4.3,2.8-5.2c2.4-0.3,1.3,2.3,3.4,2.2c10.1,0,23.7-1.9,28.3,6.3c-4.1,1.6-8.4,2.4-12.7,2.6c0.3,3.7,8,4.3,10.4,7.5
				c3.8,1.1,9.2-0.8,13.4-0.2s7.8,6.5,12.6,8.4c8.4,3.5,21.5-0.6,29.4,1.4c4.3,1.1,7.8,7,11.7,7.8c3.2,0.8,8.4-0.9,13.5-1
				c6.3,0,14.1-0.2,18.1,2.1c2.2,1.3,1.7,4.6,5.8,5.2c2.9-1.9,3.3-6.2,6.4-7.8c3.7-0.7,6.3,2.9,9.8,3.8c6,1.4,12.3-0.6,18.6,1.3
				c2.5,1.3,4.5,3.4,5.8,6c-2.6,4.5-1.4,9.6-0.3,14.3c-1.5,2.3-4.6,2.9-7.5,3.7c-0.2,4.1,4.1,5.6,6.1,8.9c-1.7,3.1-5.2,0.2-9.5,0.3
				c-4.8,0.4-9.5,1.4-14,3c-5.8,1.9-10.9,5.8-18.9,6c-8,0.2-17.7-3.2-22.9-0.3c-2.6,1.4-3.4,5.4-5.6,7.5c2.1,5.6-1.7,11.3-3.8,15.3
				c-5.8,0.5-7.8,4.9-11.3,8.4c-5.5,5.7-14.1,9.8-18.1,16.3c-0.9-5.2,3.9-8.2,4.5-12.4c0.9-6.9-4.9-9.7-3.5-16.9
				c1.4-4.3,4.1-8.1,7.8-10.7c3.7-2.6,9.9-3.6,15-6.6c5-3,9.8-6.3,14.3-9.9L893.9,328.6z M342.9,305.8c0,3.9,6.3,6.1,10.2,4.2
				C353.7,304.9,345.5,301.3,342.9,305.8L342.9,305.8z M434,374.4c-2.3-1.3-4.7-2.2-7.3-2.8c-4.3,1.4-5.7,5.4-10.2,5.6
				c-3.1,0-4.4-2.1-7.3-1.6c-2.4,0.4-4.5,3.8-5.2,6.3c-1.1,5,1.2,6.5,3.8,10c1.3,2.2,2.8,4.4,4.5,6.4c2.9,2.4,7.6,2,8.4,5.2
				c-1.7,3.6-5.4,5.8-9.4,5.7c-1.1,2.5-1.4,5.2-0.8,7.8c5.7,3.6,15.5,8.8,24,5.2c0.5-5.9-0.9-11.8-3.9-16.9c0.3-2.4,3-2.3,3.3-4.8
				c-5.1-2.2-7-7-9.9-11.1c-1.3-0.2-3.4,0.3-3.4-1c0.6-4.5,2.9-7.3,6.4-7c1.6,0,2.3,1.7,4.2,2.3c2.5,0.7,5.2,0.4,7.4-0.9
				C437.9,379.4,435.1,377.6,434,374.4L434,374.4z M334,381.8c-3,3.3-6.7,3.9-6.9,8.7c0.2,1.4,2,1.4,1.5,3.3
				c-0.5,1.9-2.3,4.6-1.6,6.5c4-3,9.8-2,16.1-2.1c2.6-5,13.6-5,19.2-1.9c0,0.5-0.8,0.3-0.9,0.8c4.3,4.1,16.1,4.3,22.4,2.3
				c2.1-7.2-4.5-9.8-8.9-13.5c-3.8-3.2-8-5-10.4-7.5c0.8-2.4,4.9-1.4,5-4.7c-2.8-0.9-5.9-0.4-8.3,1.2c-0.5,4.1-4.8,7.5-9.9,8.1
				c-2.6-3.3-3.5-8.1-6.8-11C337.3,371.8,337.6,377.8,334,381.8L334,381.8z M336.8,599.4c4.4-2.5,7-7.3,6.7-12.3
				C334.6,581.8,330.5,596,336.8,599.4L336.8,599.4z"/>
			<path class="st3" d="M505,240.5c-2.2,3.2-6,8.5-11.7,8.9c-1.6-0.2-3.2-0.6-4.7-1.1c-15.6-2.2-30.9,0.5-37.3,10.4
				c1.3,2.2,3.8,3.3,4.5,5.9c-5.4,9.7-17.3-1.4-24.5-3.2c1.3-7.8,14.2-9,20.6-13.3c2.6-1.7,4.4-4.6,6.8-5.4
				c2.3-0.7,7.3-0.5,11.8-1.1c3.6-0.7,7.2-1.2,10.9-1.5c5,0.2,8.6,2.1,13,1C497.7,240.4,500.4,236.3,505,240.5z"/>
			<path class="st3" d="M154.7,276.2c-0.6,2.5-2.3,4.7-4.6,5.9c-1.4,0.5-3.3-0.2-4.8,0.2c-4.7,1.1-9.1,6.1-15,4.6
				c-2-1-2.1-3.7-4.1-4.7l-7.3-0.4c-1.5-2.6-4.4-4.6-3.9-8c0.8-6.1,10-2.6,13.4,0.3C138.1,274.2,148.2,270,154.7,276.2z"/>
			<path class="st3" d="M213.4,314.2c-0.7,3.8-4.4,4.6-6,7.5c2.2,9.4,14.7,12,14.9,22.4c-2.6,2.6-3.6,4.6-6.8,5c-4,0.5-8.2-3-12-2.6
				c-2.9,0.3-3.2,3.2-6.2,2.6c-0.2-1.6,0.5-2.3,0.6-3.7c-2.9,0.6-5.9,0.3-8.6-0.8c2.6-5.9,8.2-8.6,12.8-12.5
				c-7.3-4.5-18-8.1-16-19.2c1.9-0.9,3.5,0.2,5.6,0.3c3.7-4.7,8.3-4.2,15.3-2.1C207.7,312.3,212.7,311.8,213.4,314.2z"/>
			<path class="st3" d="M174.3,335.6c-0.5-2-1.7-4.7-0.5-7c5.7,0,10.6-8.9,15.6-2.1c1.6,2.4,2.3,5.4,1.8,8.3
				c-1.6,5.8-19.9,13.6-19.3,4.4C172,337.1,173.2,337.8,174.3,335.6z"/>
			<path class="st3" d="M805.4,406.4c4.7-0.7,10.1,1.1,11,5.1c-0.7,2.2-2.6,1.9-6.2,2.1c-8.2,0.6-19.5,5.4-22.1-0.3
				c0.9-3,4.5-3.3,7.1-4.5C795,401.7,804.6,400.4,805.4,406.4z"/>
			<path class="st3" d="M793.5,416.5c-0.4,3.7,4.4,7.8,4.5,13.3c-0.8,1.9-3.7,1.6-4.5,3.5c0.2,3.4,0,6.8-0.5,10.2
				c-5.1,2.8-10.4,5.1-15.9,7c-1.1,3.5-7.1,6.1-9.6,2c-2,4.6-6.5,6-11.8,3.1c-2.1,0.7-1,4.3-1.6,5.6c-6.2,5.2-10.1-3.4-9.9-9.5
				c4.8-2.4,9.8-4.7,13-8.8c4.8,0.3,7.8,2.5,11.6,1.8c4.4-0.8,7.8-6.2,12.9-5.9c4.9-2,5.7-13.3,7.4-19.3
				C789.7,417.6,791.5,416.3,793.5,416.5z"/>
			<path class="st3" d="M252.3,397c-0.7,12.7-14.8-0.8-3.3-3.4C250.4,394.5,250.8,396.2,252.3,397z"/>
			<path class="st3" d="M225.8,397.4c0,2.2-1.9,2.6-4.4,2.2C221.2,397.2,224.8,394.8,225.8,397.4z"/>
			<path class="st3" d="M276.3,411.7c-2.4,8.8-11.8-0.9-13.7-4.4C268.2,406.4,274.8,407.8,276.3,411.7z"/>
			<path class="st3" d="M711.5,490.6c0,5.4-1,12-7.6,12.7C702.2,497.7,705.3,490.6,711.5,490.6z"/>
			<path class="st3" d="M-63.4,484.6c-0.5,2.2-2.7,3.5-4.9,3.1c-1.5-1.8-1.6-4.3-0.2-6.2C-65.4,480.4-65.2,483.5-63.4,484.6z"/>
			<path class="st3" d="M714.5,527.9c-2.9,2.8-8.4,5.1-6.6,10.4c3.9-0.7,7.8,1.2,12,2.2c-0.7,4.6-5.2,2.6-8.4,4.1
				c-4.5,2.2-7.4,10.7-13,10.4c1.5-4.6,5.8-6.5,8.7-9.8c-1.8-5.2-9.1-7.4-8-13c0.9-4.9,10.3-4.7,8.8-12.3
				C712.3,520.7,715.1,522.8,714.5,527.9z"/>
			<path class="st3" d="M719.2,555.5c-2-5.1,4.7-9.3,7.2-5C728.5,554.3,723.5,558.2,719.2,555.5z"/>
			<path class="st3" d="M718.4,562c-3.5-0.1-7-0.5-10.4-1.3c-1.1-3.7,1.6-9,6.4-6.7C716.1,556.5,717.5,559.2,718.4,562z"/>
			<path class="st3" d="M635.7,597.2c-0.8,0.7-2,0.8-2.6,1.5c-4-3-7.8-4.8-10.4-8.7c-5.6-8.2-3.7-21.5-12.1-26.3
				c-0.7-3-0.8-6.2,1.2-8.1c4.9,1.3,6.1,5.7,9.1,8.6c-0.1,0.4-0.9,0.2-0.9,0.8c1.3,2.5,3.3,4.6,5.8,6
				C630,579,631.7,588.3,635.7,597.2z"/>
			<path class="st3" d="M537.8,553.6c3.2,1.6,3.2,6.7,3.4,9.6c0.2,3.3-1.1,13.2-5.8,12.4c-4.7-0.8-1.9-20.2,1.5-22L537.8,553.6z"/>
			<path class="st3" d="M722.7,563.1c2.9,1.3,3.8,4.3,5.8,6.4c-1.8,4.9-3.1,10.2-10.4,9.3c-0.9-1.5-1.7-3-2.4-4.6
				c-2.5-1.4-6.7-1.3-9.8-2.1c0.6-5.5,7.7-7.5,11.9-4.4C720.3,567.1,720.9,564.4,722.7,563.1z"/>
			<path class="st3" d="M689.3,573.3c-0.7,3.3,2.3,6.9,0.9,8.2c1.2,1,3.3,0.3,4.7,0.2c-0.5,3.5-4.6,2.6-5.5,5.5
				c-1.2,3.9,3.1,8.8,3.3,12.8c-1.3,5.9-7,5.8-8.7,10.2c-1.2,3.1,0.8,8.7-1.9,11.8c-4.7,1.3-8.5-0.8-12.5-1.4
				c-1.7,0-3.5-0.1-5.2-0.3c-9.5-2.9-12.3-16.4-10.4-26.3c2.6,0.5,3.7,2.3,5.9,3.2c1.9-1.2,1.6-4.2,3.3-5.6c1.7-1.4,4.8-1.1,6.6-2.1
				c2.3-1.3,2.6-4.8,5.1-6.3c3.3-2,5.4,0.2,8.8-1.6c-0.2-1.7-1.1-2.6-1.1-4.6C684.2,575.1,685.4,572.7,689.3,573.3z"/>
			<path class="st3" d="M603.8,576.5c0,0.4-0.9,0.2-0.9,0.8c2.4,1.3,4.6,3,6.2,5.2c1.8-0.4,1.6,0.9,3,1c1.7,2.2,3.7,4.2,5.8,6
				c0.4,0.9-0.3,1.5,0.8,2.5c3.4,4.8,8.9,6.6,12.4,10.8c2.6,3.2,3.8,8.6,10.8,9.1c2,3.9-2.8,6.1-3.5,9.6c-0.7,3.5,1.3,7.8-2.2,10.1
				c-2.9,0-2.6-2.9-4.1-4.3c-3.6-3.2-9.9-3.5-14-6.4c-3.6-6.7-2-14.2-3.8-21c-2.6-10.1-15-14.3-17.4-24.2
				C599.2,574.4,601.5,575.7,603.8,576.5z"/>
			<path class="st3" d="M735.3,597.2c3.1,4.4,0.5,13.4-5.4,13.6C728.3,605.6,730.5,599.9,735.3,597.2z"/>
			<path class="st3" d="M720.4,600.5c1.4,6.2-27.6,8.8-20.4,0.2C707.7,603.1,712.2,599.9,720.4,600.5z"/>
			<path class="st3" d="M749.5,608.1c1.8,1.1,0.3,3.3,2.4,4.6c3.6,0.2,7.1,1.2,10.2,2.9c6.2-1.4,12.6-1,18.6,0.9
				c2.4,1.4,4.6,3,6.7,4.8c2.8,1.8,8.6,3,7.2,4c5.6,3.4,8.4,9.2,14.1,12.5c-0.3,10.4,12.8,12.7,11.4,23.5c-9.8,0-14.9-7.6-17.4-15.2
				c-9.3-4.3-10.6,10.4-16.1,10.2c-4.4,0-5.2-5.7-6.9-8.9c-3.5-0.5-5.8,0.2-9.1,0c0-3.3,2.4-4.1,5.4-4.3
				c-1.7-8.2-8.1-12.4-17.6-13.9c-0.9-0.7-0.5-2.4-1.6-2.9c-3.4-0.5-6.4,1.3-9.1,0c-0.2-4.8,3.4-5.7,4.4-9.2
				c-2-2.4-7.5-1.9-10.2-3.8C743.2,610.4,746.2,608.3,749.5,608.1z"/>
			<path class="st3" d="M712.1,611.2c0.2,0.7,0.2,1.7,0.8,2.1c-1.2,2.1-5.2,2.2-8.3,1.3c-0.6,2.6,3.8,4,5.2,5.9
				c-1.4,2.4,2.6,6.2,2.1,10.4c-7.4,1.4-8.9-5.4-9.4-11.1c-4.5,0-4.6,4.6-9.7,4c-1.3-4.5,2.6-10.2,3.8-14.9
				C700.6,612,707.2,608.8,712.1,611.2z"/>
			<path class="st3" d="M641.9,629.4c0.8,1,0.8,3.3,2.4,4.6c3.4,0.2,6.7,1.1,9.8,2.6c1.4-0.3,2.7-0.8,4-1.5c5.8,2.6,17.1,0.8,16.5,9
				c-6.7,0.2-18.3,0.4-20.5-5.9c-4.7,2.4-16.1,2-16.7-3.7c-0.5-2.3,1-4.5,3.2-5C641,629.4,641.5,629.4,641.9,629.4z"/>
			<path class="st3" d="M724.6,646.5c-1.2,4.5-9.4,6.8-13.8,7.8C710.7,648.4,719.9,638.5,724.6,646.5z"/>
			<path class="st3" d="M698,651.4c-1,1.1-1.5,1.9-2.6,1.9C687.5,653.4,696.7,642,698,651.4z"/>
			<path class="st3" d="M787.8,658.6c2.6,2.2,1.1,6.6,3,9.9c1.9,3.3,4.9,6.7,6.4,9.7c1,2,3.3,3.5,4.1,5.2c2.6,5.2,0.2,13.8,5.2,17.8
				c3.8,3.1,9.3,2.3,13,5.2c1.8,3.8,0.9,7.7,1.6,11.5c0.8,3.9,5,6.6,5.9,11.3c0,0.4-0.6,0.7-0.5,1.2c0.6,2.3,2.4,3.7,3.6,5.9
				c1.8,3.4,2,9.3,4.1,12.9s-2.1,10.4-4.1,12.5c-3.5,3.8-9.1,6.5-12.2,10.4c-1.5,5.1-3.8,10-6.7,14.4c-5,1.1-9.8,3.1-14.1,5.9
				c-3.1-0.8-3.7-3.7-7.6-3.6c-2.2,0.7-2,3.9-4.9,3.8c-2.7-3.8-6.7-6.5-11.3-7.5c-0.2-5.2,0.2-11.1-5-12.1c0.2-2.1-1.6-2.6-1-5
				c-1.9,0-1.1,2.9-3.6,2.3c-0.3-2.7-0.3-5.5,0-8.2c-6.7,0.2-6.2,10.1-14.2,7.5c0.5-2.8,2.3-4.5,2.1-6.8
				c-0.7-5.9-12.3-4.4-13.4-10.4c-11-0.4-15.4,4.9-26.1,2.8c-2.2,3.5-5.2,8.4-5,13.2c-5.5,0.6-9.4-3.8-14.1-3.5
				c-5.6,0.3-10.3,8.2-18.9,5.2c-2.7-3.3-5.8-4.3-5.2-8c0.5-3.8,6.5-4.4,6.9-7.8c0.3-2.8-3.5-4-4.8-8c-0.6-1.8,0.2-3.9-0.2-5.2
				c-1.3-4.9-8.1-8-4.5-14.1c-0.4,0.7,1.4-2.2,1.4-1.6c0-3.2-6.9-5.4-7.4-7.8c-0.6-2.9,3.2-7.6,4.8-9.2c3.9-3.8,10.2-6.3,14.8-9.9
				c9.1,1.7,12.1-2.8,20-2.3c0.3-5.4-1.6-12.4,0.8-17.1c4.5-1.1,7.7,1.9,12.5,1.9c3-5,4.8-11.8,10.4-11c4,0.6,3.3,6.7,7,6.5
				c4.3-0.3,3.6-8.8,7.8-10.3l0.2-4.1c2-1.2,3.2,4.8,6.3,5.2c1.2-3.8,0-6.1,3.3-6.4c1.3-0.1,1.1,3.6,3.7,4.3c4,0,9.7-1.6,12.5,1
				c1.8,5.5-3.9,6.9-3.6,11.3c0.3,4.4,9.1,5.5,13,9.2c2,2,2.2,4.6,4.9,5.2c4.3-3.7,6.7-9.1,6.8-14.8c0-1.6-1.3-3-1.5-4.6
				C783.7,667.7,785,662.8,787.8,658.6z"/>
			<path class="st3" d="M401.9,648.8c7.4-2,6.6,10.4,5.7,15.8c-0.6,3.9-2.9,6.4-3.9,9.2c-0.6,3-1.3,6-2.2,8.9
				c-2.2,5.2-4.2,9.9-6.4,16c-1.5,4.2-2.8,9.5-7.5,10.7c-2.8,0.6-5.8,0-8.1-1.6c-1.3-1.5-0.4-4.2-0.5-7c-0.1-4.4-2.2-8-1.6-11.5
				c0.4-2.1,2.6-4.4,2.9-6c1.3-5.8-2.1-9.4-1.5-13c0.8-5.5,5.2-4.6,9-6.1c7-2.8,9.4-11.3,13.3-14.9
				C401.4,648.8,401.4,648.9,401.9,648.8z"/>
			<path class="st3" d="M942.9,692c0.6,5.2-4.7,7.8-9.9,8.5C934.8,696.3,938.5,693.1,942.9,692z"/>
			<path class="st3" d="M877.1,710.4c5.2,0.7,13.9,3.4,9.1,9C879.9,719.1,879.4,714,877.1,710.4z"/>
			<path class="st3" d="M915.7,778.5c3.4,4.7,1.4,11.6,8,13.5c2.9,0,6.5-1.1,6.9,2s-3.2,2.9-5.5,5.9c-2.8,3.7-2.6,10.4-8.6,7.8
				c-0.3-3,1.6-3.7,2-6c-1.7-1.8-6.8-0.7-8.1-2.9c0.3-2.8,3.5-2.6,4.6-4.7c1.6-7-4-9.8-2.6-15.3
				C912.9,778.1,914.5,778.5,915.7,778.5z"/>
			<path class="st3" d="M892.3,831.7c-4.6-1.1-10.2-0.6-11.5-3.8c-3.2-8.2,19.9-12.1,21.3-20.2c1.8-1.3,3.7-2.3,5.8-3
				c0-0.7,0.4-0.7,0.5-1.2c14.3,5.8-5.4,17.7-10.2,22C896.1,827.5,894.6,830.9,892.3,831.7z"/>
			<path class="st3" d="M806.9,799.3c0,6.1-3.8,8.4-5.8,12.4c-2.2,0.6-5.4,1.5-7.4,0c2.2-5-4.9-6.1-2.9-10.8c2.5-0.7,4.5,1.4,6.8,2
				C801.1,802.2,802.6,799.3,806.9,799.3z"/>
		</g>
	</g>
</g>
<g class="st4">
	<path class="st5" d="M818.6,160.7L785,41c-8.4-29.8-39.4-47.2-69.2-39L339.4,107.3L818.6,160.7z"/>
	<path class="st5" d="M203.2,148.7c0.1-1.1,0.4-2.3,0.6-3.4l-138,38.6c-29.8,8.4-47.2,39.4-39,69.2l117.9,421.3L203.2,148.7z"/>
	<path class="st5" d="M188.4,830.7l20.2,72.5c8.4,29.8,39.4,47.2,69.2,39l259.5-72.6L188.4,830.7z"/>
</g>
<title>email campaign</title>
<g class="st6">
	<path class="st7" d="M650.3,312.9h5.3c1.3,0,2.3,1,2.3,2.3v77.1c0,1.3-1,2.3-2.3,2.3h-5.3c-1.3,0-2.3-1-2.3-2.3v-77.1
		C648,314,649,312.9,650.3,312.9z"/>
	<path class="st7" d="M320.7,248.9h1c1.3,0,2.3,1,2.3,2.3v22.3c0,1.3-1,2.3-2.3,2.3h-1c-1.3,0-2.3-1-2.3-2.3v-22.3
		C318.4,249.9,319.5,248.9,320.7,248.9z"/>
	<path class="st7" d="M320.5,298.2h1.7c1.3,0,2.3,1,2.3,2.3v42.3c0,1.3-1,2.3-2.3,2.3h-1.7c-1.3,0-2.3-1-2.3-2.3v-42.3
		C318.2,299.2,319.3,298.2,320.5,298.2z"/>
	<path class="st7" d="M320.6,361.4h1.4c1.3,0,2.3,1,2.3,2.3v42.7c0,1.3-1,2.3-2.3,2.3h-1.4c-1.3,0-2.3-1-2.3-2.3v-42.7
		C318.3,362.4,319.4,361.4,320.6,361.4z"/>
	<path class="st7" d="M360.6,160h253.8c21.5,0,39,17.5,39,39v596.3c0,21.5-17.5,39-39,39H360.6c-21.5,0-39-17.5-39-39V199
		C321.6,177.4,339,160,360.6,160z"/>
	<path class="st8" d="M459.3,180.1h38.6c2.1,0,3.9,1.7,3.9,3.9v1.7c0,2.1-1.7,3.9-3.9,3.9h-38.6c-2.1,0-3.9-1.7-3.9-3.9V184
		C455.5,181.9,457.2,180.1,459.3,180.1z"/>
	<circle class="st8" cx="514.1" cy="184.8" r="5.3"/>
</g>
<path class="st9" d="M606.5,177.6h-38v4.6c0,12-9.7,21.7-21.7,21.7c0,0,0,0,0,0H425.7c-12,0-21.7-9.7-21.7-21.7v-4.6h-35.6
	c-14.6,0-26.4,11.8-26.4,26.4l0,0v586.4c0,14.6,11.8,26.3,26.4,26.3h238.1c14.6,0,26.3-11.8,26.3-26.3V203.9
	C632.9,189.3,621.1,177.6,606.5,177.6z"/>
<rect x="342.3" y="222.5" class="st8" width="291" height="26.9"/>
<rect x="351.3" y="228.1" class="st7" width="24.6" height="2.2"/>
<rect x="351.3" y="234.8" class="st7" width="24.6" height="2.2"/>
<rect x="351.3" y="241.5" class="st7" width="24.6" height="2.2"/>
<path class="st7" d="M613.7,238.5h-0.9l-0.3-0.3c1.1-1.4,1.8-3.1,1.8-4.9c0-4.1-3.4-7.4-7.5-7.4c-4.1,0-7.4,3.4-7.4,7.5
	c0,4.1,3.4,7.4,7.5,7.4c1.8,0,3.5-0.6,4.9-1.8l0.3,0.3v0.9l5.7,5.8l1.7-1.7L613.7,238.5z M606.9,238.5c-2.9,0-5.2-2.3-5.2-5.2
	c0-2.9,2.3-5.2,5.2-5.2c2.9,0,5.2,2.3,5.2,5.2c0,0,0,0,0,0C612,236.2,609.7,238.5,606.9,238.5C606.9,238.5,606.9,238.5,606.9,238.5z
	"/>
<circle class="st8" cx="363.6" cy="298.6" r="12.3"/>
<rect x="402.2" y="310.9" class="st8" width="171.3" height="6.7"/>
<rect x="402.8" y="325.5" class="st8" width="171.3" height="6.7"/>
<rect x="403.3" y="340" class="st8" width="171.3" height="6.7"/>
<circle class="st8" cx="363.6" cy="382.6" r="12.3"/>
<rect x="402.2" y="394.9" class="st8" width="171.3" height="6.7"/>
<rect x="402.8" y="409.4" class="st8" width="171.3" height="6.7"/>
<rect x="403.3" y="424" class="st8" width="171.3" height="6.7"/>
<circle class="st8" cx="363.6" cy="466.5" r="12.3"/>
<rect x="402.2" y="478.8" class="st8" width="171.3" height="6.7"/>
<rect x="402.8" y="493.4" class="st8" width="171.3" height="6.7"/>
<rect x="403.3" y="507.9" class="st8" width="171.3" height="6.7"/>
<circle class="st8" cx="363.6" cy="550.5" r="12.3"/>
<rect x="402.2" y="562.8" class="st8" width="171.3" height="6.7"/>
<rect x="402.8" y="577.3" class="st8" width="171.3" height="6.7"/>
<rect x="403.3" y="591.9" class="st8" width="171.3" height="6.7"/>
<circle class="st8" cx="363.6" cy="634.4" r="12.3"/>
<rect x="402.2" y="646.7" class="st8" width="171.3" height="6.7"/>
<rect x="402.8" y="661.3" class="st8" width="171.3" height="6.7"/>
<rect x="403.3" y="675.8" class="st8" width="171.3" height="6.7"/>
<circle class="st8" cx="363.6" cy="718.4" r="12.3"/>
<rect x="402.2" y="730.7" class="st8" width="171.3" height="6.7"/>
<rect x="402.8" y="745.2" class="st8" width="171.3" height="6.7"/>
<rect x="403.3" y="759.8" class="st8" width="171.3" height="6.7"/>
<circle class="st10" cx="574" cy="766.5" r="31.3"/>
<circle class="st5" cx="574" cy="766.5" r="28"/>
<linearGradient id="SVGID_3_" gradientUnits="userSpaceOnUse" x1="497.3735" y1="39.411" x2="497.3735" y2="536.5516" gradientTransform="matrix(-1 0 0 -1 1130.6306 921.483)">
	<stop  offset="0" style="stop-color:#808080;stop-opacity:0.25"/>
	<stop  offset="0.54" style="stop-color:#808080;stop-opacity:0.12"/>
	<stop  offset="1" style="stop-color:#808080;stop-opacity:0.1"/>
</linearGradient>
<path class="st11" d="M535.4,445.1c1.1,1.4,2.3,2.7,3.8,3.8c0.9,0.8,1.9,1.6,2.9,2.3c0.3,0.2,0.6,0.4,0.9,0.6c0,0-0.1,0.1-0.1,0.2
	c-0.2,0.4-0.3,0.9-0.3,1.4c0.2,0.6,0.6,1.1,1.1,1.4c2.3,2.2,3.9,5,4.5,8.1c0.3,1.8-0.9,3.8-0.8,5.6c0.2,1.8,0.7,3.6,1.4,5.2
	c1.5,3.9,3.2,7.9,6.2,10.7c0.7,6.2,3.1,12.2,7,17.1c3.2,4.1,7.5,7.2,11.7,10.3c1.3,1.1,2.8,2,4.3,2.7c1.4,0.5,2.8,0.9,4.3,1.1
	c12.4,2.5,25,3.9,37.7,4.3c0.4,7.5,0.5,15.1,0.5,22.6c0.1,1.2-0.1,2.5-0.5,3.7c-0.6,1.1-1.3,2.1-2.2,3.1c-2.9,3.8-3,9.1-2.8,13.9
	c0.3,5.6,1,11.2,2,16.8c1.3,7.1,0.1,14.9,2.6,21.7c1,2.7,2,5.3,3,8c0.3,0.7,0.5,1.6,0.6,2.4c0,1.8-1.2,3.2-2,4.8
	c-1.2,2.2-1.8,4.7-1.8,7.3c0,0.3,0.1,0.6,0.2,0.8c0.3,0.4,1,0.4,1.5,0.3c2.2-0.3,4.4-0.5,6.7-0.6c-0.4,0.5-0.8,1-1.1,1.6
	c-0.5,0.9-1,1.9-1.4,2.9c-0.8,1.7-1.4,3.4-1.9,5.2c-0.1,0.3-0.1,0.5-0.2,0.8c-0.1,0.5-0.2,1.1-0.3,1.6c-0.5,3.2-0.7,6.4-0.6,9.6
	c-0.3,6-0.6,12.2-1.2,14.1c-0.8,2.6,0.2,6.7,1.2,10.7c0,2.7,0.5,5.4,1.5,8c0.1,2.8,0.4,5.7,1,8.4c3.5,19.5,7.1,38.9,11,58.3
	c0.3,1.7,0.7,3.4,1.1,5c1.5,5.4,4,10.4,7.5,14.8c3.1,3.9,5.7,8.1,7.8,12.5c-0.2,1.1-0.5,2.1-0.7,3.2c-2.2,9.3-5.1,18.5-6.1,27.9
	c-0.4,3.8-0.5,7.7-2,11.2c-0.8,1.8-1.9,3.5-2,5.4c-0.1,1.2,0.2,2.5,0.8,3.5c-0.3,0.2-0.5,0.4-0.8,0.6l-0.4,0.3
	c-2.8,2.3-6.7,2.7-10.2,3.6s-7.3,2.8-8.3,6.2c-0.1,0.2-0.1,0.4-0.2,0.7c-0.6,3.2,1.3,6.6,4,8.5c2.9,2,6.5,2.6,10,3.1
	s7.1,0.8,10.3,2.4c2.7,1.4,5,3.6,8,4.6l0.5,0.2c-0.7,0.4-1.3,0.8-2,1.1c-3,1.5-6.2,2.5-9.6,3c-3.4,0.5-7.4,0.7-9.2,3.6l0,0
	c-1.4,2.4-0.4,5.7,1.7,7.7s4.9,2.8,7.6,3.4c6.3,1.2,12.6,2,19,2.4l6.2,0.5c6,0.5,12.1,0.9,18.2,1c7.5,0,15-0.6,22.4-2
	c0.7,0,1.3-0.3,1.8-0.9c0.2-0.4,0.3-0.9,0.3-1.4c-0.2-7.6-1.1-15.2-2.8-22.6c-0.5-2.2-3.5,0.8-5.2,2.7c-0.2-1.1-0.5-2.2-0.8-3.3
	l1.3-0.6c1-0.4,1.9-1.1,2.4-2c0.3-0.8,0.4-1.6,0.3-2.3c-0.2-4.9-0.5-9.9-2.9-14.2c-1.5-2.6-3.4-4.9-5.7-6.9
	c-0.7-15.3-2.2-30.7-5.5-45.6c-1.7-7.7-3.8-15.4-8.3-21.8c-0.5-0.8-1.2-1.6-1.8-2.4c-0.5-7.4-1.4-14.7-2.7-21.9c-0.3-1-0.3-2,0-2.9
	c0.4-0.8,1-1.6,1.6-2.2c2.7-3.4,1.6-8.3,1.3-12.7c-0.4-6.2,1-12.4,2.5-18.5c1.8-7.5,3.6-15,5.4-22.5c0.4-2.1,1.1-4.2,1.9-6.2
	c1.3-2.8,3.2-5.3,4.9-7.9c5-8,7.4-17.3,6.8-26.7c1,0.4,2,0.7,3.1,1.1c0.8-6.3-1.9-13.4,0-19.3c3.3-2.4,5.9-5.5,7.7-9.1
	c1.5-3.3,1.9-7.1,3.5-10.3c0.9-1.8,2.1-3.6,2.6-5.5c0.8-3-0.2-6.1-0.2-9.2c0.1-6.7,5-12.9,3.9-19.5c-0.5-3.1-2.3-6-2.2-9.2
	c0.1-1.7,0.6-3.4,1.3-5c3.7-9.8,7.3-20.1,5.4-30.4c-0.5-2.6-1.3-5.2-1.2-7.9c0.2-3,1.6-6,1.2-9c-0.2-1.2-0.6-2.2-1.4-3.2
	c1.3-2,2.4-4.2,3.3-6.4c0.6-1.3,0.9-2.7,0.9-4.1c-0.3-2-1.3-3.7-2.9-4.9c-1.6-1.1-3.2-2.1-5-2.9c-0.6-0.2-1.1-0.6-1.5-1
	c-0.3-0.5-0.6-1-0.8-1.6c-1-1.7-3.1-2.3-4.8-3.3c-6.1-3.7-5.5-13.3-10.7-18.2c-3.6-3.2-9-3.5-13-0.7c-0.5,0.5-1.1,0.8-1.8,0.9
	c-0.7-0.2-1.3-0.5-1.8-1c-1.3-0.9-2.8-1.3-4.4-1.2c-1-3.8-1.4-7.7-1.3-11.7h0.5c0.6,0,1.2,0,1.8-0.2c2.7-0.8,4.2-3.5,5.3-6.1
	c1-2.2,1.7-4.4,2.3-6.7c0.1-0.2,0.1-0.4,0.2-0.6c5.1,3.6,11.1,7.4,12.5,6.6c2.6-1.5-11.8-11.7-11.8-11.7l0,0l0,0
	c1.7-1.5,2.6-4.2,3-6.6c0.8-4.8,1.2-9.7,0.1-14.5s-4-9.2-8.3-11.4c-1.9-1-4.2-1.7-5.6-3.2l0,0c-0.2-0.2-0.4-0.5-0.5-0.7l0,0
	c-0.1-0.1-0.2-0.3-0.2-0.4c-0.2-0.4-0.4-0.8-0.6-1.2c-0.8-0.9-2.2-0.6-3.4-0.5h-0.4h-0.3h-0.3c-4.3,0.1-8.4-2.3-12.7-2.3
	c-4.7,0-8.8,2.7-12.9,4.6c-0.8,0.4-1.6,0.7-2.4,1.1c-2.6,1.2-4.7,2.5-6,5.5c-0.8,1-1.4,2.1-1.7,3.4c-0.1,0.6-0.2,1.1-0.2,1.7
	c-11.2,11.1-11.3,29.2-0.2,40.5c3.6,3.6,8.1,6.2,13.1,7.5c0.1,0.3,0.2,0.6,0.3,0.8c0.9,2.6,1.3,5.3,1.3,8c0,0.2,0,0.4,0,0.6
	c-2.2,0.5-4.3,1.4-6.2,2.5c-2.4,1.4-4.3,3.7-5.2,6.4c-0.1,0.2-0.1,0.4-0.2,0.6c-1.5-0.5-3.1-0.8-4.7-0.8c-1.5,0-3.1,0.1-4,1.2
	c-0.4,0.4-0.6,1-0.8,1.5c-0.5,0.5-0.7,1.4-1,2.1c-1.2,2.1-4.3,1.4-6.7,2c-2.5,0.6-4.6,3-7.2,3c-1-0.2-2-0.2-3-0.1
	c-1,0.2-1.8,1.6-1,2.3c-1.2-0.1-2.4,0.4-3,1.5c-0.7,0.9-1.2,2.1-2,2.9c-0.7-1-1.9-1.5-3.1-1.2c-1.2,0.3-2.3,0.7-3.3,1.3
	c-0.5,0.2-0.9,0.4-1.5,0.5c-0.6,0-1.2,0-1.8-0.2c-2.8-0.5-5.7-0.1-8.3,1.2c-2.3,1.1-4.5-0.9-7-1.1c-0.9,0-1.8-0.2-2.6-0.8
	c-0.5-0.6-0.8-1.3-1-2c-1.1-3.3-3.9-5.7-7.3-6.5c1.4-4.3-0.8-8.9-5-10.5c0.3-3-0.8-6-3.1-7.9c-0.6-0.4-1.1-0.8-1.6-1.2
	c-0.7-0.8-1.2-1.7-1.5-2.7l-2.2-5.9c-1-0.2-1.8-0.6-2.7-0.8c0-0.2,0-0.4,0-0.6c0-2-0.4-4-1-5.9c-1.1-3.1-2.7-6-4.7-8.6
	c-2.1-3-4.5-5.9-7.6-7.7c-1-0.6-2.1-1.1-3.3-1.5l-5.7-2.4c-0.3-0.2-0.7-0.3-1-0.3c-1.5,0-1.8,2.4-1,3.6c1.7,2.6,5.7,3.3,6.8,6.2
	c-1.9,0.1-3.6,1.3-4.1,3.2c0,0.5-0.2,0.9-0.5,1.3c-0.5,0.4-1.3,0.2-1.9,0.5c-1,0.5-0.6,2.1-0.7,3.2c-0.2,1-0.6,2-1,2.9
	C534,441.7,534.3,443.6,535.4,445.1z M672.5,846.1c0-0.6-0.1-1.2-0.1-1.8c0.1,0.3,0.2,0.6,0.3,0.9c1,2.6,2.1,5.2,3.3,7.8l-0.2-0.1
	c-0.9-0.4-1.8-0.7-2.7-0.8c-0.3,0-0.5,0-0.8-0.1C672.7,850.2,672.7,848.1,672.5,846.1L672.5,846.1z"/>
<path class="st12" d="M657,460.3c-0.1,4.2-1.5,8.2-1.7,12.4c12.3,0.6,24.4-5.4,36.6-3.5c-3.4-2.2-5.2-6.2-6.3-10.1
	c-1.4-5-1.8-10.3-1.2-15.5c0-0.3,0.1-0.6,0.2-0.9c0.5-2,1.6-4.9,1.3-6.5c-0.4-2.1-2.4-1.7-4.2-1.6c-5.5,0.4-11,1.1-16.4,2.1
	c-1.4,0.2-15.2,3.7-15.4,3.3c2.4,3.9,4.4,8,6,12.3C656.7,454.9,657.1,457.6,657,460.3z"/>
<path class="st12" d="M535.4,447.4c1.1,1.4,2.3,2.7,3.8,3.8c0.9,0.8,1.9,1.5,2.9,2.3c1.8,1.4,3.9,2.2,6.2,2.5c2.9,0.2,9.1-1.5,11-4
	c0.8-1.3,1.1-2.7,1-4.2c0-2-0.4-4-1-5.9c-1.1-3.1-2.7-6-4.7-8.6c-2.1-2.9-4.5-5.8-7.6-7.6c-1.1-0.6-2.1-1.1-3.3-1.5l-5.7-2.3
	c-0.3-0.2-0.7-0.3-1-0.3c-1.5,0-1.8,2.4-1,3.6c1.7,2.6,5.7,3.3,6.8,6.2c-1.9,0.1-3.6,1.3-4.1,3.2c0,0.5-0.2,0.9-0.5,1.3
	c-0.5,0.4-1.3,0.2-1.9,0.5c-1,0.5-0.6,2.1-0.7,3.2c-0.2,1-0.6,2-1,2.9C534,444.1,534.4,445.9,535.4,447.4z"/>
<path class="st13" d="M704.9,866.1c-0.9-1-2.5-0.8-3.8-0.6c-7.1,1.1-14.3,1.7-21.5,1.7c-0.9-4.4,1.7-8.7,2.5-13.1
	c0.1-1.1,0.4-2.2,0.8-3.3c1-1.9,3.3-2.8,5.4-3.3c3.9-0.8,9.9-2.3,12.1,1.7C703.1,853.9,704,860.8,704.9,866.1z"/>
<path class="st14" d="M626.3,849.5c2.9,2,6.5,2.6,10,3.1s7.1,0.8,10.3,2.3c2.7,1.3,5,3.6,8,4.5c2.7,0.7,5.5,0.8,8.3,0.1
	c3.3-0.6,6.7-1.8,8.5-4.6c1.6-2.5,1.4-5.7,1.2-8.6c-0.3-3.3-0.5-6.7-0.7-10c0-0.8-0.2-1.7-0.6-2.4c-2.3-3.4-8.1,1.4-11.2,1.4
	c-4.9,0-10.1-2.6-13.6-5.9c-0.3-0.3-0.7-0.6-1.1-0.8c-1.4-0.6-2.8,0.5-4,1.5l-0.4,0.3c-2.8,2.3-6.7,2.7-10.2,3.6s-7.3,2.7-8.3,6.2
	c-0.1,0.2-0.1,0.4-0.2,0.7C621.7,844.2,623.6,847.6,626.3,849.5z"/>
<path class="st15" d="M626.3,849.5c2.9,2,6.5,2.6,10,3.1s7.1,0.8,10.3,2.3c2.7,1.3,5,3.6,8,4.5c2.7,0.7,5.5,0.8,8.3,0.1
	c3.3-0.6,6.7-1.8,8.5-4.6c1.6-2.5,1.4-5.7,1.2-8.6c-0.3-3.3-0.5-6.7-0.7-10c0-0.8-0.2-1.7-0.6-2.4c-2.3-3.4-8.1,1.4-11.2,1.4
	c-4.9,0-10.1-2.6-13.6-5.9c-0.3-0.3-0.7-0.6-1.1-0.8c-1.4-0.6-2.8,0.5-4,1.5l-0.4,0.3c-2.8,2.3-6.7,2.7-10.2,3.6s-7.3,2.7-8.3,6.2
	c-0.1,0.2-0.1,0.4-0.2,0.7C621.7,844.2,623.6,847.6,626.3,849.5z"/>
<path class="st16" d="M626.3,850.6c2.9,2,6.5,2.6,10,3.1s7.1,0.8,10.3,2.3c2.7,1.3,5,3.6,8,4.5c2.7,0.7,5.5,0.8,8.3,0.1
	c3.5-0.7,6.5-2.8,8.5-5.7c1.6-2.5,1.4-5.7,1.2-8.6c-0.3-3.3-0.5-6.7-0.7-10c0-0.8-0.2-1.7-0.6-2.4c-2.3-3.4-8.1,1.4-11.2,1.4
	c-4.9,0-10.1-2.6-13.6-5.9c-0.3-0.3-0.7-0.6-1.1-0.8c-1.4-0.6-2.8,0.5-4,1.5c0.8,2.5,2,4.8,3.4,7c2.4,3.7,6.3,6.2,10.7,6.7
	c2.2,0.2,4.4-0.3,6.5,0.3s4,2.7,3.3,4.8s-3.3,2.4-5.4,2.5c-3,0.2-6,0.3-8.8-0.6c-1.7-0.6-3.3-1.5-5-2.2c-7.1-3-16.1-1.3-22-6.3
	c-0.6-0.5-1.2-1-1.8-1.4C620.7,844.3,623.6,848.7,626.3,850.6z"/>
<path class="st15" d="M626.3,850.6c2.9,2,6.5,2.6,10,3.1s7.1,0.8,10.3,2.3c2.7,1.3,5,3.6,8,4.5c2.7,0.7,5.5,0.8,8.3,0.1
	c3.5-0.7,6.5-2.8,8.5-5.7c1.6-2.5,1.4-5.7,1.2-8.6c-0.3-3.3-0.5-6.7-0.7-10c0-0.8-0.2-1.7-0.6-2.4c-2.3-3.4-8.1,1.4-11.2,1.4
	c-4.9,0-10.1-2.6-13.6-5.9c-0.3-0.3-0.7-0.6-1.1-0.8c-1.4-0.6-2.8,0.5-4,1.5c0.8,2.5,2,4.8,3.4,7c2.4,3.7,6.3,6.2,10.7,6.7
	c2.2,0.2,4.4-0.3,6.5,0.3s4,2.7,3.3,4.8s-3.3,2.4-5.4,2.5c-3,0.2-6,0.3-8.8-0.6c-1.7-0.6-3.3-1.5-5-2.2c-7.1-3-16.1-1.3-22-6.3
	c-0.6-0.5-1.2-1-1.8-1.4C620.7,844.3,623.6,848.7,626.3,850.6z"/>
<path class="st17" d="M703.6,632.7c2.3,11.1,0.1,22.7-6,32.3c-1.7,2.6-3.6,5-4.9,7.8c-0.8,2-1.5,4.1-1.9,6.2l-5.4,22.4
	c-1.5,6-2.9,12.2-2.5,18.4c0.3,4.3,1.4,9.2-1.3,12.6c-0.6,0.6-1.2,1.4-1.6,2.2c-0.3,1-0.3,2,0,2.9c2.7,16.2,4.8,33.2-0.2,48.9
	c-4.5,14.2-4.7,30-8.5,44.5c-0.5,1.8-1,3.7-2.4,4.9c-1,0.9-2.2,1.4-3.5,1.7c-5.6,1.3-11.5-0.2-16.8-2.7c-3.7-1.7-7.6-4.7-7.3-8.7
	c0.2-1.9,1.3-3.6,2-5.4c1.5-3.5,1.6-7.3,2-11.1c1-9.4,3.9-18.5,6.1-27.8s3.7-18.9,1.8-28.2c-3.8-19.3-9.9-38-18.2-55.8
	c-0.4-0.9-0.9-1.8-1.7-2.5c-0.8-0.5-1.6-1-2.3-1.6c-0.6-0.9-0.9-1.9-1.1-2.9c-0.8-2.9-3.3-5.1-4.9-7.7c-4.1-6.5-2.8-14.9-2.7-22.6
	c0.2-7.5-0.9-15.1,0.3-22.5s5.5-15,12.6-17.3c3.5-1.2,7.4-0.9,11.1-0.5C666.1,622.1,685.2,625.7,703.6,632.7z"/>
<path class="st15" d="M703.6,632.7c2.3,11.1,0.1,22.7-6,32.3c-1.7,2.6-3.6,5-4.9,7.8c-0.8,2-1.5,4.1-1.9,6.2l-5.4,22.4
	c-1.5,6-2.9,12.2-2.5,18.4c0.3,4.3,1.4,9.2-1.3,12.6c-0.6,0.6-1.2,1.4-1.6,2.2c-0.3,1-0.3,2,0,2.9c2.7,16.2,4.8,33.2-0.2,48.9
	c-4.5,14.2-4.7,30-8.5,44.5c-0.5,1.8-1,3.7-2.4,4.9c-1,0.9-2.2,1.4-3.5,1.7c-5.6,1.3-11.5-0.2-16.8-2.7c-3.7-1.7-7.6-4.7-7.3-8.7
	c0.2-1.9,1.3-3.6,2-5.4c1.5-3.5,1.6-7.3,2-11.1c1-9.4,3.9-18.5,6.1-27.8s3.7-18.9,1.8-28.2c-3.8-19.3-9.9-38-18.2-55.8
	c-0.4-0.9-0.9-1.8-1.7-2.5c-0.8-0.5-1.6-1-2.3-1.6c-0.6-0.9-0.9-1.9-1.1-2.9c-0.8-2.9-3.3-5.1-4.9-7.7c-4.1-6.5-2.8-14.9-2.7-22.6
	c0.2-7.5-0.9-15.1,0.3-22.5s5.5-15,12.6-17.3c3.5-1.2,7.4-0.9,11.1-0.5C666.1,622.1,685.2,625.7,703.6,632.7z"/>
<path class="st17" d="M623.7,679.8c0.1,2.9,0.4,5.8,1,8.7c3.5,19.4,7.1,38.7,11,58c0.3,1.7,0.7,3.3,1.1,5c1.5,5.4,4,10.4,7.5,14.7
	c16.3,20.3,17.7,49.8,26.5,74.3c0.6,1.7,1.2,3.3,1.8,5c1.6,4.2,3.4,8.2,5.5,12.2c0.2,0.6,0.6,1.1,1.1,1.5c0.5,0.3,1.2,0.4,1.8,0.3
	c8,0,15.8-1.7,23-5.2c1-0.4,1.9-1.1,2.4-2c0.3-0.7,0.4-1.6,0.3-2.3c-0.2-4.8-0.5-9.9-2.9-14.2c-1.5-2.6-3.4-4.9-5.7-6.9
	c-0.7-15.3-2.2-30.5-5.5-45.4c-1.7-7.6-3.8-15.3-8.3-21.7c-3.3-4.8-7.9-9.4-7.4-15.2c0.3-2.5,1.3-5.7-0.7-7.1
	c-0.9-0.7-2.2-0.7-2.8-1.7c-0.2-0.4-0.4-0.9-0.4-1.4c-0.4-3.9-0.2-7.9,0.7-11.8c0.7-2.5,1.3-5.1,1.8-7.7c0.3-2.6-0.2-5.5-1.9-7.4
	c-0.1-5.2,0-10.7-0.1-15.9c-0.2-3,0-6,0.7-8.9c0.4-1.4,1-2.7,1.3-4.1c1.1-5-1.6-11,1.6-15c1.3-1.7,3.4-2.5,5.2-3.7
	c3.5-2.4,5.9-6.2,7.2-10.3c1.1-4.1,1.8-8.3,2-12.6c0.1-0.9,0.1-1.8,0-2.7c-0.1-0.5-0.2-0.9-0.4-1.4c-1-2.3-3.7-3.2-6.1-3.7
	c-15.4-3.7-31.1-5.5-46.9-5.5c-5.8-4-9.1-2.6-11.6,1.7c-1.4,2.6-2.5,5.3-3.3,8.1c-1.1,3.4-1.2,22.5-2.3,26
	C619.6,666,623.7,675.1,623.7,679.8z"/>
<path class="st14" d="M729.4,505.7c0.4,3-1,6-1.2,9c-0.1,2.7,0.7,5.3,1.2,7.9c1.9,10.2-1.7,20.5-5.4,30.2c-0.7,1.6-1.1,3.3-1.3,5
	c-0.1,3.2,1.7,6.1,2.2,9.2c1,6.6-3.8,12.8-3.9,19.4c0,3.1,0.9,6.2,0.2,9.1c-0.5,2-1.7,3.7-2.6,5.5c-1.5,3.3-2,7-3.5,10.3
	c-2.7,6-8.4,9.9-13.9,13.5c-3.1-1-6.5-2.3-8.2-5.1c-0.8-1.4-1.2-2.9-1.4-4.5c-1.2-6.8-1.2-13.8-1.1-20.7c-0.1-5.9,0.2-11.9,0.9-17.8
	c1.1-7.5,3.5-14.7,5.3-22.1c2.2-9.3,3.3-18.9,6.8-27.9c3-7.8,7.7-14.9,12.7-21.6c1.9-2.6,3.4-6.3,7-5.7
	C726.2,500.1,728.8,502.5,729.4,505.7z"/>
<path class="st15" d="M729.4,505.7c0.4,3-1,6-1.2,9c-0.1,2.7,0.7,5.3,1.2,7.9c1.9,10.2-1.7,20.5-5.4,30.2c-0.7,1.6-1.1,3.3-1.3,5
	c-0.1,3.2,1.7,6.1,2.2,9.2c1,6.6-3.8,12.8-3.9,19.4c0,3.1,0.9,6.2,0.2,9.1c-0.5,2-1.7,3.7-2.6,5.5c-1.5,3.3-2,7-3.5,10.3
	c-2.7,6-8.4,9.9-13.9,13.5c-3.1-1-6.5-2.3-8.2-5.1c-0.8-1.4-1.2-2.9-1.4-4.5c-1.2-6.8-1.2-13.8-1.1-20.7c-0.1-5.9,0.2-11.9,0.9-17.8
	c1.1-7.5,3.5-14.7,5.3-22.1c2.2-9.3,3.3-18.9,6.8-27.9c3-7.8,7.7-14.9,12.7-21.6c1.9-2.6,3.4-6.3,7-5.7
	C726.2,500.1,728.8,502.5,729.4,505.7z"/>
<path class="st10" d="M649.8,440.1c2.4,3.9,4.4,8,6,12.3c2.2,0.5,4.5,0.8,6.8,0.8c8.9,0,15.1-5,20.3-11.4c0.5-2,3.3-4,2.9-5.6
	c-0.4-2.1-2.4-1.7-4.2-1.6c-5.5,0.4-11,1.1-16.4,2.1C663.8,437,650,440.5,649.8,440.1z"/>
<circle class="st12" cx="662.5" cy="424" r="28.4"/>
<path class="st10" d="M626.7,627.5c4.9-0.3,9.9-0.1,14.8,0.1c3.1,0,6.2,0.4,9.2,0.9c3.7,0.8,7.2,2.5,10.9,3.6
	c5.9,1.7,12.1,1.8,18.2,2.4c4,0.4,8,1,11.9,1.9c-0.1-0.5-0.2-0.9-0.4-1.4c-1-2.3-3.7-3.2-6.1-3.7c-15.4-3.7-31.1-5.5-46.9-5.5
	C632.4,621.8,629.1,623.3,626.7,627.5z"/>
<path class="st14" d="M646,470.5c1.2,1.4,2.9,3,4.7,2.5c0.7-0.2,1.3-0.6,1.8-1c3.3-2.1,7.3-2.6,11.1-3.2c7.8-1.2,15.5-2.9,23-5.2
	c2.2-0.8,4.5-1.3,6.8-1.4c4.8,0,9.1,3.2,12.1,7s5.1,8.2,8.1,12c2.1,2.7,4.6,5.1,6.6,7.9c5,7.1,6,16.3,4.8,24.9s-4.7,16.6-8.1,24.6
	c-1.8,4.6-4,9.1-6.6,13.3c1.1,6.5,0.5,13.9-2.5,19.8c-1,1.9-2.2,3.8-2.6,5.9c-0.1,1.4-0.1,2.9,0.2,4.3l1.5,10.3
	c0.4,3.1,0.9,6.3,1.5,9.4c1,5.7,2.5,11.9-0.2,17c-3.2,6.2,0.2,14.1-0.7,21c-8.9-3.4-18.2-5.7-27.7-6.6c-6.1-0.6-12.3-0.7-18.2-2.4
	c-3.7-1.1-7.2-2.8-10.9-3.6c-3-0.6-6.1-0.9-9.2-0.9c-6.8-0.3-13.7-0.5-20.4,0.5c-0.5,0.1-1.2,0.1-1.5-0.3c-0.1-0.2-0.2-0.5-0.2-0.8
	c-0.1-2.5,0.5-5,1.8-7.2c0.8-1.5,2-3,2-4.7c-0.1-0.8-0.3-1.6-0.6-2.4l-3-8c-2.5-6.7-1.3-14.5-2.6-21.6c-1-5.5-1.7-11.1-2-16.7
	c-0.2-4.8-0.1-10,2.8-13.8c0.8-0.9,1.6-1.9,2.2-3c0.4-1.2,0.6-2.4,0.5-3.6c0.1-9.6-0.2-19.2-0.8-28.7c2.5-4.5,5.2-9.2,7.7-13.7
	c2.9-5.3,5.9-10.6,7.1-16.5c0.8-3.9,0.8-8,1.3-11.9c0.1-1,0.4-2,1-2.8c1-1.1,2.6-1.3,4-1.2C642.5,469.5,644.3,469.9,646,470.5z"/>
<path class="st10" d="M542,453.5c1.8,1.4,3.9,2.2,6.2,2.5c2.9,0.2,9.1-1.5,11-4c0.8-1.3,1.1-2.7,1-4.2c-0.4-0.1-0.8-0.2-1.2-0.2
	c-3.2-0.4-6.4-0.2-9.5,0.4C546.4,448.7,543.4,450.5,542,453.5C542.1,453.5,542.1,453.5,542,453.5z"/>
<path class="st14" d="M636.5,514.8c-1.7,2.2-3.5,4.4-6,5.6c-2.8,1.5-6.1,1.5-9.3,1.4c-13.1-0.3-26.2-1.7-39-4.3
	c-1.5-0.3-2.9-0.6-4.3-1.2c-1.5-0.7-3-1.6-4.3-2.7c-4.2-3-8.5-6.1-11.7-10.2c-3.8-4.9-6.2-10.8-7-17c-3-2.8-4.7-6.8-6.2-10.7
	c-0.8-1.6-1.2-3.4-1.4-5.2c-0.1-1.8,1.1-3.8,0.8-5.6c-0.6-3.1-2.2-6-4.5-8.1c-0.5-0.4-0.9-0.9-1.1-1.4c-0.1-0.5,0-1,0.3-1.4
	c1.3-2.9,4.3-4.8,7.4-5.6c3.1-0.6,6.4-0.7,9.5-0.4c1.1,0.2,2.1,0.5,3.1,0.8l2.2,5.9c0.3,1,0.8,1.9,1.5,2.7c0.5,0.4,1,0.9,1.6,1.2
	c2.3,1.9,3.5,4.9,3.1,7.9c4.2,1.6,6.4,6.2,5,10.5c3.4,0.7,6.2,3.2,7.3,6.4c0.2,0.7,0.5,1.4,1,2c0.7,0.6,1.6,0.8,2.6,0.8
	c2.5,0.1,4.7,2.1,7,1.1c2.6-1.2,5.5-1.6,8.3-1.2c0.6,0.1,1.2,0.2,1.8,0.1c0.5-0.1,1-0.3,1.5-0.5c1-0.6,2.1-1,3.3-1.3
	c1.2-0.2,2.4,0.2,3.1,1.2c0.8-0.9,1.3-2,2-2.9c0.7-1,1.8-1.6,3-1.5c-0.8-0.7,0-2,1-2.3c1-0.1,2,0,3,0.1c2.6,0,4.6-2.4,7.2-3
	c2.3-0.6,5.5,0.1,6.7-2c0.4-0.7,0.5-1.7,1.2-2.2c0.5-0.2,1.1-0.3,1.6-0.2c1.7,0.2,3.3,0.7,4.8,1.5c2.5,9.6,1.2,19.6-0.7,29.4
	C641.1,507.2,639.3,511.3,636.5,514.8z"/>
<path class="st10" d="M636.6,549.3l12.2,24.7c-1.3-2.3-4.1-3.2-6.3-4.6c-2.8-2-4.9-4.8-6-8.1c-1.1-3.2-1.9-6.6-2.3-10
	c-0.3-1.6-0.8-3.8,0-5.2C635.6,546.4,636,548.2,636.6,549.3z"/>
<path class="st10" d="M671.8,570.3c2.8,2.7,6.1,4.7,9.2,7.2c7.1,5.7,12.2,13.4,17.1,21c1.4,2,2.6,4.1,3.5,6.4c-0.6,0.5-1.5,0-2-0.5
	l-9.6-8.4c-1.2-1-2.3-2-3.2-3.2c-1.7-2.3-2.4-5-3.9-7.4c-1.6-2.3-3.6-4.3-5.8-6c-2.2-1.9-12.3-10.5-9.9-13.8
	C668.9,566.3,670.3,568.8,671.8,570.3z"/>
<path class="st14" d="M650.8,463.4c3-1.9,6.6-2.7,10.2-3.4c2.1-0.5,4.3-0.6,6.5-0.5c2,0.3,3.9,1,5.9,1.1c2.8,0.2,5.5-1,8.3-1.7
	s5.9-1,8.2,0.6c0.5,0.5,1.1,0.8,1.8,1c0.7-0.1,1.3-0.4,1.8-0.9c4-2.8,9.4-2.5,13,0.7c5.2,4.9,4.6,14.4,10.7,18.1
	c1.7,1,3.8,1.6,4.8,3.3c0.2,0.5,0.5,1.1,0.8,1.6c0.4,0.4,0.9,0.8,1.5,1c1.8,0.8,3.4,1.8,5,2.9c1.6,1.2,2.6,2.9,2.9,4.9
	c0,1.4-0.3,2.8-0.9,4.1c-6.1,15-21,24.5-37.2,23.8c-1.4,0.1-2.8-0.4-3.9-1.2c-0.6-0.7-1.1-1.4-1.4-2.3c-2.9-6-8.3-10.5-11.7-16.2
	c-2-3.4-3.3-7.2-5.5-10.6c-3.2-5.1-8.1-8.9-12.9-12.5c-2.7-2.1-5.7-4.2-9.1-4.1c-3,0.1-5.2,0.3-4.1-3.4
	C646.5,467,648.3,464.8,650.8,463.4z"/>
<path class="st15" d="M650.8,463.4c3-1.9,6.6-2.7,10.2-3.4c2.1-0.5,4.3-0.6,6.5-0.5c2,0.3,3.9,1,5.9,1.1c2.8,0.2,5.5-1,8.3-1.7
	s5.9-1,8.2,0.6c0.5,0.5,1.1,0.8,1.8,1c0.7-0.1,1.3-0.4,1.8-0.9c4-2.8,9.4-2.5,13,0.7c5.2,4.9,4.6,14.4,10.7,18.1
	c1.7,1,3.8,1.6,4.8,3.3c0.2,0.5,0.5,1.1,0.8,1.6c0.4,0.4,0.9,0.8,1.5,1c1.8,0.8,3.4,1.8,5,2.9c1.6,1.2,2.6,2.9,2.9,4.9
	c0,1.4-0.3,2.8-0.9,4.1c-6.1,15-21,24.5-37.2,23.8c-1.4,0.1-2.8-0.4-3.9-1.2c-0.6-0.7-1.1-1.4-1.4-2.3c-2.9-6-8.3-10.5-11.7-16.2
	c-2-3.4-3.3-7.2-5.5-10.6c-3.2-5.1-8.1-8.9-12.9-12.5c-2.7-2.1-5.7-4.2-9.1-4.1c-3,0.1-5.2,0.3-4.1-3.4
	C646.5,467,648.3,464.8,650.8,463.4z"/>
<path class="st14" d="M636,875c2.1,1.9,4.9,2.8,7.6,3.4c6.3,1.2,12.6,2,19,2.3l6.2,0.5c6,0.5,12.1,0.9,18.2,1c7.5,0,15-0.6,22.4-1.9
	c0.7,0,1.3-0.3,1.8-0.9c0.2-0.4,0.3-0.9,0.3-1.4c-0.1-7.6-1.1-15.1-2.8-22.4c-0.7-3-6.1,3.8-6.4,4c-1.5,1.7-2.6,2.5-4.9,2.6
	c-6.3,0.3-13.2-3.5-18.2-6.8c-1.1-0.8-2.2-1.5-3.4-2.1c-0.9-0.4-1.8-0.6-2.7-0.8c-3.2-0.3-6.4,0.4-9.3,1.9c-3.7,1.8-7,4.5-10.7,6.4
	c-3,1.5-6.2,2.5-9.6,3c-3.4,0.5-7.4,0.7-9.2,3.6l0,0C632.9,869.8,634,873.1,636,875z"/>
<path class="st16" d="M636,876.1c2.1,1.9,4.9,2.8,7.6,3.3c6.3,1.2,12.6,2,19,2.3l6.2,0.5c6,0.5,12.1,0.9,18.2,1
	c7.5,0,15-0.6,22.4-1.9c0.7,0,1.3-0.3,1.8-0.9c0.6-0.8,1.1-1.6,1.4-2.5c-0.1-7.6-2.2-15.1-3.9-22.5c-0.7-3-6.1,3.8-6.4,4
	c-1.5,1.7-2.6,2.5-4.9,2.6c-6.3,0.3-13.2-3.5-18.2-6.8c-1.1-0.8-2.2-1.5-3.4-2.1c-0.9-0.4-1.8-0.6-2.7-0.8
	c0.8,4.5,7.3,9.9,10.6,11.6c6.7,3.3,14.7,1.7,22.2,2.1c0.5,0,1.1,0.1,1.6,0.4c0.9,0.6,1,1.9,0.9,3c-0.1,1.8-0.3,3.9-1.8,4.8
	c-0.8,0.4-1.6,0.5-2.5,0.5c-18.5,0.8-37,0.1-55.5-2c-3.1-0.2-6.1-0.9-9-2c-1.9-0.9-3.6-2-5.2-3.4C632,869.2,634,874.2,636,876.1z"/>
<path class="st14" d="M651.5,423.7c0.1,2.9-1.9,8.6,3.6,7c3.3-1,4.2-4.8,8.3-4s5.1,6,6.5,9.3c2.3,5.4,7.2,9.3,12.9,10.5
	c1.2,0.3,2.4,0.3,3.6,0c2.7-0.8,4.2-3.5,5.3-6.1c1-2.2,1.7-4.4,2.3-6.7c0.4-1.6,0.7-3.3,0.8-4.9l0,0c0.1-1.1,0.1-2.3,0-3.4
	c-0.5-6.7-4.3-12.8-9.2-17.4s-10.8-7.9-16.6-11.2c-1.9-1.2-4-2.1-6.1-2.7c-2.1-0.4-4.3-0.5-6.5-0.3c-2.8,0.1-5.6,0.8-8.2,1.9
	c-1.1,0.5-2,1.2-2.9,2c-1.2,1.1-2.1,2.6-2.5,4.2c-1,4.3,1.7,8.2,3.9,11.6C648.9,416.7,651.3,419.9,651.5,423.7z"/>
<path class="st10" d="M559.1,486.7c1.2-3,6.1-11.1,4.7-14c-1.5,2.1-2.7,4.4-3.8,6.7C559.1,481.8,559.8,484.8,559.1,486.7z"/>
<path class="st10" d="M646.7,413.7c-2.2-3.4-5-7.3-3.9-11.6c0.5-1.9,1.6-3.6,3.2-4.8c-0.4,0.6-0.6,1.3-0.8,2
	c-1.1,4.3,1.7,8.2,3.9,11.6c2,3,4.5,6.3,4.6,10c0.1,2.9-1.9,8.6,3.6,7c3.3-1,4.2-4.8,8.3-4s5.1,6,6.5,9.3c2.3,5.4,7.2,9.3,12.9,10.5
	c1.2,0.3,2.4,0.3,3.6,0c0.6-0.2,1.2-0.4,1.7-0.8c-0.8,1.7-2.3,3-4.1,3.6c-1.2,0.3-2.4,0.3-3.6,0c-5.8-1.1-10.6-5.1-13-10.5
	c-1.4-3.4-2.3-8.5-6.5-9.3s-5.1,3-8.3,4c-5.5,1.6-3.5-4.1-3.6-7C651.2,419.9,648.7,416.7,646.7,413.7z"/>
<path class="st10" d="M645.6,407.8c0.5,0.8,1.1,1.6,1.7,2.4c1.2,1.5,2.5,2.8,3.9,4c0.8,0.7,1.7,1.4,2.6,2.1c1.7,1.2,3.5,2.2,5.3,3.2
	c5.4,2.7,11.2,4.4,17,6.1l11.3,3.3c1.4,1,3.9,3,6.8,4.9c0.4-1.6,0.7-3.3,0.8-4.9l0,0c0.1-1.1,0.1-2.3,0-3.4
	c-0.5-6.7-4.3-12.8-9.2-17.4s-10.8-7.9-16.6-11.2c-1.9-1.2-4-2.1-6.1-2.7c-2.1-0.4-4.3-0.5-6.5-0.3c-2.8,0.1-5.6,0.8-8.2,1.9
	c-1.1,0.5-2,1.2-2.9,2c-0.6,0.9-1.1,2-1.5,3.1C643.3,403.3,644.3,405.8,645.6,407.8z"/>
<path class="st5" d="M645.6,407.1c0.5,0.8,1.1,1.6,1.7,2.4c1.2,1.5,2.5,2.8,3.9,4c0.8,0.7,1.7,1.4,2.6,2.1c1.7,1.2,3.5,2.2,5.3,3.2
	c5.4,2.7,11.2,4.4,17,6.1l11.3,3.3c4,3,17.2,12.8,19.4,11.6c2.6-1.4-11.8-11.6-11.8-11.6l-0.7,0.5c2.1-1.3,3.2-4.4,3.7-7
	c0.8-4.8,1.2-9.7,0.1-14.4s-4-9.1-8.3-11.4c-1.9-1-4.2-1.6-5.6-3.1c-0.2-0.2-0.4-0.5-0.5-0.7c-0.1-0.1-0.2-0.3-0.2-0.4
	c-0.1-0.4-0.4-0.8-0.6-1.2c-0.8-0.9-2.2-0.6-3.4-0.5c-0.1,0-0.3,0-0.4,0c-0.2,0-0.4,0-0.7,0c-4.3,0.1-8.4-2.3-12.7-2.3
	c-4.7,0-8.8,2.7-12.9,4.6c-0.8,0.4-1.6,0.7-2.4,1.1c-3,1.4-5.3,2.9-6.5,6.9C643.3,402.5,644.3,405,645.6,407.1z"/>
<path class="st10" d="M678.5,389.9c-0.2,0.3-0.3,0.7-0.3,1c0,0.6,0.3,1.1,0.7,1.5c0.5,0.4,1.1,0.6,1.8,0.6c0.5,0.1,0.9,0.1,1.4,0.1
	c0.6,0.1,1.3-0.1,1.8-0.3c0.1-0.1,0.2-0.1,0.3-0.2c-0.2-0.2-0.4-0.5-0.5-0.7c-0.1,0.1-0.2,0.1-0.6,0c-0.8,0-1.6-0.2-2.3-0.4
	c-0.3-0.1-0.6-0.2-0.9-0.4c-0.4-0.3-0.7-0.8-0.8-1.2L678.5,389.9z"/>
<path class="st10" d="M694.7,427.9c-0.6,0.4-1.3,0.6-2,0.7c-0.5,0.1-1,0.2-1.5,0.2c-1.3,0-2.6-0.4-3.7-1"/>
<rect x="125" y="415" class="st18" width="51.7" height="25.4"/>
<rect x="125" y="486.3" class="st18" width="51.7" height="25.4"/>
<rect x="125" y="557.5" class="st18" width="51.7" height="25.4"/>
<rect x="125" y="628.8" class="st18" width="51.7" height="25.4"/>
<linearGradient id="SVGID_4_" gradientUnits="userSpaceOnUse" x1="102.6453" y1="298.9369" x2="319.8186" y2="298.9369" gradientTransform="matrix(1 0 0 -1 -35 921.483)">
	<stop  offset="0" style="stop-color:#808080;stop-opacity:0.25"/>
	<stop  offset="0.54" style="stop-color:#808080;stop-opacity:0.12"/>
	<stop  offset="1" style="stop-color:#808080;stop-opacity:0.1"/>
</linearGradient>
<path class="st19" d="M282.2,478.7c1.4-0.9,0.9-3.4-0.6-4.2s-3.3-0.6-5-0.2c0.2-0.9-0.3-1.8-1.1-2.1v-0.4c1-0.9,0.6-2.9-0.6-3.8
	s-3-0.9-4.7-0.8c0.2-2-0.5-3.9-2-5.3c-0.3-0.3-0.7-0.5-1.1-0.5c-0.9,0-1.2,1.3-1.3,2.2c-0.2,2.4-0.6,4.8-1.2,7.2l-30.3,50.8
	c-3.4,4.9,7.1-9.7,3.7-4.8c-1.7,2.7-3.7,5.2-6,7.4c-2,1.8-4.3,3.3-6.8,4.5c-1.6,0.1-3.2-0.4-4.6-1.3c-1.7-1.2-3.2-2.7-4.4-4.4
	c-2.6-3.4-5-6.9-7.1-10.6c-0.7-1.2-1.3-2.5-1.6-3.8c-0.5-2.1,0-4.4-0.8-6.4c-0.3-0.7-0.8-1.4-1.3-2.1l-2.1-2.8c0,0,0-0.1,0-0.1
	c-0.2-4.1-3.6-7.3-6.7-10c-2.7-2.3-5.5-4.7-9-5.2c-1.9-0.2-3.8,0.1-5.7-0.1c-1.5-0.2-3-0.8-4.5-1c-1.5-0.2-2.9-0.2-4.4-0.1l-0.6-0.6
	c3.2-1.4,6-3.7,7.9-6.6c1.5-2.3,2.2-5,3.6-7.4c1.6-2.9,4-5.4,5.9-8.2c4.4-6.7,5.2-15.3,3.4-23s-5.9-14.8-10.8-21.1
	c-9.4-12.1-25.1-16.6-39.9-14.2c-1,0.1-2,0.3-2.9,0.5c-2.5,0.5-4.9,1.3-7.3,2.3c-3.2,1.3-5.9,3.4-7.9,6.2c-0.6,0.8-1,1.7-1.4,2.6
	c-0.3,0.7-0.5,1.4-0.7,2.1c-0.5,2.2-0.6,4.4-0.4,6.6c0.1,0.8,0.1,1.5,0.2,2.3c0,0.4,0.1,0.8,0.1,1.1c0.1,0.8,0.2,1.5,0.3,2.3
	c0.2,1.1,0.3,2.3,0.4,3.4c0.1,0.8,0.1,1.6,0.1,2.4c0,0.2,0,0.4,0,0.6c0,0.6-0.1,1.2-0.3,1.8c-0.1,0.3-0.2,0.6-0.3,0.9
	c-0.4,0.9-0.8,1.8-1.4,2.5c-0.8,1-1.6,2-2.5,3l-0.9,1l-0.8,1c-1.1,1.3-2.1,2.7-3.1,4.1c-0.5,0.7-0.9,1.5-1.2,2.3
	c-0.3,0.6-0.5,1.2-0.7,1.8c-0.3,0.8-0.4,1.7-0.5,2.5c0,0.2-0.1,0.4-0.1,0.6c0,0.4,0,0.9,0,1.3c0,0.4,0.1,0.8,0.1,1.3
	c0.1,0.8,0.4,1.7,0.7,2.4c0,0.1,0.1,0.2,0.2,0.3s0.1,0.2,0.2,0.3s0.2,0.4,0.3,0.6c0.1,0.3,0.3,0.7,0.3,1c0,0.1,0,0.2,0,0.4
	c0,0.1,0,0.2,0,0.4c-0.2,1-0.7,1.9-1.4,2.5c-0.2,0.2-0.4,0.4-0.6,0.5l-0.3,0.3l-0.6,0.5l-0.6,0.5c-0.5,0.4-1,0.9-1.5,1.5
	c-5.5-0.3-11,0.2-16.3,1.6c-1.9,0.6-3.9,1-5.9,1.1c-1,0.1-1.9-0.3-2.5-1.1c-0.3-0.7-0.4-1.5-0.3-2.3c0.3-3.3-0.3-6.6-1.6-9.6
	c-0.3-0.9-0.9-1.7-1.6-2.3c-0.7-0.6-1.8-0.7-2.6-0.1c1.6,5.3,1.4,11.1-0.7,16.3c-1.1,2.4-2.3,4.8-3.8,7.1c-2.2,3.8-3.5,8.1-5.5,12.1
	c2.2,7.5,1.7,15.5,2.9,23.3c1.1,7.2,3.6,14.1,6.1,21c1.9,5.2,4,10.5,8.1,14.2c1.3,1.3,3.1,2.1,5,2.2c1.4-0.2,2.8-0.7,3.9-1.5
	c1.2-0.7,2.3-1.5,3.3-2.4c0.4-0.4,0.7-0.8,1-1.3c0.1,0.7,0.4,1.3,0.7,1.8c2.4-5.1,5-10.2,7.8-15.1c0.8-0.4,1.6-1,2.3-1.6
	c0.1,0.2,0.1,0.4,0.1,0.5c-0.1,0.5-0.2,1-0.4,1.4c-0.1,0.5-0.3,0.9-0.4,1.3s-0.2,0.7-0.3,1c-0.1,0.3-0.3,0.8-0.4,1.2l-0.5,1.3
	c-0.1,0.3-0.2,0.6-0.4,0.9c-0.3,0.7-0.6,1.5-0.9,2.2c0.3,0.1,0.5,0.2,0.8,0.3l0.2,0.1c0.3,0.1,0.5,0.1,0.8,0.2h0.3l0.6,0.1h0.2
	c0.1,0,0.2,0,0.3,0h0.4c0.7,0,1.4-0.2,2.1-0.4c0.1,0.5,0.3,1,0.4,1.6c1,3.5,1.6,7.1,1.9,10.7c0.2,4.1-0.5,8.3,0.3,12.3
	c0.4,2.1,1.2,4.1,1.5,6.2c0.2,2,0.2,4-0.1,6c-0.5,4.8-0.9,9.6-1.4,14.4c0,1.8-0.5,3.5-1.2,5.1c-0.7,1.2-1.8,2.5-1.1,3.7
	c1.1-0.3,2.3-0.5,3.4-0.7c-0.4,1.5-0.8,3.1-1.2,4.6c-0.4,1.1-0.4,2.4-0.3,3.5c0.2,1.1,0.9,2.1,1,3.3c0.2,1.8-1,3.3-1.7,4.9
	c-1.7,4.2,0.1,8.8,1.9,13l5.4,12.2c1.5,3.3,2.9,6.7,4.4,10c1.3,3,2.6,6,3.9,9c5.8,13.7,10.5,27.8,14.1,42.2c0.1,0.7,0.4,1.3,0.7,1.8
	c0.8,1,2.1,1.3,3.2,1.9c3.3,1.8,3.7,7.3,0.7,9.5c0.6,7.3-4.9,14.4-7.7,21.2c-6.5,15.6-5.3,33.2-7.6,50l2.5-1.5
	c0.3,0.1,0.6,0.3,0.8,0.5c-0.1,0.3-0.1,0.6-0.2,0.9c-0.3,1.4-0.9,2.8-1.6,4.1c-1.5,2.5-3.7,4.8-4.1,7.7c-0.2,1.8,0.3,3.5,0.3,5.3
	c0,0.2,0,0.3,0,0.5c-0.2-0.2-0.6-0.2-1.1,0.2c-0.8,0.8-1.3,1.9-1.6,3c-0.4,1.3-0.8,2.5-1.1,3.8l-1.2,4.5c-0.7,2.7-1.5,5.4-2.6,7.9
	c-0.9,1.7-1.7,3.5-2.3,5.4c-0.4,1.5-0.5,3.1-0.4,4.6c0,1.5,0.2,3,0.6,4.4c1.2,2.8,3.5,5,6.4,6.1c2.9,1,5.9,1.6,8.9,1.7
	c0.8,0.1,1.6,0.1,2.3-0.1c0.8-0.2,1.6-0.6,2.3-1.2c4.1-3,6.2-8.6,6.6-13.7c-0.1-1-0.3-2.1-0.6-3.1c0.3-5.5-0.6-11.1-0.1-16.7
	c0.1,0.6,0.2,1.3,0.3,1.9c0.3,2.1,0.7,4.1,1,6.2c-0.1-0.2-0.2-0.4-0.3-0.6c-0.7,2.3-0.8,4.8-0.4,7.1c0.5,2.4,1.1,4.7,2,6.9l1.3,3.7
	c0.3,1.1,0.9,2.2,1.6,3.1c1.2,1.3,3,1.8,4.6,2.2c3.6,1.1,7.4,1.7,11.2,1.9c0.5,0.1,1,0,1.5-0.3c0.2-0.2,0.4-0.4,0.7-0.6
	c0.3-0.2,0.7-0.5,1.1-0.6c1.6-0.9,2.9-2.3,3.4-4.1c0.6-1.8,0.3-3.7-0.6-5.3c-0.4-0.7-1-1.3-1.5-1.8l-6.7-7.1c-1-1.2-2.1-2.4-3.3-3.5
	c-0.3-0.3-0.7-0.4-1.1-0.4c-1.8-4.5-1.6-9.8-1.3-14.8c0.1-1.5,0.9-4.6,1.2-7.1c1.3-0.4,2.5-1.1,3.5-1.9c1-0.7,1.7-1.8,2-3
	c3.4-17.2,8.8-33.9,13.9-50.6c0.5-1.7,1-3.3,1.5-5l0.6-2.1c0.2-0.6,0.3-1.2,0.5-1.7c0.3-1,0.5-2,0.8-2.9c0.1-0.3,0.1-0.5,0.2-0.8
	c0-0.1,0-0.1,0-0.2c0.3-1.2,0.6-2.4,1-3.6l0.4-1.4c0.4-1.5,0.8-3.1,1.1-4.6c0-0.2,0.1-0.4,0.1-0.7c0.1-0.5,0.1-1.1-0.1-1.6l0,0l0,0
	c-0.1-0.2-0.2-0.4-0.4-0.6c-0.1-0.1-0.2-0.3-0.3-0.4l-0.4-0.4c-0.3-0.4-0.5-0.8-0.7-1.3c0-0.5,0-0.9,0-1.4s-0.1-1-0.1-1.5
	c0.1-0.7,0.3-1.3,0.4-1.9c0.1-0.4,0.2-0.8,0.4-1.1s0.3-1,0.5-1.4c0.6-0.7,0.9-1.5,0.9-2.4c0.6-1.5,1.3-3,2-4.4
	c0.9-1.5,1.5-3.1,1.8-4.8c0-1.5-0.2-3.1-0.6-4.6c-1-6.3,1.9-12.5,4.1-18.6c1.6-4.4,2.8-9,3.6-13.6c0.6-3.6,1.1-7.3,3-10.4
	c0.6-0.9,1.2-1.8,1.6-2.8c0.3-1,0.4-2.1,0.4-3.2c0.2-4.3,1.3-8.5,3.1-12.5c0.4-0.8,0.7-1.6,0.8-2.4c0-0.1,0-0.1,0-0.2v-0.2l0.5-0.1
	c0.9-5.4,1.7-11.4,1.1-16.8c-0.8-6.3-3.8-12-8.6-16.2h0.1c1.7-0.8,2.4-2.9,2.5-4.8c0-2.8-1.3-5.5-3.5-7.3c-0.5-0.3-0.9-0.7-1.2-1.2
	c-0.2-0.5-0.2-1-0.1-1.6c0-3.3-2-6.2-5-7.5c-0.3-0.1-0.6-0.2-0.8-0.5c-0.2-0.4-0.3-0.9-0.2-1.4c0.2-3.2-1.4-6.3-4.2-8
	c0.6-2.1,0.6-4.2,0.2-6.3c-0.6-2-2.5-3.9-4.6-3.6c1.7-4.7-0.7-9.9-0.1-14.9c0.3-2.1,1.1-4.2,1.2-6.3c0.1-1.9-0.4-4,0.6-5.7
	s3.2-3,2.6-4.8c-0.3-0.8-1-1.3-1.3-2.1c-0.3-0.8,1-2,1.7-1.5c0.3-0.3,0.7-0.5,1-0.8c0.1,1,0.3,2,0.6,2.9c0.5,1.6,1.2,3.1,1.7,4.7
	c0.8,2.4,1,5.1,2.2,7.3c2,3.6,6.1,5.3,8.9,8.3c1.6,1.7,2.8,3.9,4.5,5.6c1.3,1.2,2.7,2.3,4.2,3.2l9,5.8c0.9,0.7,2,1.2,3.1,1.5
	c2.9,0.5,5.6-1.3,6.2-4.2c0-0.1,0-0.2,0-0.3c-0.8-0.3-1.6-0.8-2.2-1.4c0.1,0,0.3,0,0.4-0.1c2.1-0.6,4.1-1.6,5.8-3.1
	c6.4-5.1,11-12.1,15.5-19c4.7-7.2,27.5-26.2,27.5-26.2v-7.7c2.9-1.7,5.5-3.9,7.6-6.4c1.2-1.4,1.8-3.1,1.9-4.9
	C285,481.1,283.9,479.4,282.2,478.7z M93.1,497.2c-0.4,2.8-1,5.6-1.6,8.4c-0.7,3.2-1.6,6.4-2.7,9.4c-0.1,0.3-0.2,0.7-0.4,1
	c-0.3-0.6-0.6-1.2-0.9-1.8c-0.7-1.5-1.3-3.1-1.9-4.7l-3.8-10.1c-0.5-1.3-1-2.8-0.3-4c0.5-0.7,1.3-1.3,2.1-1.6
	c2.6-1.2,5.4-2.1,8.3-2.8c0.9-0.2,1.8-0.4,2.7-0.7C93.9,492.4,93.4,494.8,93.1,497.2z M97.3,484.5c-0.3-0.5-0.3-1,0-1.5
	c0.3-0.3,0.6-0.5,1-0.7c0.1-0.1,0.2-0.1,0.3-0.2L97.3,484.5z M105.1,473.5c-1.1,0.9-2.1,1.9-3,3.1c-1,1.3-1.8,2.6-2.6,4
	c0.3-1.1-0.2-2.3-1.1-3c-0.4-0.2-0.7-0.4-1-0.7c-0.7-0.9-0.5-2.2,0.4-2.9c0.9-0.6,1.9-0.9,3-1l4.5-0.7
	C105.2,472.7,105.2,473.1,105.1,473.5L105.1,473.5z M147.2,800.1c0.1-1.3,0-2.7-0.3-4c0.6,0,1.1,0,1.7,0L147.2,800.1z"/>
<path class="st17" d="M142.6,402.4c-7.8,1.3-16.5,4.3-19.5,11.6c-2.3,5.5-0.5,11.8,0.1,17.7c0.2,1.6,0.2,3.2-0.2,4.7
	c-0.6,2.5-2.4,4.5-4.1,6.5c-2.4,2.5-4.4,5.3-5.9,8.3c-1.4,3.1-1.9,6.9-0.4,10c0.5,0.8,0.8,1.7,1,2.6c0.1,2-2,3.3-3.6,4.6
	c-5.9,4.9-5.6,13.7-5.7,21.3c-0.1,15.6-3.6,30.9-10.2,45c5.1,2.6,11.2,1.8,15.4-2c-0.8,3.5-2,6.9-3.5,10.1c5,2.4,10.9-1.5,13.4-6.5
	s2.8-10.6,4.6-15.9s4.9-9.8,6.3-15c0.4-1.7,0.7-3.6,1.8-5c0.9-1,1.9-1.9,3.1-2.7c5.1-3.7,9-9,11-15c6.1,1.3,12.3,2.7,18.5,2.1
	s12.5-3.4,15.8-8.7c1.5-2.3,2.2-5,3.6-7.4c1.6-2.9,4-5.4,5.9-8.1c4.4-6.7,5.2-15.2,3.4-23s-5.9-14.8-10.8-21.1
	C173.1,404.5,157.4,400,142.6,402.4z"/>
<path class="st5" d="M93.3,500c-0.4,2.8-1,5.6-1.6,8.3c-0.7,3.2-1.6,6.3-2.7,9.4c-0.6,1.4-0.9,2.8-0.9,4.3c0.2,0.9,0.5,1.8,1.1,2.6
	c3.6,6.3,8.4,12.5,8.8,19.7c0.1,1.8,0,3.8,1,5.3c2.8-5.9,5.8-11.7,9.1-17.3c3.5-5.9,7.3-11.8,8.3-18.6c0.4-3.2,0.3-6.4-0.1-9.6
	c-0.5-3.6-1.3-7.2-3.4-10.1c-2.4-3.1-8.8-7.7-13-6.8C95,488.5,93.9,496,93.3,500z"/>
<path class="st12" d="M219.1,534.1c4.7-1.9,9.4-3.9,13.1-7.4c2.3-2.2,4.3-4.7,6-7.4l11-15.9c2.6-3.8,5.3-7.7,5.8-12.3
	c6.4-6.8,10.3-15.6,11-24.9c0.1-0.9,0.4-2.1,1.3-2.2c0.4,0,0.8,0.2,1.1,0.5c1.5,1.3,2.2,3.3,2,5.3c1.6-0.1,3.4-0.1,4.6,0.8
	s1.6,3.3,0.3,4c1,0.3,1.6,1.3,1.4,2.3c1.7-0.3,3.5-0.6,5,0.2s2.1,3.3,0.6,4.2c1.7,0.7,2.8,2.3,2.8,4.2c-0.1,1.8-0.8,3.5-1.9,4.9
	c-4.2,5.6-11.7,7.9-16.5,13c-1.6,1.8-3.1,3.7-4.3,5.8l-14.2,21.5c-4.5,6.9-9.1,13.8-15.5,18.9c-1.7,1.5-3.6,2.5-5.8,3.1
	c-2.2,0.5-4.5-0.1-6.1-1.7c-1.4-1.6-1.6-3.9-1.8-6.1C218.7,541.5,219.4,537.8,219.1,534.1z"/>
<path class="st17" d="M171.7,833.5c0.6,0.6,1.1,1.2,1.5,1.8c1,1.6,1.2,3.5,0.6,5.3c-0.6,1.7-1.8,3.2-3.4,4.1
	c-0.4,0.2-0.7,0.4-1.1,0.6c-0.2,0.2-0.4,0.4-0.7,0.6c-0.5,0.2-1,0.3-1.5,0.3c-3.8-0.2-7.5-0.9-11.2-1.9c-1.7-0.4-3.5-0.9-4.6-2.2
	c-0.7-0.9-1.3-2-1.6-3.1l-1.3-3.7c-0.9-2.2-1.5-4.5-2-6.9c-0.5-2.4-0.4-4.8,0.4-7.1c0.3,0.4,0.5,0.9,0.5,1.5
	c0.4,2.5,1.4,4.9,2.9,6.9c0.9,1.6,2.6,2.7,4.4,2.8c2.3,0.5,4.7,0.8,7.1,0.9c0.3,0,0.7,0,1-0.1c0.4-0.2,0.7-0.6,0.8-1
	c0.3-0.9,0.3-2,0-2.9c-0.6-1.8-2.4-3-3.3-4.7c-0.6-1.3,0.3-2.7,1.5-1.6c1.2,1.1,2.3,2.2,3.3,3.5L171.7,833.5z"/>
<path class="st12" d="M159.4,807.8c-0.4,6-0.6,12.4,2.6,17.4c1.2,1.8,2.7,3.3,4.1,5c0.8,0.8,1.3,1.9,1.5,3c0.2,2.2-1.9,4.1-4,4.5
	s-4.4-0.3-6.5-0.9c-2-0.5-3.8-1.4-5.5-2.6c-2.8-2.4-3.6-6.4-4.2-10.1l-1.3-8.5c-0.4-2-0.6-4.1-0.5-6.2c0.3-2.3,0.8-4.6,1.7-6.7
	l2.2-6.4c0.2-0.6,0.5-1.2,1-1.6c0.5-0.3,1.1-0.4,1.7-0.3c2.1,0.1,7.4,0.9,8.4,3.1C161.5,799.4,159.6,805.5,159.4,807.8z"/>
<path class="st15" d="M159.4,807.8c-0.4,6-0.6,12.4,2.6,17.4c1.2,1.8,2.7,3.3,4.1,5c0.8,0.8,1.3,1.9,1.5,3c0.2,2.2-1.9,4.1-4,4.5
	s-4.4-0.3-6.5-0.9c-2-0.5-3.8-1.4-5.5-2.6c-2.8-2.4-3.6-6.4-4.2-10.1l-1.3-8.5c-0.4-2-0.6-4.1-0.5-6.2c0.3-2.3,0.8-4.6,1.7-6.7
	l2.2-6.4c0.2-0.6,0.5-1.2,1-1.6c0.5-0.3,1.1-0.4,1.7-0.3c2.1,0.1,7.4,0.9,8.4,3.1C161.5,799.4,159.6,805.5,159.4,807.8z"/>
<path class="st17" d="M206.3,631c0,0.1,0,0.1,0,0.2c-0.1,0.8-0.4,1.7-0.8,2.4c-1.8,3.9-2.8,8.1-3.1,12.5c0,1.1-0.1,2.1-0.4,3.1
	c-0.4,1-1,1.9-1.6,2.8c-1.9,3.1-2.3,6.8-3,10.4c-0.8,4.6-2,9.2-3.6,13.6c-2.2,6-5.1,12.2-4.1,18.5c0.4,1.5,0.6,3,0.6,4.5
	c-0.3,1.7-0.9,3.3-1.8,4.8c-0.7,1.4-1.4,2.9-2,4.4s-1.2,3.3-1.7,5c-0.6,2-1,4.5,0.4,6.1c0.4,0.4,0.8,0.9,1.1,1.3
	c0.3,0.7,0.3,1.6,0,2.3c-0.8,3.3-1.6,6.5-2.5,9.7c-0.7,2.5-1.4,5.1-2.1,7.6c-5.5,18.4-11.7,36.7-15.4,55.5c-0.5,2.7-4,4.7-6.7,5.3
	c-2.8,0.6-5.6-0.2-7.7-2.1l-0.5-0.5c-2.8-3-3.2-7.7-3-11.9c1-19.4,10.7-37.2,15.4-56c1.7-6.8,2.7-13.8,3-20.8
	c1.1-23.4,1.5-48.2-5.1-70.7c-1.4-4.7-3-10-0.5-14.2c1.6-2.7,4.5-4.2,7.3-5.4c11.8-4.6,25-4.3,36.6,0.9c0,0.5,0,0.9,0,1.4
	c-0.3,2.2,0,4.4,0.7,6.5C206,629.1,206.3,630.1,206.3,631z"/>
<path class="st17" d="M126.1,813.8l-1.2,4.5c-0.7,2.7-1.5,5.4-2.6,7.9c-0.9,1.7-1.7,3.5-2.3,5.4c-0.3,1.5-0.5,3.1-0.4,4.6
	c0,1.5,0.2,3,0.6,4.4c1.2,2.8,3.5,5,6.4,6.1c2.9,1,5.9,1.6,8.9,1.7c0.8,0.1,1.6,0.1,2.3-0.1c0.8-0.2,1.6-0.6,2.3-1.2
	c4.1-3,6.2-8.6,6.6-13.7c-0.1-1.2-0.3-2.4-0.7-3.5c-0.3-0.4-3.4,1.3-2.1,2.8c2,2.2-3.8,1-6.7,0.9c-1.3-0.1-2.5-0.3-3.8-0.6l-4.8-1
	c-1.6-0.3-3.3-0.9-3.9-2.4s0.6-3.3,1.6-4.7c2.5-3.8,3.1-8.5,3.7-13.1c0.1-0.9,1.2-6.7-1.1-4.9c-0.8,0.8-1.3,1.9-1.6,3
	C126.8,811.3,126.4,812.5,126.1,813.8z"/>
<path class="st15" d="M185.2,719.3c-1.4-1.6-1-4.1-0.4-6.1c0.2-0.8,0.5-1.5,0.7-2.3l-18.6-6.3c-0.1,1.7-0.1,3.3-0.2,5
	c-0.3,7-1.3,14-3,20.8c-4.6,18.9-14.4,36.6-15.4,56c-0.2,4.5,0.3,9.5,3.6,12.5c2.1,1.9,5,2.6,7.7,2.1c2.7-0.6,6.2-2.5,6.7-5.3
	c3.7-18.9,9.9-37.1,15.4-55.5c1.7-5.7,3.3-11.5,4.6-17.3c0.3-0.7,0.3-1.5,0-2.3C186,720.2,185.6,719.7,185.2,719.3z"/>
<path class="st12" d="M133.7,793.4c-1.5,2.5-3.7,4.8-4.1,7.7c-0.2,1.8,0.3,3.5,0.3,5.3c-0.1,1.5-0.3,2.9-0.8,4.3
	c-1.8,6.6-3.9,13-6.3,19.4c-0.4,0.8-0.6,1.7-0.5,2.6c0.2,1.5,1.7,2.5,3.1,3.1c4.4,1.9,9.4,1.8,14.3,1.6c1.4,0.1,2.8-0.3,4-0.9
	c1.7-1.2,2.1-3.5,2.3-5.6c0.3-6-0.7-12.1,0-18.1c0.2-2.2,0.7-4.3,1-6.5c0.5-3,0.7-6.2-0.3-9.1c-0.8-2.1-2-4-3.4-5.7
	c-1.3-1.9-2.9-3.5-4.7-4.7c-0.6-0.3-2.2-1.4-2.8-0.7c-0.3,0.3-0.2,1.2-0.2,1.6c-0.1,0.6-0.2,1.3-0.3,1.9
	C135,790.7,134.4,792.1,133.7,793.4z"/>
<path class="st15" d="M169.5,638.6c-0.9,1.2-0.7,2.8-0.3,4.2c0.6,2.6,1.6,5,2.5,7.6c1.4,4.5,2.4,9.1,3.2,13.7
	c0.8,4.2,2.4,8.9,1.8,13.1c5.1,9.7,8.4,20.2,9.9,31c0.4,2.8-5.8,6.4-5.7,9.2c0.2,5.6,4.7,6,1.4,10.5c-0.2,0.2,1.2,5.2,1,5.4
	c-1.3,1.6-3,2.9-4.5,4.4c-1.8,2.1-3.4,4.4-4.7,6.9c-8.5,15.3-20.8,32.7-17,49.8c0.2,1.3-0.5,2.5-1.6,3.1c-1.1,0.5-2.3,0.8-3.6,0.8
	h-0.6c-2.8-3-3.2-7.7-3-11.9c1-19.4,10.7-37.2,15.4-56c1.7-6.8,2.7-13.8,3-20.8c1.1-23.4,1.5-48.2-5.1-70.7c-1.4-4.7-3-10-0.5-14.2
	c1.6-2.7,4.5-4.2,7.3-5.4c11.8-4.6,25-4.3,36.6,0.9c0,0.5,0,0.9,0,1.4c-0.3,2.2,0,4.4,0.7,6.5c0.4,0.9,0.7,1.8,0.7,2.8
	c0,0.1,0.3-3.8,0.3-3.7c-7.6,1.1-15.5,6.1-23.2,7.2c-4,0.4-7.9,1.3-11.6,2.6C170.9,637.3,170.1,637.8,169.5,638.6z"/>
<path class="st17" d="M116.8,597c-1,3.3-1.9,6.5-2.7,9.9c-0.4,1.1-0.4,2.4-0.3,3.5c0.3,1.1,0.9,2.1,1,3.3c0.2,1.8-1,3.3-1.7,4.9
	c-1.7,4.2,0.1,8.8,1.9,12.9l5.4,12.2l4.4,10c1.3,3,2.6,6,3.9,9c5.8,13.7,10.5,27.8,14.1,42.2c0.1,0.7,0.4,1.3,0.7,1.8
	c0.8,1,2.1,1.3,3.2,1.9c3.3,1.8,3.7,7.3,0.7,9.5c0.6,7.3-4.9,14.4-7.7,21.2c-6.5,15.6-5.3,33.2-7.6,50l2.5-1.5
	c2.4,1.1,2.3,4.5,3.6,6.9c2,3.5,6.7,4,10.8,3.7c1.2,0,2.5-0.3,3.6-0.8c1.1-0.6,1.8-1.8,1.6-3.1c-3.8-17.1,8.5-34.5,17-49.9
	c1.3-2.5,2.9-4.8,4.7-6.9c1.4-1.5,3.1-2.8,4.5-4.4c3.8-4.5,4.2-10.8,4-16.7c-0.6-13.8-4.2-27.2-10.6-39.4c0.7-4.2-1-8.9-1.8-13.1
	c-0.8-4.6-1.8-9.2-3.2-13.7c-0.8-2.5-1.9-5-2.5-7.6c-0.3-1.4-0.5-3.1,0.3-4.2c0.6-0.7,1.5-1.3,2.4-1.5c3.8-1.3,7.7-2.2,11.6-2.6
	l26.2-3.8c0.9-5.4,1.7-11.4,1.1-16.8c-1.3-10.2-8.5-18.7-18.4-21.6c-1.1-0.3-2.5-0.5-3.4,0.2C163,588,139.1,589.6,116.8,597z"/>
<path class="st12" d="M140.6,455.6c0.4,2.6,0,5.2-1.1,7.5c-0.8,1.3-1.8,2.4-3,3.3c-2.5,2-5.5,3.5-8.6,4.3c-1.9,0.5-3.9,0.8-5.2,2.3
	c-1.8,2.2-0.6,5.6,1,8c2.7,4.2,6.5,8,11.3,9.4c3.9,1,8,0.4,11.9,1.1c2.9,0.5,5.5,1.7,8.4,2.4c8.2,1.9,16.7-0.5,22.7-6.3
	c-4.2-3.2-8.5-6.6-10.7-11.5c-1.5-3.5-1.8-7.3-0.8-11c1-3.6,3.3-7.1,2.6-10.7s-4.3-6.2-7.9-7.4c-3.2-1-6.5-1.7-9.9-2
	c-1.9-0.3-13.6-2.8-14.3-1.6c-0.4,0.7,2,5,2.3,5.9C140.1,451.3,140.5,453.4,140.6,455.6z"/>
<circle class="st12" cx="155.3" cy="440.4" r="23.8"/>
<path class="st5" d="M142.7,479.7l16.1,2.7c4,0.8,8,1.2,12,1.2c2.2-0.2,4.4-0.2,6.6,0c1.5,0.3,3,0.8,4.5,1c1.9,0.2,3.8-0.1,5.7,0.1
	c3.5,0.5,6.4,2.9,9,5.2c3.1,2.7,6.5,5.9,6.7,10c0.1,0.5,0,0.9-0.2,1.4c-0.3,0.5-0.7,0.9-1.2,1.3c-3,2.4-4.6,6.1-6.7,9.3
	c-2.2,3.3-4.9,6.2-8,8.6c-0.7-0.5-2,0.7-1.7,1.5s1.1,1.3,1.3,2.1c0.6,1.8-1.7,3.2-2.6,4.8s-0.5,3.8-0.6,5.7c-0.1,2.1-1,4.2-1.2,6.3
	c-0.6,5,1.8,10.2,0.1,14.8c2.1-0.3,4,1.6,4.6,3.6c0.4,2.1,0.4,4.3-0.2,6.3c2.8,1.7,4.4,4.7,4.2,8c-0.1,0.5,0,1,0.2,1.4
	c0.2,0.2,0.5,0.4,0.8,0.5c3,1.2,5,4.2,5,7.5c-0.1,0.5,0,1.1,0.1,1.6c0.3,0.5,0.7,0.9,1.2,1.2c2.2,1.8,3.5,4.4,3.5,7.2
	c0,1.9-0.8,3.9-2.5,4.8c-3.4,1.7-7.1,2.4-10.8,3.2c-3.5,0.8-6.9,1.4-10.5,1.8c-3.3,0.3-6.5,0.4-9.8,0.3l-21.6-0.1
	c-6,0-12.1,0-18.2-0.5c-5.6-0.4-11.4-1.1-16.9,0.4c-0.7-1.2,0.4-2.5,1.1-3.7c0.8-1.6,1.2-3.3,1.2-5.1l1.4-14.4c0.3-2,0.3-4,0.1-6
	c-0.3-2.1-1.1-4.1-1.5-6.2c-0.8-4-0.1-8.2-0.3-12.3c-0.3-3.6-0.9-7.2-1.9-10.7l-4.2-17.5c-0.7-2.8-1-6.1-2.1-8.8
	c-3.3-8.4-6.7-16.8-10.3-25.1c-0.3-0.7-0.2-1.6,0.2-2.2l3.6-6.4c1-1.8,2-3.6,3.3-5.2c3-3.8,7.3-6.4,12-7.4c4.8-0.9,9.7-0.2,14,2.1
	c1.7,0.9,3.2,2,4.9,2.8C136.1,478.4,139.6,479.9,142.7,479.7z"/>
<path class="st5" d="M199.9,495.3l5.6,7.5c0.5,0.6,0.9,1.3,1.3,2.1c0.9,2,0.4,4.3,0.8,6.4c0.3,1.3,0.9,2.6,1.6,3.8
	c2.1,3.7,4.5,7.3,7.1,10.6c1.2,1.7,2.7,3.2,4.4,4.4c1.7,1.2,3.9,1.6,6,1.1c-0.9,0.3-1.6,1-2,1.8c-2.1,4.2-2.3,9.2-1.4,13.9
	c0.3,1.6,0.8,3.1,1.6,4.5c0.8,1.4,2.1,2.5,3.6,3.1c-0.4,2.9-3.1,4.9-5.9,4.5c-0.1,0-0.2,0-0.3,0c-1.1-0.3-2.1-0.9-3.1-1.5l-9-5.8
	c-1.5-0.9-2.9-2-4.2-3.2c-1.7-1.7-2.9-3.8-4.5-5.5c-2.8-3-6.9-4.7-8.9-8.3c-1.2-2.2-1.5-4.9-2.2-7.3c-0.5-1.6-1.2-3.1-1.7-4.7
	c-1.5-4.9-0.4-10.4,1.9-15C193,502.9,196.6,499.2,199.9,495.3z"/>
<path class="st17" d="M178.8,426.8c-2.2-3.4-5-6.4-8.4-8.7c-4.4-3.3-9.5-6.1-15.1-6.4c-2.3-0.1-4.6,0.3-6.8,1.1
	c-0.1-6.7-1.8-11.2-5.9-10.5c-7.8,1.3-16.5,4.3-19.5,11.6c-2.3,5.5-0.5,11.8,0.1,17.7c0.2,1.6,0.2,3.2-0.2,4.7
	c-0.6,2.5-2.4,4.5-4.1,6.5c-2.4,2.5-4.4,5.3-5.9,8.3c-1.4,3.1-1.9,6.9-0.4,10c0.5,0.8,0.8,1.7,1,2.6c0.1,2-2,3.3-3.6,4.6
	c-5.9,4.9-5.6,13.7-5.7,21.3c-0.1,15.6-3.6,30.9-10.2,45c5.1,2.6,11.2,1.8,15.4-2c-0.8,3.5-2,6.9-3.5,10.1c5,2.4,10.9-1.5,13.4-6.5
	s2.8-10.6,4.6-15.9s4.9-9.8,6.3-15c0.4-1.7,0.7-3.6,1.8-5c0.9-1,1.9-1.9,3.1-2.7c5.1-3.7-2.4-31.5-0.4-37.5
	c3,0.7,8.4-13.7,11.6-28.3c2.2,0.7,4.5,1,6.8,0.7c0.8-0.2,1.6-0.2,2.4-0.2c0.7,0.2,1.5,0.5,2.1,0.9c2.3,1.4,4.7,2.7,7.2,3.7
	c5.2,1.9,10.8,1.7,16.3,1.4C181.8,434.5,181,430.3,178.8,426.8z"/>
<g class="st20">
	<path d="M96.9,534.7c6.6-14.1,10.1-29.4,10.2-45c0-7.6-0.2-16.5,5.7-21.3c1.6-1.3,3.7-2.6,3.6-4.6c-0.2-0.9-0.5-1.8-1-2.6
		c-1.5-3.1-1-6.8,0.4-10c1.6-3.1,3.6-5.9,5.9-8.3c1.7-1.9,3.5-4,4.1-6.5c0.3-1.5,0.4-3.1,0.2-4.7c-0.6-6-2.3-12.2-0.1-17.7
		c2.9-7.1,11.1-10.1,18.7-11.5c-0.6-0.2-1.3-0.3-2-0.1c-7.8,1.3-16.5,4.3-19.5,11.6c-2.3,5.5-0.5,11.8,0.1,17.7
		c0.2,1.6,0.2,3.2-0.2,4.7c-0.6,2.5-2.4,4.5-4.1,6.5c-2.4,2.5-4.4,5.3-5.9,8.3c-1.4,3.1-1.9,6.9-0.4,10c0.5,0.8,0.8,1.7,1,2.6
		c0.1,2-2,3.3-3.6,4.6c-5.9,4.9-5.6,13.7-5.7,21.3c-0.1,15.6-3.6,30.9-10.2,45c2.3,1.2,4.9,1.7,7.6,1.4
		C100,536,98.4,535.5,96.9,534.7z"/>
	<path d="M108.8,542.8c1.5-3.2,2.7-6.6,3.5-10.1c-1,0.9-2.1,1.7-3.4,2.2c-0.8,2.7-1.7,5.3-2.9,7.8c1.4,0.7,3,0.9,4.6,0.6
		C110,543.3,109.4,543.1,108.8,542.8z"/>
	<path d="M151.4,412.9c1.4-0.6,3-0.9,4.5-1.1l-0.5,0c-1.3-0.1-2.7,0-4,0.3C151.3,412.3,151.4,412.6,151.4,412.9z"/>
	<path d="M167.5,437.1c-2.5-1-4.9-2.3-7.2-3.7c-0.6-0.4-1.4-0.7-2.1-0.9c-0.7-0.1-1.5,0-2.2,0.1c0.5,0.2,1,0.4,1.5,0.7
		c2.3,1.4,4.7,2.7,7.2,3.7c3.9,1.3,8,1.8,12,1.6C173.6,438.6,170.5,438.1,167.5,437.1z"/>
	<path d="M149.1,432c0,0.2-0.1,0.4-0.1,0.6c1.2,0.2,2.4,0.2,3.5,0.1C151.3,432.6,150.2,432.4,149.1,432z"/>
</g>
<path class="st12" d="M99.6,542.2c0.3,2.5-0.6,5.1-2.3,6.9c-1,1-2.1,1.8-3.3,2.4c-1.2,0.8-2.5,1.3-3.9,1.5c-1.9-0.1-3.7-0.8-5-2.2
	c-4.1-3.6-6.2-9-8.1-14.2c-2.5-6.8-5.1-13.7-6.1-20.9c-1.2-7.7-0.7-15.7-2.9-23.2c2-3.9,3.2-8.3,5.4-12c1.4-2.3,2.7-4.6,3.8-7
	c2.1-5.2,2.3-10.9,0.6-16.2c0.8-0.5,1.9-0.5,2.6,0.1c0.7,0.6,1.3,1.4,1.6,2.3c1.3,3,1.8,6.3,1.6,9.5c-0.2,0.8-0.1,1.6,0.3,2.3
	c0.6,0.7,1.6,1.1,2.5,1.1c2-0.1,4-0.5,5.9-1.1c5.9-1.5,12-2,18.1-1.5c1.2,0,2.4,0.3,3.5,0.9c1.1,0.6,1.8,1.7,1.8,3l-14.4,2.1
	c-1.1,0.1-2.1,0.4-3,1c-0.9,0.6-1.1,1.9-0.5,2.8c0,0,0,0,0.1,0.1c0.3,0.3,0.6,0.5,1,0.7c1.3,1,1.5,2.9,0.4,4.2
	c-0.2,0.2-0.3,0.4-0.6,0.5c-0.4,0.2-0.7,0.4-1,0.7c-0.6,0.8,0.2,1.8,0.4,2.8c0.2,1.4-0.5,2.9-1.7,3.6c-1.2,0.7-2.6,1.1-4,1.4
	c-2.8,0.7-5.6,1.6-8.3,2.8c-0.9,0.3-1.6,0.9-2.1,1.6c-0.7,1.2-0.2,2.7,0.3,4l3.8,10.1c0.6,1.6,1.2,3.2,1.9,4.7c1,2,2.1,3.9,3.1,5.8
	c0.9,1.9,1.7,3.7,2.4,5.7C95.2,533.6,99,536.7,99.6,542.2z"/>
<path class="st12" d="M266.7,473.9c-0.8,0.6-1.4,1.4-1.6,2.4c-0.1,0.4,0,0.8,0.4,1.1c0.2,0.1,0.5,0.1,0.7,0c1.1-0.2,2.1-0.7,2.9-1.4
	c-0.3,0.2-0.6,0.4-0.9,0.7c-0.2,0.3-0.3,0.7-0.1,1.1c0.2,0.3,0.6,0.5,1,0.5c1.4,0.3,2.8,0.2,4.2-0.2c-0.6,0.2-1.2,0.6-1.8,1
	c-0.5,0.5-0.8,1.1-0.8,1.8c0,0.3,0.1,0.5,0.3,0.7c0.1,0.1,0.3,0.1,0.5,0.2c1.3,0.2,2.6,0.2,3.9,0c0.7,0,1.3-0.4,1.6-1
	c0.1-0.7,0-1.3-0.4-1.9c-0.7-1.5-1-3.1-1-4.8c0-0.3,0-0.7-0.1-1c-0.2-0.3-0.5-0.5-0.9-0.6c-1.4-0.6-3.2-1.5-4.8-1
	C268.6,472.1,267.5,472.9,266.7,473.9z"/>
<ellipse class="st5" cx="840.8" cy="877.4" rx="59.5" ry="11.4"/>
<ellipse class="st14" cx="839.8" cy="872.6" rx="6.9" ry="9.1"/>
<ellipse class="st14" cx="839.8" cy="861.5" rx="6.9" ry="9.1"/>
<ellipse class="st14" cx="839.8" cy="850.4" rx="6.9" ry="9.1"/>
<ellipse class="st14" cx="839.8" cy="839.3" rx="6.9" ry="9.1"/>
<ellipse class="st14" cx="839.8" cy="828.3" rx="6.9" ry="9.1"/>
<ellipse class="st14" cx="839.8" cy="817.2" rx="6.9" ry="9.1"/>
<ellipse class="st14" cx="839.8" cy="806.1" rx="6.9" ry="9.1"/>
<path class="st5" d="M865.7,730.3c0.9-1.2,1.8-2.5,2.6-3.8l-18.2-3l19.7,0.2c3.8-8.3,4-17.8,0.6-26.3L844,711.1l24.3-17.9
	c-9.2-15.9-29.4-21.3-45.3-12.2c-15.9,9.2-21.3,29.4-12.2,45.3c0.8,1.4,1.7,2.7,2.7,4c-1.5,1.9-2.7,3.9-3.8,6l23.6,12.3l-25.2-8.5
	c-3.6,10.6-1.6,22.3,5.3,31.1c-11.3,14.4-8.8,35.2,5.6,46.6c14.4,11.3,35.2,8.8,46.6-5.6c9.5-12,9.5-29,0-41
	C875.2,759.2,875.2,742.3,865.7,730.3L865.7,730.3z"/>
<path class="st10" d="M806.5,750.8c0,7.4,2.5,14.7,7.1,20.5c-11.3,14.4-8.8,35.2,5.6,46.6c14.4,11.3,35.2,8.8,46.6-5.6
	c9.5-12,9.5-29,0-41C870.2,765.7,806.5,747.1,806.5,750.8z"/>
<ellipse class="st5" cx="281.8" cy="846.8" rx="34" ry="6.5"/>
<ellipse class="st14" cx="282.4" cy="844" rx="4" ry="5.2"/>
<ellipse class="st14" cx="282.4" cy="837.7" rx="4" ry="5.2"/>
<ellipse class="st14" cx="282.4" cy="831.4" rx="4" ry="5.2"/>
<ellipse class="st14" cx="282.4" cy="825.1" rx="4" ry="5.2"/>
<ellipse class="st14" cx="282.4" cy="818.7" rx="4" ry="5.2"/>
<ellipse class="st14" cx="282.4" cy="812.4" rx="4" ry="5.2"/>
<ellipse class="st14" cx="282.4" cy="806.1" rx="4" ry="5.2"/>
<path class="st5" d="M267.6,762.8c-0.5-0.7-1-1.4-1.5-2.2l10.4-1.7l-11.2,0.1c-2.2-4.7-2.3-10.2-0.4-15l15.1,7.8L266,741.6
	c5.2-9.1,16.8-12.2,25.9-7s12.2,16.8,7,25.9c-0.5,0.8-1,1.6-1.6,2.4c0.8,1.1,1.6,2.2,2.2,3.5l-13.5,7l14.4-4.8c0.7,2,1,4,1,6.1
	c0,4.2-1.4,8.4-4.1,11.7c6.5,8.2,5,20.1-3.2,26.6c-8.2,6.5-20.1,5-26.6-3.2c-5.4-6.9-5.4-16.5,0-23.4
	C262.2,779.4,262.2,769.7,267.6,762.8L267.6,762.8z"/>
<path class="st10" d="M301.4,774.5c0,4.2-1.4,8.4-4.1,11.7c6.5,8.2,5,20.1-3.2,26.6c-8.2,6.5-20.1,5-26.6-3.2
	c-5.4-6.9-5.4-16.5,0-23.4C265,783,301.4,772.4,301.4,774.5z"/>
<ellipse class="st5" cx="28.9" cy="794.3" rx="22.8" ry="4.4"/>
<ellipse class="st14" cx="29.3" cy="792.4" rx="2.7" ry="3.5"/>
<ellipse class="st14" cx="29.3" cy="788.2" rx="2.7" ry="3.5"/>
<ellipse class="st14" cx="29.3" cy="783.9" rx="2.7" ry="3.5"/>
<ellipse class="st14" cx="29.3" cy="779.7" rx="2.7" ry="3.5"/>
<ellipse class="st14" cx="29.3" cy="775.4" rx="2.7" ry="3.5"/>
<ellipse class="st14" cx="29.3" cy="771.2" rx="2.7" ry="3.5"/>
<ellipse class="st14" cx="29.3" cy="766.9" rx="2.7" ry="3.5"/>
<path class="st5" d="M19.3,737.8c-0.4-0.5-0.7-0.9-1-1.5l7-1.1h-7.6c-1.5-3.2-1.6-6.8-0.3-10.1l10.1,5.3l-9.4-6.9
	c3.5-6.1,11.2-8.3,17.4-4.8s8.3,11.2,4.8,17.4c-0.3,0.6-0.7,1.2-1.1,1.7c0.6,0.7,1.1,1.5,1.4,2.3l-9,4.7l9.7-3.2
	c0.4,1.3,0.7,2.7,0.7,4.1c0,2.9-1,5.6-2.7,7.9c4.4,5.5,3.4,13.5-2.1,17.9c-5.5,4.4-13.5,3.4-17.9-2.1c-3.7-4.6-3.7-11.2,0-15.8
	C15.7,748.9,15.7,742.4,19.3,737.8L19.3,737.8z"/>
<path class="st10" d="M42.1,745.7c0,2.9-1,5.6-2.7,7.9c4.4,5.5,3.4,13.5-2.1,17.9c-5.5,4.4-13.5,3.4-17.9-2.1
	c-3.7-4.6-3.7-11.2,0-15.8C17.6,751.4,42.1,744.3,42.1,745.7z"/>
</svg>
