<svg id="Layer_1" data-name="Layer 1" xmlns="http://www.w3.org/2000/svg" xmlns:xlink="http://www.w3.org/1999/xlink" viewBox="0 0 1369.88 421.95">
  <defs>
    <clipPath id="clip-path">
      <rect x="121.26" y="109.71" width="224.81" height="224.81" rx="18.55" ry="18.55" fill="none"/>
    </clipPath>
  </defs>
  <title>wen-logo</title>
  <g>
    <text transform="translate(378.85 207.94)" font-size="141" fill="#05a9c5" font-family="SpinCycle, Spin Cycle">WEB<tspan x="308.78" y="0" fill="#231f20" letter-spacing="0em"> </tspan><tspan x="354.6" y="0" fill="#424243">EXPERTS</tspan></text>
    <path d="M418.56,324.82a9,9,0,0,1-4.09-.83,9.77,9.77,0,0,1-2.79-2,11.55,11.55,0,0,1-1.84-2.53,25.51,25.51,0,0,1-1.13-2.34c-.24-.48-.64-1.38-1.22-2.7s-1.25-2.87-2-4.63L403,304.16q-1.31-3-2.46-5.67t-2.08-4.81c-.62-1.41-1.06-2.41-1.34-3a13.74,13.74,0,0,0-2.26-3.83,3.71,3.71,0,0,0-2.85-1.22,4.46,4.46,0,0,0-3.5,1.46,5,5,0,0,0-1.31,3.47v34.26h-4V290.57a9.47,9.47,0,0,1,.59-3.36,7.88,7.88,0,0,1,4.36-4.57,8.75,8.75,0,0,1,3.48-.68,13.1,13.1,0,0,1,3.17.35,6.58,6.58,0,0,1,2.58,1.34,11.34,11.34,0,0,1,2.26,2.64,30.66,30.66,0,0,1,2.2,4.28L403.3,294l2.08,4.84q1.13,2.61,2.38,5.37t2.29,5.11q1,2.35,1.78,4.07c.49,1.15.82,1.88,1,2.2a23.85,23.85,0,0,0,2.38,4.19,3.59,3.59,0,0,0,3,1.39,4.34,4.34,0,0,0,3.53-1.46,5.3,5.3,0,0,0,1.22-3.53V282l4,.06v34.2a8.68,8.68,0,0,1-.65,3.35,8.43,8.43,0,0,1-4.45,4.57A8.25,8.25,0,0,1,418.56,324.82Z" fill="#424243"/>
    <path d="M623.17,286.23a7.73,7.73,0,0,0-2.34,1.6,7.49,7.49,0,0,0-1.6,2.38,7.17,7.17,0,0,0-.59,2.91v7.3h35.74v3.68H618.63v9.56a7.15,7.15,0,0,0,.59,2.9,7.5,7.5,0,0,0,1.6,2.38,7.74,7.74,0,0,0,2.34,1.6,7,7,0,0,0,2.88.59h28.32v3.68H625.64a10.73,10.73,0,0,1-4.3-.86,11.15,11.15,0,0,1-5.88-5.9,10.9,10.9,0,0,1-.86-4.33V293.06a10.89,10.89,0,0,1,.86-4.33,11.16,11.16,0,0,1,5.88-5.91,10.75,10.75,0,0,1,4.3-.86h28.73v3.68H626.05A7,7,0,0,0,623.17,286.23Z" fill="#424243"/>
    <path d="M874.68,282a11,11,0,0,1,11.1,11.1v11.52a10.92,10.92,0,0,1-.86,4.33,11.05,11.05,0,0,1-5.91,5.91,10.83,10.83,0,0,1-4.33.86H853a10.92,10.92,0,0,1-3.8-.65,10.76,10.76,0,0,1-3.21-1.84v11.64h-4V293.06a11,11,0,0,1,3.24-7.86,11.08,11.08,0,0,1,3.5-2.38A10.72,10.72,0,0,1,853,282Zm7.06,11.16a7.24,7.24,0,0,0-.59-2.91,7.55,7.55,0,0,0-1.6-2.38,7.64,7.64,0,0,0-2.37-1.6,7.19,7.19,0,0,0-2.91-.59H853.48a7.15,7.15,0,0,0-2.91.59,7.5,7.5,0,0,0-4,4,7.24,7.24,0,0,0-.59,2.91v11.4a7.21,7.21,0,0,0,.59,2.91,7.57,7.57,0,0,0,1.6,2.38,7.48,7.48,0,0,0,2.38,1.6,7.15,7.15,0,0,0,2.91.59h20.78a7.19,7.19,0,0,0,2.91-.59,7.5,7.5,0,0,0,4-4,7.21,7.21,0,0,0,.59-2.91Z" fill="#424243"/>
    <path d="M1333.53,321.14v3.68H1315.9a11,11,0,0,1-11.1-11.1V282h4.09v31.7a7.24,7.24,0,0,0,.59,2.9,7.6,7.6,0,0,0,1.61,2.38,7.7,7.7,0,0,0,2.34,1.6,7,7,0,0,0,2.88.59Z" fill="#424243"/>
    <g>
      <path d="M344.5,86.66,331.22,39.21a22.33,22.33,0,0,0-27.44-15.44L154.6,65.5Z" fill="#414242"/>
      <path d="M100.61,81.88c.05-.45.14-.9.22-1.34l-54.7,15.3a22.33,22.33,0,0,0-15.44,27.44l46.71,167Z" fill="#414242"/>
      <path d="M94.72,352.2l8,28.74a22.33,22.33,0,0,0,27.44,15.44L233,367.61Z" fill="#414242"/>
    </g>
    <rect x="121.26" y="109.71" width="224.81" height="224.81" rx="18.55" ry="18.55" fill="#05a9c5"/>
    <g clip-path="url(#clip-path)">
      <g>
        <path d="M61.13,97.93c-3.51.62-7.31,1.63-11.35,1.17,2.84,1.84,5.8.29,8.14-.08.94-.15,1.94.25,2.82.14,1-.12,1.79-.83,2.69-1,1.65-.24,3.7.57,5.65.12.26.23.16.75.8.67-.75,4,2.08,5.54,2.41,8.42,3.11,4.17,5.16-1.86,8.57-2.09a6.18,6.18,0,0,1,4.09,1.3c.09,1.69-1.75,2.45-3.15,3.14-2.24,1.08-6,4.24-6.76,5.78s-.57,3.48,1.66,3.37c-1.06,1.58-2.29,3.47-1.78,6.17-2.14.71-3-1.58-4.94-1.17s-.84,4.42.4,5.51c.25,1.95-1.86,2.47-3.24,1.71A4.36,4.36,0,0,0,63.53,127c-.53,1.1.52,1.89.69,2.86a3.34,3.34,0,0,1,2.86,2.81c-4.49.21-7.66,2.55-12.53,1.42-1.49.74-2.06,2.45-3.16,3.6-1.83.08-3.13-.57-4.46-.37-1.49.21-2.45,1.71-4.07,1.52-.37,1,0,2.29-.49,3.42a3,3,0,0,1-1.83-.09c-.51,2.59-1.16,5.91-4.41,5.12-.76-.3-.63-1.34-.89-2.08-1,.07-1.43.82-2.53.82-1.64-2.38-5.15-3.17-5.83-6.4-.18-.67.57-.39.7-.75-3.23-.57-4.79-5.16-2.31-7.16-.27-.67-1.67-.35-2.28-.74-1.06-2.43,1.11-4.87,4-3.72a3,3,0,0,1-.64,2.79c0,.69.89.63,1.28,1,1.76-1.84-.69-5.86-2.88-5.63-1.51.15-1.1,2.25-2.94,2.37-.61-2.51.13-4.95-1-6.63s-6.89-3.74-9.78-3.93c-1.47-.1-3,.52-4.32-.05A4,4,0,0,1,6.17,115c-.38,1.43-1,3.37-2.64,3.16s-1.3-2.38-3-3.12-2.43.45-3.26-1.1c1.73-1.41,4.79-.07,6.38-1.56.76-.71.34-1.75,1.6-2.12,2.38.59,3.51-.73,3.11-2.51.65-2,3.34-1.28,5.23-1.62.49-.48-.16-1.25.07-1.41C15.28,103,20,101.74,24,103c1.63.51,2.2,1.26,3.6,1.11a3.76,3.76,0,0,0,1.87-.85c.95-1.25-.25-4.66,1.88-4.46,1.39.15.45,2.36,1.53,2.59,1.63-.55,1.83-2.58,3-3.61,2.74,0,4.84-2.09,7.93-2.28,1-.07,2.21.16,3.31.16,2.31,0,4.5-.55,6.49-.31a22.28,22.28,0,0,1,4.25,1.3C59,97,60.54,96.75,61.13,97.93Z" fill="#13d0e0" fill-rule="evenodd"/>
        <path d="M-8,350.36l-.5,0c-1.14-.43-2.13-1-3.25-1.41.49-1.12,1.92-1.29,2.29-2.55-.08-.39-.11-.81-.63-.81-1.22.57-.72,2.52-2,2.73-1,.16-1.2-.81-2.08-1.67s-2.57-1.71-1.65-3.53c-.23-.91-1.23-1.15-1.74-1.81,0-1,.82-1,1.08-1.67,0-.91-1.37-.73-1.59-1.49,0-1.48.86-2.07,1.32-3.08-.07-1-.79-1.52-.88-2.54.55-1.78,3.09-2.88,3.4-5.17.14-1-.62-2.36-.48-3.63s1.29-2.61,1.17-3.7c-.07-.67-.95-1.29-.9-1.93s.78-1.07,1.24-1.51c-.13-4,4.34-6.59,2.37-11,.14-.72,1-.72,1.22-1.36-1.16-1.61.83-1.82,1.63-2.74C-8.81,297-7,292-6.76,287.88c.28-4.27-2.22-5.8-5.24-8.24-2.55-.59-4.6-1.8-4.77-4.47-.1-1.66-1.13-3.83-1.71-5.73-.26-.85-.69-1.83-1-2.72s-.54-2.08-.86-2.86c-.54-1.28-2.71-1.93-3.17-3.29-.57-1.7,1-2.9,1.23-4.64.2-1.48-.42-2.91-.31-3.77.37-2.94,3.17-3.91,5.4-5.38,0-1,.8-2.24,1-3.56a6.5,6.5,0,0,0-1-4.12c-.84-1.78-.36-3.3-2.67-3.12-.36,1.78-2.69,3.46-3.54,1.09-2.38-.31-2.75-2.32-4.48-3.51-1.07-.72-2-.7-2.42-1.37s-.08-1.63-.22-2.51a3.8,3.8,0,0,0-2.84-3c-.43-.11-.93.15-1.32.1-.91-.12-1.54-1.17-2.79-.92-2.14-.56-3.13-4.82-5.59-4.67-1.23.07-1.28,1.13-2.25,1.77-1.33-.1-1.37-1.31-2.23-1.83-1.5-.09-2.44.42-4,.28-1.7-1-1-3.12-1.94-4.49s-2.93-1.32-4.87-2.12c-1.3-1.08-1.09-2.68-1.13-4.29,0-2.26-1.91-3.55-3.59-4.72-1.58-3.5-4.05-6-6.21-8.76-1.14-1.49-1.46-3.07-2.58-4.83-2.74,1.62,0,3.17,1.11,4.44,1.34,1.59,1.68,4.37,3.25,5,.24,1.1-.05,2,.68,3s4.22,3.42,1.31,3.67c-1.29.12-1.2-1.28-2.07-2-.64-.52-1.29-.19-1.78-.87,0-2.29-1.64-3.08-2.6-4.51-.9-.21-1.67.36-2.32-.11.11-1.25,1-1.74,1.45-2.59a2.52,2.52,0,0,0-1.9-1.82c-1.63-2.9-2-6.92-4.55-9-1.73-.33-4-.71-4.89-2s-.4-3.29-.93-4.59c-.93-2.21-2.54-3.66-2.7-5.93-.2-2.83,1.2-5.17.91-8.42A19.23,19.23,0,0,0-88,162.12c-.8-1.49-3.06-2.05-4.52-2.57-1.29-.94-.39-2.39-.49-3.62-.13-1.52-1.26-1.7-2.35-2.79s-.88-3.26-2.48-3.72c-.33,2.11,2.13,3.3.89,5.53-1.49-.88-2.56-.88-3.39-2.05s.21-2.72-.12-4.24-2.24-1.49-3.89-1.91c-.62-.77-.3-1.67-.55-2.38-1.45-4.11-10.08-3-13.16-5.82-.69-.16-.8.27-1.34.25-1-.37-1.41-1.19-2.59-1.37-.5,1.93-2.31,4.63-4.44,2.45-1.08.13-1.36,1.11-2.87.79-.12-1.28.67-1.62.64-2.79-1.69-.17-2.08,1-2.12,2.56a19.63,19.63,0,0,1-2.07,1.77,6.47,6.47,0,0,0,2.48.12c.06,3.22-4.19,4.25-5.39,1.63-1.81,1.16-3,3.61-5.48,3.49-.62,0-1.19-.66-1.79-.71-2.35-.2-4,2.34-6.72,1.55,0-.42,0-.84.06-1.25,3.63-1.66,8.6-2.77,10.89-5.42-.08-.24-.23-.41-.3-.64a2.57,2.57,0,0,0-2,.53c-.92-.33-1.15-1.23-1.92-1.67-.58.23-.7.92-1.22,1.2-2.09-.17-.42-2.84-1.65-3.53-1,.68-1.61,1.73-3.08,1.89-.55-1.6-3.2-2.52-3-4.37.18-1.25,3.23-2.92,5.46-2.87,1.62,0,2.9.05,3.07-1.58-1.07-1.28-2.24.41-3.52.61-3.71.6-7.13-1.27-7.63-3.51,1.74-.7,4.24-.62,5.72-1.6a5.88,5.88,0,0,0,5,2.13c.4-1-.72-1.81-1.38-2.41-2-.42-3-1.7-5.56-1.68-2.11-3.27,1.95-2.78,4.65-3.39,1.13-.24,2.28-1,3.38-1.08,2.91-.33,5,.12,5.42-2.09.88.18,1.59,1.18,2.59,1.39,2.7.53,6.26-.17,8.95.27,1.55.25,2.76,1.37,4.24,1.62,2.74.45,5.05-.72,7.34-.74,1.1.71,1.62,2.17,3.2,2.51,1,.22,2.64-.44,3.14.15a16.34,16.34,0,0,0,2.39,2.15,4.09,4.09,0,0,0,2.76-2.23c2-.28,3.4.87,5.28.74s4.15-2.34,6-.18c.82-.07.84-1,1.87-.84.19.66,1,1.15.57,1.91.83.16,1.63-1,2.55-1.29,3.33.57,8.07-.3,8.87,2a12.92,12.92,0,0,1,4.08,1.45,3.1,3.1,0,0,0,1.2-.73A43.3,43.3,0,0,1-76.79,120a5.78,5.78,0,0,1-6.41,2.2c-.67-.18-1.09-1.17-1.92-1.5-1-.41-1.75.2-2.29-.59.3-.87,1.16-.57,1.72-1.17.72-.78.48-2.12,1.3-2.91,2.68-.35,5.33.59,7.78.38,1.27-.12,2.31-1.18,3.69-.61.8,1.24,2,1.43,3.71,2.21a27.16,27.16,0,0,0,2.42,1.38c2.6.63,5.54-1.47,7.45.52.05.84,0,2.4,1.2,2.73.47-1.22-1.33-3.48.05-4.55-3-1.26-6.27-.26-9.6-.78-.56-.68-.59-1.79-1.37-2.27a9.55,9.55,0,0,0-2.39,1.15A2.4,2.4,0,0,1-73,113.65c-2.51-.4-5.75,1.35-8.63,0,0-1.09.95-1.2,2.05-1.16.38-.11-.44-.83,0-1.09,2.59-.25,7.56-2.67,8.78.59,1.72.55,3.21.11,4.78.7,1.08.41,1.67,1.71,2.74,1.7,1.83,0,1.86-2.57,4.23-1.83.5.15.83,1.32,1.59,1.49s1.42-.62,2.68-.64c.9,1.52-.49,4.38-2.22,4.75.8,1.16,3.53,0,4.45.84a6.87,6.87,0,0,1-1.43,2,4.61,4.61,0,0,0,3,2.81c1.57.48,3.1-.09,3.25,1.25.09.79-1.08,1.69-1.76,2-1.79.69-4.79-.43-5.69,1.12.52,1.67,4.23,1,6.74,1.28,2.17.2,4.17.7,5.16-.22.45-1.79-.91-2-1.69-2.75.7-1.33,2.79-.18,4.34-.58a4.79,4.79,0,0,0,.78,4.58c1.35-.12,1.53-1.46,2.74-1.74.5-2.61-1.37-3.86-.87-6,3.77-.38,5,3.75,6.7,5.81,1.91-1.72,4.76-.72,3.87,2.38,1.47.31,1.54-2.21,3.58-1.86a3.07,3.07,0,0,0,.59-2c-4-.88-8.52-.58-8-5.25a8.86,8.86,0,0,1,6.75-2.19c1.2,1.08.11,2.6-.19,3.92a2.41,2.41,0,0,0,2.68-.65c.14-.82-.41-1-.23-1.89,2-.6,4.17-.28,6.66-.31,1.54,0,3.2-.4,4.32-.25a9.13,9.13,0,0,1,4.37,2.4c2.69,2.44,7.7,2.85,11.76,4,.68,1.79-.56,3.81,1.45,4.3.64.16,1.3-.33,2-.21,2.38.4,3.91,3.92,6.8,3.62-1,1.37-2.3,3-4,3.09-2,.05-3.09-2.86-5.7-2.32,0,1.91,1.92,2.25,3.16,3.13-.11.94,1.58,2.31.82,3.8-1.3-.14-1.41-1.3-2.93-1.24-.75-.07-.51.89-1.05,1-2.6.29-3.44-1-4.55-1.94-.65-.08-.54.64-1.19.56a13.46,13.46,0,0,0-12-2.63,3.53,3.53,0,0,1,.15-3.13c1.51-.91,3,.52,4.31.21.82-.19.83-1.05,1.41-1.65.88-.91,1.88-1,3.06-1.42-.3-1-1.66-1.09-2.42-1.69-.8.69-1.13,1.89-2.1,2.41-1-.25-2.5-.06-3.13-.62,2.37-.85,3.2-4.62-.82-3.8-.28-.45.07-1.45-.58-1.6-.6.14-.29,1.24-.9,1.37-2.12-.4-4.26-.43-5.18.84.9.88,2.69.85,2.54,2.32-.11,1.06-3.34,2.09-4.42,2.14-1.82.07-3.63-1.28-4.64-.23.32,1.47,3.32,1.06,4.27,1.15s.91.86,1.92,1.5,2.44.83,2.92,1.4c.67.8-.26,2.61-1.78,2.26-1.12-.25-.77-1.46-1.54-2.28-2.7-.38-3.61,1.93-6.2,1.12,0-.83.82-.79,1.06-1.37-.33-1-1.42-1.28-1.9-2.13,0,1.29-.76,1.84-.81,3.11-4.74-2.76-7.41,2.46-10.49,4,.18,1.15.83,1.89.5,3.48a5.37,5.37,0,0,1,1.51,3c3.17-.59,5.19,1.21,7.22,1.92a15.13,15.13,0,0,0,4.27,1c1.36.06,3.23-.79,4,.2-.11,1.56,1.36,2.74,1.25,4.76.72-.08,1-1.45,1.56-1.17a2.92,2.92,0,0,1-.48,2.95c.66,1.73,3.44,1.42,3.8.19.61-1.95-1.62-4.66-1.69-6.2,1.41-.82,1.46.5,2.11,1,1.54-.53,3-1.41,3-2.83,0-1.81-2.49-2.83-3.29-4.08.51-.33,1.36-.33,1.86-.69a6.19,6.19,0,0,1,.56-4.67c2.2-.09,4.09-.69,6.15-.17,1.17.29,1.84,1.47,3.06,2,1.56.71,3.29.46,4.23,1.61-.2.9-1.34.79-1.57,1.66.53,1.51,2.91,2.28,4.22,2.09,1.87-.29,2.15-2.68,3.64-3.27,3,1.62,3.17,4.17,5,6.35a6.77,6.77,0,0,0,.71,2.38,17.86,17.86,0,0,0,3,0c2,1.67,3.08,4.06,5.89,5a53.67,53.67,0,0,1-2.89,4.87c1.29.18,1.07.8,1.76,1.34a11.61,11.61,0,0,1,2.16-.05c.65,1.4,3,2.8,1.93,4.65-.67-.21-2.78-1.13-3.65,0-1.05-1.84-4.3-.23-6.09-1.24.78-1.09,1-2.68,1.85-3.83.63-.83,2.82-1.58,1.31-2.91-1.59-.24-1.42,1.36-2.57,1.6-2.08-.9-3.63.13-4.86,1-.53.45.55.29.29,1a4.46,4.46,0,0,1-2.53.82c-.5-.57-.19-1.84-.19-2.84-.75-.08-.63.43-1.18.41s-1.16-.72-2-.72c-.5,0-.86.51-1.53.72-1.27.37-3.12,0-4,.58s-.85,2.1-1.31,3.07c2.56.25,6.39-3.27,8.71-1.46,1.77,1.39-2,3.24.46,4.09,1,0,1.09-.94,2-1,.3.39,0,1.31.25,1.73,1.14,1.26,2.09-.23,2.86-.8a4.44,4.44,0,0,1,1.68,2.91c-1.72,1.41-4.63,1-6.89,1.7-1.3.43-2.11,1.78-3.4,1.4s-.47-2.19-.84-3.17c-1.12-.12-1.22.81-1.88,1.16-2.18,0-4.08.24-4.41,1.83-.29,1.41,1.12,2.38,1.15,3.66-1.83,1.26-5-1.12-6.49.3,1,1.05,0,2.09-1.42,2-.28,1.24.08,2.66-1.32,3.23-.87.08-.93-1.12-1.62-.7-.22,1.49,1.67,3.17,1.27,4.45-.66,1-2,.85-2.89,1.43-1.3.82-2.7,3.11-4.36,4.33-1.33,1-2.46,1.35-2.81,3,.49,1.22,1.53,2.67,1.79,4.32.28,1.86.78,4.85-1.9,4.93-.34-.46-.3-1.25-.58-1.75-2-1.3-2.34-4-2.66-6.71-.89-.12-.75.86-1.54.86-1-.3-1.08-1.36-1.74-2a22.26,22.26,0,0,1-6,.64c-.48.38-.3,1.43-.91,1.68-2-.69-4.09-2.07-7.07-1.44-1.16,2.08-4.23,2.18-5.53,4.11.17.61.95.7,1.1,1.31a22.21,22.21,0,0,0-1.1,8.88c.2,1,2,2,2.67,3.26.06.11-.12.51,0,.63,1.54,2,3.31,1.93,5.13.4a4.39,4.39,0,0,1,1.3.54c1.51-.37,1.09-1.91,1.17-3.55.92-1.41,3.86-.71,5.85-1,2.16,2-.36,4.08-1.43,5.57.8,1.42-.08,3.52-.87,4.34,2,.76,4,1,5.48-.2,1.19.75,3.18,1.35,3.17,3.13,0,.72-.76,1.42-.94,2.31a22.69,22.69,0,0,0-.23,4.7c0,.7,1.57,2.75,2.51,2.93,1.56.32,2.62-1,3.73-1.54,1.95,0,2.55,1.12,3.23,2.19,3.42-.25,3.23-4.3,6.53-4.7,1.08-.58,1.72-1.6,3.55-1.39-.62,2.06-2.08,4-.8,6.23.88-2.15,1.21-4.88,4.06-5,1.11.57.52,1.84,1.2,2.57a3,3,0,0,1,4.58,1.32c.75,0,.58-1,.91-1.52,2.11-1.49,3.7,0,4.74,1.49,1.08-.28,1.26-2.27,2.26-2.08-.78,1.52-.69,3-1.7,4.15,1.13.55,1.78,1.19,3.44.95.35,1.54,2.26,2.67,3.11,4.23a5,5,0,0,1,6.58,1.42c.61.8-.38-.17-.19.46a11.56,11.56,0,0,0,1.42,1.65,5.46,5.46,0,0,1,1.82,3.37c1.31.15,1.38,1.33,1.9,2.13-.73,2.09-3.89,1.64-5.13,3.2,2.43,2.69,4.28-3,6.5-.62-.2,2-1.53,2.88-2.84,3.78.3.38,1.08.37,1.8.4a12,12,0,0,1,2-3.19c5.11-.06,6.47,5.09,11.27,3.83,2.17.53,2.5,1.75,3.66,3.15,3.69.57,5.29,2.57,5.88,5.46-.19,2.16-2,3.3-1.92,5.23-1.66,3.15-7.62,5.07-5.45,9.61-.08,2.08-2.16,3.5-1.08,5.28-.25,2-1.57,2.2-2.33,3.64-.54,1-.65,2.59-1.32,3.23s-1.87.49-3,.64a18.73,18.73,0,0,0-8.84,4.11c.36,2.44,1.26,5.28-1.76,5.4a5.35,5.35,0,0,0-.76,1.84c-1.61.88-3.51,2.21-3.21,4.55-2.07,2-4.49,6.08-8.65,3.81a7.72,7.72,0,0,1-1-4.44c-.83.67-.74,2.3-1.48,3.07.28,2,3.29,1.83,3.48,3.62.09.8-1.12,1.65-1.61,2.43s-.8,2.16-2,2.56c-1.73.61-3.86,0-5.8-.12-1.26.77-.69,2.57-.5,3.43-1.27.71-2.67-.72-4.11-.83-.5.83.19,1.94.53,2.53a5.91,5.91,0,0,0,1.67-.07,24,24,0,0,1-3.9,5c-.82.8-2.9,1.49-2.29,2.72.24.83,2.06.33,2.79.75-.55,3.87-4.27,4.44-6.16,6.91a4.55,4.55,0,0,0,.83,3.33,6.62,6.62,0,0,0,6.15,3.43C-2.75,349.78-5.65,349.78-8,350.36ZM-88.32,159a4.5,4.5,0,0,0,2.43,1.37c.92.65.58,2.39,1.68,2.9,1.3-3.24-2.74-4.42-4.52-6C-88.87,158-87.59,158.61-88.32,159Zm61.15,2.52c-1.49,0-1.87.79-3.4,1.56s-3.56.59-2.77,2.37c1.82.58,3.09-.7,4.7-.87.67,1.12,2.72,1.06,4.42,1.31a2.72,2.72,0,0,0,.91-1.68A14.08,14.08,0,0,1-27.16,161.49Zm9.15,6.56c-1-.33-2.57,0-3.81-.18-2.23-.36-4.61-1.27-6,.34-.3,1.63-1,4.6-.67,7,.08.59.7,1.18.25,1.57,3,.14,1.19-3.27,1.93-5.38.57-1.64,2.65-3.05,4.43-2.45s.28,3.64,1.25,5.08c1.36.26,1.7-.54,2.22-1.15-.42-1-.4-3,.5-3.57.2.91.56,1.71,1.74,1.8C-16.3,170.11-16.63,168.5-18,168.05Zm3.8,3.8c-1.39.62-2,2.25-3.31,3.12-1.09.73-2.7.91-2.93,2.21,2.38,1.07,3.4-2,5.74-2.07a1.76,1.76,0,0,1,.88-.89c1.32-.5,3.07-.54,3.74-1.7C-10.65,171.29-12.76,172.07-14.21,171.85Z" fill="#13d0e0" fill-rule="evenodd"/>
        <path d="M370.95,160.09c-1.81.3-3.6,2.05-6.08,2.21-.56-.57-.1-2-.36-2.84-2.54-.76-3.31,1.18-4.92,2.26-.78.52-2,1.09-2.91,1.74-1.86,1.25-2.89,2.44-5.7,1.12-.69-.32-1.25-1.22-2.1-1.35-1.09-.17-2.28.68-3.69.76-2.69.14-5.51-.56-8.45-.58-2.48,1.08-3.9,3.7-6.37,4.87-1.63.76-3.77.8-4.61,2.6.69,1.39,1.69,0,2.66-.2.13.6.06,1.36.42,1.75,2,.35,4.93-1.76,5.6,1.06a6.77,6.77,0,0,1,3.17-.47,4.05,4.05,0,0,0,.61,1.29A5.69,5.69,0,0,1,336.8,176a4.43,4.43,0,0,1,1.79,4,6.09,6.09,0,0,1-.05,1.1c-.25.6-1.17.84-1.4,1.5-.5,1.42.41,3,0,4.38-4.77-.92-.46-8.84-2.57-11.87-.45.4-.1,1.37-.09,1.87-.49,1.61-1.87,3.06-1.73,4.78-1.17,2.78-5.5,5.43-8,7.6-1.54,1.32-3.1,3.85-5.71,1.3-1.44,1.68-4.25,1.92-4.55,4.79a17.55,17.55,0,0,1-2.37,1,6.68,6.68,0,0,0,2.27,4.5c0,2.78-2,6.12-4.27,5.9a2.33,2.33,0,0,1-1.75-1.5c-.12-1.08,1.45-1.87,1.49-3.21,0-1-.43-1.17-1.05-2.25-1,0-1.21.94-2.21,1-.29-1.93,1.09-3.77-.23-5.34-1.57.55-2.46,1.82-4.41,2-.68-1.23.41-2.65.68-3.89-1.57,0-2.45,1.9-3.94,2.63-1,.47-2.24.32-2.57,1.44.78,2.6,3.8,3,6.53,2.52,1.59,2.58-2.27,3.33-4,4,1.44,2.06,1.67,3.78,3.2,5.81.87,1.15-.65,3.91.41,5.34-1,2.76-4.55,4.74-6.65,6.89-1,1-1.65,2.34-2.81,3.15a13.27,13.27,0,0,1-6.58,2,17.91,17.91,0,0,0-2-.25c-2.26.35-2,3.22-.87,4.36-1.08.91-1.12,3.26-2.82,3.15a1.5,1.5,0,0,1-1.41-1.48c-.32-2,3.5-6,.64-6.4-1.09-.15-2.08,1.62-2.24,1.78a15.61,15.61,0,0,0-2.08,1.78c.45.14,0,.94,0,.78.24,2,2.47,2.9,3.42,4.71.48.9.36,1.59.89,2.24s1.82,1.58,1.83,3.07c-.9,1.64-.32,3.54-1.4,4.79s-2.71.61-4.05,1.53a13.67,13.67,0,0,1-3.42,5.47c-1.13-4.72-2.11-9.57-6.41-11.59a31.79,31.79,0,0,1-1.76,5.56c-3.08-2-1.63-8.48-2.39-12-3.87,0-3.21,4.67-5.62,6.15-.79-3,.72-5.94.42-8.44s-2.39-3.91-3.37-6c-.41-.87-.17-1.73-1.05-2.41-1,.27-1.49,1.08-2.24,1.62-1.8.2-3.87-.38-5.16.38-.8.45-1,1.42-1.6,2.11s-1.66,1.13-2.41,1.92c-1,1.09-1.67,2.38-2.65,3-1.5,1-3,.81-3.78,2.64-.09,2.09.57,4.33.18,6.44-.26,1.46-1.92,3-2.7,4.25-1,1.62-1.55,3.36-3,3.77-1.2-1.32-.49-2.82-1-4.28-1.57-5-5.94-10.11-5.83-16.74,0-1.62.54-3.24.42-5.15-1.07,0-1.66,2-3.08,1.89-2.3-.24-1-3-1.76-4.79-.5-1.11-1.67-.93-2.76-1.38-.88-1-1.23-2.44-2.5-3.11-1,.17-1.47,1.49-3.07,1.59-2.21.12-6.88-.25-8.26-.88-1.92-.89-1.74-3.1-3.3-3.76-1.32,0-1.85,1.31-3,1.26-.68,0-1.89-1.05-2.74-1.7a27.53,27.53,0,0,1-2.56-1.84c-1.34-1.38-1.14-3.6-2.28-4.35-3.11.31-2.06,2.56-1.05,4.34.15.25,0,.63.13.8.42.63,1.38,1.1,1.74,1.81.54,1,.8,2.61,2,2.92-.64.24.11.58.29,1,.13.59.08,1.33.58,1.59,2.76-.31,4-2.18,5.82-3.49a1.53,1.53,0,0,1,.57,1.92c1.65,1.33,5.42,1.68,5.45,4,0,.77-1,1.52-1.45,2.29a31.86,31.86,0,0,1-3.75,5.46c-1.69,1.63-3.8,2.36-6.15,3.3-.79.3-1.43,1-2.22,1.3-1.24.41-2.46.35-3.53.76-2.8,1.09-5.63,3.29-9.61,3-1.82-2.58-1.27-5.67-1.92-8.25-1.09-4.33-5.94-6.33-5.73-12-2.28-1.68-2.26-5.35-3.77-7.71-1.11-.06-2.15,0-2.68.51-.13,1.71,1.71,3,1.92,4.95a2.63,2.63,0,0,0,1,2.56c.84,2.05.24,5.55.28,8,1,1.95,3.76,2.46,4.76,4.46-.45,2.17,2.47,3.69,3.72,5.35-.29.81,1,2.17,1.68,3.06.15,1.12-.38,2.28-.3,2.8.64,1.62,3.07,1,4.12.67,2.61-.76,5.42-2.8,8.75-2.54.33,1.49-.36,3-.71,4.36-.55,2.11-1.8,3.59-2.92,5.34S182,252.09,182,254c-1,1.9-2.8,2.39-4.65,3.38-4.22,2.25-5.63,7.5-9.63,10,0,1.43-1,2.72-1,4,0,1,1.15,2.39,1.13,4a4.21,4.21,0,0,0,1.86,2.75,3.37,3.37,0,0,1-.79,2.63c1.94,6.43-3,8.17-6.18,11-1.46,1.26-3.36,3.67-3.38,4.69,0,.8.92,1.91,1,3s-.55,1.81.2,2.68c-1.14,1.27-3.78,1-5.24,1.93-1,1.45.9,2.39,1,3.5.13,1.73-3.13,4-4.25,5.28s-2.65,3.67-4.55,4.8-4.48.44-6.5.46c-2.38,0-4.33,1.47-5.92,2.38-4.76-.51-2.78-6.12-4.51-9.79-.76-1.63-2.8-3.54-2.9-5-.14-1.87,1.6-3.48,1.41-5.1-.13-1.07-1.27-2.41-2-3.38-2.44-3.28-6.39-11.38-2.52-16.59.62-.83,1.87-1.11,2.11-2.25s-1-2.54-1.15-3.8.36-2.8.2-4.07a36.3,36.3,0,0,0-1.44-4.61c-1-3.21-1.85-4.42-4.37-5.86.73-1.72.5-4.26,1.29-6.06.34-.79,1.38-1.44,1.43-2.12.11-1.51-1.69-1.81-2.68-2.95-1.22.51-2.35,1.8-3.72,1.54s-1.18-1.42-2-3.07a5.06,5.06,0,0,0-6-2.34c-1,.36-2.54,2.56-3.8,3-2,.62-6.45-1.55-9,0-.7.44-.45,1.17-1.42,1.81-1.7-1.26-3.34-2.25-4.61-4.15s-1.45-5-2.82-6.88c-1.5-2-5.57-1.72-6.46-3.92-.72-1.82,1.15-4.32-.9-5.37a17.81,17.81,0,0,0,3-4.4c1-2.57-1.15-5.49-.76-8,.19-1.33,1.55-3.08,2.22-4.75.58-1.45,1.13-3.41,1.87-4.29,1.65-2,5-1.87,6.81-3.43.58-2.8.72-5.64,2.68-7.24.53-.42,1.49-.81,2.4-1.45a9.89,9.89,0,0,1,2.23-1.46c1.25-.33,2.57.44,4,.36,1.59-.1,3.45-1.3,5.08-1.95a17.58,17.58,0,0,1,5.39-1.62c1.69-.08,4.49.49,7,.34,2-.13,3.34-.91,5-.07s1.84,2.75,1.44,4.62c-.73.27-2.12-.13-2.51.5-.38,1.05,1.06,1.76,2.05,2.14,0,1.31,3,2.28,5.19,2.6a9.36,9.36,0,0,0,4.84,2.75c2.26,3.83,4.77-1.59,6.31-3.29,1.1-.13,1.68.85,2.76,1.23,2.36.83,5.45.12,7.91,1-.55,2.11-3.1,2.14-3.85,4,1.59.55,2-1.32,2.91-2.06,1.38-1,3.17-1,5.23-1.46a2.38,2.38,0,0,1,1.26,1.32,7.18,7.18,0,0,1,2.17-.21c2-2.23,4-5.33,3.62-9.54-2,.21-5.25,1.37-7.64-.05-3.18,1.3-4.86-2-7.16-2.86-.39-1.76.65-4.75-.71-5.69-1.61.37-2.42,1.55-3.92,2,.75,1.21,2.27,2.23,1.81,3.54-.27.8-1.8,1.33-2.75,2.05s-1.92,1.78-2.91,1.74c-.73-2.15-.1-4.32-.7-6.15a17.84,17.84,0,0,0-1.23-1.94c-.53-1-.59-2-1.2-2.73a33.33,33.33,0,0,0-4.45-4c-1.61-1.36-2.78-3.55-4.81-3.69-.95.5.26,1.63-.1,2,1.64,1.06,2.25,2.5,3.48,3.62.61.55,1.54.77,2.26,1.36.07.05-.44.2-.35.29.67.83,2.58,1.53,3.54,2.21-.31.56-1.29.4-2.17.37-.13,1.65.23,3,.09,4.71-2.33-.68-1.77-4-3.39-5.34-1.23-1-3.3-1.24-4.23-1.77a8.25,8.25,0,0,1-2.54-2.32c-.65-1-.77-2.74-2.53-2.79-1.5,0-2.5,1.7-3.91,1.84-1.69.18-2.19-.84-4.11-1-1,.71-.91,2.66-1.83,3.52-2.6,0-3.75,1.47-5,2.88a10.37,10.37,0,0,0,.25,1.74c-1.65,1.74-4.26,4-7.62,2.91a11,11,0,0,0-1.59,2.12c-1.07-1.31-1.52-3.52-4.52-2.73-.52-1.11-2.05-2-2-3.39,0-.95,1.25-1.56,1.45-2.59.37-2-1.28-4.41.45-5.93,3.38-.87,7.94,1.05,11.11.38.86-1.36,1.72-3.29,1.24-4.79-.68-2.11-3.91-2.09-5.48-3.41.47-1,1.66-.6,2.53-.81,2.24-.56,4.65-1.57,7.39-1.52.77-.46.76-1.72,1.12-2.61,1.13-.9,1.75-.3,2.85-.64,2.92-.93,3.45-5.06,8.28-2.88-.67-1.14-2-3.49-.57-5.21.76-.94,2.29-1.08,3.85-.75.51,1.61-1,2.88,0,4.23,4.47,1.42,10.46-.59,14.89,1,.45-2.38.53-5.19,2.59-5.51,1.45-.22,2.87,1.61,4.15.2-.16-1.12-1.48-1.24-2.07-2,2.16-1.42,7,0,9.84-.78,0-1.19-.74-1.67-1.4-2.26-3.46-.15-6.7-.09-9,1-.93-1.47-2.67-3.6-1.73-5.41s6.18-2.35,6.71-4.69c-1.32-.83-3.81-.48-5.62-.44a4.5,4.5,0,0,1-3.23,4.86c-2,.64-4.62.26-4.46,2.76.46.7,1.77.69,2.43,1.21.83,2.56-2.4,3.17-3.23,5-.24.71.43.63.27,1.27-1.59,1.86-5.44,2.22-8.41,2.1.16-2.37-.74-4.11-1.19-6.33-1.49.16-1.92,1.39-2.62,2.38a5.77,5.77,0,0,1-4.13-.36c-1.26-.77-1.22-2-1.48-3.83-.12-.94-.77-2-.7-2.7.18-1.55,3.56-4.69,5.41-5.38,2.54-.95,4.58-1,6.76-2.33a12.3,12.3,0,0,0,2.59-1.91c.71-.75,1.11-1.89,2-2.58,1.26-1,4.46-2.24,6.63-3.13,2.41-1,5-2.24,7.24-2.31,2.39-.06,4.36,1.35,6.56,1.89,3,.74,5.55,2.19,7.82,3.05,1.46,2.72,5.76,1.2,9.05,1.69,2.54.38,3.48,2.34,5,3.54a13.82,13.82,0,0,1-12.15.82c-.28.59,1,1.1,1.41,1.63s-.16,1.94.39,2.37c1.38.12,1.91-.63,2.7-1.12,1.29.44,2.54,2.12,4.11,1a6.48,6.48,0,0,1,.27-2.18c1.65-.42,3.07-1.08,4.73-1.49.83.33.58,1.6,1.39,2,1.35-1.27-.66-3.58.1-5.33.89-.42,3.64-.75,4.13.36.24.95-1.26,2.25-.83,3.41,1.42-.17,1.44-1.8,2.6-2.23,4.51,1.18,6.8-2.13,10.46,0,.78-1.37,4.12-.09,5.36-1,.73.27,1.53,1.07,2.27,1,1.24,0,2-1.84,3.1-2.2,2.53-.8,4.09.79,5.58,1.21.86.25,1.66.29,2.47.59,1.55.59,2.1,1.23,4.11.83.25-1.78-6.12-4-1.56-5.41,2-.63,2.87-3.79,4.83-3.85,1.66,0,2.37,2,4,2.55a11.91,11.91,0,0,0-.2,7.52c-1,1.86-3.42,2.25-4.19,4.34a5.79,5.79,0,0,0,3.53-.93c1.64-1.06,2.64-4.05,4.52-4,1.46,0,2.44,3.11,4.76,1.17-.19-1-.65-1.73-.87-2.7-2.62-.72-4.41.76-6,1.59.37-3.07-1.11-6.47,2-7.74.43,1-.61,3,.8,3.81a4.43,4.43,0,0,0,1.34-.25c.81-1,.39-2.39,1.32-3.08,1.74-1.28,3.43.66,4.05,1.93a27.63,27.63,0,0,1,3.75,1.45c.09,1.14.05,2.81,1.37,2.57,1.14-.22.8-2,.31-2.82-1-1.67-5-2.05-5-3.84,2.05-1,3.94.14,6,0,3.92-.31,6-3.9,11.28-3.21a12.15,12.15,0,0,0,1.64.4c2.43,0,4.07-2.15,5.64-3.33,1.46,4.31,8.5,2.71,10.79.37-.07.41.32.42.63.5a6.62,6.62,0,0,1,5.88,1.87c1.82-1,11.75-.53,12.22,1.37.42,1.72-1.9,2-2.32,3.33,3,1.25,7.16.41,10.22,1.59,1.47.58,2,1.65,4.09,1,.63-.19,1.09-.79,1.71-1,2.66-.94,5.69-.25,9,0,1.1,2.08-.22,5.54,2.88,5.62,1.36,0,1.93-1.33,3.08-1.89.68-.24.84,1,1.6,1.17.1,0,3.2-.05,4-.11s1.66-.64,2.37-.67,1.26.33,1.65.24c1.77-.41,2.42-2.75,2.21-4.44-.9-1.33-4.4-.43-5.23-1.82a1.85,1.85,0,0,1,1.09-2c.91-.13.49.87,1.29.84,3.88,0,9.07-.72,10.84,2.41a15.2,15.2,0,0,1-4.87,1c.1,1.43,3.08,1.66,4,2.87,1.46.44,3.53-.32,5.15-.06s3,2.48,4.82,3.22c3.24,1.33,8.24-.23,11.27.55,1.64.42,3,2.68,4.5,3,1.23.3,3.24-.33,5.16-.37,2.4,0,5.41-.07,6.94.81.85.49.66,1.78,2.23,2,1.1-.71,1.28-2.39,2.47-3,1.42-.27,2.42,1.12,3.75,1.44,2.29.54,4.71-.23,7.12.5a5.17,5.17,0,0,1,2.21,2.3c-1,1.73-.55,3.68-.11,5.49-.58.87-1.78,1.1-2.89,1.42-.07,1.57,1.58,2.13,2.32,3.41-.66,1.2-2,.08-3.66.13a21,21,0,0,0-5.38,1.15c-2.21.71-4.17,2.24-7.25,2.31s-6.79-1.21-8.79-.11c-1,.53-1.32,2.08-2.13,2.87.81,2.15-.67,4.32-1.45,5.88-2.23.18-3,1.88-4.32,3.23-2.1,2.19-5.42,3.74-6.94,6.25-.34-2,1.51-3.13,1.73-4.77.34-2.65-1.86-3.72-1.35-6.49a8,8,0,0,1,3-4.09c1.42-1,3.8-1.37,5.76-2.53a54.66,54.66,0,0,0,5.5-3.81Zm-211.29-8.75c0,1.49,2.41,2.32,3.9,1.6C163.78,151,160.65,149.61,159.66,151.34Zm34.92,26.31a11,11,0,0,0-2.78-1.08c-1.63.52-2.19,2.08-3.92,2.16-1.19,0-1.68-.81-2.79-.61-.92.16-1.74,1.47-2,2.42-.42,1.92.47,2.51,1.47,3.83a19.32,19.32,0,0,0,1.72,2.44c1.1.92,2.9.75,3.22,2a3.85,3.85,0,0,1-3.59,2.17,5,5,0,0,0-.32,3c2.2,1.38,5.94,3.37,9.2,2a10.86,10.86,0,0,0-1.51-6.49c.12-.93,1.14-.9,1.26-1.83-1.95-.83-2.7-2.69-3.78-4.25-.5-.08-1.3.11-1.3-.38.23-1.72,1.1-2.79,2.45-2.7.62,0,.88.66,1.62.87a3.63,3.63,0,0,0,2.84-.33C196.07,179.57,195,178.86,194.57,177.65Zm-38.34,2.83c-1.15,1.25-2.58,1.48-2.65,3.32.08.53.78.54.59,1.28s-.87,1.77-.62,2.48c1.55-1.15,3.75-.76,6.18-.8,1-1.92,5.22-1.91,7.35-.74,0,.21-.3.13-.35.29,1.64,1.56,6.18,1.66,8.59.9.79-2.76-1.72-3.76-3.4-5.19-1.44-1.21-3.08-1.91-4-2.86.32-.93,1.88-.55,1.92-1.79a3.7,3.7,0,0,0-3.18.47c-.2,1.56-1.84,2.86-3.81,3.11-1-1.28-1.36-3.12-2.61-4.21C157.49,176.64,157.64,178.95,156.24,180.48Zm1.08,83.44a5,5,0,0,0,2.55-4.73C156.48,257.19,154.91,262.61,157.31,263.92Z" fill="#13d0e0" fill-rule="evenodd"/>
        <path d="M221.82,126.31c-.86,1.21-2.3,3.26-4.48,3.4a10.08,10.08,0,0,1-1.81-.41c-6-.85-11.85.18-14.31,4,.5.83,1.45,1.26,1.72,2.28-2.07,3.71-6.65-.55-9.41-1.24.51-3,5.43-3.45,7.88-5.11,1-.64,1.69-1.78,2.59-2.06s2.79-.18,4.51-.42a31.64,31.64,0,0,1,4.18-.57c1.91.09,3.31.81,5,.39C219,126.25,220.06,124.69,221.82,126.31Z" fill="#13d0e0" fill-rule="evenodd"/>
        <path d="M87.48,140a3.47,3.47,0,0,1-1.77,2.27c-.53.18-1.27-.06-1.83.06-1.8.42-3.49,2.34-5.74,1.76-.75-.39-.8-1.4-1.57-1.8l-2.81-.14c-.56-1-1.67-1.78-1.51-3.05.3-2.35,3.85-1,5.14.1C81.13,139.23,85,137.63,87.48,140Z" fill="#13d0e0" fill-rule="evenodd"/>
        <path d="M110,154.55c-.27,1.46-1.67,1.77-2.3,2.87.86,3.61,5.63,4.61,5.73,8.59-1,1-1.37,1.76-2.59,1.91-1.53.18-3.15-1.14-4.59-1-1.11.11-1.22,1.24-2.37,1-.09-.63.2-.88.23-1.4a5.69,5.69,0,0,1-3.31-.32c1-2.28,3.16-3.29,4.89-4.78-2.8-1.71-6.89-3.09-6.12-7.35.71-.33,1.33.09,2.15.11,1.43-1.79,3.19-1.61,5.85-.82C107.82,153.83,109.75,153.64,110,154.55Z" fill="#13d0e0" fill-rule="evenodd"/>
        <path d="M95,162.76c-.21-.77-.67-1.79-.2-2.67,2.17,0,4.07-3.4,6-.8a4.33,4.33,0,0,1,.68,3.17c-.63,2.24-7.62,5.21-7.39,1.67C94.14,163.34,94.59,163.63,95,162.76Z" fill="#13d0e0" fill-rule="evenodd"/>
        <path d="M337,189.93c1.82-.26,3.89.44,4.22,1.94-.28.86-1,.73-2.37.82-3.16.22-7.46,2.08-8.46-.1.35-1.15,1.72-1.28,2.74-1.74C333,188.13,336.71,187.61,337,189.93Z" fill="#13d0e0" fill-rule="evenodd"/>
        <path d="M332.44,193.79c-.15,1.42,1.67,3,1.74,5.1-.3.73-1.4.63-1.72,1.33a20.08,20.08,0,0,1-.19,3.91,37.56,37.56,0,0,1-6.11,2.68c-.42,1.34-2.73,2.33-3.7.76-.77,1.76-2.51,2.29-4.53,1.19-.81.28-.38,1.65-.6,2.16-2.37,2-3.86-1.32-3.81-3.64,1.84-.93,3.74-1.81,5-3.36,1.83.1,3,.94,4.45.68,1.7-.29,3-2.37,4.93-2.26,1.89-.76,2.2-5.11,2.85-7.4A1.63,1.63,0,0,1,332.44,193.79Z" fill="#13d0e0" fill-rule="evenodd"/>
        <path d="M124.9,186.31c-.28,4.86-5.67-.32-1.27-1.31C124.18,185.34,124.36,186,124.9,186.31Z" fill="#13d0e0" fill-rule="evenodd"/>
        <path d="M114.77,186.45c0,.86-.73,1-1.7.85C113,186.39,114.37,185.46,114.77,186.45Z" fill="#13d0e0" fill-rule="evenodd"/>
        <path d="M134.1,191.94c-.93,3.39-4.51-.33-5.24-1.67C131,189.93,133.54,190.46,134.1,191.94Z" fill="#13d0e0" fill-rule="evenodd"/>
        <path d="M301,222.19c0,2.06-.39,4.62-2.9,4.88C297.41,224.94,298.63,222.2,301,222.19Z" fill="#13d0e0" fill-rule="evenodd"/>
        <path d="M3.86,219.9A1.56,1.56,0,0,1,2,221.07a1.86,1.86,0,0,1-.06-2.36C3.11,218.29,3.17,219.49,3.86,219.9Z" fill="#13d0e0" fill-rule="evenodd"/>
        <path d="M302.13,236.5c-1.13,1.08-3.21,1.94-2.52,4,1.5-.27,3,.45,4.61.85-.25,1.78-2,1-3.23,1.57-1.74.84-2.82,4.1-5,4,.59-1.78,2.21-2.51,3.34-3.75-.68-2-3.48-2.84-3.08-5,.34-1.86,3.94-1.82,3.38-4.7C301.29,233.74,302.38,234.54,302.13,236.5Z" fill="#13d0e0" fill-rule="evenodd"/>
        <path d="M303.93,247.1c-.76-1.94,1.79-3.58,2.75-1.91C307.51,246.63,305.61,248.13,303.93,247.1Z" fill="#13d0e0" fill-rule="evenodd"/>
        <path d="M303.65,249.59a20.68,20.68,0,0,1-4-.5c-.41-1.43.62-3.44,2.45-2.55A11.19,11.19,0,0,1,303.65,249.59Z" fill="#13d0e0" fill-rule="evenodd"/>
        <path d="M271.94,263.09c-.29.25-.76.3-1,.57-1.54-1.16-3-1.85-4-3.33-2.13-3.14-1.42-8.26-4.65-10.09-.26-1.14-.32-2.38.47-3.12,1.88.51,2.35,2.2,3.5,3.31-.05.16-.33.09-.35.3a5.61,5.61,0,0,0,2.21,2.3C269.75,256.1,270.39,259.68,271.94,263.09Z" fill="#13d0e0" fill-rule="evenodd"/>
        <path d="M234.39,246.36c1.22.62,1.24,2.58,1.32,3.68.09,1.28-.44,5.06-2.23,4.75s-.71-7.75.58-8.44Z" fill="#13d0e0" fill-rule="evenodd"/>
        <path d="M305.29,250c1.13.48,1.47,1.64,2.21,2.46-.69,1.86-1.2,3.9-4,3.56a12.6,12.6,0,0,1-.91-1.77c-.94-.54-2.58-.49-3.77-.81.22-2.11,2.94-2.89,4.56-1.67C304.36,251.54,304.59,250.52,305.29,250Z" fill="#13d0e0" fill-rule="evenodd"/>
        <path d="M292.48,253.9c-.25,1.25.87,2.65.34,3.15.45.38,1.28.11,1.82.09-.2,1.35-1.76,1-2.09,2.09-.46,1.49,1.17,3.37,1.26,4.92-.48,2.26-2.68,2.23-3.35,3.91-.47,1.2.31,3.32-.72,4.51-1.82.49-3.27-.31-4.78-.54a19.66,19.66,0,0,1-2-.1c-3.64-1.1-4.73-6.3-4-10.07,1,.19,1.42.88,2.26,1.21.71-.46.61-1.6,1.26-2.13s1.84-.41,2.54-.82c.88-.51,1-1.85,1.94-2.41,1.27-.77,2.07.07,3.36-.62-.06-.66-.43-1-.41-1.75C290.52,254.61,291,253.69,292.48,253.9Z" fill="#13d0e0" fill-rule="evenodd"/>
        <path d="M259.7,255.13c0,.17-.33.09-.34.3a7.06,7.06,0,0,1,2.39,2c.7-.14.63.36,1.15.38a18,18,0,0,0,2.21,2.31c.17.33-.13.59.29.95,1.32,1.83,3.41,2.53,4.77,4.15,1,1.21,1.46,3.3,4.15,3.49.75,1.5-1.06,2.34-1.34,3.7s.51,3-.86,3.87c-1.12,0-1-1.1-1.58-1.65-1.39-1.22-3.78-1.33-5.36-2.45-1.37-2.56-.77-5.46-1.44-8.06-1-3.89-5.75-5.5-6.68-9.27C257.93,254.35,258.8,254.85,259.7,255.13Z" fill="#13d0e0" fill-rule="evenodd"/>
        <path d="M310.13,263.07c1.17,1.68.18,5.14-2.08,5.23A4.46,4.46,0,0,1,310.13,263.07Z" fill="#13d0e0" fill-rule="evenodd"/>
        <path d="M304.42,264.35c.53,2.38-10.57,3.38-7.81.09C299.55,265.33,301.28,264.1,304.42,264.35Z" fill="#13d0e0" fill-rule="evenodd"/>
        <path d="M315.57,267.26c.7.41.13,1.26.91,1.77a8.94,8.94,0,0,1,3.93,1.13,13.6,13.6,0,0,1,7.13.35,16.08,16.08,0,0,1,2.56,1.85c1.07.7,3.28,1.16,2.75,1.54,2.15,1.3,3.22,3.54,5.41,4.81-.1,4,4.9,4.88,4.38,9-3.75,0-5.7-2.91-6.68-5.81-3.56-1.66-4.07,4-6.17,3.93-1.67,0-2-2.19-2.65-3.42-1.33-.18-2.24.08-3.49,0,0-1.25.93-1.56,2.08-1.63-.67-3.13-3.09-4.75-6.73-5.34-.34-.25-.2-.92-.6-1.13-1.29-.2-2.47.48-3.49,0-.07-1.83,1.29-2.17,1.67-3.52-.78-.93-2.87-.73-3.91-1.45A3.36,3.36,0,0,1,315.57,267.26Z" fill="#13d0e0" fill-rule="evenodd"/>
        <path d="M301.23,268.44c.08.28.06.65.29.8-.47.79-2,.86-3.17.48-.24,1,1.45,1.53,2,2.28-.55.91,1,2.39.8,4-2.82.53-3.4-2.07-3.61-4.25-1.72,0-1.76,1.78-3.73,1.54-.49-1.71,1-3.92,1.44-5.72C296.83,268.77,299.35,267.51,301.23,268.44Z" fill="#13d0e0" fill-rule="evenodd"/>
        <path d="M274.32,275.44c.32.38.3,1.26.91,1.75a10.16,10.16,0,0,1,3.76,1,7.26,7.26,0,0,0,1.53-.56c2.24,1,6.55.29,6.31,3.44-2.56.07-7,.14-7.86-2.27-1.8.92-6.17.75-6.41-1.41A1.62,1.62,0,0,1,274.32,275.44Z" fill="#13d0e0" fill-rule="evenodd"/>
        <path d="M306,282c-.45,1.71-3.62,2.62-5.29,3C300.69,282.72,304.2,278.9,306,282Z" fill="#13d0e0" fill-rule="evenodd"/>
        <path d="M295.83,283.86c-.38.41-.59.72-1,.72C291.79,284.62,295.3,280.25,295.83,283.86Z" fill="#13d0e0" fill-rule="evenodd"/>
        <path d="M330.24,286.63c1,.85.41,2.54,1.14,3.81s1.87,2.55,2.47,3.72c.38.77,1.25,1.34,1.57,2,1,2,.08,5.31,2,6.84,1.47,1.17,3.55.87,5,2,.7,1.45.33,2.94.62,4.42s1.9,2.54,2.28,4.35c0,.15-.24.27-.19.46.24.88.93,1.4,1.39,2.26.7,1.32.75,3.56,1.58,4.94s-.82,4-1.57,4.78c-1.33,1.46-3.48,2.49-4.69,4a20.82,20.82,0,0,1-2.58,5.52,16.72,16.72,0,0,0-5.42,2.25c-1.18-.29-1.4-1.41-2.93-1.39-.84.27-.77,1.49-1.89,1.46a7.21,7.21,0,0,0-4.34-2.88c-.07-2,.09-4.27-1.93-4.63.07-.81-.63-1-.4-1.91-.71,0-.41,1.1-1.37.88a13.07,13.07,0,0,1,0-3.13c-2.57.07-2.38,3.87-5.45,2.86.19-1.07.9-1.71.79-2.62-.28-2.27-4.7-1.7-5.12-4-4.22-.16-5.91,1.89-10,1.08-.85,1.36-2,3.24-1.91,5.08-2.09.22-3.6-1.45-5.42-1.36-2.16.1-3.94,3.13-7.23,2-1.05-1.25-2.21-1.63-2-3.07s2.51-1.67,2.64-3c.11-1.09-1.35-1.55-1.84-3.07-.22-.7.07-1.5-.06-2-.48-1.88-3.09-3.07-1.74-5.42-.14.27.52-.83.53-.6,0-1.23-2.64-2.07-2.84-3-.24-1.1,1.21-2.91,1.83-3.51,1.51-1.47,3.91-2.42,5.67-3.8,3.49.67,4.64-1.09,7.68-.88.11-2.08-.61-4.77.32-6.57,1.74-.43,2.94.74,4.78.71,1.15-1.91,1.83-4.54,4-4.2,1.53.24,1.25,2.57,2.7,2.49,1.64-.12,1.39-3.36,3-3.94l.08-1.56c.76-.47,1.21,1.84,2.4,2,.45-1.47,0-2.32,1.28-2.44.51-.05.42,1.39,1.41,1.64,1.55,0,3.72-.62,4.8.39.69,2.09-1.51,2.63-1.38,4.32s3.49,2.11,5,3.54c.78.75.83,1.78,1.89,2a7.7,7.7,0,0,0,2.61-5.67c0-.61-.51-1.15-.58-1.76A8.51,8.51,0,0,1,330.24,286.63Z" fill="#13d0e0" fill-rule="evenodd"/>
        <path d="M182.29,282.86c2.84-.77,2.52,4,2.2,6.06-.24,1.51-1.13,2.44-1.5,3.53a35,35,0,0,1-.83,3.42c-.86,2-1.62,3.78-2.46,6.15-.57,1.62-1.06,3.65-2.86,4.1a4.14,4.14,0,0,1-3.12-.63c-.5-.57-.17-1.6-.21-2.67-.05-1.7-.85-3.07-.61-4.42.14-.82,1-1.67,1.11-2.3.48-2.23-.79-3.6-.59-5,.3-2.09,2-1.75,3.45-2.33,2.7-1.09,3.62-4.34,5.09-5.72C182.08,282.88,182.08,282.92,182.29,282.86Z" fill="#13d0e0" fill-rule="evenodd"/>
        <path d="M389.72,299.42c.23,2-1.81,3-3.8,3.26A5.7,5.7,0,0,1,389.72,299.42Z" fill="#13d0e0" fill-rule="evenodd"/>
        <path d="M364.48,306.48c2,.27,5.33,1.3,3.48,3.46C365.58,309.83,365.38,307.85,364.48,306.48Z" fill="#13d0e0" fill-rule="evenodd"/>
        <path d="M379.3,332.6c1.31,1.79.53,4.44,3.06,5.17,1.11,0,2.51-.43,2.63.75s-1.21,1.1-2.1,2.25c-1.09,1.41-1,4-3.3,3-.1-1.14.63-1.41.78-2.3-.64-.7-2.59-.28-3.11-1.1.11-1.08,1.33-1,1.75-1.79.61-2.67-1.55-3.75-1-5.85C378.23,332.46,378.83,332.59,379.3,332.6Z" fill="#13d0e0" fill-rule="evenodd"/>
        <path d="M370.33,353c-1.75-.43-3.91-.23-4.4-1.47-1.24-3.14,7.64-4.65,8.18-7.75a8.62,8.62,0,0,1,2.21-1.14c0-.26.17-.26.18-.46,5.5,2.24-2.07,6.78-3.9,8.43C371.76,351.39,371.22,352.7,370.33,353Z" fill="#13d0e0" fill-rule="evenodd"/>
        <path d="M337.56,340.59c0,2.35-1.45,3.21-2.23,4.75-.85.24-2.07.59-2.82,0,.83-1.92-1.87-2.33-1.13-4.13.94-.27,1.73.54,2.62.76C335.34,341.68,335.92,340.58,337.56,340.59Z" fill="#13d0e0" fill-rule="evenodd"/>
      </g>
    </g>
    <text transform="translate(112.49 278.5)" font-size="157.83" fill="#fff" font-family="SpinCycle, Spin Cycle">WE</text>
    <g>
      <polygon points="1136.83 313.71 1097.95 328.24 1097.95 344.73 1119.6 337.03 1132.58 365.41 1145.83 359.62 1133.73 331.32 1147.01 325.49 1136.83 313.71" fill="#05a9c5"/>
      <polygon points="1127.09 302.44 1097.95 268.75 1097.95 313.34 1127.09 302.44" fill="#05a9c5"/>
    </g>
  </g>
</svg>
