<?xml version="1.0" encoding="UTF-8"?>
<svg width="308px" height="51px" viewBox="0 0 308 51" version="1.1" xmlns="http://www.w3.org/2000/svg" xmlns:xlink="http://www.w3.org/1999/xlink">
    <!-- Generator: Sketch 52.5 (67469) - http://www.bohemiancoding.com/sketch -->
    <title>logo_white</title>
    <desc>Created with Sketch.</desc>
    <g id="Welcome" stroke="none" stroke-width="1" fill="none" fill-rule="evenodd">
        <g id="Jewel-Hero-Homepage-F1" transform="translate(-566.000000, -48.000000)" fill="#284966" fill-rule="nonzero">
            <g id="Banner">
                <g id="logo_white" transform="translate(566.000000, 48.000000)">
                    <path d="M156.760377,0 C156.90566,0 156.90566,0 156.760377,0 L179.715094,0 C179.715094,0 179.715094,0 179.860377,0 C180.00566,0 180.00566,0 180.00566,0 C180.150943,0 180.150943,0 180.150943,0.147398844 L192.790566,10.6127168 C192.935849,10.6127168 192.935849,10.7601156 192.935849,10.7601156 C193.081132,10.9075145 193.081132,11.2023121 193.081132,11.349711 C193.081132,11.4971098 193.081132,11.4971098 193.081132,11.6445087 C193.081132,11.7919075 193.081132,11.7919075 192.935849,11.7919075 L159.956604,50.5578035 C159.520755,51.1473988 158.358491,51.1473988 157.922642,50.5578035 L125.233962,11.9393064 C125.233962,11.7919075 125.088679,11.7919075 125.088679,11.7919075 C125.088679,11.7919075 125.088679,11.6445087 125.088679,11.4971098 C125.088679,11.349711 125.088679,11.0549133 125.233962,10.9075145 C125.233962,10.7601156 125.379245,10.7601156 125.379245,10.7601156 L138.018868,0.147398844 C138.018868,0.147398844 138.018868,0.147398844 138.164151,0.147398844 C138.164151,0.147398844 138.309434,0.147398844 138.309434,0 C138.454717,0 138.454717,0 138.454717,0 L156.760377,0 Z M188.432075,9.13872832 L164.169811,37.5867052 L164.315094,37.734104 L163.588679,38.3236994 L156.760377,46.283237 L159.230189,49.2312139 L191.192453,11.4971098 L188.432075,9.13872832 Z M127.267925,11.4971098 L155.598113,44.9566474 L158.067925,42.0086705 L130.028302,9.13872832 C130.173585,9.13872832 127.267925,11.4971098 127.267925,11.4971098 Z M131.481132,7.95953757 L159.230189,40.5346821 L161.7,37.5867052 L134.386792,5.60115607 L131.481132,7.95953757 Z M16.1264151,31.2485549 C16.1264151,33.4595376 15.254717,35.3757225 13.8018868,36.9971098 C12.2037736,38.6184971 10.3150943,39.3554913 8.13584906,39.3554913 C5.95660377,39.3554913 3.92264151,38.6184971 2.46981132,36.9971098 C0.871698113,35.3757225 0,33.4595376 0,31.2485549 L3.48679245,31.2485549 C3.48679245,32.5751445 3.92264151,33.6069364 4.79433962,34.4913295 C5.81132075,35.3757225 6.82830189,35.6705202 7.99056604,35.6705202 C9.15283019,35.6705202 10.3150943,35.2283237 11.0415094,34.3439306 C11.9132075,33.4595376 12.3490566,32.4277457 12.3490566,31.2485549 L12.3490566,10.0231214 L15.9811321,10.0231214 L16.1264151,31.2485549 Z M308,24.4682081 C308,28.5953757 306.54717,31.9855491 303.641509,34.933526 C300.735849,37.8815029 297.39434,39.2080925 293.326415,39.2080925 C289.258491,39.2080925 285.916981,37.734104 283.011321,34.933526 C280.10566,32.132948 278.65283,28.5953757 278.65283,24.4682081 C278.65283,20.4884393 280.10566,16.9508671 283.011321,14.0028902 C285.916981,11.0549133 289.403774,9.58092486 293.326415,9.58092486 C297.249057,9.58092486 300.735849,11.0549133 303.641509,14.0028902 C306.54717,16.9508671 308,20.4884393 308,24.4682081 Z M39.3716981,13.7080925 L25.1339623,13.7080925 L25.1339623,22.4046243 L35.8849057,22.4046243 L35.8849057,26.0895954 L25.1339623,26.0895954 L25.1339623,35.3757225 L39.3716981,35.3757225 L39.3716981,39.0606936 L21.5018868,39.0606936 L21.5018868,10.0231214 L39.3716981,10.0231214 L39.3716981,13.7080925 Z M58.2584906,39.0606936 L53.3188679,39.0606936 L42.8584906,10.0231214 L46.6358491,10.0231214 L55.7886792,35.2283237 L59.8566038,24.0260116 L54.7716981,9.87572254 L58.5490566,9.87572254 L61.745283,18.7196532 L64.7962264,9.87572254 L68.5735849,9.87572254 L63.4886792,24.0260116 L67.5566038,35.2283237 L76.5641509,10.0231214 L80.3415094,10.0231214 L70.0264151,38.9132948 L65.0867925,38.9132948 L61.745283,29.4797688 L58.2584906,39.0606936 Z M101.843396,13.7080925 L87.6056604,13.7080925 L87.6056604,22.4046243 L98.3566038,22.4046243 L98.3566038,26.0895954 L87.6056604,26.0895954 L87.6056604,35.3757225 L101.843396,35.3757225 L101.843396,39.0606936 L83.9735849,39.0606936 L83.9735849,10.0231214 L101.843396,10.0231214 L101.843396,13.7080925 Z M112.59434,35.3757225 L126.832075,35.3757225 L126.832075,39.0606936 L108.962264,39.0606936 L108.962264,10.0231214 L112.449057,10.0231214 L112.59434,35.3757225 Z M201.943396,39.0606936 L198.456604,39.0606936 L198.456604,10.0231214 L201.943396,10.0231214 L201.943396,22.699422 L216.181132,22.699422 L216.181132,10.0231214 L219.667925,10.0231214 L219.667925,39.0606936 L216.181132,39.0606936 L216.181132,26.3843931 L201.943396,26.3843931 L201.943396,39.0606936 Z M244.801887,13.7080925 L230.564151,13.7080925 L230.564151,22.4046243 L241.315094,22.4046243 L241.315094,26.0895954 L230.564151,26.0895954 L230.564151,35.3757225 L244.801887,35.3757225 L244.801887,39.0606936 L226.932075,39.0606936 L226.932075,10.0231214 L244.801887,10.0231214 L244.801887,13.7080925 Z M255.55283,39.0606936 L252.066038,39.0606936 L252.066038,10.0231214 L267.175472,10.0231214 C269.354717,10.0231214 271.243396,10.9075145 272.841509,12.3815029 C274.439623,14.0028902 275.166038,15.9190751 275.166038,18.1300578 C275.166038,20.1936416 274.439623,22.1098266 273.132075,23.583815 C271.679245,25.2052023 270.081132,26.0895954 267.901887,26.2369942 L275.166038,38.9132948 L270.95283,38.9132948 L263.833962,26.2369942 L255.55283,26.2369942 L255.55283,39.0606936 Z M160.101887,32.7225434 L163.007547,36.2601156 L186.979245,8.10693642 L183.492453,5.30635838 L160.101887,32.7225434 Z M304.513208,24.4682081 C304.513208,21.3728324 303.496226,18.867052 301.171698,16.5086705 C298.84717,14.150289 296.377358,13.265896 293.326415,13.265896 C290.275472,13.265896 287.660377,14.2976879 285.481132,16.6560694 C283.301887,18.867052 282.139623,21.5202312 282.139623,24.6156069 C282.139623,27.7109827 283.156604,30.3641618 285.481132,32.5751445 C287.80566,34.7861272 290.275472,35.9653179 293.326415,35.9653179 C296.377358,35.9653179 298.992453,34.933526 301.171698,32.5751445 C303.350943,30.216763 304.513208,27.5635838 304.513208,24.4682081 Z M179.569811,1.91618497 L158.939623,1.91618497 C158.939623,1.91618497 158.939623,1.91618497 158.79434,1.91618497 L139.035849,1.91618497 L135.839623,4.42196532 L158.79434,31.3959538 L182.184906,4.12716763 L179.569811,1.91618497 Z M267.175472,13.7080925 L255.55283,13.7080925 L255.55283,22.699422 L267.175472,22.699422 C268.483019,22.699422 269.5,22.2572254 270.226415,21.3728324 C271.098113,20.4884393 271.533962,19.4566474 271.533962,18.2774566 C271.533962,17.0982659 271.098113,15.9190751 270.226415,15.1820809 C269.354717,14.150289 268.337736,13.7080925 267.175472,13.7080925 Z" id="Shape"></path>
                </g>
            </g>
        </g>
    </g>
</svg>