<?xml version="1.0" encoding="UTF-8"?>
<svg width="130px" height="35px" viewBox="0 0 130 35" version="1.1" xmlns="http://www.w3.org/2000/svg" xmlns:xlink="http://www.w3.org/1999/xlink">
    <!-- Generator: Sketch 52.5 (67469) - http://www.bohemiancoding.com/sketch -->
    <title>Fill 1</title>
    <desc>Created with Sketch.</desc>
    <g id="desktop" stroke="none" stroke-width="1" fill="none" fill-rule="evenodd">
        <g id="Menu" transform="translate(-120.000000, -56.000000)" fill="#000000">
            <path d="M240.543372,79.2550452 C240.542412,80.0333249 241.259652,80.5963985 242.315829,80.8351889 L244.406098,81.2714972 C246.878512,81.7932984 250.004795,82.5755088 249.999994,85.8625615 C249.995194,89.1486314 246.760412,91.0039245 243.569798,90.9999938 C239.641781,90.9940977 237.06663,88.9796111 236.521259,85.6060829 L240.11322,85.6109963 C240.511687,87.2550139 241.778139,88.0136401 243.658133,88.0156055 C244.884258,88.0175708 246.279372,87.6087774 246.281292,86.3116446 C246.282252,85.2945745 245.099334,84.7963575 243.431535,84.4268712 L241.572664,84.0347833 C239.081047,83.4913633 236.820829,82.2767752 236.82467,79.4663206 C236.82947,76.2657435 240.190993,74.7779714 243.190535,74.7828848 C246.190077,74.7868155 249.040794,76.1311169 249.564082,79.5921032 L245.993244,79.5871898 C245.637024,78.4178049 244.517477,77.7466369 242.975459,77.7446716 C241.580346,77.7427062 240.545292,78.2821956 240.543372,79.2550452 Z M224.187035,79.2324437 C224.186075,80.0107234 224.903315,80.573797 225.959491,80.8125873 L228.049761,81.247913 C230.521215,81.7706968 233.646538,82.5529073 233.642697,85.8399599 C233.638857,89.1260298 230.403115,90.9823056 227.213461,90.9773922 C223.283524,90.9724788 220.710293,88.9579922 220.163962,85.5834813 L223.756883,85.5883947 C224.15535,87.2324124 225.421802,87.9910386 227.301796,87.9939866 C228.526961,87.995952 229.922075,87.5861759 229.923995,86.2880603 C229.924955,85.2719729 228.742997,84.773756 227.074238,84.403287 L225.215367,84.0121818 C222.72279,83.467779 220.464492,82.2551563 220.468333,79.4427364 C220.473133,76.2441247 223.833696,74.7553699 226.834198,74.7602833 C229.83374,74.764214 232.683497,76.1085153 233.206784,79.568519 L229.636907,79.5636056 C229.279727,78.396186 228.16114,77.7240354 226.618162,77.72207 C225.224008,77.7201046 224.187995,78.2586113 224.187035,79.2324437 Z M204.820594,71.8771107 L204.799471,56.2014564 L216.547036,56.1857336 L216.550877,59.4501847 L208.417356,59.4609941 L208.421197,62.3490801 L216.564319,62.3392533 L216.56816,65.6037044 L208.425037,65.6145138 L208.428878,68.6293651 L216.561439,68.6185557 L216.56624,71.8613878 L204.820594,71.8771107 Z M204.820594,90.7700475 L204.799471,75.0934106 L216.547036,75.0776878 L216.550877,78.3421388 L208.417356,78.3539309 L208.421197,81.2410343 L216.564319,81.2312075 L216.56816,84.4956586 L208.425037,84.506468 L208.428878,87.5213192 L216.561439,87.5105098 L216.56624,90.753342 L204.820594,90.7700475 Z M193.964057,78.3735845 L193.98038,90.783805 L190.367295,90.7887183 L190.347132,75.1130641 L201.312167,75.098324 L201.316968,78.3637577 L193.964057,78.3735845 Z M178.192458,87.5625917 L178.177095,75.1297696 L181.811304,75.1248562 L181.826666,87.5576783 L186.74941,87.5507995 L186.754211,90.7936317 L173.295639,90.8123026 L173.291798,87.5694704 L178.192458,87.5625917 Z M169.683514,75.2211585 L169.703678,90.8968127 L166.090593,90.9017261 L166.07043,75.2260719 L169.683514,75.2211585 Z M150.856684,75.1661286 L154.258533,75.1621979 L157.696868,87.7198199 L157.680546,75.1572845 L161.188012,75.1523712 L161.208176,90.8280254 L155.567232,90.8358868 L152.552327,79.5970166 L149.630558,90.8447309 L143.926244,90.8525923 L143.90608,75.1759554 L147.412587,75.171042 L147.42891,87.7119585 L150.856684,75.1661286 Z M139.025584,75.1828341 L139.045747,90.859471 L135.432663,90.8634017 L135.412499,75.1877475 L139.025584,75.1828341 Z M123.616925,78.4669387 L123.632288,90.8781419 L120.020163,90.8830553 L120,75.2064184 L130.965035,75.1926609 L130.968876,78.457112 L123.616925,78.4669387 Z M240.543372,60.4947697 C240.542412,61.2730494 241.259652,61.836123 242.315829,62.0758961 L244.406098,62.5112217 C246.878512,63.0330229 250.004795,63.816216 249.999994,67.1022859 C249.995194,70.3893386 246.760412,72.2446316 243.569798,72.2397183 C239.641781,72.2348049 237.06663,70.2203182 236.521259,66.8467901 L240.11322,66.8507208 C240.511687,68.4947384 241.778139,69.2533646 243.658133,69.2563127 C244.884258,69.2572953 246.279372,68.8485019 246.281292,67.5513691 C246.282252,66.5352817 245.099334,66.036082 243.431535,65.6665957 L241.572664,65.2745078 C239.081047,64.7310877 236.820829,63.5174824 236.82467,60.7060451 C236.82947,57.5064507 240.190993,56.0186786 243.190535,56.0226093 C246.190077,56.02654 249.040794,57.3708414 249.564082,60.8318277 L245.993244,60.8269143 C245.637024,59.6585121 244.517477,58.9873441 242.975459,58.9853787 C241.580346,58.9834134 240.545292,59.5219201 240.543372,60.4947697 Z M224.187035,60.4721681 C224.186075,61.2504479 224.903315,61.8135215 225.959491,62.0532945 L228.049761,62.4886202 C230.521215,63.0104213 233.646538,63.7936144 233.642697,67.0796844 C233.638857,70.366737 230.403115,72.2220301 227.213461,72.2171167 C223.283524,72.2122033 220.710293,70.1977167 220.163962,66.8241885 L223.756883,66.8281192 C224.15535,68.4721369 225.421802,69.2307631 227.301796,69.2337111 C228.526961,69.2356764 229.922075,68.8259004 229.923995,67.5287675 C229.924955,66.5126801 228.742997,66.0134805 227.074238,65.6439941 L225.215367,65.2519062 C222.72279,64.7084862 220.464492,63.4948808 220.468333,60.6834436 C220.473133,57.4838492 223.833696,55.9960771 226.834198,56.0000078 C229.83374,56.0039385 232.683497,57.3492225 233.206784,60.8092262 L229.636907,60.8043128 C229.279727,59.6359105 228.16114,58.9647425 226.618162,58.9627772 C225.224008,58.9608118 224.187995,59.4993185 224.187035,60.4721681 Z M201.316968,68.6372265 L201.312167,71.9016776 L190.347132,71.8869374 L190.367295,56.2112832 L193.98038,56.2161966 L193.964057,68.6273997 L201.316968,68.6372265 Z M173.291798,59.4315138 L173.295639,56.187699 L186.754211,56.2063698 L186.74941,59.449202 L181.826666,59.4423233 L181.811304,71.8751453 L178.177095,71.8702319 L178.192458,59.4374099 L173.291798,59.4315138 Z M166.07043,71.9341059 L166.090593,56.2584517 L169.703678,56.263365 L169.683514,71.9390193 L166.07043,71.9341059 Z M147.42891,59.2880431 L147.412587,71.8289595 L143.90608,71.8240461 L143.926244,56.1483919 L149.630558,56.1562533 L152.552327,67.4029849 L155.567232,56.1641147 L161.208176,56.1719761 L161.188012,71.8476304 L157.680546,71.842717 L157.696868,59.2801817 L154.258533,71.8378036 L150.856684,71.8338729 L147.42891,59.2880431 Z M135.412499,71.812254 L135.432663,56.1365998 L139.045747,56.1415132 L139.025584,71.8171674 L135.412499,71.812254 Z M130.968876,68.5428896 L130.965035,71.8073406 L120,71.7935832 L120.020163,56.1179289 L123.632288,56.1218596 L123.616925,68.5330628 L130.968876,68.5428896 Z" id="Fill-1"></path>
        </g>
    </g>
</svg>