<?xml version="1.0" encoding="UTF-8"?><svg id="Ebene_1" data-name="Ebene 1" xmlns="http://www.w3.org/2000/svg" viewBox="0 0 606.25 453.53"><defs><style>.cls-1{fill:#da0000;}</style></defs><title>Twinred-Logo-RGB</title><path d="M360.76,187.63c35.68-5.8,56.11-36.29,56.11-71,0-23.48-9.15-46.65-27.75-61.59-19.51-15.55-45.74-16.16-69.52-16.16H304.22V89.44h20.26c19.82,0,37.2,8.24,37.2,30.5,0,23.17-16.16,32.32-37.81,32.32H304.22v39.57l52,72.64h65.86Z"/><path class="cls-1" d="M290.13,89.45v175H232.51v-175H172.38V38.83H290.13V89.45Z"/><path d="M120.59,338.87l1.88,11.38c-3.52-1.53-8.33-1.76-11.62-1.76H99.36v55.37A30.24,30.24,0,0,0,100.77,414H75.9a30.48,30.48,0,0,0,1.4-10.09V348.49H65.81c-3.29,0-8.1.23-11.62,1.76l1.88-11.38Z"/><path d="M116.84,374.3c-2.12-7.75-3.52-11.73-5.75-15.49H134.9a17.29,17.29,0,0,0-.35,3.76c0,5.39,3.87,14.89,9.5,36.13h.24L154,358.81h23.7l11.14,39.89h.24L197,365.62a26.67,26.67,0,0,0,.82-4.81,8.24,8.24,0,0,0-.24-2h11.27c-1.41,1.53-2.11,4.46-7.51,25.57L193.79,414H172.56l-12.2-44.46-.24-.12L149.33,414H127.75Z"/><path d="M235.32,358.81v42.7c0,6.57.47,9.86,1.17,12.44H213.73c.71-2.58,1.18-5.87,1.18-12.44V371.25c0-6.57-.47-9.86-1.18-12.44ZM235,340.28v13.13H215.26V340.28Z"/><path d="M266.11,358.81l.47,5.63h.23c1.41-4.34,2.93-5.63,6.34-5.63h25.1c9.39,0,13.84,4.58,13.84,14.78v27.92c0,6.57.47,9.86,1.18,12.44H290.51c.7-2.58,1.17-5.87,1.17-12.44v-30c0-2.93-.82-4-3.52-4H270.8c-2.7,0-3.52,1.06-3.52,4v30c0,6.57.47,9.86,1.17,12.44H245.7c.7-2.58,1.17-5.87,1.17-12.44V371.25c0-6.57-.47-9.86-1.17-12.44Z"/><path d="M351.75,403.86A30.49,30.49,0,0,0,353.16,414H328.29a30.24,30.24,0,0,0,1.41-10.09V349a30.24,30.24,0,0,0-1.41-10.09h59.48c9.38,0,14.9,4.69,14.9,14.54v15.25c0,6.69-2.7,11.27-11.62,12.56L400.79,406a21.37,21.37,0,0,0,5.4,8H381.08l-12.9-33.08H351.75Zm0-32.61h25.7c2.81,0,3.87-1.29,3.87-5.05V353.53c0-3.75-1.06-5-3.87-5h-25.7Z"/><path d="M430.59,391.42v9.86c0,2.93.82,4,3.52,4h35.54a35.74,35.74,0,0,0,6.45-.71L474.46,414H424c-9.39,0-13.85-4.58-13.85-14.78V373.59c0-10.2,4.46-14.78,13.85-14.78h38.24c9.38,0,13.84,4.58,13.84,14.78v17.83Zm25.1-8.68V371.48c0-2.93-.82-4-3.52-4H434.11c-2.7,0-3.52,1.06-3.52,4v11.26Z"/><path d="M529.59,408.79h-.23c-.82,2.93-2.82,5.16-5.87,5.16H497.92c-9.38,0-13.84-4.58-13.84-14.78V373.59c0-10.2,4.46-14.78,13.84-14.78h24.64a5.17,5.17,0,0,1,3.87,1.17c1.05.83,1.76,2.23,2.69,4.46h.47V351.3c0-6.57-.47-9.85-1.17-12.43H550v62.64c0,6.57.47,9.86,1.17,12.44H530.77Zm-3.52-3.52c2.7,0,3.52-1.06,3.52-4v-29.8c0-2.93-.82-4-3.52-4H508c-2.7,0-3.52,1.06-3.52,4v29.8c0,2.93.82,4,3.52,4Z"/></svg>