<svg xmlns="http://www.w3.org/2000/svg" viewBox="0 0 81.07 45.4">
  <title>ui</title>
  <g id="Layer_2" data-name="Layer 2">
    <g id="Layer_1-2" data-name="Layer 1">
      <g id="Logo">
        <path d="M22.7,0A22.7,22.7,0,1,0,45.4,22.7v0h0A22.62,22.62,0,0,0,22.84,0Zm-.2,25.6a9.08,9.08,0,0,1-.3,2.3,4.55,4.55,0,0,1-.8,1.9,4.71,4.71,0,0,1-1.5,1.3,5.85,5.85,0,0,1-2.2.5,4.19,4.19,0,0,1-2.2-.5,3,3,0,0,1-1.4-1.3,4.76,4.76,0,0,1-.8-1.8,8.58,8.58,0,0,1-.23-2.32V15.2h2V25.4a9.15,9.15,0,0,0,.1,1.6,5,5,0,0,0,.4,1.3,2.36,2.36,0,0,0,.8.9,2.08,2.08,0,0,0,1.3.3,2.77,2.77,0,0,0,1.3-.3,3.45,3.45,0,0,0,.8-.9,3.26,3.26,0,0,0,.4-1.3,8.08,8.08,0,0,0,.1-1.6V15.2h2ZM31.7,31l-3-6.7-3,6.7H23.6l4-8.4L24,15.1h2.2L28.8,21l2.6-5.9h2.1l-3.6,7.5,4,8.3Z"/>
        <path d="M58.4,0A22.7,22.7,0,1,0,81.07,22.73v0h0A22.68,22.68,0,0,0,58.4,0Zm2.1,25.6a9.08,9.08,0,0,1-.3,2.3,3.7,3.7,0,0,1-.8,1.8A4.71,4.71,0,0,1,57.9,31a5.85,5.85,0,0,1-2.2.5,4.19,4.19,0,0,1-2.2-.5,3.33,3.33,0,0,1-1.4-1.2,4.76,4.76,0,0,1-.8-1.8,8.58,8.58,0,0,1-.23-2.32V15.2h2V25.4a9.15,9.15,0,0,0,.1,1.6,5,5,0,0,0,.4,1.3,2.36,2.36,0,0,0,.8.9,2.08,2.08,0,0,0,1.3.3,2.77,2.77,0,0,0,1.3-.3,3.45,3.45,0,0,0,.8-.9,3.26,3.26,0,0,0,.4-1.3,8.08,8.08,0,0,0,.1-1.6V15.2h2ZM65.4,31h-2V15.2h2Z"/>
      </g>
    </g>
  </g>
</svg>
